<svg xmlns="http://www.w3.org/2000/svg" viewBox="0 0 331.48 220.47">
  <defs>
    <style>
      .cls-1, .cls-3 {
        fill: none;
        stroke-miterlimit: 22.93;
      }

      .cls-1 {
        stroke: #fff;
        stroke-width: 2.75px;
      }

      .cls-19, .cls-2 {
        fill: #fff;
      }

      .cls-10, .cls-11, .cls-12, .cls-13, .cls-14, .cls-15, .cls-16, .cls-2, .cls-4, .cls-5, .cls-6, .cls-7, .cls-8, .cls-9 {
        fill-rule: evenodd;
      }

      .cls-3 {
        stroke: #e30613;
        stroke-width: 2.62px;
      }

      .cls-4 {
        fill: #322116;
      }

      .cls-5 {
        fill: #fff1d8;
      }

      .cls-6 {
        fill: #e6b889;
      }

      .cls-7 {
        fill: #da2320;
      }

      .cls-8 {
        fill: #a91917;
      }

      .cls-9 {
        fill: #eb5e61;
      }

      .cls-10 {
        fill: #821c15;
      }

      .cls-11 {
        fill: #b6251e;
      }

      .cls-12 {
        fill: #fdc100;
      }

      .cls-13 {
        fill: #be7157;
      }

      .cls-14 {
        fill: #fffefa;
      }

      .cls-15 {
        fill: #dd8809;
      }

      .cls-16 {
        fill: #ffee53;
      }

      .cls-17 {
        fill: #e30613;
      }

      .cls-18 {
        fill: #fc0;
      }
    </style>
  </defs>
  <g id="Capa_2" data-name="Capa 2">
    <g id="Capa_1-2" data-name="Capa 1">
      <g>
        <circle class="cls-1" cx="161.4" cy="93.74" r="87.62" transform="translate(-19.01 141.59) rotate(-45)"/>
        <path class="cls-2" d="M161.42,181.34A87.62,87.62,0,1,0,73.8,93.72a87.62,87.62,0,0,0,87.62,87.62"/>
        <circle class="cls-3" cx="161.41" cy="93.72" r="83.51" transform="translate(-13.59 28.83) rotate(-9.8)"/>
        <path class="cls-2" d="M161.42,177.23A83.51,83.51,0,1,0,77.91,93.72a83.51,83.51,0,0,0,83.51,83.51"/>
        <path class="cls-4" d="M147.57,15.1A11.85,11.85,0,0,1,151,12.85c1.46-.71,4-.85,5-1.36-2.06-1.89-7.24.84-8.49,2a17.4,17.4,0,0,0-1.92,2c.65-.13,1.32-.26,2-.37"/>
        <path class="cls-4" d="M84.08,113.58c-.35-.46-.63-.64-1.08-1.17l-3.31-4.5c-4-6-5.92-10.74-9.47-16.63-.7-1.17-1.23-2-2-3.12-2.07-3.12-2.11-3.7-4.06-4-3.7-.6-6.4-1.69-10.86-2.06a23.92,23.92,0,0,0-13,2.06,21.05,21.05,0,0,1-3.69,1.43c-1.18-1.76-2.36-2-1.08-4.85S40,75.92,42.6,74.32A14.71,14.71,0,0,1,45,73.19l2.16-1.07c-3.6-.84-12.66-2.33-14.53-3.23,0-1.68.87-2.2,1.87-3a17,17,0,0,1,3-1.89c4.64-2.26,11.09-2.34,16.35-1.53,2.36.36,7.09,1.76,7.61,1.81l-1-.85c-1-.73-4.7-3.07-5-3.64A3.06,3.06,0,0,1,55.67,57c2.27-3.15,10.06-.76,11.37-.74,0-5.05,4.57-9.83,7.36-4.93,2.31,4,1.77,5.08,7.6,8.82,1.56,1,3,1,5.79,2.7-.37.88-.72,1.77-1.06,2.66-2.72-.29-4.67.33-5.11.17.63-1.48,3.81-1.3,5.46-1.5-3.72-1.42-2.56-2.2-8.9-3.13.11-.55,0-.23.36-.57l.15-.11.16-.09.53-.25c-1.09-.94-2-1.45-2.84-2.24-1.09-1-1.28-1.87-2.21-2.89-.61-1.43-1.27-3.24-2.44-4-2.59.18-3.37,3.44-3.51,6.23,2.07.66,2.78,1.72,4.16,1.93A20.61,20.61,0,0,0,76,61.91c1,1.54,3,2.91,4,5.13,1.94-.11,2.46.16,3.21,1.37l-2.4-.47c.35,1.06.54.9.52,2-1-.1-1.53-1.14-2.21-2-2.21-2.72-3.69-4.91-6.72-7-3.24-2.25-9-4.89-14.18-3.69-1.17.48-2.16,1.24-.6,2.32l5,3.64c2.57,2,9.49,8.59,8.32,12.81-.7.27-.72-1.17-2-3.48-2.9-5.08-4.73-5.92-11-7.58a39.24,39.24,0,0,0-10.69-1.42c-2.62,0-8.41.8-9.76,2.41a5.62,5.62,0,0,0-2.52,1.89c4.42,3.3,7.81-2.69,25.42,10.3,1.53,1.13.55,1.25.55,1.25-.79.42-2.44-1.16-3.18-1.63-1.71-1.11-3.42-2.3-5.25-3.34-3.15-1.79-2.58-1.86-6-.3s-9,4.68-9.53,7.62c-.27.61-.39,1.74.49,1.8s6.53-4.32,16.95-3c7.27.92,12.76,3.26,20.67,3.29-.06.23.22.38-1.25.65a25.38,25.38,0,0,1-6.09.14c.82,1.22,1.69,2.26,2.64,3.63,4,5.75,8.24,15.79,13,22,.24,1.12.49,2.23.77,3.33"/>
        <path class="cls-4" d="M87.36,123.56c-2.56.19-5.56-.11-6.59-1.65,1.56-1.8,3.16-2.2,4-3-2.77,0-5.9-.35-6.46-2.42.63-.86,4.46-2.32,5.82-2.67.1.41.22.82.33,1.23l-.44.14a18,18,0,0,0-3.45,1.61c1.29,1,3,.8,4.57.59.27.86.55,1.7.85,2.54-1.09.69-2.26,1.28-2.84,1.62a5.62,5.62,0,0,0,3.65.62l.53,1.35"/>
        <path class="cls-4" d="M150.18,0h3.29a15.74,15.74,0,0,1,7.84,3.15c3.42,2.56,8.69,7.35,10.26,11.39l-1.12-.13a8.71,8.71,0,0,0-1-1.87l-1.56-1.75-.17-.14A20,20,0,0,0,165.91,9c-2-1.73-3.07-3.3-6-5.29A12.63,12.63,0,0,0,148.14,2c-4.87,1.57-9.92,5.42-12.24,9.82-.68,1.3-2,3.79-2,5.55a4,4,0,0,0-.76,1.71c-.61.23-1.23.47-1.84.72a25.32,25.32,0,0,1,2.46-7.39c3.5-7,9.82-11.69,16.4-12.38"/>
        <path class="cls-5" d="M86,120c-1.09.69-2.26,1.28-2.84,1.62a5.62,5.62,0,0,0,3.65.62c-.28-.74-.55-1.48-.81-2.24m-1.53-4.88-.44.14a18,18,0,0,0-3.45,1.61c1.29,1,3,.8,4.57.59C84.93,116.66,84.71,115.88,84.49,115.09Z"/>
        <path class="cls-5" d="M70.84,76c-.7.27-.72-1.17-2-3.48-2.9-5.08-4.73-5.92-11-7.58a39.24,39.24,0,0,0-10.69-1.42c-2.62,0-8.41.8-9.76,2.41.72.55,2.87.44,4,.71C52.77,69.48,62.69,78.45,64.9,78.87c5.31,1,12.83,1.3,18.08,0a79.79,79.79,0,0,1,3.75-13.36c-2.72-.29-4.67.33-5.11.17.63-1.48,3.81-1.3,5.46-1.5-3.72-1.42-2.56-2.2-8.9-3.13-1.21.11-1.63.06-2.22.88,1,1.54,3,2.91,4,5.13,1.94-.11,2.46.16,3.21,1.37l-2.4-.47c.35,1.06.54.9.52,2-1-.1-1.53-1.14-2.21-2-2.21-2.72-3.69-4.91-6.72-7-3.24-2.25-9-4.89-14.18-3.69.53.79,1.71,1.31,2.87,2.09,8.31,5.59,8.44,10.91,12.12,15.59.7.88,1.75,1.51,1.62,2.77a2.92,2.92,0,0,1-2.81-1,2.5,2.5,0,0,0-.58-.4c-.07,0-.21,0-.26-.12s-.17-.09-.26-.13"/>
        <path class="cls-6" d="M57.63,77.74c-.74.72-4.65.66-5.92.66-4.13,0-12.55.64-14.44,4-.42-.36-.31.54-.38-.69-.27.61-.39,1.74.49,1.8s6.53-4.32,16.95-3c7.27.92,12.76,3.26,20.67,3.29-.06.23.22.38-1.25.65a25.38,25.38,0,0,1-6.09.14c.82,1.22,1.69,2.26,2.64,3.63,4,5.75,8.24,15.79,13,22A80.26,80.26,0,0,1,83,78.85c-5.25,1.32-12.77,1-18.08,0-2.21-.42-12.13-9.39-23.58-12.23-1.09-.27-3.24-.16-4-.71a5.62,5.62,0,0,0-2.52,1.89c4.42,3.3,7.81-2.69,25.42,10.3,1.53,1.13.55,1.25.55,1.25-.79.42-2.44-1.16-3.18-1.63"/>
        <path class="cls-7" d="M157.9,13.33a.9.9,0,0,1-.33.66c1-.05,2.09-.07,3.15-.08,3.28-3.21,5.87-2.45,7-3.26A20,20,0,0,0,165.91,9c-2-1.73-3.07-3.3-6-5.29A12.63,12.63,0,0,0,148.14,2c-4.87,1.57-9.92,5.42-12.24,9.82-.68,1.3-2,3.79-2,5.55a12.62,12.62,0,0,0,.24,1.33l1.54-.54c-.35-1.48,0-4.15,2.25-7.79C142.48,3,152.88-.45,158.18,5c-3.63-.41-3.89-2.13-8.47-.65a19.32,19.32,0,0,0-6.22,4c-4.35,3.81-4.84,7-5.26,9q3.61-1.09,7.36-1.85a17.4,17.4,0,0,1,1.92-2c1.25-1.14,6.43-3.87,8.49-2-.93.51-3.52.65-5,1.36-.17.36-.77,1.05-1.4,1.92,1-.15,2-.28,3-.39a7.26,7.26,0,0,1,5.27-1.05"/>
        <path class="cls-8" d="M163.47,13.92c1.37-1.55,2.79-2.37,4.42-1.57-.71.64-1.08.41-1.78.87s-.28.15-.68.64a9.25,9.25,0,0,1,3.64.4l1.38.15a8.71,8.71,0,0,0-1-1.87l-1.56-1.75-.17-.14c-1.09.81-3.68,0-7,3.26h.7l2.05,0M151,12.85a11.85,11.85,0,0,0-3.45,2.25c.68-.12,1.37-.23,2.05-.33C150.25,13.9,150.85,13.21,151,12.85Z"/>
        <path class="cls-8" d="M134.16,18.67a12.62,12.62,0,0,1-.24-1.33,4,4,0,0,0-.76,1.71l1-.38"/>
        <path class="cls-5" d="M36.89,81.72c.07,1.23,0,.33.38.69,1.89-3.37,10.31-4,14.44-4,1.27,0,5.18.06,5.92-.66-1.71-1.11-3.42-2.3-5.25-3.34-3.15-1.79-2.58-1.86-6-.3s-9,4.68-9.53,7.62"/>
        <path class="cls-9" d="M158.18,5C152.88-.45,142.48,3,138,10.34c-2.23,3.64-2.6,6.31-2.25,7.79.84-.28,1.68-.55,2.53-.81.42-2,.91-5.14,5.26-9a19.32,19.32,0,0,1,6.22-4c4.58-1.48,4.84.24,8.47.65"/>
        <path class="cls-6" d="M70.84,76c.09,0,.21,0,.26.13s.19.08.26.12a2.5,2.5,0,0,1,.58.4,2.92,2.92,0,0,0,2.81,1c.13-1.26-.92-1.89-1.62-2.77-3.68-4.68-3.81-10-12.12-15.59-1.16-.78-2.34-1.3-2.87-2.09-1.17.48-2.16,1.24-.6,2.32l5,3.64c2.57,2,9.49,8.59,8.32,12.81"/>
        <path class="cls-5" d="M72.54,59.06c1.42-.38,2.3-2.19,1.79-4.18-.61-1.43-1.27-3.24-2.44-4-2.59.18-3.37,3.44-3.51,6.23,2.07.66,2.78,1.72,4.16,1.93"/>
        <path class="cls-6" d="M72.54,59.06A20.61,20.61,0,0,0,76,61.91c.59-.82,1-.77,2.22-.88.11-.55,0-.23.36-.57l.15-.11.16-.09.53-.25c-1.09-.94-2-1.45-2.84-2.24-1.09-1-1.28-1.87-2.21-2.89.51,2-.37,3.8-1.79,4.18"/>
        <path class="cls-4" d="M170.06,16c3.17.2,6.2,6.65,7.16,9.71,1.38,4.44,1.8,8.91,3.91,12.71.46-.63.19-.92.07-1.86.69.77,1.18,1.51,1.81,2.19a9.79,9.79,0,0,1,1.64,2,2.47,2.47,0,0,1,.45.46L186.39,44a11,11,0,0,1-.19,4.4c-1.9,9.47-4.24,6.66-8,11.07-1,1.1-3.58,4.14-3.93,5.53.92-.83,1.85-2.47,2.89-2.93.42-.83,3.44-3.84,4.66-3.81.14,18.91,16.8,18.65,12.47,22.39-.25.22.07.24-1.27.37-.53,0-1,0-1.57.1a12.51,12.51,0,0,0-2.34.58c-1.72.57-2.46,1.62-4.43,1.2-5.53-1.18-3.83-2.53-6-5.07-.56-.67,0-.27-.81-.67.6,2.37,3,5.45,1.09,8.14a5.85,5.85,0,0,1-7,2l.5-3.41c-.2-3.69-3.08-7-4.57-9.76a10.16,10.16,0,0,1-1.47-5.71c.19-3.27.23-1.94,2.68-4.24,3.84-3.59,6.16-9.64,6.48-15.41a31.63,31.63,0,0,0,.06-3.51,20.57,20.57,0,0,0-.52-2.78c.36.39.54.28.78,1l.35,1.54c.46-2,.18-1.49-.37-3.33.91-.41.79-.26,1.24-1.08-1.88.47-2.09,1.6-6.43,2.77-9.29,2.51-9.12-1.54-2.52-4.34,3-1.26,4.58-1.08,7.84-1.43l-2-.26c.34-3.75.28-5.31-1.54-8.14s-6.49-6.23-10.07-4c-1.57,1-1.32,1.27-1.78,2.84-1.09,3.73-.81,5.1-.24,8.9-1-1.22-1.54-1.74-3.53-1.27.59-4.09,1.11-5.77.68-10,.69-.18-.69-.39.21.19.73.46-.5.43.26.07l-.28-.94c-.28-1,.21-1.09.93-1.91,4.12-4.72,3-9.49,9.42-8a6,6,0,0,1,1.2.4c.92.49.37.13.8.65M145.15,82.8l.34,2.64c-2.5,1.93-7.12,2.29-7.7-1.49-.48-3.13,2.54-5.81,3.48-8.3-1,.51-1.58,1.89-2.54,2.5-1.58,1-8.62,2.32-11.35-.61.18-1.39.74-1.7,1.79-2.19.3-.45,3.13-2.31,3.87-2.89a16.64,16.64,0,0,0,3.5-3.51,20,20,0,0,0,4.53-9.2c2,1.15,5.34,4,6,6.06.26-.27.8-.3-.12-1.69a16.62,16.62,0,0,0-3-3.43c-.77-.74-1.45-1.45-2.16-2.14a12.5,12.5,0,0,1-2-2.34c-2.6-4.29-2.74-11.35.4-13.11.3-1.28,2.05-2.76,3-3.67,1.47-1.5,2.59-2.18,3.06-3.11L149,29.13c.41-1.07.22-1.56,1.32-1.5-1.24,2.89-2.36,5.28-2.5,9.34-4.24,2.4-7.89,10-6.17,15.74.51,1.71,1.8,4.12,2.94,4.63l.27-.85c.07-.26.08-.56.17-.91,1.09-4.45,8.58-4.81,10-2.78s.1,5-.95,6.46c-2.32,3.33-4.93,1.8-5.91,1.64-.39,2,3.25,5.75,4.23,6.31-.43,2.57-3.09,5.39-4.41,7.23A12.4,12.4,0,0,0,145.15,82.8Zm3.67-46.65a19.58,19.58,0,0,1,2.12-7.41c.89-1.82,1-1.1,2.78-1.8,1.26-.49,1.83-1.13,2.87-1.6a12.88,12.88,0,0,1,.32,4.81c-.52-.89-.13-.85-1-1.23-1.79.91-1.66,4.37-1.8,6.75C151.78,35,150.82,35.59,148.82,36.15Zm19.38,2.08a21.26,21.26,0,0,1-2.29,1.15c-.86.47-1.28.87-2,1.29-4.94-3.23-4.32-13.55-.06-15.18,4.88-1.86,11.65,7,9,11.71Zm-2.87,7,3.85-.39c-.84,5.82-6.14,8-12.32,6.65-2.64-.57-5.34-1.6-8.17-.79a6.6,6.6,0,0,0-4.63,5l-.89-1.93c-2.3-8.79,3.71-17.14,9.18-17.21,2.67,0,4.37,2,6.08,2.82,0-1.67-1.44-.79-1.91-2.93,3.88-1.34,1.7,1,6.44,5.21C162.22,43.89,163.19,45,165.33,45.23Zm9-2.35c.87,3.27,0,9-1,12.23-4.11,13.4-19.75,16.7-23.86,7.28,6.29-.14,8-6.69,6.44-9.85l1.41.36c.67,2,.62,4.88-.6,6.35-1.5,1.8-2.57,2.28-2,5.31l-3.37-1.36c8.26,7.7,17.85-.48,20.54-8.94,1.49-4.71,1-5.95,1.13-10.71ZM161.74,58.72c.51-.52.37-.6.82-1.14.32-.37.67-.66.95-.94a5.38,5.38,0,0,1,2.35-1.7c1.07-1.27,3.21-1,4.27,0,.42,1.18-2.63,5.25-3.32,6.11A13.22,13.22,0,0,1,161,64.9c-8.68,2.7-5.78-6.42.45-7.67-.6,1.65-2.05,2.93-2.82,6.5.89-.36.5-.93,1.36-2.51.25-.46.49-.84.8-1.34ZM167.87,77c.75.54,7.29,8.7-.48,12.35-4.11,1.94-10.95,1.19-9.95-7.28.32-1.79.68-3.5.91-5.34.17-1.41.53-4.19-.33-5.39-.11,4.73-2.3,9.8-1.86,14,.57,3.59,1.45,3.46,2.88,5.11-.86,1.58-3.44,2.66-6,1.79-7-2.34-8-12.55-4.19-16.67,1.3-2.28,3.78-4.8,4.29-7.71,6.31,1.78,7.3,1.06,12.79-1.12-.4,2.41-.72,3.33,0,5.86C166.39,74.32,167.65,75.9,167.87,77ZM186.8,85c.09-.59.14-.47.93-.94a10.1,10.1,0,0,1,5-1.4c6.11-.3,13.74,3.54,18.47,6.47s15.86,10.4,19.25,14.1a11.54,11.54,0,0,1,2.26,3.14,21.86,21.86,0,0,1-5.27-1.36c-.37.17-.25-.4-.29.71.69.25,3,3.07,3.56,4a11,11,0,0,1,1.94,5.78,5,5,0,0,1-.9,2.68c-1.59-.45-2.82-2-3.77-3-.65-.68-2.16-3.81-2.92-3.15,1,2.73,3.66,6.94,1.82,10.53-.64,1.49-1.15,2.31-2.67,2.77-3.17-1.74.66-5.45-1.34-7.57-.83.62-.79,2.29-1.05,3.37-1,4-4,7.73-6.92,10a65.11,65.11,0,0,1-7.39,5.26c-2.7,1.64-18.5,9.74-19.4,14.29,1.81-.8,3.61-3.36,5.69-4.26a7,7,0,0,1,2.94,5.33,16.93,16.93,0,0,1-1.55,6.73c.23.4-.53.35.59.3.31-.75,1.62-3.62,2-4.31a5.15,5.15,0,0,1,.43,1.37,8.41,8.41,0,0,0,.15.94c.24.85-.22,0,.28.57a3.5,3.5,0,0,0-.32-4c-.88-1.29,0-1-.87-4.54-.61-2.41,2.36-5.06,5.11-4.88-1.33,4.69.2,6.16.51,8.37a3.42,3.42,0,0,1,1.14,3.12C204,156.54,203,157,202,157.6c-3.24,2.11-2.06,1.3-4.64,3.7-2,1.8-3,1.59-6.34,1a32.59,32.59,0,0,1-16.24-8.77c-2.51-2.7-5.79-8-2.57-11.51,1.34-2.76,7-7.76,10-11.71,1.14-1.48,2-2.62,3.1-4.17,2.08-2.83,3.77-5.85,5.74-8.79,3.61-5.41,5.56-5.37,7.64-7-1.19-.47-3.46.76-4.32,1.45-1.83,1.25-2.08,2.06-3.61,3.37a2.38,2.38,0,0,1-.42-.37,39.77,39.77,0,0,1-3.93-6,44.89,44.89,0,0,1-3.19-7.57C181.49,95.2,182.39,87.52,186.8,85ZM176,134.82c.43-1.84,9.81-19.63,10.5-22.6l3.5,4c-3.26,4.87-6.11,9.72-10,14.21l-1.86,2.17A8.83,8.83,0,0,1,176,134.82Zm19.06,10.77a1.65,1.65,0,0,1,.42-.44l4.71-2.83c2.08-1.17,1.87-.19,1.89-.17-2.67,1.72-2.69-.25-5.91,4.41Zm-45.52,27.08c1.45.21,2.92.38,4.4.52a10.27,10.27,0,0,0-4.59-.68Zm-64.4-55.24c.27.85.55,1.7.85,2.54,1.26-.79,2.42-1.71,2.44-2.53C87.77,117,86.54,117.25,85.17,117.43Zm-1.86-7.19c.24,1.12.49,2.23.77,3.34l.19.25-.11,0,.33,1.23c1.5-.43,1.73.06,3.15.65l.87-.29c-.26-.76-.93-.91-1.82-1.62A21.39,21.39,0,0,1,83.31,110.24ZM178,171.82l1.69-.37c-.28-2-.64-3.92-1.07-5.79-.77-3.32-2.46-7.28-2.81-8.77.89.23,8.64,7,16.41,7,2.13,0,3.29.4,4.77-.35,3.29-1.65,2.38-4.17,6.06-1.67l1.54-1c-.36-.21-.91-.49-2.3-1.39,3.11-2.81,3.45-2.39,6-1.13l.52-.38a4.27,4.27,0,0,1-1.44-1l-1.51-.3,0-3.45a8.4,8.4,0,0,0,3.95,1.11c1.22.08,2.31.14,3.3.22.57-.48,1.14-1,1.69-1.47-2.47-.26-5.05,0-7.26-.75a4.81,4.81,0,0,1-2.93-1.86c4.67.49,9.2-.72,13.69-.73l.63-.65c-4.39-.08-8.29,1.31-12.66,1-2.26-.16-2.1-.08-2.39-2.17,3.31,1.25,4.4,1.12,8.14.39,1.79-.35,6-1.67,7.49-1.58a6,6,0,0,1,2.45-.92c.45-.53.9-1.06,1.34-1.6-.6.1-1.42.29-4.66.75-.92.45-14.82,4.84-14.69.67,2,.08,2.53,1.08,5.72.61,5.54-.82,11.44-5.85,13.36-6.18.7-1.09,2.94-2.15,5.29-2.7.42-.64.83-1.28,1.23-1.93-3.48.48-6.66,2.47-9.45,4.3-1.23.81-2.23,1.4-3.49,2.17-2.46,1.48-5.71,3.08-8.73,3.13a7.67,7.67,0,0,1-2.71-.29c-1.13-.44-.52-.24-.52-1.89a6.22,6.22,0,0,0-1.35-.26c.27-1,.19-.22.31-.76v-1.18l3.69-2.15c4-2.44,13.75-8.68,14.85-13.41,1,.67,1.74,3.48,5-.06,1.45-1.55,2-3.45,2-6.4,1.07.29,1.5,1,2.46,1.33s1.28.15,1.91-1c2.52-4.6-.54-8.44-1.95-11.1,4,.33,5,.81,2.61-3.15-2.77-4.55-7.7-7.42-11.76-10.31s-6.16-4.42-10.48-7c-1-.57-1.92-1-2.92-1.65a42.13,42.13,0,0,0-9.23-4c-1.16-.36-2.55-.55-3.74-.83.56-2.42.06-3.63-3.11-5.5-4.44-2.62-6.82-5-8.57-10.28a27.86,27.86,0,0,1-1.51-7.9c2.9-.78,7-9.75,4.4-15.17-2.22-4.65-5.65-4.47-6.82-9.32-1.42-5.86-2.56-12.88-7.5-16.72-.77-.6-.82-.37-1.23-1.47a.76.76,0,0,0,0-.11l-1.12-.12c.05.11.09.23.14.35l-1.52-.5c-1.85-.18-3.72-.29-5.6-.34-2.94,3.32-5.73,10-10.21,11.74-7.66,2.9-11.06-5.42-5.69-10.57-.66.12-1.32.24-2,.38a8.74,8.74,0,0,0-2.05,5.2c.11,2.88.67,3.64,2.09,5.16a5.75,5.75,0,0,1-9.55,3.36c-3.29-2.8-3.54-7.52-2.92-10.15l-1.84.73c-.48,3.25,0,6.51,2.25,9,6.36,6.79,12.82,1.57,13.13-2.09a6.77,6.77,0,0,0,1.61.54l-2.41,7.54c-2.22,4.75-7.77,5.61-9.05,11.4a13.74,13.74,0,0,0,2.54,11.79c.87,1.06.84.9-.19,3.75a24.44,24.44,0,0,1-1.66,3.45C134.11,71,129.75,72.62,127,75c-1.35,1.19-.92,2-.76,3.82-4.16,2.78-4.44,5-9.38,8.91-1.82,1.45-9.12,7-11.34,7.23-.61-1.26-2.14-7.5-3.35-10.38-1.83-4.4-3.05-5.15-5.27-8.45,2.58-4.88-1-8.49-4.14-10.39A24.89,24.89,0,0,1,90.1,64.4a26.58,26.58,0,0,0-2.31-1.57c-.37.88-.72,1.77-1.06,2.66a13.63,13.63,0,0,1,3.94,1c.68.3,1.71.74,2,1.28A5.92,5.92,0,0,1,96,74.43c-.77,3.66-3.8,3.42-4.39,5.46,1.79.15,3-1.6,4.24-2.12,1.88,2.21,4.21,4.8,5.18,8.37,1.43,3.18,3.45,13.52,6.15,15.94l.41.3c-.29-1.3-.89-2.36-.88-3.58a5,5,0,0,1-.84-2.22c1.51.31,3.16,1.88,4.08,2.62l.09-.41c-.37-.51-.94-1.16-1.31-1.6-.6-.71-.94-.74-1.46-1.39.51-.4,3.68-1.92,6.13-3.71,1.07-.79,5-3.73,5.69-3.91.45-1,3.7-3.88,4.72-5,3.32-3.76,3.65-3.49,5.74-3-.84,1.28-1.74,2.06-2.73,3.53-.64.94-1.5,3-2.31,3.66-.11,1.11-1.55,4.22-2,5.76-2,6.78-1.39,10.94-5.28,14.35-.55.49-1.61,1-2.22,1.55l.18,1a20.41,20.41,0,0,0,5,.18c-.39,1.81-3.73,3.78-5.17,4.73-5.25,3.45-14.24,7.44-20.58,8.33a5.72,5.72,0,0,1,1.11-1.77,4.33,4.33,0,0,0,.65-2.66c-1.21-.15-1.77.6-2.71,1.21a15.67,15.67,0,0,1-6.65,2.13l.53,1.35a14.65,14.65,0,0,0,3.13-.54c1.14-.36,2-.89,2.93-1.12-1.53,2.28-4.11,4.34,3.77,2.43a57.38,57.38,0,0,0,20.72-9.42c.65-.49,1-.91,1.61-1.35,0,4,.93,9.89,3.43,13,.56.69.56.72,1.68.75a11.06,11.06,0,0,0,.54-2.69h.54c1,4.46,9.09,15.63,9.39,17.52l2.26,18.73c.39,3.14.82,6.33,1.44,9.43.64.19,1.29.38,1.94.55-1.14-5.25-1.85-11.14-2.28-14.83-.29-2.54-1-6.44-1-8.68,0,.71.2,1,1,1.26l-.15-1.14a39.67,39.67,0,0,0-4.52-11.25c-1-1.69-2-3.4-3-5.11A38.2,38.2,0,0,1,128,125.9l-2.28-5.29c-1.45,0-.69.08-1.26,1.67a10.34,10.34,0,0,1-1,2.06L122.38,122A24.06,24.06,0,0,1,121,114.1a17.52,17.52,0,0,1,.58-4.07,27.7,27.7,0,0,0,1.08-3.11l-.82-.15a10.81,10.81,0,0,1-1.27,2.13l-2.16,0a36.49,36.49,0,0,1,2.55-2.82c.13-1,1-2.78,1.31-4.55s.61-3.26,1-4.92A38.67,38.67,0,0,1,126.4,88a28.2,28.2,0,0,1,3.77-6.33c1.27-1.63,1.6-.89,3.77-1.14a25.57,25.57,0,0,0,3.81-.92c-.58,1.32-1.29,2.35-1.13,4.21A4.69,4.69,0,0,0,140,88c2.8.59,4.15-.57,5.9-1.32a34.75,34.75,0,0,0,1.79,3,23.77,23.77,0,0,1,2,2.38c1.84.75,3.08,2.06,5.92,1.63,2.4-.37,3.34-1.87,4.58-2.82,4.19.87,8.92.19,10.69-2.72,3,.69,3.28,1.77,6.77-.2,2.1-1.19,2.9-2.23,3.31-5.28a15.57,15.57,0,0,0,3.72,1.4c-.67,1.33-1.49,1.4-2.74,4.12a14.19,14.19,0,0,0-1.33,5.15,24.68,24.68,0,0,0,2,11.17c2.8,6.93,3.78,4.61,1.79,8.8L180,122.18c-.28,1.31-2.49,5.39-3.23,6.94-1.17,2.44-2.17,4.58-3.17,7a9.73,9.73,0,0,1-1.73,3.38c-5.5,7.19-.42,11.57,1,14.85a67,67,0,0,1,4,11.37A51.38,51.38,0,0,1,178,171.82Z"/>
        <path class="cls-5" d="M186.8,85c-4.62,7.31,1.73,21.69,6.67,26.14.51.46.17.38,1,.6.86-.69,3.13-1.92,4.32-1.45-2.08,1.65-4,1.61-7.64,7-2,2.94-3.66,6-5.74,8.79-1.14,1.55-2,2.69-3.1,4.17-3,3.95-8.69,8.95-10,11.71-.67,7.87,7.87,13,13,15.89,3.11,1.75,6.91,3.71,11,1.88,2.36-1.07,7-4.75,6.93-7.44-.31-2.21-1.84-3.68-.51-8.37-2.75-.18-5.72,2.47-5.11,4.88.89,3.58,0,3.25.87,4.54a3.5,3.5,0,0,1,.32,4c-.5-.53,0,.28-.28-.57a8.41,8.41,0,0,1-.15-.94,5.15,5.15,0,0,0-.43-1.37c-.43.69-1.74,3.56-2,4.31-1.24,1-1.24-1-1.35-2-.44-3.91-1.23-6-5.22-6.18-.25.52-.73,1.48-1.41,1.58-1.54.23-.24.18-.79-.19-.82-2.66,6.18-9.17,7.47-10.34,7.64-6.93,19-9.24,25.42-20.33,1.52-2.64,1.27-4.13,2.28-6.87,4.29,3,3.92,7.17,4.7,8.07,1.84-3.59-.78-7.8-1.82-10.53-.16-.23-.7.44,0-.64,4.22,0,5.39,1.52,7.18,3.64l.45.5a11,11,0,0,0-1.94-5.78c-.61-.92-2.87-3.74-3.56-4l-.92-.71c.43-.92.73-1,1.72-1.21l1.88-.28c.74-.2.17.08.62-.29-3.39-3.7-14.44-11.13-19.25-14.1s-12.36-6.77-18.47-6.47a10.1,10.1,0,0,0-5,1.4c-.79.47-.84.35-.93.94"/>
        <path class="cls-5" d="M126.4,88a38.67,38.67,0,0,0-3.06,8.64c-.42,1.66-.71,3.16-1,4.92s-1.18,3.51-1.31,4.55c.42.26-.06.14.62.13l.75-.11.33.77a27.7,27.7,0,0,1-1.08,3.11,17.52,17.52,0,0,0-.58,4.07,24.06,24.06,0,0,0,1.34,7.91c.07-.05.16-.2.19-.15.25.46.94-2.49,2.84-2.33l.33,1.08L128,125.9c1.12.87,7.79,12.2,17.08,14,.37-8.07,1.88-13.56,5.65-19a25.87,25.87,0,0,1,6.11-6.27c1-.76,6.87-4.36,7.75-4.38.63.88.8,2.76,1.26,3.82,3.1-2.69,15.91-21.69,4.95-24.49a9.42,9.42,0,0,1-4,3.29c-3.13,1.48-3.8.39-6.15-.22-1.12,1.37-2.14,3.17-5.61,2.64-2.57-.38-3.91-1.81-5.42-3.14a23.77,23.77,0,0,0-2-2.38,34.75,34.75,0,0,1-1.79-3c-1.75.75-3.1,1.91-5.9,1.32a4.69,4.69,0,0,1-3.37-4.2,25.82,25.82,0,0,0-5.82,1.43c-3.48,1.55-2.92,2.08-4.4,2.75"/>
        <path class="cls-5" d="M149.57,172.67l-.19-.16-1.09,0,1.28.21M166,127.87c-.91.62-2.28,3.17-2.74-.19-.88.15-7.65,9.1-9.19,13.42-1.4,4-.9,4.34-1.32,5.93-.11,1.62.66,2.69.23,3.76-1.91.72-5-.87-6.46-1.79-2.05-1.29-2.79-2.46-4.35-3.9-2.8.38-2.33,1.18-3.89,2.34l.15,1.14c-.79-.28-1-.55-1-1.26,0,2.24.73,6.14,1,8.68.43,3.69,1.14,9.58,2.28,14.83,2.25.6,4.55,1.11,6.88,1.52.56-3.6,8.57.07,10.34,1.11,1.15,0,2.3.08,3.46.08A79.64,79.64,0,0,0,178,171.82a51.38,51.38,0,0,0-1.12-6,67,67,0,0,0-4-11.37c-1.4-3.28-6.48-7.66-1-14.85a9.73,9.73,0,0,0,1.73-3.38c1-2.47,2-4.61,3.17-7,.74-1.55,2.95-5.63,3.23-6.94.16-2.88-1.79-3-4.52-2.8-1.42,1.71-1.77,2.87-4,4.94C170.24,125.41,168,127.46,166,127.87Z"/>
        <path class="cls-5" d="M87.64,115.74c-1.42-.59-1.65-1.08-3.15-.65.22.78.44,1.57.68,2.34,1.37-.18,2.6-.42,3.29,0,0,.82-1.18,1.74-2.44,2.53.26.75.53,1.5.81,2.24a15.67,15.67,0,0,0,6.65-2.13c.94-.61,1.5-1.36,2.71-1.21a4.33,4.33,0,0,1-.65,2.66c1,.64,4.61-1.19,5.57-1.64,3.28-1.54,13.18-7.46,14.06-9.83l-.18-1c.61-.52,1.67-1.06,2.22-1.55,3.89-3.41,3.27-7.57,5.28-14.35.46-1.54,1.9-4.65,2-5.76-1.91-.67-3.89.17-5.42.81-.72.18-4.62,3.12-5.69,3.91-2.45,1.79-5.62,3.31-6.13,3.71.52.65.86.68,1.46,1.39.37.44.94,1.09,1.31,1.6l.78,2.28c-1.14-.42-3.61-2.52-4.11-2.27,0,1.22.59,2.28.88,3.58l-.41-.3c-2.7-2.42-4.72-12.76-6.15-15.94-2.86-1.47-5.57-5.43-12.31-3.12-1.74.6-4.58,2-5.37,3-2,2.39-1,18.73,4.53,26.39,1.91,2.67,3.72,2.75,3.32,4.59a3,3,0,0,1-1.78-.47l-.94-.4Z"/>
        <path class="cls-6" d="M149.66,92.09c1.51,1.33,2.85,2.76,5.42,3.14,3.47.53,4.49-1.27,5.61-2.64,2.35.61,3,1.7,6.15.22a9.42,9.42,0,0,0,4-3.29c11,2.8-1.85,21.8-4.95,24.49-.46-1.06-.63-2.94-1.26-3.82-.88,0-6.7,3.62-7.75,4.38a25.87,25.87,0,0,0-6.11,6.27c-3.77,5.48-5.28,11-5.65,19-9.29-1.78-16-13.11-17.08-14a38.2,38.2,0,0,0,2.78,5.18c1,1.71,2,3.42,3,5.11a39.67,39.67,0,0,1,4.52,11.25c1.56-1.16,1.09-2,3.89-2.34-.1-1.24,0-.53.22-.79,1.93,1.24,4.43,4.56,9.12,5.11-1.36-9.35,1.14-16.54,7.46-22.77,1.15-1.14,4.22-4.74,5.91-4.36a11.74,11.74,0,0,1,.22,3.61c2.22-1.26,7.87-10.61,9.31-14,2.77-6.51,2.82-10.88,2.59-17.75,0-.31-.06-1.1,0-1.36.13-1.68,0-.84.53-1.31a49.41,49.41,0,0,1,.86,11.15c-.58,8.5-5.6,17-10.89,23.32L166,127.87c2-.41,4.24-2.46,5.45-3.55,2.27-2.07,2.62-3.23,4-4.94,2.73-.19,4.68-.08,4.52,2.8l4.41-8.84c2-4.19,1-1.87-1.79-8.8a24.68,24.68,0,0,1-2-11.17,14.19,14.19,0,0,1,1.33-5.15c1.25-2.72,2.07-2.79,2.74-4.12a15.57,15.57,0,0,1-3.72-1.4c-.41,3-1.21,4.09-3.31,5.28-3.49,2-3.75.89-6.77.2-1.77,2.91-6.5,3.59-10.69,2.72-1.24.95-2.18,2.45-4.58,2.82-2.84.43-4.08-.88-5.92-1.63"/>
        <path class="cls-6" d="M157.71,24.88l.28.94c-.76.36.47.39-.26-.07-.9-.58.48-.37-.21-.19.43,4.25-.09,5.93-.68,10,2-.47,2.52.05,3.53,1.27-.57-3.8-.85-5.17.24-8.9.46-1.57.21-1.88,1.78-2.84,3.58-2.2,8.28,1.25,10.07,4s1.88,4.39,1.54,8.14l2,.26c-3.26.35-4.87.17-7.84,1.43-6.6,2.8-6.77,6.85,2.52,4.34,4.34-1.17,4.55-2.3,6.43-2.77-.45.82-.33.67-1.24,1.08.55,1.84.83,1.29.37,3.33l-.35-1.54c-.24-.71-.42-.6-.78-1a20.57,20.57,0,0,1,.52,2.78,31.63,31.63,0,0,1-.06,3.51c-.32,5.77-2.64,11.82-6.48,15.41-2.45,2.3-2.49,1-2.68,4.24a10.16,10.16,0,0,0,1.47,5.71c1.49,2.71,4.37,6.07,4.57,9.76,4.5-.55,4.16-4.82,3.76-9.12,2.05.24,1.27,2.12,5.76,4.32,1.95,1,6,1.83,7.18-.45.15-1-4.26-4.57-6.35-7.89-2.81-4.47-1.81-6-5.68-8.64-1,.46-2,2.1-2.89,2.93,0,1.76,0,.22-.75,1.37l-1.13,3.4c-.43,1.4-.12,1.14-1.36,1.39-1-2.61.53-7.09,1.69-9.06,5.05-8.61,12.79-6,12-21.31a9.79,9.79,0,0,0-1.64-2c-.63-.68-1.12-1.42-1.81-2.19.12.94.39,1.23-.07,1.86-2.11-3.8-2.53-8.27-3.91-12.71-1-3.06-4-9.51-7.16-9.71-3.75-.51-5.47,1.63-7,3.61-1.94,2.59-2.11,3.53-5.39,5.25"/>
        <path class="cls-5" d="M83,78.85l.38-.1c4.71-1.28,11.15-4.71,9.28-11-.26-.54-1.29-1-2-1.28a13.63,13.63,0,0,0-3.94-1A79.53,79.53,0,0,0,83,78.85"/>
        <path class="cls-6" d="M83.31,110.24a21.39,21.39,0,0,0,3.38,3.59c.89.71,1.56.86,1.82,1.62l-.87.29.83.37.94.4a3,3,0,0,0,1.78.47c.4-1.84-1.41-1.92-3.32-4.59-5.49-7.66-6.53-24-4.53-26.39.79-.94,3.63-2.38,5.37-3,6.74-2.31,9.45,1.65,12.31,3.12-1-3.57-3.3-6.16-5.18-8.37-1.27.52-2.45,2.27-4.24,2.12.59-2,3.62-1.8,4.39-5.46a5.92,5.92,0,0,0-3.35-6.63c1.87,6.24-4.57,9.67-9.28,11l-.38.1a80.21,80.21,0,0,0,.33,31.39"/>
        <path class="cls-7" d="M145.59,15.47q-3.75.75-7.36,1.85a6.13,6.13,0,0,1-.31,1.12c-.62,1.48-1.84,1.28-2.22-.31-.52.17-1,.36-1.54.54,1.14,5,4.38,6.69,8.56,2.66a3.06,3.06,0,0,1,.82-.66,8.74,8.74,0,0,1,2.05-5.2m12-1.48a7.7,7.7,0,0,1-1.52.73c-.73.35-1.42.8-2.05,1.18-2.15,1.27-2,4.23-3.56,2.74-1.05-1,.13-3,2.19-4.26-1,.11-2,.24-3,.38-1.14,1.56-2.4,3.68-1.52,5.38,1.36,2.63,5.62,1.53,7.44,0s3.08-4,4.85-5.89l.33-.33Q159.13,13.92,157.57,14Z"/>
        <path class="cls-6" d="M140.13,43.1c0,6.45.17,9.87,3.45,14.11,1.95,2.52,7.15,6.58,5,11.42-.82-.6-.41-.25-.87-1.36a9.36,9.36,0,0,0-.71-1.46c-.62-2.11-4-4.91-6-6.06a20,20,0,0,1-4.53,9.2,16.64,16.64,0,0,1-3.5,3.51c-.74.58-3.57,2.44-3.87,2.89,1,1.9,5.4,1.18,7.68.83,4-.6,4.16-3.09,6.39-3.29-1,3.23-4.19,10.18,1.91,9.91a12.4,12.4,0,0,1,2.79-8.36c1.32-1.84,4-4.66,4.41-7.23-1-.56-4.62-4.3-4.23-6.31,1,.16,3.59,1.69,5.91-1.64,1.05-1.5,2.39-4.37.95-6.46s-8.9-1.67-10,2.78c-.09.35-.1.65-.17.91l-.27.85c-1.14-.51-2.43-2.92-2.94-4.63-1.72-5.79,1.93-13.34,6.17-15.74.14-4.06,1.26-6.45,2.5-9.34-1.1-.06-.91.43-1.32,1.5l-2.82,7.19c-.47.93-1.59,1.61-3.06,3.11-.9.91-2.65,2.39-3,3.67"/>
        <path class="cls-10" d="M204.52,150.53a4.81,4.81,0,0,0,2.93,1.86c2.21.73,4.79.49,7.26.75q1.8-1.62,3.5-3.34c-4.49,0-9,1.22-13.69.73"/>
        <path class="cls-7" d="M148.8,75.54a14.07,14.07,0,0,0,1.38,7.64c1.41,2.61,2.83,2.79,6,2.13-.44-4.2,1.75-9.27,1.86-14,.86,1.2.5,4,.33,5.39-.23,1.84-.59,3.55-.91,5.34,1,1.28,1.11,2.61,2.53,3.42a6.42,6.42,0,0,0,5.11.15c3.45-1.41,2.86-4.64,2.79-8.64-.22-1.07-1.48-2.65-2-4.4-.73-2.53-.41-3.45,0-5.86-5.49,2.18-6.48,2.9-12.79,1.12-.51,2.91-3,5.43-4.29,7.71m6.26-5.61c-.21,2.5-1.38,4.47-2.07,6.86s1.55,6.93-1.41,5c-1.82-1.18-1.63-4.71-.55-6.7.74-1.38,1.95-2.62,2.8-3.9C154.41,70.32,154.18,70.25,155.06,69.93Zm5.38,1.66c1.12,1.26,1.64,3.59,1.85,5.65s1.27,4.77.44,6.31C158.39,84.86,160.48,74.23,160.44,71.59Z"/>
        <path class="cls-6" d="M149.38,172.51a10.27,10.27,0,0,1,4.59.68q2,.18,4,.27c-1.77-1-9.78-4.71-10.34-1.11l.67.11Z"/>
        <path class="cls-11" d="M219.42,146.77c.56,0,1.11,0,1.67,0l.78-.88a6,6,0,0,0-2.45.92"/>
        <path class="cls-6" d="M195.77,158.8c-1.12,0-.36.1-.59-.3a16.93,16.93,0,0,0,1.55-6.73,7,7,0,0,0-2.94-5.33c-2.08.9-3.88,3.46-5.69,4.26.9-4.55,16.7-12.65,19.4-14.29a65.11,65.11,0,0,0,7.39-5.26c2.89-2.29,6-6.07,6.92-10,.26-1.08.22-2.75,1.05-3.37,2,2.12-1.83,5.83,1.34,7.57,1.52-.46,2-1.28,2.67-2.77-.78-.9-.41-5-4.7-8.07-1,2.74-.76,4.23-2.28,6.87-6.4,11.09-17.78,13.4-25.42,20.33-1.29,1.17-8.29,7.68-7.47,10.34.55.37-.75.42.79.19.68-.1,1.16-1.06,1.41-1.58,4,.19,4.78,2.27,5.22,6.18.11,1,.11,3,1.35,2"/>
        <path class="cls-12" d="M143.17,53.82c.24-.23.13-.1.35-.45.9-1.42.92-2.15,3.15-3.63,5.63-3.73,16.49.5,18.66-4.51-2.14-.27-3.11-1.34-2.37-3.52-4.74-4.18-2.56-6.55-6.44-5.21.47,2.14,1.88,1.26,1.91,2.93-1.71-.86-3.41-2.85-6.08-2.82-5.47.07-11.48,8.42-9.18,17.21m.84-4.28c-1.24-3.32,1.73-7.71,3.22-8.92a11.39,11.39,0,0,1,4-2.2c2.13-.61,4.33-.78,4.67,1.41-1.15,1.2-2.33.73-4.16,1.31-2.06.65-4.74,3.18-5.89,4.84A28.17,28.17,0,0,0,144,49.54Z"/>
        <path class="cls-10" d="M202.24,159.51c1.39.9,1.94,1.18,2.3,1.39,1.26-.81,2.48-1.65,3.68-2.52-2.53-1.26-2.87-1.68-6,1.13"/>
        <path class="cls-13" d="M177.14,62.05c3.87,2.69,2.87,4.17,5.68,8.64,2.09,3.32,6.5,6.94,6.35,7.89C188,80.86,183.94,80,182,79c-4.49-2.2-3.71-4.08-5.76-4.32.4,4.3.74,8.57-3.76,9.12l-.5,3.41a5.85,5.85,0,0,0,7-2c1.87-2.69-.49-5.77-1.09-8.14.82.4.25,0,.81.67,2.15,2.54.45,3.89,6,5.07,2,.42,2.71-.63,4.43-1.2a12.51,12.51,0,0,1,2.34-.58c.58-.07,1-.06,1.57-.1,1.34-.13,1-.15,1.27-.37,4.33-3.74-12.33-3.48-12.47-22.39-1.22,0-4.24,3-4.66,3.81"/>
        <path class="cls-11" d="M213,154.61c-1-.08-2.08-.14-3.3-.22a10.93,10.93,0,0,0,2.19,1.15l1.11-.93M207.3,157a4.27,4.27,0,0,0,1.44,1l.5-.37C208.6,157.41,208,157.2,207.3,157Z"/>
        <path class="cls-4" d="M142.17,145.1c1.56,1.44,2.3,2.61,4.35,3.9,1.47.92,4.55,2.51,6.46,1.79.43-1.07-.34-2.14-.23-3.76-1.59-1.9.88-10.47,2.73-13.66,2.12-3.68,5-7.19,8.19-9.12,0,1,.12,2.78-.41,3.43.46,3.36,1.83.81,2.74.19l1.46-1.89c5.29-6.29,10.31-14.82,10.89-23.32a49.41,49.41,0,0,0-.86-11.15c-.55.47-.4-.37-.53,1.31,0,.26,0,1.05,0,1.36.23,6.87.18,11.24-2.59,17.75-1.44,3.36-7.09,12.71-9.31,14a11.74,11.74,0,0,0-.22-3.61c-1.69-.38-4.76,3.22-5.91,4.36-6.32,6.23-8.82,13.42-7.46,22.77-4.69-.55-7.19-3.87-9.12-5.11-.25.26-.32-.45-.22.79"/>
        <path class="cls-14" d="M168.2,38.23l4.64-1c2.67-4.68-4.1-13.57-9-11.71-4.26,1.63-4.88,12,.06,15.18.71-.42,1.13-.82,2-1.29a21.26,21.26,0,0,0,2.29-1.15m0,0c-3.54-.26-3.74-6-2.14-8.06,1.91-.15,2.58,1.42,3,3.19a5.48,5.48,0,0,1-.86,4.87"/>
        <path class="cls-8" d="M169.07,14.26l1.52.5c-.05-.12-.09-.24-.14-.35q-.69-.09-1.38-.15m-21.5.83c-5.37,5.15-2,13.47,5.69,10.57,4.48-1.7,7.27-8.42,10.21-11.74-.68,0-1.37,0-2.05,0h-.7l-.33.33c-1.77,1.85-3,4.28-4.85,5.89s-6.08,2.65-7.44,0c-.88-1.7.38-3.82,1.52-5.38C148.94,14.86,148.25,15,147.57,15.09Z"/>
        <path class="cls-11" d="M224.89,142.11c-.57.22-1.18.46-1.82.74L218.55,145c3.24-.46,4.06-.65,4.66-.75.57-.7,1.13-1.41,1.68-2.14m-1.95-2a21,21,0,0,1,4.53-1.55c.25-.38.51-.76.76-1.15C225.88,138,223.64,139,222.94,140.1Z"/>
        <path class="cls-6" d="M194.44,111.78c-.8-.22-.46-.14-1-.6-4.94-4.45-11.29-18.83-6.67-26.14-4.41,2.48-5.31,10.16-3.51,16.15a44.89,44.89,0,0,0,3.19,7.57,39.77,39.77,0,0,0,3.93,6,2.38,2.38,0,0,0,.42.37c1.53-1.31,1.78-2.12,3.61-3.37"/>
        <path class="cls-6" d="M203.11,152.35c0,2.69-4.57,6.37-6.93,7.44-4.05,1.83-7.85-.13-11-1.88-5.1-2.88-13.64-8-13-15.89-3.22,3.54.06,8.81,2.57,11.51a32.59,32.59,0,0,0,16.24,8.77c3.31.59,4.39.8,6.34-1,2.58-2.4,1.4-1.59,4.64-3.7.93-.61,2-1.06,2.21-2.13a3.42,3.42,0,0,0-1.14-3.12"/>
        <path class="cls-8" d="M143.54,20.67a3.06,3.06,0,0,0-.82.66c-4.18,4-7.42,2.39-8.56-2.66l-1,.37c-.62,2.63-.37,7.35,2.92,10.15a5.75,5.75,0,0,0,9.55-3.36c-1.42-1.52-2-2.28-2.09-5.16"/>
        <path class="cls-15" d="M173,43.55c-.14,4.76.36,6-1.13,10.71-2.69,8.46-12.28,16.64-20.54,8.94l3.37,1.36c-.57-3,.5-3.51,2-5.31,1.22-1.47,1.27-4.35.6-6.35l-1.41-.36c1.59,3.16-.15,9.71-6.44,9.85,4.11,9.42,19.75,6.12,23.86-7.28,1-3.24,1.88-9,1-12.23Z"/>
        <path class="cls-13" d="M129.17,75.35c-1,.49-1.61.8-1.79,2.19,2.73,2.93,9.77,1.62,11.35.61,1-.61,1.5-2,2.54-2.5-.94,2.49-4,5.17-3.48,8.3.58,3.78,5.2,3.42,7.7,1.49l-.34-2.64c-6.1.27-2.87-6.68-1.91-9.91-2.23.2-2.41,2.69-6.39,3.29-2.28.35-6.69,1.07-7.68-.83"/>
        <path class="cls-8" d="M156.16,85.31c-3.15.66-4.57.48-6-2.13a14.07,14.07,0,0,1-1.38-7.64C145,79.66,146,89.87,153,92.21c2.61.87,5.19-.21,6-1.79-1.43-1.65-2.31-1.52-2.88-5.11"/>
        <path class="cls-15" d="M165.33,45.23c-2.17,5-13,.78-18.66,4.51-2.23,1.48-2.25,2.21-3.15,3.63-.22.35-.11.22-.35.45l.89,1.93a6.6,6.6,0,0,1,4.63-5c2.83-.81,5.53.22,8.17.79,6.18,1.33,11.48-.83,12.32-6.65Z"/>
        <path class="cls-13" d="M174.25,65c.35-1.39,3-4.43,3.93-5.53,3.78-4.41,6.12-1.6,8-11.07a11,11,0,0,0,.19-4.4l-1.29-2.75a2.47,2.47,0,0,0-.45-.46c.84,15.28-6.9,12.7-12,21.31-1.16,2-2.68,6.45-1.69,9.06,1.24-.25.93,0,1.36-1.39l1.13-3.4c.74-1.15.77.39.75-1.37"/>
        <path class="cls-8" d="M165.86,54.94l1.72-.23c-.5,1.56-.62,1-2.89,2.59a8.64,8.64,0,0,0-1.44,1.21l-1.05,1.16c0-.05-.11.1-.16.14-.24-.3-.34.3-.3-1.09l-.94,1.16c-.31.5-.55.88-.8,1.34-.86,1.58-.47,2.15-1.36,2.51.77-3.57,2.22-4.85,2.82-6.5-6.23,1.25-9.13,10.37-.45,7.67a13.22,13.22,0,0,0,5.8-3.89c.69-.86,3.74-4.93,3.32-6.11-1.06-1-3.2-1.23-4.27,0"/>
        <path class="cls-8" d="M157.44,82c-1,8.47,5.84,9.22,9.95,7.28,7.77-3.65,1.23-11.81.48-12.35.07,4,.66,7.23-2.79,8.64a6.42,6.42,0,0,1-5.11-.15c-1.42-.81-1.57-2.14-2.53-3.42"/>
        <path class="cls-9" d="M135.7,18.13c.38,1.59,1.6,1.79,2.22.31a6.13,6.13,0,0,0,.31-1.12c-.85.25-1.69.52-2.53.81"/>
        <path class="cls-7" d="M222.94,140.1c-1.92.33-7.82,5.36-13.36,6.18-3.19.47-3.75-.53-5.72-.61-.13,4.17,13.77-.22,14.69-.67l4.52-2.15c.64-.28,1.25-.52,1.82-.74.89-1.16,1.75-2.34,2.58-3.56a21,21,0,0,0-4.53,1.55"/>
        <path class="cls-6" d="M95.54,121.53a5.72,5.72,0,0,0-1.11,1.77c6.34-.89,15.33-4.88,20.58-8.33,1.44-1,4.78-2.92,5.17-4.73a20.41,20.41,0,0,1-5-.18c-.88,2.37-10.78,8.29-14.06,9.83-1,.45-4.52,2.28-5.57,1.64"/>
        <path class="cls-13" d="M147,65.81a9.36,9.36,0,0,1,.71,1.46c.46,1.11,0,.76.87,1.36,2.12-4.84-3.08-8.9-5-11.42-3.28-4.24-3.49-7.66-3.45-14.11-3.14,1.76-3,8.82-.4,13.11a12.5,12.5,0,0,0,2,2.34c.71.69,1.39,1.4,2.16,2.14a16.62,16.62,0,0,1,3,3.43c.92,1.39.38,1.42.12,1.69"/>
        <path class="cls-7" d="M207.3,157c.65.17,1.3.38,1.94.6.91-.67,1.8-1.38,2.67-2.09a10.93,10.93,0,0,1-2.19-1.15,8.4,8.4,0,0,1-3.95-1.11l0,3.45Z"/>
        <path class="cls-7" d="M221.09,146.73c-.56,0-1.11,0-1.67,0-1.52-.09-5.7,1.23-7.49,1.58-3.74.73-4.83.86-8.14-.39.29,2.09.13,2,2.39,2.17,4.37.33,8.27-1.06,12.66-1,.77-.79,1.51-1.59,2.25-2.42"/>
        <path class="cls-6" d="M152.75,147c.42-1.59-.08-2,1.32-5.93,1.54-4.32,8.31-13.27,9.19-13.42.53-.65.4-2.41.41-3.43-3.23,1.93-6.07,5.44-8.19,9.12-1.85,3.19-4.32,11.76-2.73,13.66"/>
        <path class="cls-14" d="M148.82,36.15c2-.56,3-1.14,5.3-.48.14-2.38,0-5.84,1.8-6.75.86.38.47.34,1,1.23a12.88,12.88,0,0,0-.32-4.81c-1,.47-1.61,1.11-2.87,1.6-1.81.7-1.89,0-2.78,1.8a19.58,19.58,0,0,0-2.12,7.41"/>
        <path class="cls-16" d="M144,49.54A28.17,28.17,0,0,1,145.86,46c1.15-1.66,3.83-4.19,5.89-4.84,1.83-.58,3-.11,4.16-1.31-.34-2.19-2.54-2-4.67-1.41a11.39,11.39,0,0,0-4,2.2c-1.49,1.21-4.46,5.6-3.22,8.92"/>
        <path class="cls-6" d="M126.4,88c1.48-.67.92-1.2,4.4-2.75a25.82,25.82,0,0,1,5.82-1.43c-.16-1.86.55-2.89,1.13-4.21a25.57,25.57,0,0,1-3.81.92c-2.17.25-2.5-.49-3.77,1.14A28.2,28.2,0,0,0,126.4,88"/>
        <path class="cls-6" d="M119.08,88.18c1.53-.64,3.51-1.48,5.42-.81.81-.62,1.67-2.72,2.31-3.66,1-1.47,1.89-2.25,2.73-3.53-2.09-.53-2.42-.8-5.74,3-1,1.16-4.27,4-4.72,5"/>
        <path class="cls-13" d="M157.71,24.88c3.28-1.72,3.45-2.66,5.39-5.25,1.49-2,3.21-4.12,7-3.61-.43-.52.12-.16-.8-.65a6,6,0,0,0-1.2-.4c-6.38-1.49-5.3,3.28-9.42,8-.72.82-1.21.88-.93,1.91"/>
        <path class="cls-9" d="M155.06,69.93c-.88.32-.65.39-1.23,1.27-.85,1.28-2.06,2.52-2.8,3.9-1.08,2-1.27,5.52.55,6.7,3,1.92.76-2.76,1.41-5s1.86-4.36,2.07-6.86"/>
        <path class="cls-4" d="M168.2,38.23a5.48,5.48,0,0,0,.86-4.87c-.42-1.77-1.09-3.34-3-3.19-1.6,2-1.4,7.8,2.14,8.06"/>
        <path class="cls-9" d="M160.44,71.59c0,2.64-2.05,13.27,2.29,12,.83-1.54-.24-4.32-.44-6.31s-.73-4.39-1.85-5.65"/>
        <path class="cls-6" d="M225.05,112c.76-.66,2.27,2.47,2.92,3.15.95,1,2.18,2.58,3.77,3a5,5,0,0,0,.9-2.68l-.45-.5c-1.79-2.12-3-3.64-7.18-3.64-.66,1.08-.12.41,0,.64"/>
        <path class="cls-9" d="M152.63,14.38c-2.06,1.27-3.24,3.24-2.19,4.26,1.53,1.49,1.41-1.47,3.56-2.74.63-.38,1.32-.83,2.05-1.18a7.7,7.7,0,0,0,1.52-.73c-1.66.08-3.31.21-4.94.39"/>
        <path class="cls-6" d="M227.14,105.76c0-1.11-.08-.54.29-.71a21.86,21.86,0,0,0,5.27,1.36,11.54,11.54,0,0,0-2.26-3.14c-.45.37.12.09-.62.29l-1.88.28c-1,.25-1.29.29-1.72,1.21Z"/>
        <path class="cls-9" d="M161.74,58.72c0,1.39.06.79.3,1.09.05,0,.14-.19.16-.14l1.05-1.16a8.64,8.64,0,0,1,1.44-1.21c2.27-1.61,2.39-1,2.89-2.59l-1.72.23a5.38,5.38,0,0,0-2.35,1.7c-.28.28-.63.57-.95.94-.45.54-.31.62-.82,1.14"/>
        <path class="cls-6" d="M106.7,98.8c.5-.25,3,1.85,4.11,2.27L110,98.79l-.09.41c-.92-.74-2.57-2.31-4.08-2.62a5,5,0,0,0,.84,2.22"/>
        <path class="cls-6" d="M122.38,122l1.14,2.33a10.34,10.34,0,0,0,1-2.06c.57-1.59-.19-1.63,1.26-1.67l-.33-1.08c-1.9-.16-2.59,2.79-2.84,2.33,0,0-.12.1-.19.15"/>
        <path class="cls-6" d="M195.09,145.59l1.11,1c3.22-4.66,3.24-2.69,5.91-4.41,0,0,.19-1-1.89.17l-4.71,2.83a1.65,1.65,0,0,0-.42.44"/>
        <path class="cls-6" d="M122.7,106.92l-.33-.77-.75.11c-.68,0-.2.13-.62-.13a36.49,36.49,0,0,0-2.55,2.82l2.16,0a10.81,10.81,0,0,0,1.27-2.13Z"/>
        <path class="cls-17" d="M67.28,197.2a17.65,17.65,0,0,1-12.63-4.84A14,14,0,0,1,53.37,191a6.32,6.32,0,0,1-2.67,4.09A7.77,7.77,0,0,1,46,196.9a6,6,0,0,1-4.77-2.71l-2.08-2.8c-.31,3.49-2.8,5.55-6.8,5.55-2.92,0-5-1.12-6.06-3.09-2,2-4.95,3.09-8.84,3.09H8.32c-4.25,0-6.78-2.36-6.78-6.31V169.51c0-3.95,2.53-6.31,6.78-6.31h8.47c4.93,0,7.73,1.52,9.3,3.47,1-2.22,3.15-3.47,6.24-3.47h9.46a10.17,10.17,0,0,1,7.82,3.58,12.55,12.55,0,0,1,2.31,3.89,16.29,16.29,0,0,1,2.7-3.47,17.61,17.61,0,0,1,12.74-4.86A17.53,17.53,0,0,1,80,167.19a16.27,16.27,0,0,1,3.11,4.22,10.91,10.91,0,0,1,3.21-5.71,11.26,11.26,0,0,1,8-3.23,24.88,24.88,0,0,1,7,.88,11.85,11.85,0,0,1,3.84,1.9,5.86,5.86,0,0,1,4.79-2.05h16.85a6,6,0,0,1,4.44,1.65,6.88,6.88,0,0,1,4.63-1.43c1.74,0,4.31.64,6.64,3.72l2.59,3.41,2.57-3.41c1.94-2.48,4.18-3.72,6.68-3.72,3.28,0,4.84,1.4,5.57,2.58a7,7,0,0,1,1.26,3.86,8.7,8.7,0,0,1-1,3.73l-.12.25-8.26,10.74v6c0,4-2.54,6.31-6.79,6.31s-6.82-2.36-6.82-6.31v-6.07l-7.78-10.37a6.45,6.45,0,0,1-3.62,1h-1.64v15.5c0,4-2.54,6.31-6.78,6.31s-6.83-2.36-6.83-6.31v-15.5h-1.6a6.17,6.17,0,0,1-4.14-1.38,5.53,5.53,0,0,1-3.28,2.09,6.35,6.35,0,0,1,.9.52,10,10,0,0,1,4.33,8.66,11.39,11.39,0,0,1-3.63,8.82A12.17,12.17,0,0,1,95.6,197a26.52,26.52,0,0,1-8.71-1.44c-3.42-1.16-4.81-3.22-5.34-5a15.7,15.7,0,0,1-1.61,1.77A17.68,17.68,0,0,1,67.28,197.2ZM15.19,185.87c.17,0,.21-.16.21-.46a1.92,1.92,0,0,0,0-.42h-.22v.89ZM67.36,175a3.9,3.9,0,0,0-3.14,1.25,4.85,4.85,0,0,0-1.22,3.5,4.78,4.78,0,0,0,1.19,3.47,4.06,4.06,0,0,0,3.17,1.24,4,4,0,0,0,3.13-1.25,5,5,0,0,0,1.19-3.46,5.1,5.1,0,0,0-1.25-3.57A3.78,3.78,0,0,0,67.36,175Zm-17.44,8.41c-.07-.37-.12-.75-.17-1.14-.12.14-.25.28-.38.41ZM85,180.62a18.42,18.42,0,0,1-.21,2.26,6.78,6.78,0,0,1,2.12-.33h.24A10,10,0,0,1,85,180.62Zm-45.85-5.2a1.76,1.76,0,0,0,.67-.13h0s0-.16,0-.47-.2-.57-.69-.6Zm270,21.61a26.58,26.58,0,0,1-8.72-1.44,9.87,9.87,0,0,1-3.08-1.65l-.24.35a6.5,6.5,0,0,1-5.71,2.65c-1.6,0-4.51-.59-6-4.54l-.17-.47h-4.93l-.17.46a6.31,6.31,0,0,1-6,4.55,6.44,6.44,0,0,1-5.66-2.65,7.94,7.94,0,0,1-.7-1.08,8.47,8.47,0,0,1-.67.67,12.17,12.17,0,0,1-8.52,3.15,26.58,26.58,0,0,1-8.72-1.44,9.87,9.87,0,0,1-3.08-1.65,2.71,2.71,0,0,1-.24.35,6.48,6.48,0,0,1-5.7,2.65c-1.61,0-4.52-.59-6.05-4.54l-.17-.47h-4.92l-.18.46a6.3,6.3,0,0,1-6,4.55,6.53,6.53,0,0,1-5.49-2.41c-.19.18-.4.35-.63.53a7.77,7.77,0,0,1-4.72,1.84,6,6,0,0,1-4.76-2.71l-2.09-2.8c-.31,3.49-2.8,5.55-6.79,5.55-2.92,0-5-1.12-6.07-3.09-2,2-4.94,3.09-8.83,3.09h-9.12c-4.24,0-6.78-2.36-6.78-6.31V169.51c0-3.95,2.54-6.31,6.78-6.31h8.47c4.93,0,7.74,1.52,9.3,3.47,1-2.22,3.15-3.47,6.25-3.47h9.45a10.15,10.15,0,0,1,7.82,3.58,11.9,11.9,0,0,1-.24,15.94l1.74,2.3,8-17.43a6.82,6.82,0,0,1,12.75,0l7.47,16.32a5.66,5.66,0,0,1,3.9-1.37h.24a9.62,9.62,0,0,1-4.3-8.34,11.49,11.49,0,0,1,11.49-11.75,25,25,0,0,1,7,.88c2.81.89,4.58,2.14,5.46,3.83a5.31,5.31,0,0,1,.29,4.13c-1,3.22-3.06,4.25-4.54,4.57a5.49,5.49,0,0,1,.9.53,9.52,9.52,0,0,1,3.73,4.87l6.27-13.69a6.81,6.81,0,0,1,12.74,0l7.48,16.32a5.64,5.64,0,0,1,3.9-1.37h.24a9.62,9.62,0,0,1-4.3-8.34,11.49,11.49,0,0,1,11.49-11.75,25,25,0,0,1,7,.88c2.81.89,4.58,2.14,5.45,3.83a5.36,5.36,0,0,1,.3,4.13c-1,3.22-3.07,4.25-4.54,4.57a5.49,5.49,0,0,1,.9.53,10,10,0,0,1,4.32,8.65,11.41,11.41,0,0,1-3.62,8.82A12.17,12.17,0,0,1,309.13,197ZM181.81,185.87c.17,0,.21-.16.21-.46a1.92,1.92,0,0,0,0-.42h-.22v.89Zm24-10.45a1.68,1.68,0,0,0,.67-.13h0s0-.16,0-.47-.19-.57-.69-.6Z"/>
        <path class="cls-18" d="M26.38,185.88q0,8.43-8.95,8.42H8.32c-2.76,0-4.15-1.21-4.15-3.67V169.51c0-2.46,1.39-3.67,4.15-3.67h8.47c5.7,0,8.55,2.24,8.55,6.78,0,3-1.17,5-3.41,6.22A7.25,7.25,0,0,1,26.38,185.88ZM17.43,174.3a2.4,2.4,0,0,0-2.72-2.72h-2.2v5.49H14.8C16.57,177.07,17.43,176.12,17.43,174.3ZM18,185.41c0-2.08-1-3.07-3.07-3.07H12.51v6.13H15C17.05,188.47,18,187.44,18,185.41Zm27.64-3.2,4.15,5.49a4.13,4.13,0,0,1,1,2.59A3.49,3.49,0,0,1,49.09,193,5.26,5.26,0,0,1,46,194.26a3.5,3.5,0,0,1-2.68-1.68l-6.78-9.07v7.12c0,2.46-1.38,3.67-4.19,3.67s-4.14-1.21-4.14-3.67V169.51c0-2.46,1.38-3.67,4.14-3.67h9.46a7.44,7.44,0,0,1,5.83,2.68,8.61,8.61,0,0,1,2.29,5.78C49.91,178,48.53,180.61,45.68,182.21Zm-9.16-10.63v6.48h2.42c2.33,0,3.54-1.08,3.54-3.24s-1.21-3.24-3.54-3.24Zm45.87,8.21a14,14,0,0,1-4.27,10.67,15.05,15.05,0,0,1-10.85,4.1,15,15,0,0,1-10.79-4.1,14.17,14.17,0,0,1-4.24-10.67,14.33,14.33,0,0,1,4.24-10.71A15,15,0,0,1,67.36,165a15,15,0,0,1,10.84,4.11A14.29,14.29,0,0,1,82.39,179.79Zm-10-5.31a6.48,6.48,0,0,0-5-2.08,6.55,6.55,0,0,0-5.1,2.12,8.26,8.26,0,0,0,0,10.54,7.26,7.26,0,0,0,10.15,0,8.28,8.28,0,0,0,0-10.58Zm23.2,19.91a23.88,23.88,0,0,1-7.87-1.3c-2.54-.86-3.84-2.37-3.84-4.57s1-3.33,3-3.33a21.57,21.57,0,0,1,3.5,1.17,15.82,15.82,0,0,0,5.32,1.16c1.51,0,2.24-.65,2.24-1.9a2.45,2.45,0,0,0-1.51-2.07,26.17,26.17,0,0,0-4.32-1.77,19.05,19.05,0,0,1-3.41-1.34,7,7,0,0,1-3.24-6.22,8.72,8.72,0,0,1,2.68-6.61,8.59,8.59,0,0,1,6.17-2.51,22.15,22.15,0,0,1,6.22.78c3.29,1,4.63,2.59,4,4.62s-1.82,3-3.5,2.85a23.1,23.1,0,0,1-2.55-.86,11.14,11.14,0,0,0-4.06-.86c-1.21,0-1.81.56-1.81,1.72,0,.74.51,1.39,1.51,2a36.14,36.14,0,0,0,4.27,1.77,17.68,17.68,0,0,1,3.46,1.47,7.36,7.36,0,0,1,3.24,6.52,8.81,8.81,0,0,1-2.77,6.87A9.51,9.51,0,0,1,95.61,194.39Zm26.9-21.86v18.15c0,2.46-1.38,3.67-4.14,3.67s-4.19-1.21-4.19-3.67V172.53h-4.24c-2.24,0-3.37-1.12-3.37-3.37s1.13-3.32,3.37-3.32h16.85c2.25,0,3.37,1.12,3.37,3.32s-1.12,3.37-3.37,3.37Zm22.59,2.38,4.67-6.18c1.38-1.77,2.89-2.68,4.57-2.68s2.77.44,3.33,1.34a4.44,4.44,0,0,1,.86,2.47,6.21,6.21,0,0,1-.73,2.59l-8.64,11.23v6.95c0,2.46-1.38,3.67-4.15,3.67s-4.19-1.21-4.19-3.67v-6.95l-8.42-11.23a5.81,5.81,0,0,1-.78-2.59,4.89,4.89,0,0,1,.87-2.47c.56-.9,1.68-1.34,3.37-1.34s3.19.91,4.53,2.68Zm47.9,11q0,8.43-8.94,8.42h-9.12c-2.76,0-4.14-1.21-4.14-3.67V169.51c0-2.46,1.38-3.67,4.14-3.67h8.47c5.7,0,8.55,2.24,8.55,6.78,0,3-1.16,5-3.41,6.22A7.25,7.25,0,0,1,193,185.88Zm-8.94-11.58a2.41,2.41,0,0,0-2.72-2.72h-2.21v5.49h2.29C183.19,177.07,184.06,176.12,184.06,174.3Zm.6,11.11c0-2.08-1-3.07-3.06-3.07h-2.47v6.13h2.51C183.67,188.47,184.66,187.44,184.66,185.41Zm27.64-3.2,4.15,5.49a4.07,4.07,0,0,1,1,2.59,3.5,3.5,0,0,1-1.68,2.68,5.28,5.28,0,0,1-3.11,1.29,3.49,3.49,0,0,1-2.68-1.68l-6.78-9.07v7.12c0,2.46-1.39,3.67-4.19,3.67s-4.15-1.21-4.15-3.67V169.51c0-2.46,1.38-3.67,4.15-3.67h9.46a7.47,7.47,0,0,1,5.83,2.68,8.66,8.66,0,0,1,2.29,5.78C216.54,178,215.15,180.61,212.3,182.21Zm-9.15-10.63v6.48h2.41c2.34,0,3.55-1.08,3.55-3.24s-1.21-3.24-3.55-3.24Zm24.66,17.71-.82,2.16c-.69,1.9-1.9,2.85-3.55,2.85a3.94,3.94,0,0,1-3.49-1.51,4.63,4.63,0,0,1-1.08-2.72,5.77,5.77,0,0,1,.51-2.33l8.73-19.05a4.2,4.2,0,0,1,7.95,0l8.72,19.05a5.16,5.16,0,0,1,.56,2.37,4.88,4.88,0,0,1-1,2.68,4,4,0,0,1-3.54,1.51c-1.65,0-2.86-1-3.59-2.85l-.78-2.16Zm6.09-6.73-1.82-5-1.81,5Zm24.61,11.83a23.87,23.87,0,0,1-7.86-1.3c-2.55-.86-3.84-2.37-3.84-4.57s1-3.33,3-3.33a21.57,21.57,0,0,1,3.5,1.17,15.77,15.77,0,0,0,5.31,1.16c1.52,0,2.25-.65,2.25-1.9a2.45,2.45,0,0,0-1.51-2.07,26.17,26.17,0,0,0-4.32-1.77,19.05,19.05,0,0,1-3.41-1.34,7,7,0,0,1-3.24-6.22,8.69,8.69,0,0,1,2.68-6.61,8.59,8.59,0,0,1,6.17-2.51,22.15,22.15,0,0,1,6.22.78c3.29,1,4.62,2.59,4,4.62s-1.82,3-3.5,2.85a21.62,21.62,0,0,1-2.55-.86,11.18,11.18,0,0,0-4.06-.86c-1.21,0-1.82.56-1.82,1.72,0,.74.52,1.39,1.52,2a36.14,36.14,0,0,0,4.27,1.77,17.68,17.68,0,0,1,3.46,1.47,7.36,7.36,0,0,1,3.24,6.52,8.81,8.81,0,0,1-2.77,6.87A9.52,9.52,0,0,1,258.51,194.39Zm19.91-5.1-.82,2.16c-.69,1.9-1.9,2.85-3.54,2.85a4,4,0,0,1-3.5-1.51,4.7,4.7,0,0,1-1.08-2.72,5.78,5.78,0,0,1,.52-2.33l8.73-19.05a4.19,4.19,0,0,1,7.94,0l8.73,19.05a5.16,5.16,0,0,1,.56,2.37,4.88,4.88,0,0,1-1,2.68,4,4,0,0,1-3.55,1.51c-1.64,0-2.85-1-3.58-2.85l-.78-2.16Zm6.09-6.73-1.81-5-1.81,5Zm24.62,11.83a23.87,23.87,0,0,1-7.86-1.3c-2.55-.86-3.84-2.37-3.84-4.57s1-3.33,3-3.33a21.57,21.57,0,0,1,3.5,1.17,15.73,15.73,0,0,0,5.31,1.16c1.51,0,2.25-.65,2.25-1.9a2.45,2.45,0,0,0-1.51-2.07,26.55,26.55,0,0,0-4.32-1.77,19.28,19.28,0,0,1-3.42-1.34,7,7,0,0,1-3.24-6.22,8.72,8.72,0,0,1,2.68-6.61,8.6,8.6,0,0,1,6.18-2.51,22.15,22.15,0,0,1,6.22.78c3.28,1,4.62,2.59,4,4.62s-1.81,3-3.5,2.85a22.59,22.59,0,0,1-2.54-.86,11.22,11.22,0,0,0-4.06-.86c-1.21,0-1.82.56-1.82,1.72,0,.74.52,1.39,1.51,2a36.41,36.41,0,0,0,4.28,1.77,18,18,0,0,1,3.46,1.47,7.36,7.36,0,0,1,3.24,6.52,8.81,8.81,0,0,1-2.77,6.87A9.53,9.53,0,0,1,309.13,194.39Z"/>
        <circle class="cls-1" cx="161.4" cy="93.74" r="87.62" transform="translate(-19.01 141.59) rotate(-45)"/>
        <path class="cls-2" d="M161.42,181.34A87.62,87.62,0,1,0,73.8,93.72a87.62,87.62,0,0,0,87.62,87.62"/>
        <circle class="cls-3" cx="161.41" cy="93.72" r="83.51" transform="translate(-13.59 28.83) rotate(-9.8)"/>
        <path class="cls-2" d="M161.42,177.23A83.51,83.51,0,1,0,77.91,93.72a83.51,83.51,0,0,0,83.51,83.51"/>
        <path class="cls-4" d="M147.57,15.1A11.85,11.85,0,0,1,151,12.85c1.46-.71,4-.85,5-1.36-2.06-1.89-7.24.84-8.49,2a17.4,17.4,0,0,0-1.92,2c.65-.13,1.32-.26,2-.37"/>
        <path class="cls-4" d="M84.08,113.58c-.35-.46-.63-.64-1.08-1.17l-3.31-4.5c-4-6-5.92-10.74-9.47-16.63-.7-1.17-1.23-2-2-3.12-2.07-3.12-2.11-3.7-4.06-4-3.7-.6-6.4-1.69-10.86-2.06a23.92,23.92,0,0,0-13,2.06,21.05,21.05,0,0,1-3.69,1.43c-1.18-1.76-2.36-2-1.08-4.85S40,75.92,42.6,74.32A14.71,14.71,0,0,1,45,73.19l2.16-1.07c-3.6-.84-12.66-2.33-14.53-3.23,0-1.68.87-2.2,1.87-3a17,17,0,0,1,3-1.89c4.64-2.26,11.09-2.34,16.35-1.53,2.36.36,7.09,1.76,7.61,1.81l-1-.85c-1-.73-4.7-3.07-5-3.64A3.06,3.06,0,0,1,55.67,57c2.27-3.15,10.06-.76,11.37-.74,0-5.05,4.57-9.83,7.36-4.93,2.31,4,1.77,5.08,7.6,8.82,1.56,1,3,1,5.79,2.7-.37.88-.72,1.77-1.06,2.66-2.72-.29-4.67.33-5.11.17.63-1.48,3.81-1.3,5.46-1.5-3.72-1.42-2.56-2.2-8.9-3.13.11-.55,0-.23.36-.57l.15-.11.16-.09.53-.25c-1.09-.94-2-1.45-2.84-2.24-1.09-1-1.28-1.87-2.21-2.89-.61-1.43-1.27-3.24-2.44-4-2.59.18-3.37,3.44-3.51,6.23,2.07.66,2.78,1.72,4.16,1.93A20.61,20.61,0,0,0,76,61.91c1,1.54,3,2.91,4,5.13,1.94-.11,2.46.16,3.21,1.37l-2.4-.47c.35,1.06.54.9.52,2-1-.1-1.53-1.14-2.21-2-2.21-2.72-3.69-4.91-6.72-7-3.24-2.25-9-4.89-14.18-3.69-1.17.48-2.16,1.24-.6,2.32l5,3.64c2.57,2,9.49,8.59,8.32,12.81-.7.27-.72-1.17-2-3.48-2.9-5.08-4.73-5.92-11-7.58a39.24,39.24,0,0,0-10.69-1.42c-2.62,0-8.41.8-9.76,2.41a5.62,5.62,0,0,0-2.52,1.89c4.42,3.3,7.81-2.69,25.42,10.3,1.53,1.13.55,1.25.55,1.25-.79.42-2.44-1.16-3.18-1.63-1.71-1.11-3.42-2.3-5.25-3.34-3.15-1.79-2.58-1.86-6-.3s-9,4.68-9.53,7.62c-.27.61-.39,1.74.49,1.8s6.53-4.32,16.95-3c7.27.92,12.76,3.26,20.67,3.29-.06.23.22.38-1.25.65a25.38,25.38,0,0,1-6.09.14c.82,1.22,1.69,2.26,2.64,3.63,4,5.75,8.24,15.79,13,22,.24,1.12.49,2.23.77,3.33"/>
        <path class="cls-4" d="M87.36,123.56c-2.56.19-5.56-.11-6.59-1.65,1.56-1.8,3.16-2.2,4-3-2.77,0-5.9-.35-6.46-2.42.63-.86,4.46-2.32,5.82-2.67.1.41.22.82.33,1.23l-.44.14a18,18,0,0,0-3.45,1.61c1.29,1,3,.8,4.57.59.27.86.55,1.7.85,2.54-1.09.69-2.26,1.28-2.84,1.62a5.62,5.62,0,0,0,3.65.62l.53,1.35"/>
        <path class="cls-4" d="M150.18,0h3.29a15.74,15.74,0,0,1,7.84,3.15c3.42,2.56,8.69,7.35,10.26,11.39l-1.12-.13a8.71,8.71,0,0,0-1-1.87l-1.56-1.75-.17-.14A20,20,0,0,0,165.91,9c-2-1.73-3.07-3.3-6-5.29A12.63,12.63,0,0,0,148.14,2c-4.87,1.57-9.92,5.42-12.24,9.82-.68,1.3-2,3.79-2,5.55a4,4,0,0,0-.76,1.71c-.61.23-1.23.47-1.84.72a25.32,25.32,0,0,1,2.46-7.39c3.5-7,9.82-11.69,16.4-12.38"/>
        <path class="cls-5" d="M86,120c-1.09.69-2.26,1.28-2.84,1.62a5.62,5.62,0,0,0,3.65.62c-.28-.74-.55-1.48-.81-2.24m-1.53-4.88-.44.14a18,18,0,0,0-3.45,1.61c1.29,1,3,.8,4.57.59C84.93,116.66,84.71,115.88,84.49,115.09Z"/>
        <path class="cls-5" d="M70.84,76c-.7.27-.72-1.17-2-3.48-2.9-5.08-4.73-5.92-11-7.58a39.24,39.24,0,0,0-10.69-1.42c-2.62,0-8.41.8-9.76,2.41.72.55,2.87.44,4,.71C52.77,69.48,62.69,78.45,64.9,78.87c5.31,1,12.83,1.3,18.08,0a79.79,79.79,0,0,1,3.75-13.36c-2.72-.29-4.67.33-5.11.17.63-1.48,3.81-1.3,5.46-1.5-3.72-1.42-2.56-2.2-8.9-3.13-1.21.11-1.63.06-2.22.88,1,1.54,3,2.91,4,5.13,1.94-.11,2.46.16,3.21,1.37l-2.4-.47c.35,1.06.54.9.52,2-1-.1-1.53-1.14-2.21-2-2.21-2.72-3.69-4.91-6.72-7-3.24-2.25-9-4.89-14.18-3.69.53.79,1.71,1.31,2.87,2.09,8.31,5.59,8.44,10.91,12.12,15.59.7.88,1.75,1.51,1.62,2.77a2.92,2.92,0,0,1-2.81-1,2.5,2.5,0,0,0-.58-.4c-.07,0-.21,0-.26-.12s-.17-.09-.26-.13"/>
        <path class="cls-6" d="M57.63,77.74c-.74.72-4.65.66-5.92.66-4.13,0-12.55.64-14.44,4-.42-.36-.31.54-.38-.69-.27.61-.39,1.74.49,1.8s6.53-4.32,16.95-3c7.27.92,12.76,3.26,20.67,3.29-.06.23.22.38-1.25.65a25.38,25.38,0,0,1-6.09.14c.82,1.22,1.69,2.26,2.64,3.63,4,5.75,8.24,15.79,13,22A80.26,80.26,0,0,1,83,78.85c-5.25,1.32-12.77,1-18.08,0-2.21-.42-12.13-9.39-23.58-12.23-1.09-.27-3.24-.16-4-.71a5.62,5.62,0,0,0-2.52,1.89c4.42,3.3,7.81-2.69,25.42,10.3,1.53,1.13.55,1.25.55,1.25-.79.42-2.44-1.16-3.18-1.63"/>
        <path class="cls-7" d="M157.9,13.33a.9.9,0,0,1-.33.66c1-.05,2.09-.07,3.15-.08,3.28-3.21,5.87-2.45,7-3.26A20,20,0,0,0,165.91,9c-2-1.73-3.07-3.3-6-5.29A12.63,12.63,0,0,0,148.14,2c-4.87,1.57-9.92,5.42-12.24,9.82-.68,1.3-2,3.79-2,5.55a12.62,12.62,0,0,0,.24,1.33l1.54-.54c-.35-1.48,0-4.15,2.25-7.79C142.48,3,152.88-.45,158.18,5c-3.63-.41-3.89-2.13-8.47-.65a19.32,19.32,0,0,0-6.22,4c-4.35,3.81-4.84,7-5.26,9q3.61-1.09,7.36-1.85a17.4,17.4,0,0,1,1.92-2c1.25-1.14,6.43-3.87,8.49-2-.93.51-3.52.65-5,1.36-.17.36-.77,1.05-1.4,1.92,1-.15,2-.28,3-.39a7.26,7.26,0,0,1,5.27-1.05"/>
        <path class="cls-8" d="M163.47,13.92c1.37-1.55,2.79-2.37,4.42-1.57-.71.64-1.08.41-1.78.87s-.28.15-.68.64a9.25,9.25,0,0,1,3.64.4l1.38.15a8.71,8.71,0,0,0-1-1.87l-1.56-1.75-.17-.14c-1.09.81-3.68,0-7,3.26h.7l2.05,0M151,12.85a11.85,11.85,0,0,0-3.45,2.25c.68-.12,1.37-.23,2.05-.33C150.25,13.9,150.85,13.21,151,12.85Z"/>
        <path class="cls-8" d="M134.16,18.67a12.62,12.62,0,0,1-.24-1.33,4,4,0,0,0-.76,1.71l1-.38"/>
        <path class="cls-5" d="M36.89,81.72c.07,1.23,0,.33.38.69,1.89-3.37,10.31-4,14.44-4,1.27,0,5.18.06,5.92-.66-1.71-1.11-3.42-2.3-5.25-3.34-3.15-1.79-2.58-1.86-6-.3s-9,4.68-9.53,7.62"/>
        <path class="cls-9" d="M158.18,5C152.88-.45,142.48,3,138,10.34c-2.23,3.64-2.6,6.31-2.25,7.79.84-.28,1.68-.55,2.53-.81.42-2,.91-5.14,5.26-9a19.32,19.32,0,0,1,6.22-4c4.58-1.48,4.84.24,8.47.65"/>
        <path class="cls-6" d="M70.84,76c.09,0,.21,0,.26.13s.19.08.26.12a2.5,2.5,0,0,1,.58.4,2.92,2.92,0,0,0,2.81,1c.13-1.26-.92-1.89-1.62-2.77-3.68-4.68-3.81-10-12.12-15.59-1.16-.78-2.34-1.3-2.87-2.09-1.17.48-2.16,1.24-.6,2.32l5,3.64c2.57,2,9.49,8.59,8.32,12.81"/>
        <path class="cls-5" d="M72.54,59.06c1.42-.38,2.3-2.19,1.79-4.18-.61-1.43-1.27-3.24-2.44-4-2.59.18-3.37,3.44-3.51,6.23,2.07.66,2.78,1.72,4.16,1.93"/>
        <path class="cls-6" d="M72.54,59.06A20.61,20.61,0,0,0,76,61.91c.59-.82,1-.77,2.22-.88.11-.55,0-.23.36-.57l.15-.11.16-.09.53-.25c-1.09-.94-2-1.45-2.84-2.24-1.09-1-1.28-1.87-2.21-2.89.51,2-.37,3.8-1.79,4.18"/>
        <path class="cls-4" d="M170.06,16c3.17.2,6.2,6.65,7.16,9.71,1.38,4.44,1.8,8.91,3.91,12.71.46-.63.19-.92.07-1.86.69.77,1.18,1.51,1.81,2.19a9.79,9.79,0,0,1,1.64,2,2.47,2.47,0,0,1,.45.46L186.39,44a11,11,0,0,1-.19,4.4c-1.9,9.47-4.24,6.66-8,11.07-1,1.1-3.58,4.14-3.93,5.53.92-.83,1.85-2.47,2.89-2.93.42-.83,3.44-3.84,4.66-3.81.14,18.91,16.8,18.65,12.47,22.39-.25.22.07.24-1.27.37-.53,0-1,0-1.57.1a12.51,12.51,0,0,0-2.34.58c-1.72.57-2.46,1.62-4.43,1.2-5.53-1.18-3.83-2.53-6-5.07-.56-.67,0-.27-.81-.67.6,2.37,3,5.45,1.09,8.14a5.85,5.85,0,0,1-7,2l.5-3.41c-.2-3.69-3.08-7-4.57-9.76a10.16,10.16,0,0,1-1.47-5.71c.19-3.27.23-1.94,2.68-4.24,3.84-3.59,6.16-9.64,6.48-15.41a31.63,31.63,0,0,0,.06-3.51,20.57,20.57,0,0,0-.52-2.78c.36.39.54.28.78,1l.35,1.54c.46-2,.18-1.49-.37-3.33.91-.41.79-.26,1.24-1.08-1.88.47-2.09,1.6-6.43,2.77-9.29,2.51-9.12-1.54-2.52-4.34,3-1.26,4.58-1.08,7.84-1.43l-2-.26c.34-3.75.28-5.31-1.54-8.14s-6.49-6.23-10.07-4c-1.57,1-1.32,1.27-1.78,2.84-1.09,3.73-.81,5.1-.24,8.9-1-1.22-1.54-1.74-3.53-1.27.59-4.09,1.11-5.77.68-10,.69-.18-.69-.39.21.19.73.46-.5.43.26.07l-.28-.94c-.28-1,.21-1.09.93-1.91,4.12-4.72,3-9.49,9.42-8a6,6,0,0,1,1.2.4c.92.49.37.13.8.65M145.15,82.8l.34,2.64c-2.5,1.93-7.12,2.29-7.7-1.49-.48-3.13,2.54-5.81,3.48-8.3-1,.51-1.58,1.89-2.54,2.5-1.58,1-8.62,2.32-11.35-.61.18-1.39.74-1.7,1.79-2.19.3-.45,3.13-2.31,3.87-2.89a16.64,16.64,0,0,0,3.5-3.51,20,20,0,0,0,4.53-9.2c2,1.15,5.34,4,6,6.06.26-.27.8-.3-.12-1.69a16.62,16.62,0,0,0-3-3.43c-.77-.74-1.45-1.45-2.16-2.14a12.5,12.5,0,0,1-2-2.34c-2.6-4.29-2.74-11.35.4-13.11.3-1.28,2.05-2.76,3-3.67,1.47-1.5,2.59-2.18,3.06-3.11L149,29.13c.41-1.07.22-1.56,1.32-1.5-1.24,2.89-2.36,5.28-2.5,9.34-4.24,2.4-7.89,10-6.17,15.74.51,1.71,1.8,4.12,2.94,4.63l.27-.85c.07-.26.08-.56.17-.91,1.09-4.45,8.58-4.81,10-2.78s.1,5-.95,6.46c-2.32,3.33-4.93,1.8-5.91,1.64-.39,2,3.25,5.75,4.23,6.31-.43,2.57-3.09,5.39-4.41,7.23A12.4,12.4,0,0,0,145.15,82.8Zm3.67-46.65a19.58,19.58,0,0,1,2.12-7.41c.89-1.82,1-1.1,2.78-1.8,1.26-.49,1.83-1.13,2.87-1.6a12.88,12.88,0,0,1,.32,4.81c-.52-.89-.13-.85-1-1.23-1.79.91-1.66,4.37-1.8,6.75C151.78,35,150.82,35.59,148.82,36.15Zm19.38,2.08a21.26,21.26,0,0,1-2.29,1.15c-.86.47-1.28.87-2,1.29-4.94-3.23-4.32-13.55-.06-15.18,4.88-1.86,11.65,7,9,11.71Zm-2.87,7,3.85-.39c-.84,5.82-6.14,8-12.32,6.65-2.64-.57-5.34-1.6-8.17-.79a6.6,6.6,0,0,0-4.63,5l-.89-1.93c-2.3-8.79,3.71-17.14,9.18-17.21,2.67,0,4.37,2,6.08,2.82,0-1.67-1.44-.79-1.91-2.93,3.88-1.34,1.7,1,6.44,5.21C162.22,43.89,163.19,45,165.33,45.23Zm9-2.35c.87,3.27,0,9-1,12.23-4.11,13.4-19.75,16.7-23.86,7.28,6.29-.14,8-6.69,6.44-9.85l1.41.36c.67,2,.62,4.88-.6,6.35-1.5,1.8-2.57,2.28-2,5.31l-3.37-1.36c8.26,7.7,17.85-.48,20.54-8.94,1.49-4.71,1-5.95,1.13-10.71ZM161.74,58.72c.51-.52.37-.6.82-1.14.32-.37.67-.66.95-.94a5.38,5.38,0,0,1,2.35-1.7c1.07-1.27,3.21-1,4.27,0,.42,1.18-2.63,5.25-3.32,6.11A13.22,13.22,0,0,1,161,64.9c-8.68,2.7-5.78-6.42.45-7.67-.6,1.65-2.05,2.93-2.82,6.5.89-.36.5-.93,1.36-2.51.25-.46.49-.84.8-1.34ZM167.87,77c.75.54,7.29,8.7-.48,12.35-4.11,1.94-10.95,1.19-9.95-7.28.32-1.79.68-3.5.91-5.34.17-1.41.53-4.19-.33-5.39-.11,4.73-2.3,9.8-1.86,14,.57,3.59,1.45,3.46,2.88,5.11-.86,1.58-3.44,2.66-6,1.79-7-2.34-8-12.55-4.19-16.67,1.3-2.28,3.78-4.8,4.29-7.71,6.31,1.78,7.3,1.06,12.79-1.12-.4,2.41-.72,3.33,0,5.86C166.39,74.32,167.65,75.9,167.87,77ZM186.8,85c.09-.59.14-.47.93-.94a10.1,10.1,0,0,1,5-1.4c6.11-.3,13.74,3.54,18.47,6.47s15.86,10.4,19.25,14.1a11.54,11.54,0,0,1,2.26,3.14,21.86,21.86,0,0,1-5.27-1.36c-.37.17-.25-.4-.29.71.69.25,3,3.07,3.56,4a11,11,0,0,1,1.94,5.78,5,5,0,0,1-.9,2.68c-1.59-.45-2.82-2-3.77-3-.65-.68-2.16-3.81-2.92-3.15,1,2.73,3.66,6.94,1.82,10.53-.64,1.49-1.15,2.31-2.67,2.77-3.17-1.74.66-5.45-1.34-7.57-.83.62-.79,2.29-1.05,3.37-1,4-4,7.73-6.92,10a65.11,65.11,0,0,1-7.39,5.26c-2.7,1.64-18.5,9.74-19.4,14.29,1.81-.8,3.61-3.36,5.69-4.26a7,7,0,0,1,2.94,5.33,16.93,16.93,0,0,1-1.55,6.73c.23.4-.53.35.59.3.31-.75,1.62-3.62,2-4.31a5.15,5.15,0,0,1,.43,1.37,8.41,8.41,0,0,0,.15.94c.24.85-.22,0,.28.57a3.5,3.5,0,0,0-.32-4c-.88-1.29,0-1-.87-4.54-.61-2.41,2.36-5.06,5.11-4.88-1.33,4.69.2,6.16.51,8.37a3.42,3.42,0,0,1,1.14,3.12C204,156.54,203,157,202,157.6c-3.24,2.11-2.06,1.3-4.64,3.7-2,1.8-3,1.59-6.34,1a32.59,32.59,0,0,1-16.24-8.77c-2.51-2.7-5.79-8-2.57-11.51,1.34-2.76,7-7.76,10-11.71,1.14-1.48,2-2.62,3.1-4.17,2.08-2.83,3.77-5.85,5.74-8.79,3.61-5.41,5.56-5.37,7.64-7-1.19-.47-3.46.76-4.32,1.45-1.83,1.25-2.08,2.06-3.61,3.37a2.38,2.38,0,0,1-.42-.37,39.77,39.77,0,0,1-3.93-6,44.89,44.89,0,0,1-3.19-7.57C181.49,95.2,182.39,87.52,186.8,85ZM176,134.82c.43-1.84,9.81-19.63,10.5-22.6l3.5,4c-3.26,4.87-6.11,9.72-10,14.21l-1.86,2.17A8.83,8.83,0,0,1,176,134.82Zm19.06,10.77a1.65,1.65,0,0,1,.42-.44l4.71-2.83c2.08-1.17,1.87-.19,1.89-.17-2.67,1.72-2.69-.25-5.91,4.41Zm-45.52,27.08c1.45.21,2.92.38,4.4.52a10.27,10.27,0,0,0-4.59-.68Zm-64.4-55.24c.27.85.55,1.7.85,2.54,1.26-.79,2.42-1.71,2.44-2.53C87.77,117,86.54,117.25,85.17,117.43Zm-1.86-7.19c.24,1.12.49,2.23.77,3.34l.19.25-.11,0,.33,1.23c1.5-.43,1.73.06,3.15.65l.87-.29c-.26-.76-.93-.91-1.82-1.62A21.39,21.39,0,0,1,83.31,110.24ZM178,171.82l1.69-.37c-.28-2-.64-3.92-1.07-5.79-.77-3.32-2.46-7.28-2.81-8.77.89.23,8.64,7,16.41,7,2.13,0,3.29.4,4.77-.35,3.29-1.65,2.38-4.17,6.06-1.67l1.54-1c-.36-.21-.91-.49-2.3-1.39,3.11-2.81,3.45-2.39,6-1.13l.52-.38a4.27,4.27,0,0,1-1.44-1l-1.51-.3,0-3.45a8.4,8.4,0,0,0,3.95,1.11c1.22.08,2.31.14,3.3.22.57-.48,1.14-1,1.69-1.47-2.47-.26-5.05,0-7.26-.75a4.81,4.81,0,0,1-2.93-1.86c4.67.49,9.2-.72,13.69-.73l.63-.65c-4.39-.08-8.29,1.31-12.66,1-2.26-.16-2.1-.08-2.39-2.17,3.31,1.25,4.4,1.12,8.14.39,1.79-.35,6-1.67,7.49-1.58a6,6,0,0,1,2.45-.92c.45-.53.9-1.06,1.34-1.6-.6.1-1.42.29-4.66.75-.92.45-14.82,4.84-14.69.67,2,.08,2.53,1.08,5.72.61,5.54-.82,11.44-5.85,13.36-6.18.7-1.09,2.94-2.15,5.29-2.7.42-.64.83-1.28,1.23-1.93-3.48.48-6.66,2.47-9.45,4.3-1.23.81-2.23,1.4-3.49,2.17-2.46,1.48-5.71,3.08-8.73,3.13a7.67,7.67,0,0,1-2.71-.29c-1.13-.44-.52-.24-.52-1.89a6.22,6.22,0,0,0-1.35-.26c.27-1,.19-.22.31-.76v-1.18l3.69-2.15c4-2.44,13.75-8.68,14.85-13.41,1,.67,1.74,3.48,5-.06,1.45-1.55,2-3.45,2-6.4,1.07.29,1.5,1,2.46,1.33s1.28.15,1.91-1c2.52-4.6-.54-8.44-1.95-11.1,4,.33,5,.81,2.61-3.15-2.77-4.55-7.7-7.42-11.76-10.31s-6.16-4.42-10.48-7c-1-.57-1.92-1-2.92-1.65a42.13,42.13,0,0,0-9.23-4c-1.16-.36-2.55-.55-3.74-.83.56-2.42.06-3.63-3.11-5.5-4.44-2.62-6.82-5-8.57-10.28a27.86,27.86,0,0,1-1.51-7.9c2.9-.78,7-9.75,4.4-15.17-2.22-4.65-5.65-4.47-6.82-9.32-1.42-5.86-2.56-12.88-7.5-16.72-.77-.6-.82-.37-1.23-1.47a.76.76,0,0,0,0-.11l-1.12-.12c.05.11.09.23.14.35l-1.52-.5c-1.85-.18-3.72-.29-5.6-.34-2.94,3.32-5.73,10-10.21,11.74-7.66,2.9-11.06-5.42-5.69-10.57-.66.12-1.32.24-2,.38a8.74,8.74,0,0,0-2.05,5.2c.11,2.88.67,3.64,2.09,5.16a5.75,5.75,0,0,1-9.55,3.36c-3.29-2.8-3.54-7.52-2.92-10.15l-1.84.73c-.48,3.25,0,6.51,2.25,9,6.36,6.79,12.82,1.57,13.13-2.09a6.77,6.77,0,0,0,1.61.54l-2.41,7.54c-2.22,4.75-7.77,5.61-9.05,11.4a13.74,13.74,0,0,0,2.54,11.79c.87,1.06.84.9-.19,3.75a24.44,24.44,0,0,1-1.66,3.45C134.11,71,129.75,72.62,127,75c-1.35,1.19-.92,2-.76,3.82-4.16,2.78-4.44,5-9.38,8.91-1.82,1.45-9.12,7-11.34,7.23-.61-1.26-2.14-7.5-3.35-10.38-1.83-4.4-3.05-5.15-5.27-8.45,2.58-4.88-1-8.49-4.14-10.39A24.89,24.89,0,0,1,90.1,64.4a26.58,26.58,0,0,0-2.31-1.57c-.37.88-.72,1.77-1.06,2.66a13.63,13.63,0,0,1,3.94,1c.68.3,1.71.74,2,1.28A5.92,5.92,0,0,1,96,74.43c-.77,3.66-3.8,3.42-4.39,5.46,1.79.15,3-1.6,4.24-2.12,1.88,2.21,4.21,4.8,5.18,8.37,1.43,3.18,3.45,13.52,6.15,15.94l.41.3c-.29-1.3-.89-2.36-.88-3.58a5,5,0,0,1-.84-2.22c1.51.31,3.16,1.88,4.08,2.62l.09-.41c-.37-.51-.94-1.16-1.31-1.6-.6-.71-.94-.74-1.46-1.39.51-.4,3.68-1.92,6.13-3.71,1.07-.79,5-3.73,5.69-3.91.45-1,3.7-3.88,4.72-5,3.32-3.76,3.65-3.49,5.74-3-.84,1.28-1.74,2.06-2.73,3.53-.64.94-1.5,3-2.31,3.66-.11,1.11-1.55,4.22-2,5.76-2,6.78-1.39,10.94-5.28,14.35-.55.49-1.61,1-2.22,1.55l.18,1a20.41,20.41,0,0,0,5,.18c-.39,1.81-3.73,3.78-5.17,4.73-5.25,3.45-14.24,7.44-20.58,8.33a5.72,5.72,0,0,1,1.11-1.77,4.33,4.33,0,0,0,.65-2.66c-1.21-.15-1.77.6-2.71,1.21a15.67,15.67,0,0,1-6.65,2.13l.53,1.35a14.65,14.65,0,0,0,3.13-.54c1.14-.36,2-.89,2.93-1.12-1.53,2.28-4.11,4.34,3.77,2.43a57.38,57.38,0,0,0,20.72-9.42c.65-.49,1-.91,1.61-1.35,0,4,.93,9.89,3.43,13,.56.69.56.72,1.68.75a11.06,11.06,0,0,0,.54-2.69h.54c1,4.46,9.09,15.63,9.39,17.52l2.26,18.73c.39,3.14.82,6.33,1.44,9.43.64.19,1.29.38,1.94.55-1.14-5.25-1.85-11.14-2.28-14.83-.29-2.54-1-6.44-1-8.68,0,.71.2,1,1,1.26l-.15-1.14a39.67,39.67,0,0,0-4.52-11.25c-1-1.69-2-3.4-3-5.11A38.2,38.2,0,0,1,128,125.9l-2.28-5.29c-1.45,0-.69.08-1.26,1.67a10.34,10.34,0,0,1-1,2.06L122.38,122A24.06,24.06,0,0,1,121,114.1a17.52,17.52,0,0,1,.58-4.07,27.7,27.7,0,0,0,1.08-3.11l-.82-.15a10.81,10.81,0,0,1-1.27,2.13l-2.16,0a36.49,36.49,0,0,1,2.55-2.82c.13-1,1-2.78,1.31-4.55s.61-3.26,1-4.92A38.67,38.67,0,0,1,126.4,88a28.2,28.2,0,0,1,3.77-6.33c1.27-1.63,1.6-.89,3.77-1.14a25.57,25.57,0,0,0,3.81-.92c-.58,1.32-1.29,2.35-1.13,4.21A4.69,4.69,0,0,0,140,88c2.8.59,4.15-.57,5.9-1.32a34.75,34.75,0,0,0,1.79,3,23.77,23.77,0,0,1,2,2.38c1.84.75,3.08,2.06,5.92,1.63,2.4-.37,3.34-1.87,4.58-2.82,4.19.87,8.92.19,10.69-2.72,3,.69,3.28,1.77,6.77-.2,2.1-1.19,2.9-2.23,3.31-5.28a15.57,15.57,0,0,0,3.72,1.4c-.67,1.33-1.49,1.4-2.74,4.12a14.19,14.19,0,0,0-1.33,5.15,24.68,24.68,0,0,0,2,11.17c2.8,6.93,3.78,4.61,1.79,8.8L180,122.18c-.28,1.31-2.49,5.39-3.23,6.94-1.17,2.44-2.17,4.58-3.17,7a9.73,9.73,0,0,1-1.73,3.38c-5.5,7.19-.42,11.57,1,14.85a67,67,0,0,1,4,11.37A51.38,51.38,0,0,1,178,171.82Z"/>
        <path class="cls-5" d="M186.8,85c-4.62,7.31,1.73,21.69,6.67,26.14.51.46.17.38,1,.6.86-.69,3.13-1.92,4.32-1.45-2.08,1.65-4,1.61-7.64,7-2,2.94-3.66,6-5.74,8.79-1.14,1.55-2,2.69-3.1,4.17-3,3.95-8.69,8.95-10,11.71-.67,7.87,7.87,13,13,15.89,3.11,1.75,6.91,3.71,11,1.88,2.36-1.07,7-4.75,6.93-7.44-.31-2.21-1.84-3.68-.51-8.37-2.75-.18-5.72,2.47-5.11,4.88.89,3.58,0,3.25.87,4.54a3.5,3.5,0,0,1,.32,4c-.5-.53,0,.28-.28-.57a8.41,8.41,0,0,1-.15-.94,5.15,5.15,0,0,0-.43-1.37c-.43.69-1.74,3.56-2,4.31-1.24,1-1.24-1-1.35-2-.44-3.91-1.23-6-5.22-6.18-.25.52-.73,1.48-1.41,1.58-1.54.23-.24.18-.79-.19-.82-2.66,6.18-9.17,7.47-10.34,7.64-6.93,19-9.24,25.42-20.33,1.52-2.64,1.27-4.13,2.28-6.87,4.29,3,3.92,7.17,4.7,8.07,1.84-3.59-.78-7.8-1.82-10.53-.16-.23-.7.44,0-.64,4.22,0,5.39,1.52,7.18,3.64l.45.5a11,11,0,0,0-1.94-5.78c-.61-.92-2.87-3.74-3.56-4l-.92-.71c.43-.92.73-1,1.72-1.21l1.88-.28c.74-.2.17.08.62-.29-3.39-3.7-14.44-11.13-19.25-14.1s-12.36-6.77-18.47-6.47a10.1,10.1,0,0,0-5,1.4c-.79.47-.84.35-.93.94"/>
        <path class="cls-5" d="M126.4,88a38.67,38.67,0,0,0-3.06,8.64c-.42,1.66-.71,3.16-1,4.92s-1.18,3.51-1.31,4.55c.42.26-.06.14.62.13l.75-.11.33.77a27.7,27.7,0,0,1-1.08,3.11,17.52,17.52,0,0,0-.58,4.07,24.06,24.06,0,0,0,1.34,7.91c.07-.05.16-.2.19-.15.25.46.94-2.49,2.84-2.33l.33,1.08L128,125.9c1.12.87,7.79,12.2,17.08,14,.37-8.07,1.88-13.56,5.65-19a25.87,25.87,0,0,1,6.11-6.27c1-.76,6.87-4.36,7.75-4.38.63.88.8,2.76,1.26,3.82,3.1-2.69,15.91-21.69,4.95-24.49a9.42,9.42,0,0,1-4,3.29c-3.13,1.48-3.8.39-6.15-.22-1.12,1.37-2.14,3.17-5.61,2.64-2.57-.38-3.91-1.81-5.42-3.14a23.77,23.77,0,0,0-2-2.38,34.75,34.75,0,0,1-1.79-3c-1.75.75-3.1,1.91-5.9,1.32a4.69,4.69,0,0,1-3.37-4.2,25.82,25.82,0,0,0-5.82,1.43c-3.48,1.55-2.92,2.08-4.4,2.75"/>
        <path class="cls-5" d="M149.57,172.67l-.19-.16-1.09,0,1.28.21M166,127.87c-.91.62-2.28,3.17-2.74-.19-.88.15-7.65,9.1-9.19,13.42-1.4,4-.9,4.34-1.32,5.93-.11,1.62.66,2.69.23,3.76-1.91.72-5-.87-6.46-1.79-2.05-1.29-2.79-2.46-4.35-3.9-2.8.38-2.33,1.18-3.89,2.34l.15,1.14c-.79-.28-1-.55-1-1.26,0,2.24.73,6.14,1,8.68.43,3.69,1.14,9.58,2.28,14.83,2.25.6,4.55,1.11,6.88,1.52.56-3.6,8.57.07,10.34,1.11,1.15,0,2.3.08,3.46.08A79.64,79.64,0,0,0,178,171.82a51.38,51.38,0,0,0-1.12-6,67,67,0,0,0-4-11.37c-1.4-3.28-6.48-7.66-1-14.85a9.73,9.73,0,0,0,1.73-3.38c1-2.47,2-4.61,3.17-7,.74-1.55,2.95-5.63,3.23-6.94.16-2.88-1.79-3-4.52-2.8-1.42,1.71-1.77,2.87-4,4.94C170.24,125.41,168,127.46,166,127.87Z"/>
        <path class="cls-5" d="M87.64,115.74c-1.42-.59-1.65-1.08-3.15-.65.22.78.44,1.57.68,2.34,1.37-.18,2.6-.42,3.29,0,0,.82-1.18,1.74-2.44,2.53.26.75.53,1.5.81,2.24a15.67,15.67,0,0,0,6.65-2.13c.94-.61,1.5-1.36,2.71-1.21a4.33,4.33,0,0,1-.65,2.66c1,.64,4.61-1.19,5.57-1.64,3.28-1.54,13.18-7.46,14.06-9.83l-.18-1c.61-.52,1.67-1.06,2.22-1.55,3.89-3.41,3.27-7.57,5.28-14.35.46-1.54,1.9-4.65,2-5.76-1.91-.67-3.89.17-5.42.81-.72.18-4.62,3.12-5.69,3.91-2.45,1.79-5.62,3.31-6.13,3.71.52.65.86.68,1.46,1.39.37.44.94,1.09,1.31,1.6l.78,2.28c-1.14-.42-3.61-2.52-4.11-2.27,0,1.22.59,2.28.88,3.58l-.41-.3c-2.7-2.42-4.72-12.76-6.15-15.94-2.86-1.47-5.57-5.43-12.31-3.12-1.74.6-4.58,2-5.37,3-2,2.39-1,18.73,4.53,26.39,1.91,2.67,3.72,2.75,3.32,4.59a3,3,0,0,1-1.78-.47l-.94-.4Z"/>
        <path class="cls-6" d="M149.66,92.09c1.51,1.33,2.85,2.76,5.42,3.14,3.47.53,4.49-1.27,5.61-2.64,2.35.61,3,1.7,6.15.22a9.42,9.42,0,0,0,4-3.29c11,2.8-1.85,21.8-4.95,24.49-.46-1.06-.63-2.94-1.26-3.82-.88,0-6.7,3.62-7.75,4.38a25.87,25.87,0,0,0-6.11,6.27c-3.77,5.48-5.28,11-5.65,19-9.29-1.78-16-13.11-17.08-14a38.2,38.2,0,0,0,2.78,5.18c1,1.71,2,3.42,3,5.11a39.67,39.67,0,0,1,4.52,11.25c1.56-1.16,1.09-2,3.89-2.34-.1-1.24,0-.53.22-.79,1.93,1.24,4.43,4.56,9.12,5.11-1.36-9.35,1.14-16.54,7.46-22.77,1.15-1.14,4.22-4.74,5.91-4.36a11.74,11.74,0,0,1,.22,3.61c2.22-1.26,7.87-10.61,9.31-14,2.77-6.51,2.82-10.88,2.59-17.75,0-.31-.06-1.1,0-1.36.13-1.68,0-.84.53-1.31a49.41,49.41,0,0,1,.86,11.15c-.58,8.5-5.6,17-10.89,23.32L166,127.87c2-.41,4.24-2.46,5.45-3.55,2.27-2.07,2.62-3.23,4-4.94,2.73-.19,4.68-.08,4.52,2.8l4.41-8.84c2-4.19,1-1.87-1.79-8.8a24.68,24.68,0,0,1-2-11.17,14.19,14.19,0,0,1,1.33-5.15c1.25-2.72,2.07-2.79,2.74-4.12a15.57,15.57,0,0,1-3.72-1.4c-.41,3-1.21,4.09-3.31,5.28-3.49,2-3.75.89-6.77.2-1.77,2.91-6.5,3.59-10.69,2.72-1.24.95-2.18,2.45-4.58,2.82-2.84.43-4.08-.88-5.92-1.63"/>
        <path class="cls-6" d="M157.71,24.88l.28.94c-.76.36.47.39-.26-.07-.9-.58.48-.37-.21-.19.43,4.25-.09,5.93-.68,10,2-.47,2.52.05,3.53,1.27-.57-3.8-.85-5.17.24-8.9.46-1.57.21-1.88,1.78-2.84,3.58-2.2,8.28,1.25,10.07,4s1.88,4.39,1.54,8.14l2,.26c-3.26.35-4.87.17-7.84,1.43-6.6,2.8-6.77,6.85,2.52,4.34,4.34-1.17,4.55-2.3,6.43-2.77-.45.82-.33.67-1.24,1.08.55,1.84.83,1.29.37,3.33l-.35-1.54c-.24-.71-.42-.6-.78-1a20.57,20.57,0,0,1,.52,2.78,31.63,31.63,0,0,1-.06,3.51c-.32,5.77-2.64,11.82-6.48,15.41-2.45,2.3-2.49,1-2.68,4.24a10.16,10.16,0,0,0,1.47,5.71c1.49,2.71,4.37,6.07,4.57,9.76,4.5-.55,4.16-4.82,3.76-9.12,2.05.24,1.27,2.12,5.76,4.32,1.95,1,6,1.83,7.18-.45.15-1-4.26-4.57-6.35-7.89-2.81-4.47-1.81-6-5.68-8.64-1,.46-2,2.1-2.89,2.93,0,1.76,0,.22-.75,1.37l-1.13,3.4c-.43,1.4-.12,1.14-1.36,1.39-1-2.61.53-7.09,1.69-9.06,5.05-8.61,12.79-6,12-21.31a9.79,9.79,0,0,0-1.64-2c-.63-.68-1.12-1.42-1.81-2.19.12.94.39,1.23-.07,1.86-2.11-3.8-2.53-8.27-3.91-12.71-1-3.06-4-9.51-7.16-9.71-3.75-.51-5.47,1.63-7,3.61-1.94,2.59-2.11,3.53-5.39,5.25"/>
        <path class="cls-5" d="M83,78.85l.38-.1c4.71-1.28,11.15-4.71,9.28-11-.26-.54-1.29-1-2-1.28a13.63,13.63,0,0,0-3.94-1A79.53,79.53,0,0,0,83,78.85"/>
        <path class="cls-6" d="M83.31,110.24a21.39,21.39,0,0,0,3.38,3.59c.89.71,1.56.86,1.82,1.62l-.87.29.83.37.94.4a3,3,0,0,0,1.78.47c.4-1.84-1.41-1.92-3.32-4.59-5.49-7.66-6.53-24-4.53-26.39.79-.94,3.63-2.38,5.37-3,6.74-2.31,9.45,1.65,12.31,3.12-1-3.57-3.3-6.16-5.18-8.37-1.27.52-2.45,2.27-4.24,2.12.59-2,3.62-1.8,4.39-5.46a5.92,5.92,0,0,0-3.35-6.63c1.87,6.24-4.57,9.67-9.28,11l-.38.1a80.21,80.21,0,0,0,.33,31.39"/>
        <path class="cls-7" d="M145.59,15.47q-3.75.75-7.36,1.85a6.13,6.13,0,0,1-.31,1.12c-.62,1.48-1.84,1.28-2.22-.31-.52.17-1,.36-1.54.54,1.14,5,4.38,6.69,8.56,2.66a3.06,3.06,0,0,1,.82-.66,8.74,8.74,0,0,1,2.05-5.2m12-1.48a7.7,7.7,0,0,1-1.52.73c-.73.35-1.42.8-2.05,1.18-2.15,1.27-2,4.23-3.56,2.74-1.05-1,.13-3,2.19-4.26-1,.11-2,.24-3,.38-1.14,1.56-2.4,3.68-1.52,5.38,1.36,2.63,5.62,1.53,7.44,0s3.08-4,4.85-5.89l.33-.33Q159.13,13.92,157.57,14Z"/>
        <path class="cls-6" d="M140.13,43.1c0,6.45.17,9.87,3.45,14.11,1.95,2.52,7.15,6.58,5,11.42-.82-.6-.41-.25-.87-1.36a9.36,9.36,0,0,0-.71-1.46c-.62-2.11-4-4.91-6-6.06a20,20,0,0,1-4.53,9.2,16.64,16.64,0,0,1-3.5,3.51c-.74.58-3.57,2.44-3.87,2.89,1,1.9,5.4,1.18,7.68.83,4-.6,4.16-3.09,6.39-3.29-1,3.23-4.19,10.18,1.91,9.91a12.4,12.4,0,0,1,2.79-8.36c1.32-1.84,4-4.66,4.41-7.23-1-.56-4.62-4.3-4.23-6.31,1,.16,3.59,1.69,5.91-1.64,1.05-1.5,2.39-4.37.95-6.46s-8.9-1.67-10,2.78c-.09.35-.1.65-.17.91l-.27.85c-1.14-.51-2.43-2.92-2.94-4.63-1.72-5.79,1.93-13.34,6.17-15.74.14-4.06,1.26-6.45,2.5-9.34-1.1-.06-.91.43-1.32,1.5l-2.82,7.19c-.47.93-1.59,1.61-3.06,3.11-.9.91-2.65,2.39-3,3.67"/>
        <path class="cls-10" d="M204.52,150.53a4.81,4.81,0,0,0,2.93,1.86c2.21.73,4.79.49,7.26.75q1.8-1.62,3.5-3.34c-4.49,0-9,1.22-13.69.73"/>
        <path class="cls-7" d="M148.8,75.54a14.07,14.07,0,0,0,1.38,7.64c1.41,2.61,2.83,2.79,6,2.13-.44-4.2,1.75-9.27,1.86-14,.86,1.2.5,4,.33,5.39-.23,1.84-.59,3.55-.91,5.34,1,1.28,1.11,2.61,2.53,3.42a6.42,6.42,0,0,0,5.11.15c3.45-1.41,2.86-4.64,2.79-8.64-.22-1.07-1.48-2.65-2-4.4-.73-2.53-.41-3.45,0-5.86-5.49,2.18-6.48,2.9-12.79,1.12-.51,2.91-3,5.43-4.29,7.71m6.26-5.61c-.21,2.5-1.38,4.47-2.07,6.86s1.55,6.93-1.41,5c-1.82-1.18-1.63-4.71-.55-6.7.74-1.38,1.95-2.62,2.8-3.9C154.41,70.32,154.18,70.25,155.06,69.93Zm5.38,1.66c1.12,1.26,1.64,3.59,1.85,5.65s1.27,4.77.44,6.31C158.39,84.86,160.48,74.23,160.44,71.59Z"/>
        <path class="cls-6" d="M149.38,172.51a10.27,10.27,0,0,1,4.59.68q2,.18,4,.27c-1.77-1-9.78-4.71-10.34-1.11l.67.11Z"/>
        <path class="cls-11" d="M219.42,146.77c.56,0,1.11,0,1.67,0l.78-.88a6,6,0,0,0-2.45.92"/>
        <path class="cls-6" d="M195.77,158.8c-1.12,0-.36.1-.59-.3a16.93,16.93,0,0,0,1.55-6.73,7,7,0,0,0-2.94-5.33c-2.08.9-3.88,3.46-5.69,4.26.9-4.55,16.7-12.65,19.4-14.29a65.11,65.11,0,0,0,7.39-5.26c2.89-2.29,6-6.07,6.92-10,.26-1.08.22-2.75,1.05-3.37,2,2.12-1.83,5.83,1.34,7.57,1.52-.46,2-1.28,2.67-2.77-.78-.9-.41-5-4.7-8.07-1,2.74-.76,4.23-2.28,6.87-6.4,11.09-17.78,13.4-25.42,20.33-1.29,1.17-8.29,7.68-7.47,10.34.55.37-.75.42.79.19.68-.1,1.16-1.06,1.41-1.58,4,.19,4.78,2.27,5.22,6.18.11,1,.11,3,1.35,2"/>
        <path class="cls-12" d="M143.17,53.82c.24-.23.13-.1.35-.45.9-1.42.92-2.15,3.15-3.63,5.63-3.73,16.49.5,18.66-4.51-2.14-.27-3.11-1.34-2.37-3.52-4.74-4.18-2.56-6.55-6.44-5.21.47,2.14,1.88,1.26,1.91,2.93-1.71-.86-3.41-2.85-6.08-2.82-5.47.07-11.48,8.42-9.18,17.21m.84-4.28c-1.24-3.32,1.73-7.71,3.22-8.92a11.39,11.39,0,0,1,4-2.2c2.13-.61,4.33-.78,4.67,1.41-1.15,1.2-2.33.73-4.16,1.31-2.06.65-4.74,3.18-5.89,4.84A28.17,28.17,0,0,0,144,49.54Z"/>
        <path class="cls-10" d="M202.24,159.51c1.39.9,1.94,1.18,2.3,1.39,1.26-.81,2.48-1.65,3.68-2.52-2.53-1.26-2.87-1.68-6,1.13"/>
        <path class="cls-13" d="M177.14,62.05c3.87,2.69,2.87,4.17,5.68,8.64,2.09,3.32,6.5,6.94,6.35,7.89C188,80.86,183.94,80,182,79c-4.49-2.2-3.71-4.08-5.76-4.32.4,4.3.74,8.57-3.76,9.12l-.5,3.41a5.85,5.85,0,0,0,7-2c1.87-2.69-.49-5.77-1.09-8.14.82.4.25,0,.81.67,2.15,2.54.45,3.89,6,5.07,2,.42,2.71-.63,4.43-1.2a12.51,12.51,0,0,1,2.34-.58c.58-.07,1-.06,1.57-.1,1.34-.13,1-.15,1.27-.37,4.33-3.74-12.33-3.48-12.47-22.39-1.22,0-4.24,3-4.66,3.81"/>
        <path class="cls-11" d="M213,154.61c-1-.08-2.08-.14-3.3-.22a10.93,10.93,0,0,0,2.19,1.15l1.11-.93M207.3,157a4.27,4.27,0,0,0,1.44,1l.5-.37C208.6,157.41,208,157.2,207.3,157Z"/>
        <path class="cls-4" d="M142.17,145.1c1.56,1.44,2.3,2.61,4.35,3.9,1.47.92,4.55,2.51,6.46,1.79.43-1.07-.34-2.14-.23-3.76-1.59-1.9.88-10.47,2.73-13.66,2.12-3.68,5-7.19,8.19-9.12,0,1,.12,2.78-.41,3.43.46,3.36,1.83.81,2.74.19l1.46-1.89c5.29-6.29,10.31-14.82,10.89-23.32a49.41,49.41,0,0,0-.86-11.15c-.55.47-.4-.37-.53,1.31,0,.26,0,1.05,0,1.36.23,6.87.18,11.24-2.59,17.75-1.44,3.36-7.09,12.71-9.31,14a11.74,11.74,0,0,0-.22-3.61c-1.69-.38-4.76,3.22-5.91,4.36-6.32,6.23-8.82,13.42-7.46,22.77-4.69-.55-7.19-3.87-9.12-5.11-.25.26-.32-.45-.22.79"/>
        <path class="cls-14" d="M168.2,38.23l4.64-1c2.67-4.68-4.1-13.57-9-11.71-4.26,1.63-4.88,12,.06,15.18.71-.42,1.13-.82,2-1.29a21.26,21.26,0,0,0,2.29-1.15m0,0c-3.54-.26-3.74-6-2.14-8.06,1.91-.15,2.58,1.42,3,3.19a5.48,5.48,0,0,1-.86,4.87"/>
        <path class="cls-8" d="M169.07,14.26l1.52.5c-.05-.12-.09-.24-.14-.35q-.69-.09-1.38-.15m-21.5.83c-5.37,5.15-2,13.47,5.69,10.57,4.48-1.7,7.27-8.42,10.21-11.74-.68,0-1.37,0-2.05,0h-.7l-.33.33c-1.77,1.85-3,4.28-4.85,5.89s-6.08,2.65-7.44,0c-.88-1.7.38-3.82,1.52-5.38C148.94,14.86,148.25,15,147.57,15.09Z"/>
        <path class="cls-11" d="M224.89,142.11c-.57.22-1.18.46-1.82.74L218.55,145c3.24-.46,4.06-.65,4.66-.75.57-.7,1.13-1.41,1.68-2.14m-1.95-2a21,21,0,0,1,4.53-1.55c.25-.38.51-.76.76-1.15C225.88,138,223.64,139,222.94,140.1Z"/>
        <path class="cls-6" d="M194.44,111.78c-.8-.22-.46-.14-1-.6-4.94-4.45-11.29-18.83-6.67-26.14-4.41,2.48-5.31,10.16-3.51,16.15a44.89,44.89,0,0,0,3.19,7.57,39.77,39.77,0,0,0,3.93,6,2.38,2.38,0,0,0,.42.37c1.53-1.31,1.78-2.12,3.61-3.37"/>
        <path class="cls-6" d="M203.11,152.35c0,2.69-4.57,6.37-6.93,7.44-4.05,1.83-7.85-.13-11-1.88-5.1-2.88-13.64-8-13-15.89-3.22,3.54.06,8.81,2.57,11.51a32.59,32.59,0,0,0,16.24,8.77c3.31.59,4.39.8,6.34-1,2.58-2.4,1.4-1.59,4.64-3.7.93-.61,2-1.06,2.21-2.13a3.42,3.42,0,0,0-1.14-3.12"/>
        <path class="cls-8" d="M143.54,20.67a3.06,3.06,0,0,0-.82.66c-4.18,4-7.42,2.39-8.56-2.66l-1,.37c-.62,2.63-.37,7.35,2.92,10.15a5.75,5.75,0,0,0,9.55-3.36c-1.42-1.52-2-2.28-2.09-5.16"/>
        <path class="cls-15" d="M173,43.55c-.14,4.76.36,6-1.13,10.71-2.69,8.46-12.28,16.64-20.54,8.94l3.37,1.36c-.57-3,.5-3.51,2-5.31,1.22-1.47,1.27-4.35.6-6.35l-1.41-.36c1.59,3.16-.15,9.71-6.44,9.85,4.11,9.42,19.75,6.12,23.86-7.28,1-3.24,1.88-9,1-12.23Z"/>
        <path class="cls-13" d="M129.17,75.35c-1,.49-1.61.8-1.79,2.19,2.73,2.93,9.77,1.62,11.35.61,1-.61,1.5-2,2.54-2.5-.94,2.49-4,5.17-3.48,8.3.58,3.78,5.2,3.42,7.7,1.49l-.34-2.64c-6.1.27-2.87-6.68-1.91-9.91-2.23.2-2.41,2.69-6.39,3.29-2.28.35-6.69,1.07-7.68-.83"/>
        <path class="cls-8" d="M156.16,85.31c-3.15.66-4.57.48-6-2.13a14.07,14.07,0,0,1-1.38-7.64C145,79.66,146,89.87,153,92.21c2.61.87,5.19-.21,6-1.79-1.43-1.65-2.31-1.52-2.88-5.11"/>
        <path class="cls-15" d="M165.33,45.23c-2.17,5-13,.78-18.66,4.51-2.23,1.48-2.25,2.21-3.15,3.63-.22.35-.11.22-.35.45l.89,1.93a6.6,6.6,0,0,1,4.63-5c2.83-.81,5.53.22,8.17.79,6.18,1.33,11.48-.83,12.32-6.65Z"/>
        <path class="cls-13" d="M174.25,65c.35-1.39,3-4.43,3.93-5.53,3.78-4.41,6.12-1.6,8-11.07a11,11,0,0,0,.19-4.4l-1.29-2.75a2.47,2.47,0,0,0-.45-.46c.84,15.28-6.9,12.7-12,21.31-1.16,2-2.68,6.45-1.69,9.06,1.24-.25.93,0,1.36-1.39l1.13-3.4c.74-1.15.77.39.75-1.37"/>
        <path class="cls-8" d="M165.86,54.94l1.72-.23c-.5,1.56-.62,1-2.89,2.59a8.64,8.64,0,0,0-1.44,1.21l-1.05,1.16c0-.05-.11.1-.16.14-.24-.3-.34.3-.3-1.09l-.94,1.16c-.31.5-.55.88-.8,1.34-.86,1.58-.47,2.15-1.36,2.51.77-3.57,2.22-4.85,2.82-6.5-6.23,1.25-9.13,10.37-.45,7.67a13.22,13.22,0,0,0,5.8-3.89c.69-.86,3.74-4.93,3.32-6.11-1.06-1-3.2-1.23-4.27,0"/>
        <path class="cls-8" d="M157.44,82c-1,8.47,5.84,9.22,9.95,7.28,7.77-3.65,1.23-11.81.48-12.35.07,4,.66,7.23-2.79,8.64a6.42,6.42,0,0,1-5.11-.15c-1.42-.81-1.57-2.14-2.53-3.42"/>
        <path class="cls-9" d="M135.7,18.13c.38,1.59,1.6,1.79,2.22.31a6.13,6.13,0,0,0,.31-1.12c-.85.25-1.69.52-2.53.81"/>
        <path class="cls-7" d="M222.94,140.1c-1.92.33-7.82,5.36-13.36,6.18-3.19.47-3.75-.53-5.72-.61-.13,4.17,13.77-.22,14.69-.67l4.52-2.15c.64-.28,1.25-.52,1.82-.74.89-1.16,1.75-2.34,2.58-3.56a21,21,0,0,0-4.53,1.55"/>
        <path class="cls-6" d="M95.54,121.53a5.72,5.72,0,0,0-1.11,1.77c6.34-.89,15.33-4.88,20.58-8.33,1.44-1,4.78-2.92,5.17-4.73a20.41,20.41,0,0,1-5-.18c-.88,2.37-10.78,8.29-14.06,9.83-1,.45-4.52,2.28-5.57,1.64"/>
        <path class="cls-13" d="M147,65.81a9.36,9.36,0,0,1,.71,1.46c.46,1.11,0,.76.87,1.36,2.12-4.84-3.08-8.9-5-11.42-3.28-4.24-3.49-7.66-3.45-14.11-3.14,1.76-3,8.82-.4,13.11a12.5,12.5,0,0,0,2,2.34c.71.69,1.39,1.4,2.16,2.14a16.62,16.62,0,0,1,3,3.43c.92,1.39.38,1.42.12,1.69"/>
        <path class="cls-7" d="M207.3,157c.65.17,1.3.38,1.94.6.91-.67,1.8-1.38,2.67-2.09a10.93,10.93,0,0,1-2.19-1.15,8.4,8.4,0,0,1-3.95-1.11l0,3.45Z"/>
        <path class="cls-7" d="M221.09,146.73c-.56,0-1.11,0-1.67,0-1.52-.09-5.7,1.23-7.49,1.58-3.74.73-4.83.86-8.14-.39.29,2.09.13,2,2.39,2.17,4.37.33,8.27-1.06,12.66-1,.77-.79,1.51-1.59,2.25-2.42"/>
        <path class="cls-6" d="M152.75,147c.42-1.59-.08-2,1.32-5.93,1.54-4.32,8.31-13.27,9.19-13.42.53-.65.4-2.41.41-3.43-3.23,1.93-6.07,5.44-8.19,9.12-1.85,3.19-4.32,11.76-2.73,13.66"/>
        <path class="cls-14" d="M148.82,36.15c2-.56,3-1.14,5.3-.48.14-2.38,0-5.84,1.8-6.75.86.38.47.34,1,1.23a12.88,12.88,0,0,0-.32-4.81c-1,.47-1.61,1.11-2.87,1.6-1.81.7-1.89,0-2.78,1.8a19.58,19.58,0,0,0-2.12,7.41"/>
        <path class="cls-16" d="M144,49.54A28.17,28.17,0,0,1,145.86,46c1.15-1.66,3.83-4.19,5.89-4.84,1.83-.58,3-.11,4.16-1.31-.34-2.19-2.54-2-4.67-1.41a11.39,11.39,0,0,0-4,2.2c-1.49,1.21-4.46,5.6-3.22,8.92"/>
        <path class="cls-6" d="M126.4,88c1.48-.67.92-1.2,4.4-2.75a25.82,25.82,0,0,1,5.82-1.43c-.16-1.86.55-2.89,1.13-4.21a25.57,25.57,0,0,1-3.81.92c-2.17.25-2.5-.49-3.77,1.14A28.2,28.2,0,0,0,126.4,88"/>
        <path class="cls-6" d="M119.08,88.18c1.53-.64,3.51-1.48,5.42-.81.81-.62,1.67-2.72,2.31-3.66,1-1.47,1.89-2.25,2.73-3.53-2.09-.53-2.42-.8-5.74,3-1,1.16-4.27,4-4.72,5"/>
        <path class="cls-13" d="M157.71,24.88c3.28-1.72,3.45-2.66,5.39-5.25,1.49-2,3.21-4.12,7-3.61-.43-.52.12-.16-.8-.65a6,6,0,0,0-1.2-.4c-6.38-1.49-5.3,3.28-9.42,8-.72.82-1.21.88-.93,1.91"/>
        <path class="cls-9" d="M155.06,69.93c-.88.32-.65.39-1.23,1.27-.85,1.28-2.06,2.52-2.8,3.9-1.08,2-1.27,5.52.55,6.7,3,1.92.76-2.76,1.41-5s1.86-4.36,2.07-6.86"/>
        <path class="cls-4" d="M168.2,38.23a5.48,5.48,0,0,0,.86-4.87c-.42-1.77-1.09-3.34-3-3.19-1.6,2-1.4,7.8,2.14,8.06"/>
        <path class="cls-9" d="M160.44,71.59c0,2.64-2.05,13.27,2.29,12,.83-1.54-.24-4.32-.44-6.31s-.73-4.39-1.85-5.65"/>
        <path class="cls-6" d="M225.05,112c.76-.66,2.27,2.47,2.92,3.15.95,1,2.18,2.58,3.77,3a5,5,0,0,0,.9-2.68l-.45-.5c-1.79-2.12-3-3.64-7.18-3.64-.66,1.08-.12.41,0,.64"/>
        <path class="cls-9" d="M152.63,14.38c-2.06,1.27-3.24,3.24-2.19,4.26,1.53,1.49,1.41-1.47,3.56-2.74.63-.38,1.32-.83,2.05-1.18a7.7,7.7,0,0,0,1.52-.73c-1.66.08-3.31.21-4.94.39"/>
        <path class="cls-6" d="M227.14,105.76c0-1.11-.08-.54.29-.71a21.86,21.86,0,0,0,5.27,1.36,11.54,11.54,0,0,0-2.26-3.14c-.45.37.12.09-.62.29l-1.88.28c-1,.25-1.29.29-1.72,1.21Z"/>
        <path class="cls-9" d="M161.74,58.72c0,1.39.06.79.3,1.09.05,0,.14-.19.16-.14l1.05-1.16a8.64,8.64,0,0,1,1.44-1.21c2.27-1.61,2.39-1,2.89-2.59l-1.72.23a5.38,5.38,0,0,0-2.35,1.7c-.28.28-.63.57-.95.94-.45.54-.31.62-.82,1.14"/>
        <path class="cls-6" d="M106.7,98.8c.5-.25,3,1.85,4.11,2.27L110,98.79l-.09.41c-.92-.74-2.57-2.31-4.08-2.62a5,5,0,0,0,.84,2.22"/>
        <path class="cls-6" d="M122.38,122l1.14,2.33a10.34,10.34,0,0,0,1-2.06c.57-1.59-.19-1.63,1.26-1.67l-.33-1.08c-1.9-.16-2.59,2.79-2.84,2.33,0,0-.12.1-.19.15"/>
        <path class="cls-19" d="M67.85,199.61A19.75,19.75,0,0,1,54.62,195,10.08,10.08,0,0,1,52.56,197a9.83,9.83,0,0,1-6,2.28A7.92,7.92,0,0,1,40.32,196c-1.52,2.12-4.12,3.33-7.41,3.33a9.24,9.24,0,0,1-6.4-2.21,15.17,15.17,0,0,1-8.5,2.21H8.89c-5.4,0-8.89-3.31-8.89-8.42V169.81c0-5.11,3.49-8.42,8.89-8.42h8.47a15.25,15.25,0,0,1,9,2.39,9.18,9.18,0,0,1,6.58-2.39h9.45a12.19,12.19,0,0,1,9.4,4.3c.37.43.71.86,1,1.3.3-.34.61-.67.94-1a19.66,19.66,0,0,1,14.21-5.47A19.54,19.54,0,0,1,82.08,166c.41.4.8.82,1.17,1.25a13.71,13.71,0,0,1,11.68-6.57,26.88,26.88,0,0,1,7.54,1,16.85,16.85,0,0,1,3,1.26,8.45,8.45,0,0,1,5-1.5h16.84a8.67,8.67,0,0,1,4.54,1.18,10,10,0,0,1,4.53-1c2.22,0,5.47.79,8.32,4.56l.9,1.19.9-1.19c2.37-3,5.18-4.56,8.37-4.56,4.47,0,6.53,2.25,7.36,3.58a9,9,0,0,1,1.57,5,10.74,10.74,0,0,1-1.2,4.65l-.35.62-7.82,10.17v5.34c0,5.11-3.49,8.42-8.89,8.42s-8.94-3.31-8.94-8.42v-5.38l-6.33-8.43a9.47,9.47,0,0,1-2.49.45V191c0,5.11-3.49,8.42-8.89,8.42S110,196.09,110,191v-1.83a12.8,12.8,0,0,1-3.89,6.6,14.19,14.19,0,0,1-9.93,3.69,28.54,28.54,0,0,1-9.41-1.56,10.63,10.63,0,0,1-5.11-3.4A19.77,19.77,0,0,1,67.85,199.61Zm-.49-22.46a1.77,1.77,0,0,0-1.58.57,2.7,2.7,0,0,0-.67,2.07,2.64,2.64,0,0,0,.62,2,2,2,0,0,0,1.63.57,1.93,1.93,0,0,0,1.6-.58,2.91,2.91,0,0,0,.61-2,3.06,3.06,0,0,0-.72-2.18C68.74,177.49,68.43,177.15,67.36,177.15Zm39.68-.3a11.76,11.76,0,0,1,2.39,4.71v-4.29A9.12,9.12,0,0,1,107,176.85Zm202.09,22.29a28.58,28.58,0,0,1-9.41-1.56,13.07,13.07,0,0,1-2-.86,8.83,8.83,0,0,1-6.33,2.33,8.28,8.28,0,0,1-7.63-5h-2.12a8.28,8.28,0,0,1-7.57,5,8.74,8.74,0,0,1-6.7-2.7,14.35,14.35,0,0,1-8.85,2.79,28.58,28.58,0,0,1-9.41-1.56,12.54,12.54,0,0,1-2-.86,8.87,8.87,0,0,1-6.33,2.33,8.28,8.28,0,0,1-7.64-5H231a8.28,8.28,0,0,1-7.57,5,9.08,9.08,0,0,1-5.65-1.74,9.34,9.34,0,0,1-5.19,1.7,7.92,7.92,0,0,1-6.23-3.28c-1.52,2.11-4.11,3.32-7.41,3.32a9.19,9.19,0,0,1-6.4-2.21,15.17,15.17,0,0,1-8.5,2.21h-9.12c-5.4,0-8.89-3.3-8.89-8.42V169.51c0-5.11,3.49-8.42,8.89-8.42h8.47c3.74,0,6.74.8,9,2.39a9.18,9.18,0,0,1,6.58-2.39h9.45a12.19,12.19,0,0,1,9.4,4.3,13.7,13.7,0,0,1,3.35,7.08l2.63-5.76a8.93,8.93,0,0,1,16.59,0l3.28,7.16a13.6,13.6,0,0,1,13.6-13.54,27.25,27.25,0,0,1,7.54,1c3.41,1.08,5.6,2.67,6.75,4.89A7.41,7.41,0,0,1,272,172l-.09.27,2.52-5.51a8.93,8.93,0,0,1,16.59,0l3.28,7.16a13.6,13.6,0,0,1,13.6-13.54,27.25,27.25,0,0,1,7.54,1c3.41,1.08,5.6,2.67,6.74,4.89a7.36,7.36,0,0,1,.44,5.74,9.39,9.39,0,0,1-2.63,4.24,12.39,12.39,0,0,1,3.41,8.87,13.38,13.38,0,0,1-4.32,10.38A14.14,14.14,0,0,1,309.13,199.14Zm-39.3-22.43,1.16-2.52a8.65,8.65,0,0,1-1.64,2C269.52,176.36,269.68,176.53,269.83,176.71Z"/>
        <path class="cls-6" d="M195.09,145.59l1.11,1c3.22-4.66,3.24-2.69,5.91-4.41,0,0,.19-1-1.89.17l-4.71,2.83a1.65,1.65,0,0,0-.42.44"/>
        <path class="cls-6" d="M122.7,106.92l-.33-.77-.75.11c-.68,0-.2.13-.62-.13a36.49,36.49,0,0,0-2.55,2.82l2.16,0a10.81,10.81,0,0,0,1.27-2.13Z"/>
        <path class="cls-17" d="M67.85,197.5a17.64,17.64,0,0,1-12.63-4.83c-.45-.45-.88-.91-1.28-1.39a6.32,6.32,0,0,1-2.67,4.08,7.77,7.77,0,0,1-4.72,1.84,6,6,0,0,1-4.76-2.71l-2.09-2.8c-.31,3.5-2.8,5.56-6.79,5.56-2.92,0-5-1.12-6.07-3.1-2,2-4.94,3.1-8.83,3.1H8.89c-4.24,0-6.78-2.36-6.78-6.31V169.81c0-3.95,2.54-6.3,6.78-6.3h8.47c4.93,0,7.73,1.51,9.3,3.46,1-2.21,3.15-3.46,6.25-3.46h9.45a10.16,10.16,0,0,1,7.82,3.57A12.55,12.55,0,0,1,52.49,171a16.52,16.52,0,0,1,2.71-3.47,17.6,17.6,0,0,1,12.73-4.86,17.52,17.52,0,0,1,12.68,4.85,16.27,16.27,0,0,1,3.11,4.22A10.91,10.91,0,0,1,86.93,166a11.31,11.31,0,0,1,8-3.23,25.23,25.23,0,0,1,6.95.88,11.65,11.65,0,0,1,3.84,1.91,5.84,5.84,0,0,1,4.8-2.05h16.84a6,6,0,0,1,4.44,1.64,6.88,6.88,0,0,1,4.63-1.43c1.74,0,4.31.65,6.64,3.73l2.59,3.4,2.57-3.4c1.94-2.49,4.18-3.73,6.69-3.73,3.27,0,4.84,1.41,5.57,2.59a7,7,0,0,1,1.25,3.85,8.63,8.63,0,0,1-1,3.73l-.12.25-8.26,10.74v6.06c0,3.95-2.54,6.31-6.78,6.31s-6.83-2.36-6.83-6.31v-6.08L131,174.49a6.43,6.43,0,0,1-3.62,1h-1.64V191c0,4-2.53,6.31-6.78,6.31s-6.83-2.36-6.83-6.31V175.47h-1.59a6.15,6.15,0,0,1-4.15-1.38,5.51,5.51,0,0,1-3.27,2.09,8,8,0,0,1,.89.53,10,10,0,0,1,4.33,8.65,11.41,11.41,0,0,1-3.63,8.83,12.12,12.12,0,0,1-8.51,3.14,26.54,26.54,0,0,1-8.72-1.44c-3.42-1.16-4.81-3.21-5.33-5a16.91,16.91,0,0,1-1.62,1.78A17.68,17.68,0,0,1,67.85,197.5ZM15.19,185.87c.17,0,.21-.16.21-.46a1.92,1.92,0,0,0,0-.42h-.22v.89ZM67.36,175a3.9,3.9,0,0,0-3.14,1.25,4.85,4.85,0,0,0-1.22,3.5,4.78,4.78,0,0,0,1.19,3.47,4.06,4.06,0,0,0,3.17,1.24,4,4,0,0,0,3.13-1.25,5,5,0,0,0,1.19-3.46,5.1,5.1,0,0,0-1.25-3.57A3.78,3.78,0,0,0,67.36,175Zm-17.44,8.41c-.07-.37-.12-.75-.17-1.14-.12.14-.25.28-.38.41ZM85,180.62a18.42,18.42,0,0,1-.21,2.26,6.78,6.78,0,0,1,2.12-.33h.24A10,10,0,0,1,85,180.62Zm-45.85-5.2a1.76,1.76,0,0,0,.67-.13h0s0-.16,0-.47-.2-.57-.69-.6Zm270,21.61a26.58,26.58,0,0,1-8.72-1.44,9.87,9.87,0,0,1-3.08-1.65l-.24.35a6.5,6.5,0,0,1-5.71,2.65c-1.6,0-4.51-.59-6-4.54l-.17-.47h-4.93l-.17.46a6.31,6.31,0,0,1-6,4.55,6.44,6.44,0,0,1-5.66-2.65,7.94,7.94,0,0,1-.7-1.08,8.47,8.47,0,0,1-.67.67,12.17,12.17,0,0,1-8.52,3.15,26.58,26.58,0,0,1-8.72-1.44,9.87,9.87,0,0,1-3.08-1.65,2.71,2.71,0,0,1-.24.35,6.48,6.48,0,0,1-5.7,2.65c-1.61,0-4.52-.59-6.05-4.54l-.17-.47h-4.92l-.18.46a6.3,6.3,0,0,1-6,4.55,6.53,6.53,0,0,1-5.49-2.41c-.19.18-.4.35-.63.53a7.77,7.77,0,0,1-4.72,1.84,6,6,0,0,1-4.76-2.71l-2.09-2.8c-.31,3.49-2.8,5.55-6.79,5.55-2.92,0-5-1.12-6.07-3.09-2,2-4.94,3.09-8.83,3.09h-9.12c-4.24,0-6.78-2.36-6.78-6.31V169.51c0-3.95,2.54-6.31,6.78-6.31h8.47c4.93,0,7.74,1.52,9.3,3.47,1-2.22,3.15-3.47,6.25-3.47h9.45a10.15,10.15,0,0,1,7.82,3.58,11.9,11.9,0,0,1-.24,15.94l1.74,2.3,8-17.43a6.82,6.82,0,0,1,12.75,0l7.47,16.32a5.66,5.66,0,0,1,3.9-1.37h.24a9.62,9.62,0,0,1-4.3-8.34,11.49,11.49,0,0,1,11.49-11.75,25,25,0,0,1,7,.88c2.81.89,4.58,2.14,5.46,3.83a5.31,5.31,0,0,1,.29,4.13c-1,3.22-3.06,4.25-4.54,4.57a5.49,5.49,0,0,1,.9.53,9.52,9.52,0,0,1,3.73,4.87l6.27-13.69a6.81,6.81,0,0,1,12.74,0l7.48,16.32a5.64,5.64,0,0,1,3.9-1.37h.24a9.62,9.62,0,0,1-4.3-8.34,11.49,11.49,0,0,1,11.49-11.75,25,25,0,0,1,7,.88c2.81.89,4.58,2.14,5.45,3.83a5.36,5.36,0,0,1,.3,4.13c-1,3.22-3.07,4.25-4.54,4.57a5.49,5.49,0,0,1,.9.53,10,10,0,0,1,4.32,8.65,11.41,11.41,0,0,1-3.62,8.82A12.17,12.17,0,0,1,309.13,197ZM181.81,185.87c.17,0,.21-.16.21-.46a1.92,1.92,0,0,0,0-.42h-.22v.89Zm24-10.45a1.68,1.68,0,0,0,.67-.13h0s0-.16,0-.47-.19-.57-.69-.6Z"/>
        <path class="cls-18" d="M26.38,185.88q0,8.43-8.95,8.42H8.32c-2.76,0-4.15-1.21-4.15-3.67V169.51c0-2.46,1.39-3.67,4.15-3.67h8.47c5.7,0,8.55,2.24,8.55,6.78,0,3-1.17,5-3.41,6.22A7.25,7.25,0,0,1,26.38,185.88ZM17.43,174.3a2.4,2.4,0,0,0-2.72-2.72h-2.2v5.49H14.8C16.57,177.07,17.43,176.12,17.43,174.3ZM18,185.41c0-2.08-1-3.07-3.07-3.07H12.51v6.13H15C17.05,188.47,18,187.44,18,185.41Zm27.64-3.2,4.15,5.49a4.13,4.13,0,0,1,1,2.59A3.49,3.49,0,0,1,49.09,193,5.26,5.26,0,0,1,46,194.26a3.5,3.5,0,0,1-2.68-1.68l-6.78-9.07v7.12c0,2.46-1.38,3.67-4.19,3.67s-4.14-1.21-4.14-3.67V169.51c0-2.46,1.38-3.67,4.14-3.67h9.46a7.44,7.44,0,0,1,5.83,2.68,8.61,8.61,0,0,1,2.29,5.78C49.91,178,48.53,180.61,45.68,182.21Zm-9.16-10.63v6.48h2.42c2.33,0,3.54-1.08,3.54-3.24s-1.21-3.24-3.54-3.24Zm45.87,8.21a14,14,0,0,1-4.27,10.67,15.05,15.05,0,0,1-10.85,4.1,15,15,0,0,1-10.79-4.1,14.17,14.17,0,0,1-4.24-10.67,14.33,14.33,0,0,1,4.24-10.71A15,15,0,0,1,67.36,165a15,15,0,0,1,10.84,4.11A14.29,14.29,0,0,1,82.39,179.79Zm-10-5.31a6.48,6.48,0,0,0-5-2.08,6.55,6.55,0,0,0-5.1,2.12,8.26,8.26,0,0,0,0,10.54,7.26,7.26,0,0,0,10.15,0,8.28,8.28,0,0,0,0-10.58Zm23.2,19.91a23.88,23.88,0,0,1-7.87-1.3c-2.54-.86-3.84-2.37-3.84-4.57s1-3.33,3-3.33a21.57,21.57,0,0,1,3.5,1.17,15.82,15.82,0,0,0,5.32,1.16c1.51,0,2.24-.65,2.24-1.9a2.45,2.45,0,0,0-1.51-2.07,26.17,26.17,0,0,0-4.32-1.77,19.05,19.05,0,0,1-3.41-1.34,7,7,0,0,1-3.24-6.22,8.72,8.72,0,0,1,2.68-6.61,8.59,8.59,0,0,1,6.17-2.51,22.15,22.15,0,0,1,6.22.78c3.29,1,4.63,2.59,4,4.62s-1.82,3-3.5,2.85a23.1,23.1,0,0,1-2.55-.86,11.14,11.14,0,0,0-4.06-.86c-1.21,0-1.81.56-1.81,1.72,0,.74.51,1.39,1.51,2a36.14,36.14,0,0,0,4.27,1.77,17.68,17.68,0,0,1,3.46,1.47,7.36,7.36,0,0,1,3.24,6.52,8.81,8.81,0,0,1-2.77,6.87A9.51,9.51,0,0,1,95.61,194.39Zm26.9-21.86v18.15c0,2.46-1.38,3.67-4.14,3.67s-4.19-1.21-4.19-3.67V172.53h-4.24c-2.24,0-3.37-1.12-3.37-3.37s1.13-3.32,3.37-3.32h16.85c2.25,0,3.37,1.12,3.37,3.32s-1.12,3.37-3.37,3.37Zm22.59,2.38,4.67-6.18c1.38-1.77,2.89-2.68,4.57-2.68s2.77.44,3.33,1.34a4.44,4.44,0,0,1,.86,2.47,6.21,6.21,0,0,1-.73,2.59l-8.64,11.23v6.95c0,2.46-1.38,3.67-4.15,3.67s-4.19-1.21-4.19-3.67v-6.95l-8.42-11.23a5.81,5.81,0,0,1-.78-2.59,4.89,4.89,0,0,1,.87-2.47c.56-.9,1.68-1.34,3.37-1.34s3.19.91,4.53,2.68Zm47.9,11q0,8.43-8.94,8.42h-9.12c-2.76,0-4.14-1.21-4.14-3.67V169.51c0-2.46,1.38-3.67,4.14-3.67h8.47c5.7,0,8.55,2.24,8.55,6.78,0,3-1.16,5-3.41,6.22A7.25,7.25,0,0,1,193,185.88Zm-8.94-11.58a2.41,2.41,0,0,0-2.72-2.72h-2.21v5.49h2.29C183.19,177.07,184.06,176.12,184.06,174.3Zm.6,11.11c0-2.08-1-3.07-3.06-3.07h-2.47v6.13h2.51C183.67,188.47,184.66,187.44,184.66,185.41Zm27.64-3.2,4.15,5.49a4.07,4.07,0,0,1,1,2.59,3.5,3.5,0,0,1-1.68,2.68,5.28,5.28,0,0,1-3.11,1.29,3.49,3.49,0,0,1-2.68-1.68l-6.78-9.07v7.12c0,2.46-1.39,3.67-4.19,3.67s-4.15-1.21-4.15-3.67V169.51c0-2.46,1.38-3.67,4.15-3.67h9.46a7.47,7.47,0,0,1,5.83,2.68,8.66,8.66,0,0,1,2.29,5.78C216.54,178,215.15,180.61,212.3,182.21Zm-9.15-10.63v6.48h2.41c2.34,0,3.55-1.08,3.55-3.24s-1.21-3.24-3.55-3.24Zm24.66,17.71-.82,2.16c-.69,1.9-1.9,2.85-3.55,2.85a3.94,3.94,0,0,1-3.49-1.51,4.63,4.63,0,0,1-1.08-2.72,5.77,5.77,0,0,1,.51-2.33l8.73-19.05a4.2,4.2,0,0,1,7.95,0l8.72,19.05a5.16,5.16,0,0,1,.56,2.37,4.88,4.88,0,0,1-1,2.68,4,4,0,0,1-3.54,1.51c-1.65,0-2.86-1-3.59-2.85l-.78-2.16Zm6.09-6.73-1.82-5-1.81,5Zm24.61,11.83a23.87,23.87,0,0,1-7.86-1.3c-2.55-.86-3.84-2.37-3.84-4.57s1-3.33,3-3.33a21.57,21.57,0,0,1,3.5,1.17,15.77,15.77,0,0,0,5.31,1.16c1.52,0,2.25-.65,2.25-1.9a2.45,2.45,0,0,0-1.51-2.07,26.17,26.17,0,0,0-4.32-1.77,19.05,19.05,0,0,1-3.41-1.34,7,7,0,0,1-3.24-6.22,8.69,8.69,0,0,1,2.68-6.61,8.59,8.59,0,0,1,6.17-2.51,22.15,22.15,0,0,1,6.22.78c3.29,1,4.62,2.59,4,4.62s-1.82,3-3.5,2.85a21.62,21.62,0,0,1-2.55-.86,11.18,11.18,0,0,0-4.06-.86c-1.21,0-1.82.56-1.82,1.72,0,.74.52,1.39,1.52,2a36.14,36.14,0,0,0,4.27,1.77,17.68,17.68,0,0,1,3.46,1.47,7.36,7.36,0,0,1,3.24,6.52,8.81,8.81,0,0,1-2.77,6.87A9.52,9.52,0,0,1,258.51,194.39Zm19.91-5.1-.82,2.16c-.69,1.9-1.9,2.85-3.54,2.85a4,4,0,0,1-3.5-1.51,4.7,4.7,0,0,1-1.08-2.72,5.78,5.78,0,0,1,.52-2.33l8.73-19.05a4.19,4.19,0,0,1,7.94,0l8.73,19.05a5.16,5.16,0,0,1,.56,2.37,4.88,4.88,0,0,1-1,2.68,4,4,0,0,1-3.55,1.51c-1.64,0-2.85-1-3.58-2.85l-.78-2.16Zm6.09-6.73-1.81-5-1.81,5Zm24.62,11.83a23.87,23.87,0,0,1-7.86-1.3c-2.55-.86-3.84-2.37-3.84-4.57s1-3.33,3-3.33a21.57,21.57,0,0,1,3.5,1.17,15.73,15.73,0,0,0,5.31,1.16c1.51,0,2.25-.65,2.25-1.9a2.45,2.45,0,0,0-1.51-2.07,26.55,26.55,0,0,0-4.32-1.77,19.28,19.28,0,0,1-3.42-1.34,7,7,0,0,1-3.24-6.22,8.72,8.72,0,0,1,2.68-6.61,8.6,8.6,0,0,1,6.18-2.51,22.15,22.15,0,0,1,6.22.78c3.28,1,4.62,2.59,4,4.62s-1.81,3-3.5,2.85a22.59,22.59,0,0,1-2.54-.86,11.22,11.22,0,0,0-4.06-.86c-1.21,0-1.82.56-1.82,1.72,0,.74.52,1.39,1.51,2a36.41,36.41,0,0,0,4.28,1.77,18,18,0,0,1,3.46,1.47,7.36,7.36,0,0,1,3.24,6.52,8.81,8.81,0,0,1-2.77,6.87A9.53,9.53,0,0,1,309.13,194.39Z"/>
        <path class="cls-19" d="M76.86,208.14l5.61,12H81.18l-1.87-4H74.1l-1.88,4H70.88l5.68-12Zm-.15,2.53L74.65,215h4.12Zm11.93,1.57-.74.76a2.64,2.64,0,0,0-1.79-.89,1.36,1.36,0,0,0-1,.37,1.09,1.09,0,0,0-.4.85,1.28,1.28,0,0,0,.33.82,4.29,4.29,0,0,0,1.38.94,5.34,5.34,0,0,1,1.72,1.27,2.38,2.38,0,0,1,.46,1.41,2.54,2.54,0,0,1-.78,1.86,2.63,2.63,0,0,1-1.92.75,3.36,3.36,0,0,1-1.47-.33,3.21,3.21,0,0,1-1.16-.92l.72-.82a2.55,2.55,0,0,0,1.86,1,1.71,1.71,0,0,0,1.17-.44,1.4,1.4,0,0,0,.49-1,1.27,1.27,0,0,0-.32-.87,5.18,5.18,0,0,0-1.44-.95,4.47,4.47,0,0,1-1.64-1.23,2.26,2.26,0,0,1-.44-1.37,2.24,2.24,0,0,1,.69-1.67,2.39,2.39,0,0,1,1.76-.67A3.62,3.62,0,0,1,88.64,212.24Zm10.86-1v8.9H98.36v-1.53a5.14,5.14,0,0,1-1.6,1.31,4.64,4.64,0,0,1-2,.43A4.3,4.3,0,0,1,91.58,219a4.55,4.55,0,0,1-1.34-3.32,4.48,4.48,0,0,1,1.36-3.28,4.38,4.38,0,0,1,3.23-1.35,4.28,4.28,0,0,1,2,.45,4.64,4.64,0,0,1,1.55,1.4v-1.64Zm-4.59.89a3.45,3.45,0,0,0-3,1.78,3.58,3.58,0,0,0,0,3.58,3.41,3.41,0,0,0,1.29,1.32,3.37,3.37,0,0,0,1.74.49,3.51,3.51,0,0,0,1.78-.47A3.33,3.33,0,0,0,98,217.57a3.65,3.65,0,0,0,.45-1.81,3.46,3.46,0,0,0-1-2.56A3.32,3.32,0,0,0,94.91,212.16Zm16-4.32v12.33h-1.14v-1.53a5.17,5.17,0,0,1-1.61,1.31,4.61,4.61,0,0,1-2,.43A4.27,4.27,0,0,1,103,219a4.72,4.72,0,0,1,0-6.6,4.4,4.4,0,0,1,3.23-1.35,4.16,4.16,0,0,1,2,.46,4.54,4.54,0,0,1,1.56,1.39v-5.07Zm-4.59,4.32a3.42,3.42,0,0,0-3,1.78,3.51,3.51,0,0,0,0,3.58,3.54,3.54,0,0,0,3,1.81,3.48,3.48,0,0,0,1.77-.47,3.27,3.27,0,0,0,1.29-1.29,3.66,3.66,0,0,0,.46-1.81,3.47,3.47,0,0,0-1-2.56A3.3,3.3,0,0,0,106.37,212.16Zm14.68,5.06,1,.5a5.43,5.43,0,0,1-1.11,1.51,4.3,4.3,0,0,1-1.39.85,4.92,4.92,0,0,1-1.78.3,4.26,4.26,0,0,1-3.4-1.42,4.87,4.87,0,0,1-.2-6.23,4.28,4.28,0,0,1,3.55-1.67,4.38,4.38,0,0,1,3.64,1.72,4.77,4.77,0,0,1,1,3h-8a3.54,3.54,0,0,0,1,2.53,3.24,3.24,0,0,0,2.37,1,4.07,4.07,0,0,0,1.34-.24,3.41,3.41,0,0,0,1.09-.62A5,5,0,0,0,121.05,217.22Zm0-2.4a3.43,3.43,0,0,0-.67-1.45,3.19,3.19,0,0,0-1.17-.89,3.58,3.58,0,0,0-1.51-.34,3.38,3.38,0,0,0-2.28.84,3.87,3.87,0,0,0-1,1.84Zm2.93-3.55h1.17v1.31a4,4,0,0,1,1.11-1.16,2.13,2.13,0,0,1,1.2-.36,2.08,2.08,0,0,1,1,.3l-.6.95a1.55,1.55,0,0,0-.6-.15,1.63,1.63,0,0,0-1.11.47,3,3,0,0,0-.8,1.46,13.16,13.16,0,0,0-.22,3.06v3H124Zm9.7-.21a4.35,4.35,0,0,1,3.41,1.49,4.53,4.53,0,0,1,1.22,3.19A4.58,4.58,0,0,1,137,219a4.71,4.71,0,0,1-6.68,0,4.7,4.7,0,0,1-.07-6.44A4.41,4.41,0,0,1,133.7,211.06Zm0,1.12a3.34,3.34,0,0,0-2.47,1,3.65,3.65,0,0,0-.55,4.32,3.4,3.4,0,0,0,1.26,1.29,3.56,3.56,0,0,0,3.5,0,3.24,3.24,0,0,0,1.25-1.29,3.65,3.65,0,0,0-.55-4.32A3.33,3.33,0,0,0,133.7,212.18Zm20.68,3.55.82.87c-.52.45-1,.85-1.49,1.19L155,219c.4.42.77.78,1.07,1.14h-1.67l-1.59-1.65a10.69,10.69,0,0,1-2.45,1.58,5.37,5.37,0,0,1-2,.37,3.1,3.1,0,0,1-2.23-.81,2.63,2.63,0,0,1-.84-2,3.24,3.24,0,0,1,.57-1.79,9.74,9.74,0,0,1,2.3-2.28,10.94,10.94,0,0,1-1.24-1.78,2.4,2.4,0,0,1-.29-1.09,1.93,1.93,0,0,1,.69-1.49,3,3,0,0,1,2-.68,3.17,3.17,0,0,1,1.38.3,2.25,2.25,0,0,1,.95.82,1.91,1.91,0,0,1,.32,1.07,2.48,2.48,0,0,1-.42,1.29,8.66,8.66,0,0,1-1.69,1.76l1.82,1.91,1.21,1.2C153.51,216.45,154,216.05,154.38,215.73ZM149,214.52a10.12,10.12,0,0,0-2,1.83,2.19,2.19,0,0,0-.47,1.25,1.64,1.64,0,0,0,.59,1.23,2.1,2.1,0,0,0,1.42.52,3.18,3.18,0,0,0,1.26-.27,11.24,11.24,0,0,0,2.19-1.41L150,215.73Zm.15-1.61a5.91,5.91,0,0,0,1.32-1.34,1.56,1.56,0,0,0,.31-.82.88.88,0,0,0-.41-.72,2,2,0,0,0-2.11,0,1,1,0,0,0-.4.74,1.11,1.11,0,0,0,.17.62A9.74,9.74,0,0,0,149.1,212.91ZM162,211.27h1.17v1.31a4,4,0,0,1,1.11-1.16,2.05,2.05,0,0,1,2.23-.06l-.61.95a1.55,1.55,0,0,0-.6-.15,1.63,1.63,0,0,0-1.11.47,3,3,0,0,0-.8,1.46,13.16,13.16,0,0,0-.22,3.06v3H162Zm13,5.95,1,.5a5.43,5.43,0,0,1-1.11,1.51,4.3,4.3,0,0,1-1.39.85,4.83,4.83,0,0,1-1.77.3,4.23,4.23,0,0,1-3.4-1.42,4.84,4.84,0,0,1-.2-6.23,4.28,4.28,0,0,1,3.55-1.67,4.35,4.35,0,0,1,3.63,1.72,4.71,4.71,0,0,1,1,3h-8a3.58,3.58,0,0,0,1,2.53,3.25,3.25,0,0,0,2.38,1,4.16,4.16,0,0,0,1.34-.24,3.41,3.41,0,0,0,1.09-.62A5.21,5.21,0,0,0,174.94,217.22Zm0-2.4a3.56,3.56,0,0,0-.67-1.45,3.23,3.23,0,0,0-1.18-.89,3.54,3.54,0,0,0-1.5-.34,3.36,3.36,0,0,0-2.28.84,3.88,3.88,0,0,0-1,1.84Zm7.85-2.58-.74.76a2.62,2.62,0,0,0-1.79-.89,1.36,1.36,0,0,0-1,.37,1.13,1.13,0,0,0-.4.85,1.24,1.24,0,0,0,.34.82,4.34,4.34,0,0,0,1.37.94,5.53,5.53,0,0,1,1.73,1.27,2.37,2.37,0,0,1,.45,1.41,2.53,2.53,0,0,1-.77,1.86,2.67,2.67,0,0,1-1.93.75,3.4,3.4,0,0,1-1.47-.33,3.21,3.21,0,0,1-1.16-.92l.72-.82a2.55,2.55,0,0,0,1.86,1,1.69,1.69,0,0,0,1.17-.44,1.4,1.4,0,0,0,.49-1,1.27,1.27,0,0,0-.32-.87A5.18,5.18,0,0,0,180,216a4.56,4.56,0,0,1-1.64-1.23,2.33,2.33,0,0,1-.44-1.37,2.24,2.24,0,0,1,.69-1.67,2.41,2.41,0,0,1,1.76-.67A3.62,3.62,0,0,1,182.81,212.24Zm3-4.28h1.14v3.31h1.81v1h-1.81v7.91H185.8v-7.91h-1.55v-1h1.55Zm13.55,3.31v8.9h-1.14v-1.53a5.14,5.14,0,0,1-1.6,1.31,4.64,4.64,0,0,1-2,.43,4.3,4.3,0,0,1-3.22-1.37,4.55,4.55,0,0,1-1.34-3.32,4.48,4.48,0,0,1,1.36-3.28,4.38,4.38,0,0,1,3.23-1.35,4.28,4.28,0,0,1,2,.45,4.64,4.64,0,0,1,1.55,1.4v-1.64Zm-4.59.89a3.45,3.45,0,0,0-3,1.78,3.58,3.58,0,0,0,0,3.58,3.41,3.41,0,0,0,1.29,1.32,3.37,3.37,0,0,0,1.74.49,3.51,3.51,0,0,0,1.78-.47,3.33,3.33,0,0,0,1.29-1.29,3.65,3.65,0,0,0,.45-1.81,3.46,3.46,0,0,0-1-2.56A3.32,3.32,0,0,0,194.76,212.16Zm7-.89h1.14v4.16a8.31,8.31,0,0,0,.17,2.09,2.29,2.29,0,0,0,.93,1.29,3,3,0,0,0,1.66.47,2.75,2.75,0,0,0,1.63-.47,2.37,2.37,0,0,0,.92-1.21,9,9,0,0,0,.16-2.17v-4.16h1.18v4.36a6.6,6.6,0,0,1-.44,2.76,3,3,0,0,1-1.29,1.46,3.89,3.89,0,0,1-2.16.53,4,4,0,0,1-2.18-.53,3.28,3.28,0,0,1-1.29-1.46,7.33,7.33,0,0,1-.43-2.85Zm9.9,0h1.17v1.31a4.12,4.12,0,0,1,1.1-1.16,2.19,2.19,0,0,1,1.21-.36,2.08,2.08,0,0,1,1,.3l-.6.95a1.63,1.63,0,0,0-.61-.15,1.61,1.61,0,0,0-1.1.47,3,3,0,0,0-.8,1.46,12.6,12.6,0,0,0-.22,3.06v3h-1.17Zm14.33,0v8.9h-1.14v-1.53a5.06,5.06,0,0,1-1.61,1.31,4.57,4.57,0,0,1-2,.43,4.3,4.3,0,0,1-3.21-1.37,4.55,4.55,0,0,1-1.34-3.32,4.48,4.48,0,0,1,1.36-3.28,4.36,4.36,0,0,1,3.23-1.35,4.21,4.21,0,0,1,2,.45,4.57,4.57,0,0,1,1.56,1.4v-1.64Zm-4.59.89a3.42,3.42,0,0,0-3,1.78,3.51,3.51,0,0,0,0,3.58,3.54,3.54,0,0,0,3,1.81,3.54,3.54,0,0,0,1.78-.47,3.33,3.33,0,0,0,1.29-1.29,3.65,3.65,0,0,0,.45-1.81,3.5,3.5,0,0,0-1-2.56A3.32,3.32,0,0,0,221.42,212.16Zm7.17-.89h1.14v1.59a5,5,0,0,1,1.52-1.35,3.79,3.79,0,0,1,1.83-.45,3.13,3.13,0,0,1,1.77.5,2.9,2.9,0,0,1,1.14,1.37,7.06,7.06,0,0,1,.37,2.66v4.58h-1.14v-4.24a10.58,10.58,0,0,0-.13-2,2.32,2.32,0,0,0-.77-1.34,2.37,2.37,0,0,0-1.48-.44,2.82,2.82,0,0,0-1.86.69,3.16,3.16,0,0,0-1.09,1.69,11.85,11.85,0,0,0-.16,2.41v3.27h-1.14Zm11.2-3.31h1.14v3.31h1.81v1h-1.81v7.91h-1.14v-7.91h-1.56v-1h1.56ZM252,217.22l1,.5a5.22,5.22,0,0,1-1.1,1.51,4.3,4.3,0,0,1-1.39.85,4.92,4.92,0,0,1-1.78.3,4.25,4.25,0,0,1-3.4-1.42,4.84,4.84,0,0,1-.2-6.23,4.28,4.28,0,0,1,3.55-1.67,4.38,4.38,0,0,1,3.64,1.72,4.71,4.71,0,0,1,1,3h-8a3.58,3.58,0,0,0,1,2.53,3.26,3.26,0,0,0,2.38,1,4.11,4.11,0,0,0,1.34-.24,3.41,3.41,0,0,0,1.09-.62A5,5,0,0,0,252,217.22Zm0-2.4a3.43,3.43,0,0,0-.67-1.45,3.19,3.19,0,0,0-1.17-.89,3.58,3.58,0,0,0-1.51-.34,3.38,3.38,0,0,0-2.28.84,4,4,0,0,0-1,1.84Z"/>
        <path class="cls-19" d="M331.48,161.34a3,3,0,1,1-3-2.89A2.92,2.92,0,0,1,331.48,161.34Zm-5.21,0a2.26,2.26,0,0,0,2.26,2.32,2.23,2.23,0,0,0,2.21-2.3,2.24,2.24,0,1,0-4.47,0Zm1.78,1.5h-.67V160a7.26,7.26,0,0,1,1.11-.09,1.54,1.54,0,0,1,1,.23.71.71,0,0,1,.3.62.75.75,0,0,1-.6.69v0c.28.09.43.32.51.71a2.18,2.18,0,0,0,.22.7h-.71a2.2,2.2,0,0,1-.23-.7c-.05-.3-.23-.44-.6-.44h-.32Zm0-1.62h.32c.37,0,.67-.12.67-.42s-.2-.45-.62-.45a1.39,1.39,0,0,0-.37,0Z"/>
      </g>
    </g>
  </g>
</svg>
