<svg xmlns="http://www.w3.org/2000/svg" viewBox="0 0 247.8 241.95">
  <defs>
    <style>
      .cls-1, .cls-3 {
        fill: none;
        stroke-miterlimit: 22.93;
      }

      .cls-1 {
        stroke: #fff;
        stroke-width: 1.25px;
      }

      .cls-2 {
        fill: #fff;
      }

      .cls-10, .cls-11, .cls-12, .cls-13, .cls-14, .cls-15, .cls-16, .cls-17, .cls-2, .cls-4, .cls-5, .cls-6, .cls-7, .cls-8, .cls-9 {
        fill-rule: evenodd;
      }

      .cls-3 {
        stroke: #e30613;
        stroke-width: 1.19px;
      }

      .cls-4 {
        fill: #322116;
      }

      .cls-5 {
        fill: #fff1d8;
      }

      .cls-6 {
        fill: #e6b889;
      }

      .cls-7 {
        fill: #da2320;
      }

      .cls-8 {
        fill: #a91917;
      }

      .cls-9 {
        fill: #eb5e61;
      }

      .cls-10 {
        fill: #821c15;
      }

      .cls-11 {
        fill: #b6251e;
      }

      .cls-12 {
        fill: #fdc100;
      }

      .cls-13 {
        fill: #be7157;
      }

      .cls-14 {
        fill: #fffefa;
      }

      .cls-15 {
        fill: #dd8809;
      }

      .cls-16 {
        fill: #ffee53;
      }

      .cls-17 {
        fill: #e30613;
      }

      .cls-18 {
        fill: #fc0;
      }
    </style>
  </defs>
  <g id="Capa_2" data-name="Capa 2">
    <g id="Capa_1-2" data-name="Capa 1">
      <circle class="cls-1" cx="147.11" cy="107.06" r="100.07" transform="translate(-32.62 135.38) rotate(-45)"/>
      <path class="cls-2" d="M147.12,207.1A100.07,100.07,0,1,0,47.05,107,100.07,100.07,0,0,0,147.12,207.1"/>
      <circle class="cls-3" cx="147.12" cy="107.04" r="95.37" transform="translate(-16.07 26.59) rotate(-9.8)"/>
      <path class="cls-2" d="M147.12,202.41A95.38,95.38,0,1,0,51.75,107a95.38,95.38,0,0,0,95.37,95.38"/>
      <path class="cls-4" d="M131.31,17.24a13.3,13.3,0,0,1,3.94-2.56c1.66-.82,4.63-1,5.69-1.56-2.35-2.15-8.27,1-9.69,2.26A20.93,20.93,0,0,0,129,17.67c.76-.15,1.51-.3,2.27-.43"/>
      <path class="cls-4" d="M155.87,16.29a10.5,10.5,0,0,0-4.16-.46c.45-.56,0-.22.77-.73s1.22-.26,2-1c-1.86-.91-3.47,0-5,1.8q3.22.09,6.4.39"/>
      <path class="cls-4" d="M58.8,129.72c-.4-.53-.72-.73-1.23-1.34l-3.78-5.14C49.21,116.38,47,111,43,104.25c-.8-1.34-1.41-2.26-2.28-3.56-2.36-3.57-2.4-4.23-4.63-4.59-4.23-.67-7.31-1.92-12.4-2.35A27.34,27.34,0,0,0,8.82,96.11a24.81,24.81,0,0,1-4.21,1.63c-1.35-2-2.7-2.32-1.24-5.54s5.07-5.49,8.06-7.32a16.72,16.72,0,0,1,2.7-1.29l2.47-1.22c-4.11-1-14.46-2.67-16.6-3.69,0-1.93,1-2.52,2.14-3.39a19.56,19.56,0,0,1,3.39-2.15c5.29-2.59,12.66-2.67,18.66-1.75,2.7.41,8.1,2,8.7,2.07l-1.19-1c-1.09-.84-5.35-3.5-5.68-4.17a3.47,3.47,0,0,1,.33-3.24c2.6-3.6,11.49-.88,13-.85,0-5.77,5.21-11.22,8.41-5.64,2.63,4.61,2,5.81,8.67,10.08,1.78,1.14,3.41,1.16,6.62,3.09-.43,1-.83,2-1.21,3-3.12-.34-5.34.37-5.84.19.71-1.69,4.36-1.48,6.23-1.72-4.25-1.61-2.91-2.5-10.16-3.57.13-.63,0-.27.41-.65a1.77,1.77,0,0,1,.17-.12,1.86,1.86,0,0,1,.19-.11l.6-.28c-1.25-1.08-2.25-1.66-3.24-2.56-1.24-1.12-1.47-2.14-2.53-3.3C47,61,46.21,59,44.87,58.13c-2.95.2-3.84,3.93-4,7.12,2.36.75,3.18,2,4.75,2.2a23.74,23.74,0,0,0,3.91,3.26c1.16,1.76,3.37,3.32,4.52,5.85,2.21-.12,2.8.19,3.66,1.57L55,77.59c.4,1.21.61,1,.59,2.26-1.15-.13-1.75-1.31-2.53-2.27-2.52-3.11-4.21-5.61-7.67-8C41.67,67,35,64,29.17,65.36c-1.33.55-2.46,1.42-.68,2.65l5.68,4.15C37.11,74.5,45,82,43.68,86.8c-.8.31-.83-1.33-2.34-4C38,77,35.94,76.06,28.8,74.16a44.7,44.7,0,0,0-12.21-1.61c-3,0-9.61.91-11.15,2.74a6.47,6.47,0,0,0-2.87,2.16c5,3.77,8.91-3.07,29,11.77,1.76,1.29.64,1.42.63,1.42-.9.49-2.78-1.32-3.63-1.86-1.95-1.27-3.9-2.62-6-3.81-3.59-2-2.94-2.13-6.8-.34S5.52,90,4.91,93.33c-.31.7-.45,2,.55,2.06,1.18.09,7.47-4.93,19.36-3.42,8.3,1,14.57,3.73,23.61,3.75-.07.27.25.45-1.43.75a28.93,28.93,0,0,1-7,.16c.93,1.4,1.93,2.58,3,4.15,4.54,6.56,9.41,18,14.86,25.13.27,1.28.56,2.55.88,3.81"/>
      <path class="cls-4" d="M62.55,141.12c-2.93.22-6.35-.13-7.54-1.89,1.79-2.06,3.61-2.51,4.62-3.38-3.17,0-6.75-.4-7.38-2.77.71-1,5.09-2.65,6.64-3,.12.47.25.94.38,1.4l-.51.16a20.21,20.21,0,0,0-3.94,1.84c1.48,1.09,3.45.92,5.23.68.3,1,.62,1.94,1,2.9-1.24.78-2.57,1.45-3.24,1.85a6.5,6.5,0,0,0,4.17.71c.2.51.4,1,.61,1.54"/>
      <path class="cls-4" d="M134.29,0H138a18,18,0,0,1,9,3.6c3.91,2.93,9.93,8.39,11.72,13l-1.28-.14a9.88,9.88,0,0,0-1.19-2.14l-1.78-2a1.15,1.15,0,0,0-.2-.15,22.72,22.72,0,0,0-2-1.85c-2.25-2-3.51-3.76-6.87-6a14.41,14.41,0,0,0-13.43-2C126.39,4,120.63,8.44,118,13.46c-.78,1.49-2.27,4.34-2.26,6.35a4.24,4.24,0,0,0-.86,1.94l-2.11.83a28.83,28.83,0,0,1,2.81-8.44c4-8,11.21-13.36,18.73-14.14"/>
      <path class="cls-5" d="M61,137c-1.24.78-2.57,1.45-3.24,1.85a6.5,6.5,0,0,0,4.17.71c-.32-.85-.63-1.7-.93-2.56m-1.74-5.58-.51.16a20.21,20.21,0,0,0-3.94,1.84c1.48,1.09,3.45.92,5.23.68C59.77,133.23,59.52,132.34,59.27,131.44Z"/>
      <path class="cls-5" d="M43.68,86.8c-.8.31-.83-1.33-2.34-4C38,77,35.94,76.06,28.8,74.16a44.7,44.7,0,0,0-12.21-1.61c-3,0-9.61.91-11.15,2.74.83.63,3.28.51,4.53.82,13.07,3.24,24.39,13.48,26.92,14,6.06,1.14,14.66,1.49,20.65,0A90.69,90.69,0,0,1,61.83,74.8c-3.12-.34-5.34.37-5.84.19.71-1.69,4.36-1.48,6.23-1.72-4.25-1.61-2.91-2.5-10.16-3.57-1.38.13-1.87.07-2.53,1,1.16,1.76,3.37,3.32,4.52,5.85,2.21-.12,2.8.19,3.66,1.57L55,77.59c.4,1.21.61,1,.59,2.26-1.15-.13-1.75-1.31-2.53-2.27-2.52-3.11-4.21-5.61-7.67-8C41.67,67,35,64,29.17,65.36c.61.91,1.95,1.5,3.28,2.39,9.49,6.38,9.63,12.45,13.85,17.8.79,1,2,1.73,1.85,3.16-2,.23-2.43-.55-3.21-1.17a2.72,2.72,0,0,0-.67-.45c-.08,0-.24,0-.29-.15s-.2-.1-.3-.14"/>
      <path class="cls-6" d="M28.59,88.78c-.85.83-5.31.76-6.77.76-4.7,0-14.33.72-16.49,4.58-.47-.41-.34.62-.42-.79-.31.7-.45,2,.55,2.06,1.18.09,7.47-4.93,19.36-3.42,8.3,1,14.57,3.73,23.61,3.75-.07.27.25.45-1.43.75a28.93,28.93,0,0,1-7,.16c.93,1.4,1.93,2.58,3,4.15,4.54,6.56,9.41,18,14.86,25.13a91.92,91.92,0,0,1-.38-35.85c-6,1.5-14.59,1.15-20.65,0C34.36,89.59,23,79.35,10,76.11c-1.25-.31-3.7-.19-4.53-.82a6.47,6.47,0,0,0-2.87,2.16c5,3.77,8.91-3.07,29,11.77,1.76,1.29.64,1.42.63,1.42-.9.49-2.78-1.32-3.63-1.86"/>
      <path class="cls-7" d="M143.1,15.22a1,1,0,0,1-.38.76c1.2-.06,2.4-.09,3.6-.1,3.76-3.67,6.71-2.79,8-3.71a22.72,22.72,0,0,0-2-1.85c-2.25-2-3.51-3.76-6.87-6a14.41,14.41,0,0,0-13.43-2C126.39,4,120.63,8.44,118,13.46c-.78,1.49-2.27,4.34-2.26,6.35.07.53.16,1,.27,1.52.59-.22,1.17-.42,1.76-.62-.4-1.69,0-4.74,2.57-8.9,5.18-8.44,17.05-12.33,23.11-6.06-4.14-.47-4.44-2.44-9.68-.74a21.82,21.82,0,0,0-7.1,4.55c-5,4.35-5.53,8-6,10.22,2.74-.83,5.54-1.54,8.39-2.11a20.93,20.93,0,0,1,2.21-2.29c1.42-1.3,7.34-4.41,9.69-2.26-1.06.59-4,.74-5.69,1.56-.2.4-.88,1.2-1.6,2.18,1.14-.16,2.28-.31,3.43-.44a8.29,8.29,0,0,1,6-1.2"/>
      <path class="cls-8" d="M149.47,15.9c1.57-1.78,3.18-2.71,5-1.8-.81.74-1.23.47-2,1s-.32.17-.77.73a10.5,10.5,0,0,1,4.16.46l1.57.17a9.88,9.88,0,0,0-1.19-2.14l-1.78-2a1.15,1.15,0,0,0-.2-.15c-1.24.92-4.19,0-8,3.71h.8c.79,0,1.57,0,2.35,0m-14.22-1.22a13.3,13.3,0,0,0-3.94,2.56l2.34-.38C134.37,15.88,135.05,15.08,135.25,14.68Z"/>
      <path class="cls-8" d="M116,21.33c-.11-.48-.2-1-.27-1.52a4.24,4.24,0,0,0-.86,1.94l1.13-.42"/>
      <path class="cls-5" d="M2.79,85.16c.08,1.41,0,.38.43.79,2.16-3.86,11.78-4.6,16.49-4.59,1.45,0,5.92.08,6.76-.75-1.95-1.27-3.9-2.62-6-3.81-3.6-2-2.94-2.13-6.8-.34S3.4,81.81,2.79,85.16"/>
      <path class="cls-9" d="M143.43,5.75c-6.06-6.27-17.93-2.38-23.11,6.06-2.55,4.16-3,7.21-2.57,8.9,1-.33,1.93-.63,2.9-.93.47-2.22,1-5.87,6-10.22A21.82,21.82,0,0,1,133.75,5c5.24-1.7,5.54.27,9.68.74"/>
      <path class="cls-6" d="M43.68,86.8c.1,0,.24,0,.3.14s.21.1.29.15a2.72,2.72,0,0,1,.67.45c.78.62,1.19,1.4,3.21,1.17.14-1.43-1.06-2.15-1.85-3.16-4.22-5.35-4.36-11.42-13.85-17.8-1.33-.89-2.67-1.48-3.28-2.39-1.33.55-2.46,1.42-.68,2.65l5.68,4.15C37.11,74.5,45,82,43.68,86.8"/>
      <path class="cls-5" d="M45.62,67.45c1.63-.44,2.63-2.5,2-4.77C47,61,46.21,59,44.87,58.13c-2.95.2-3.84,3.93-4,7.12,2.36.75,3.18,2,4.75,2.2"/>
      <path class="cls-6" d="M45.62,67.45a23.74,23.74,0,0,0,3.91,3.26c.66-.94,1.15-.88,2.53-1,.13-.63,0-.27.41-.65a1.77,1.77,0,0,1,.17-.12,1.86,1.86,0,0,1,.19-.11l.6-.28c-1.25-1.08-2.25-1.66-3.24-2.56-1.24-1.12-1.47-2.14-2.53-3.3.59,2.27-.41,4.33-2,4.77"/>
      <path class="cls-9" d="M143.1,15.22a8.29,8.29,0,0,0-6,1.2q2.8-.3,5.64-.44a1,1,0,0,0,.38-.76"/>
      <path class="cls-4" d="M157,18.3c3.61.23,7.08,7.59,8.17,11.08,1.58,5.07,2.06,10.18,4.47,14.52.53-.72.21-1,.08-2.12.78.88,1.35,1.72,2.07,2.5a11,11,0,0,1,1.87,2.28,3.26,3.26,0,0,1,.51.53l1.48,3.13a12.76,12.76,0,0,1-.22,5c-2.17,10.81-4.84,7.6-9.17,12.64-1.08,1.26-4.08,4.72-4.48,6.31,1.05-.94,2.11-2.82,3.29-3.34.49-1,3.94-4.39,5.33-4.36.16,21.6,19.18,21.3,14.25,25.58-.29.25.08.27-1.46.41-.6.06-1.13,0-1.79.12a15.32,15.32,0,0,0-2.67.66c-2,.65-2.81,1.86-5.07,1.38-6.31-1.35-4.36-2.89-6.82-5.79-.64-.77,0-.31-.92-.77.68,2.71,3.37,6.22,1.24,9.3a6.68,6.68,0,0,1-8,2.23l.58-3.89c-.23-4.22-3.52-8.06-5.22-11.15a11.58,11.58,0,0,1-1.69-6.52c.23-3.73.28-2.22,3.07-4.84,4.38-4.1,7-11,7.4-17.6a33.54,33.54,0,0,0,.06-4,21.38,21.38,0,0,0-.59-3.17c.42.44.62.32.89,1.13l.41,1.76c.52-2.33.2-1.71-.42-3.81,1-.47.9-.3,1.4-1.23-2.14.53-2.38,1.83-7.34,3.17-10.61,2.86-10.41-1.77-2.87-5,3.39-1.43,5.22-1.23,9-1.63l-2.31-.29c.39-4.28.32-6.06-1.76-9.3s-7.4-7.11-11.5-4.6c-1.78,1.09-1.5,1.45-2,3.24-1.24,4.26-.93,5.83-.27,10.17-1.15-1.4-1.76-2-4-1.46.67-4.67,1.26-6.59.77-11.44.79-.21-.79-.44.24.22.83.52-.57.48.3.08l-.32-1.07c-.32-1.19.24-1.26,1.06-2.19,4.71-5.38,3.47-10.83,10.76-9.13a6.88,6.88,0,0,1,1.37.45c1,.56.43.15.92.75M128.55,94.56l.38,3c-2.86,2.21-8.13,2.61-8.79-1.71-.55-3.57,2.9-6.63,4-9.47-1.2.58-1.81,2.16-2.9,2.85-1.81,1.16-9.86,2.65-13-.69.2-1.59.84-2,2-2.51.35-.51,3.58-2.63,4.43-3.3a19.15,19.15,0,0,0,4-4,23,23,0,0,0,5.18-10.51c2.28,1.31,6.09,4.51,6.8,6.92.29-.31.92-.34-.13-1.93a19.74,19.74,0,0,0-3.48-3.92c-.89-.84-1.67-1.66-2.47-2.44a14,14,0,0,1-2.25-2.67c-3-4.9-3.14-13,.45-15,.35-1.46,2.35-3.14,3.37-4.18,1.68-1.72,3-2.5,3.5-3.56l3.22-8.22c.47-1.21.24-1.77,1.51-1.7-1.43,3.3-2.7,6-2.86,10.66-4.85,2.74-9,11.36-7,18,.58,2,2,4.71,3.35,5.28l.31-1c.07-.3.09-.64.19-1,1.25-5.08,9.8-5.5,11.41-3.18s.11,5.66-1.09,7.38c-2.64,3.8-5.62,2-6.74,1.87-.45,2.29,3.71,6.57,4.83,7.21-.49,2.94-3.53,6.15-5,8.25C130,87.5,128.25,90.56,128.55,94.56Zm4.19-53.28a22.23,22.23,0,0,1,2.42-8.46c1-2.07,1.1-1.26,3.17-2.06,1.45-.56,2.09-1.28,3.28-1.82a14.64,14.64,0,0,1,.36,5.5c-.59-1-.14-1-1.13-1.41-2,1-1.89,5-2.06,7.71C136.11,40,135,40.65,132.74,41.28Zm22.13,2.38A26.49,26.49,0,0,1,152.26,45c-1,.53-1.47,1-2.28,1.47-5.65-3.69-4.93-15.48-.07-17.34,5.57-2.13,13.31,8,10.26,13.38Zm-3.28,8,4.4-.45c-1,6.65-7,9.12-14.07,7.59-3-.65-6.09-1.82-9.33-.9a7.52,7.52,0,0,0-5.29,5.77l-1-2.2c-2.62-10,4.24-19.58,10.49-19.66,3,0,5,2.24,6.94,3.22,0-1.91-1.64-.9-2.18-3.34,4.43-1.53,1.94,1.17,7.36,5.94C148,50.13,149.15,51.35,151.59,51.66ZM161.87,49c1,3.74,0,10.27-1.16,14C156,78.24,138.16,82,133.46,71.26c7.19-.17,9.18-7.64,7.36-11.25l1.61.4c.77,2.29.72,5.57-.68,7.26-1.71,2.06-2.94,2.6-2.29,6.06l-3.85-1.55C145.05,81,156,71.63,159.07,62c1.71-5.38,1.14-6.8,1.3-12.23ZM147.49,67.06c.58-.59.42-.68.94-1.3.36-.43.77-.76,1.08-1.08a6.31,6.31,0,0,1,2.68-1.93c1.23-1.46,3.68-1.16,4.89,0,.47,1.34-3,6-3.8,7a15,15,0,0,1-6.63,4.45c-9.91,3.08-6.59-7.33.52-8.76-.68,1.88-2.34,3.35-3.22,7.42,1-.41.57-1.06,1.55-2.87.29-.52.56-1,.92-1.52Zm7,20.85c.86.61,8.33,9.93-.54,14.1-4.69,2.21-12.51,1.36-11.37-8.32.36-2,.78-4,1-6.09.19-1.61.61-4.79-.38-6.16-.13,5.4-2.62,11.19-2.12,16,.65,4.1,1.65,3.95,3.29,5.83-1,1.81-3.93,3-6.91,2-8-2.67-9.19-14.34-4.79-19,1.49-2.61,4.32-5.49,4.9-8.82,7.21,2,8.34,1.21,14.61-1.28-.45,2.76-.82,3.82,0,6.7C152.8,84.87,154.24,86.69,154.49,87.91Zm21.62,9.21c.11-.67.16-.54,1.07-1.07a14.31,14.31,0,0,1,1.66-.81,13.93,13.93,0,0,1,4-.79c7-.34,15.69,4,21.1,7.38s18.11,11.88,22,16.11a13.09,13.09,0,0,1,2.57,3.59,25.06,25.06,0,0,1-6-1.56c-.43.2-.29-.45-.34.81.79.29,3.37,3.51,4.07,4.56a12.43,12.43,0,0,1,2.21,6.6,5.66,5.66,0,0,1-1,3.06c-1.82-.51-3.23-2.33-4.31-3.46-.74-.77-2.47-4.34-3.33-3.59,1.19,3.11,4.17,7.93,2.08,12-.73,1.7-1.32,2.64-3,3.16-3.62-2,.76-6.22-1.54-8.64-.95.71-.9,2.62-1.2,3.85-1.09,4.5-4.6,8.83-7.9,11.45a75.16,75.16,0,0,1-8.44,6c-3.08,1.88-21.13,11.12-22.15,16.32,2.07-.91,4.12-3.84,6.5-4.86,1.58,1.35,3.19,2.93,3.35,6.09.14,2.78-.92,5.45-1.77,7.68.27.45-.61.4.67.34.36-.85,1.85-4.13,2.35-4.92a6.2,6.2,0,0,1,.49,1.57,7.24,7.24,0,0,0,.18,1.07c.27,1-.26,0,.32.65a4,4,0,0,0-.37-4.53c-1-1.48,0-1.1-1-5.19-.69-2.75,2.7-5.77,5.84-5.57-1.52,5.35.22,7,.58,9.56a3.91,3.91,0,0,1,1.31,3.55c-.29,1.23-1.47,1.74-2.53,2.44-3.7,2.41-2.36,1.49-5.31,4.22-2.22,2.07-3.45,1.82-7.23,1.14a37.15,37.15,0,0,1-18.55-10c-2.86-3.08-6.61-9.1-2.94-13.14,1.53-3.16,8-8.86,11.47-13.38,1.29-1.69,2.23-3,3.53-4.76,2.38-3.23,4.31-6.68,6.55-10,4.13-6.18,6.36-6.13,8.73-8-1.35-.54-4,.86-4.94,1.65-2.09,1.43-2.37,2.36-4.11,3.85a2.11,2.11,0,0,1-.48-.43,44,44,0,0,1-4.49-6.87,52.11,52.11,0,0,1-3.65-8.64C170.05,108.72,171.07,100,176.11,97.12ZM163.82,154c.48-2.1,11.19-22.42,12-25.82l4,4.61c-3.72,5.55-7,11.1-11.44,16.22l-2.13,2.48A10.28,10.28,0,0,1,163.82,154Zm21.77,12.29a1.85,1.85,0,0,1,.47-.5l5.38-3.23c2.37-1.34,2.13-.22,2.16-.2-3,2-3.07-.28-6.76,5Zm-52,30.93c1.65.24,3.33.44,5,.6a11.8,11.8,0,0,0-5.24-.78ZM60.05,134.11c.3,1,.63,1.94,1,2.91,1.44-.91,2.76-2,2.79-2.9C63,133.64,61.61,133.9,60.05,134.11Zm-2.13-8.21c.27,1.28.56,2.55.88,3.81.07.09.14.18.21.29l-.12,0c.12.47.25.94.38,1.41,1.72-.49,2,.07,3.6.74l1-.33c-.29-.87-1.06-1-2.07-1.85A24,24,0,0,1,57.92,125.9ZM166,196.23c.65-.13,1.29-.27,1.93-.42-.32-2.26-.73-4.48-1.22-6.62-.88-3.79-2.8-8.31-3.2-10,1,.27,9.86,7.95,18.74,8,2.43,0,3.75.45,5.45-.4,3.75-1.89,2.71-4.77,6.91-1.92l1.77-1.1c-.42-.24-1-.56-2.63-1.59,3.54-3.21,3.94-2.73,6.83-1.29l.59-.43a5,5,0,0,1-1.65-1.11L197.8,179l0-3.95a9.63,9.63,0,0,0,4.51,1.27c1.39.1,2.64.16,3.77.26.65-.56,1.3-1.12,1.93-1.69-2.82-.29-5.77,0-8.3-.85a5.46,5.46,0,0,1-3.34-2.13c5.34.57,10.51-.82,15.63-.82l.73-.75c-5-.09-9.47,1.5-14.47,1.12-2.58-.19-2.4-.09-2.72-2.48,3.78,1.42,5,1.28,9.29.45,2.05-.41,6.82-1.91,8.56-1.8a6.71,6.71,0,0,1,2.79-1.06c.52-.6,1-1.21,1.53-1.82-.68.11-1.62.33-5.31.86-1.06.51-16.93,5.52-16.78.75,2.24.1,2.89,1.24,6.53.7,6.33-.93,13.07-6.68,15.25-7.06.8-1.24,3.37-2.45,6.05-3.08.48-.73.94-1.46,1.4-2.2-4,.54-7.6,2.82-10.79,4.91-1.4.92-2.55,1.6-4,2.47-2.8,1.7-6.52,3.52-10,3.58a8.83,8.83,0,0,1-3.1-.33c-1.29-.5-.6-.28-.6-2.15a6.57,6.57,0,0,0-1.53-.31c.3-1.15.21-.24.35-.87l0-1.34,4.22-2.46c4.59-2.78,15.7-9.91,17-15.31,1.13.76,2,4,5.77-.07,1.65-1.77,2.22-3.94,2.22-7.31,1.23.33,1.72,1.2,2.81,1.52s1.46.17,2.18-1.14c2.88-5.24-.61-9.63-2.22-12.67,4.52.38,5.73.93,3-3.59-3.16-5.2-8.8-8.49-13.43-11.78s-7-5.05-12-8c-1.08-.65-2.2-1.2-3.34-1.89a47.73,47.73,0,0,0-10.54-4.52c-1.32-.41-2.91-.64-4.27-.95.64-2.77.07-4.15-3.55-6.29-5.07-3-7.79-5.71-9.78-11.73a31.49,31.49,0,0,1-1.73-9c3.31-.88,8-11.13,5-17.32-2.54-5.32-6.46-5.1-7.8-10.65-1.61-6.69-2.92-14.71-8.56-19.09-.89-.69-.93-.43-1.4-1.68l-.05-.12-1.28-.15c.05.13.11.27.16.41l-1.73-.57q-3.18-.32-6.4-.39c-3.36,3.79-6.54,11.46-11.67,13.4-8.74,3.32-12.63-6.19-6.49-12.06-.76.13-1.51.27-2.26.42a10,10,0,0,0-2.34,5.95c.13,3.28.76,4.15,2.38,5.89a6.56,6.56,0,0,1-10.91,3.83c-3.75-3.19-4-8.58-3.32-11.58-.71.27-1.41.54-2.11.83-.55,3.71,0,7.44,2.57,10.23,7.26,7.76,14.65,1.8,15-2.39a8,8,0,0,0,1.84.62l-2.76,8.61c-2.53,5.42-8.87,6.41-10.34,13A15.7,15.7,0,0,0,122,66.13c1,1.22,1,1-.22,4.29a28.1,28.1,0,0,1-1.89,3.94c-3.92,6.77-8.9,8.58-12,11.33-1.55,1.36-1,2.22-.87,4.36-4.75,3.18-5.07,5.67-10.72,10.18-2.07,1.66-10.4,8-12.95,8.26-.69-1.45-2.44-8.58-3.81-11.86-2.1-5-3.5-5.88-6-9.66,2.94-5.57-1.12-9.68-4.74-11.86-1.26-.76-1.84-.66-3-1.56-1-.74-1.86-1.32-2.64-1.79-.42,1-.82,2-1.21,3A15.63,15.63,0,0,1,66.33,76c.77.33,2,.83,2.25,1.45A6.77,6.77,0,0,1,72.4,85c-.88,4.17-4.34,3.9-5,6.23,2,.18,3.39-1.82,4.84-2.42,2.15,2.53,4.81,5.48,5.92,9.56,1.63,3.63,3.93,15.44,7,18.21l.47.33c-.33-1.47-1-2.69-1-4.09a5.61,5.61,0,0,1-.95-2.53c1.72.36,3.6,2.15,4.65,3l.11-.47c-.43-.58-1.08-1.33-1.5-1.84-.68-.8-1.07-.84-1.67-1.58.59-.46,4.21-2.19,7-4.23,1.23-.9,5.67-4.27,6.5-4.48.51-1.17,4.22-4.42,5.4-5.75,3.78-4.3,4.16-4,6.54-3.38-.95,1.46-2,2.36-3.11,4-.73,1.08-1.71,3.48-2.64,4.18-.12,1.27-1.77,4.82-2.29,6.58-2.3,7.75-1.59,12.5-6,16.39-.64.56-1.84,1.18-2.54,1.77l.21,1.17a22.64,22.64,0,0,0,5.72.21c-.45,2.06-4.26,4.32-5.91,5.4-6,3.94-16.26,8.5-23.5,9.52a6.59,6.59,0,0,1,1.27-2c.48-1.18.92-1.72.74-3-1.38-.17-2,.69-3.1,1.38a17.79,17.79,0,0,1-7.59,2.43c.2.52.4,1,.61,1.54a16.89,16.89,0,0,0,3.57-.61c1.3-.41,2.23-1,3.34-1.28-1.74,2.6-4.69,4.95,4.31,2.77,8.22-2,17-5.65,23.66-10.75.74-.57,1.1-1.05,1.84-1.54,0,4.61,1.07,11.28,3.92,14.82.64.79.64.82,1.92.85a12.94,12.94,0,0,0,.62-3.07h.61c1.19,5.09,10.38,17.85,10.72,20l2.59,21.39c.45,3.58.93,7.24,1.64,10.78l2.21.62c-1.29-6-2.11-12.73-2.59-16.94-.33-2.9-1.14-7.36-1.17-9.91,0,.81.23,1.12,1.13,1.44l-.17-1.3a45.13,45.13,0,0,0-5.16-12.85c-1.14-1.93-2.27-3.89-3.38-5.84a42.78,42.78,0,0,1-3.18-5.91l-2.6-6c-1.66,0-.79.09-1.44,1.9a11.64,11.64,0,0,1-1.09,2.35l-1.31-2.65c-.84-3-1.63-5.46-1.53-9a19.68,19.68,0,0,1,.67-4.65,33.68,33.68,0,0,0,1.23-3.55l-.94-.17a12.22,12.22,0,0,1-1.46,2.44l-2.45.05a38.83,38.83,0,0,1,2.9-3.22c.16-1.19,1.13-3.18,1.5-5.2s.69-3.72,1.18-5.62a42.71,42.71,0,0,1,3.5-9.86,32.15,32.15,0,0,1,4.3-7.23c1.44-1.86,1.83-1,4.3-1.3a30.2,30.2,0,0,0,4.36-1.06c-.67,1.51-1.48,2.69-1.29,4.81.31,2.32,1.72,4.36,3.84,4.8,3.2.67,4.74-.66,6.74-1.51a38.41,38.41,0,0,0,2,3.41,28.51,28.51,0,0,1,2.27,2.72c2.1.86,3.52,2.36,6.76,1.86,2.74-.42,3.81-2.13,5.22-3.21,4.8,1,10.19.21,12.21-3.12,3.45.8,3.76,2,7.74-.23,2.39-1.35,3.32-2.53,3.78-6a17.8,17.8,0,0,0,4.25,1.6c-.77,1.52-1.71,1.6-3.14,4.71a16.52,16.52,0,0,0-1.52,5.87,28.4,28.4,0,0,0,2.35,12.76c3.2,7.91,4.32,5.26,2.05,10l-5.05,10.09c-.31,1.5-2.84,6.17-3.68,7.94-1.33,2.78-2.48,5.22-3.62,8.05-.84,2.08-.73,2.22-2,3.85-6.28,8.22-.48,13.22,1.13,17a76.8,76.8,0,0,1,4.53,13A59.41,59.41,0,0,1,166,196.23Z"/>
      <path class="cls-5" d="M176.11,97.12c-5.28,8.35,2,24.77,7.62,29.86.58.52.2.43,1.1.68,1-.79,3.59-2.19,4.94-1.65-2.37,1.88-4.6,1.83-8.73,8-2.24,3.36-4.17,6.81-6.55,10-1.3,1.77-2.24,3.07-3.53,4.76-3.47,4.52-9.94,10.22-11.47,13.38-.76,9,9,14.86,14.82,18.14,3.54,2,7.89,4.24,12.51,2.15,2.7-1.22,8-5.42,7.92-8.49-.36-2.53-2.1-4.21-.58-9.56-3.14-.2-6.53,2.82-5.84,5.57,1,4.09,0,3.71,1,5.19a4,4,0,0,1,.37,4.53c-.58-.6-.05.32-.32-.65a7.24,7.24,0,0,1-.18-1.07,6.2,6.2,0,0,0-.49-1.57c-.5.79-2,4.07-2.35,4.92-1.41,1.11-1.41-1.14-1.54-2.26-.5-4.47-1.4-6.84-6-7.06-.28.6-.83,1.69-1.61,1.81-1.76.26-.27.21-.9-.22-.93-3,7.06-10.47,8.54-11.81,8.72-7.92,21.71-10.56,29-23.22,1.74-3,1.45-4.72,2.6-7.84,4.9,3.45,4.48,8.18,5.38,9.21,2.09-4.09-.89-8.91-2.08-12-.18-.27-.8.5-.05-.74,4.82,0,6.15,1.74,8.2,4.17l.51.56a12.43,12.43,0,0,0-2.21-6.6c-.7-1-3.28-4.27-4.07-4.56l-1.05-.81c.49-1,.84-1.09,2-1.38l2.15-.32c.85-.23.2.09.72-.33-3.88-4.23-16.5-12.71-22-16.11s-14.12-7.72-21.1-7.38a13.93,13.93,0,0,0-4,.79,14.31,14.31,0,0,0-1.66.81c-.91.53-1,.4-1.07,1.07"/>
      <path class="cls-5" d="M107.14,100.53a42.71,42.71,0,0,0-3.5,9.86c-.49,1.9-.81,3.61-1.18,5.62s-1.34,4-1.5,5.2c.49.29-.07.16.72.15,0,0,.64-.11.85-.13l.38.88a33.68,33.68,0,0,1-1.23,3.55,19.68,19.68,0,0,0-.67,4.65c-.1,3.58.69,6.05,1.53,9,.08-.06.18-.24.22-.18.29.52,1.07-2.84,3.24-2.66l.38,1.24,2.6,6c1.28,1,8.9,13.93,19.5,16,.43-9.22,2.16-15.49,6.47-21.74a29.16,29.16,0,0,1,7-7.16c1.2-.87,7.84-5,8.85-5,.72,1,.92,3.15,1.44,4.35,3.54-3.06,18.17-24.76,5.65-28a10.65,10.65,0,0,1-4.54,3.75c-3.58,1.7-4.35.45-7-.25-1.29,1.57-2.45,3.62-6.42,3-2.93-.44-4.46-2.07-6.18-3.59a28.51,28.51,0,0,0-2.27-2.72,38.41,38.41,0,0,1-2-3.41c-2,.85-3.54,2.18-6.74,1.51-2.12-.44-3.53-2.48-3.84-4.8a30.05,30.05,0,0,0-6.66,1.63c-4,1.77-3.33,2.38-5,3.15"/>
      <path class="cls-5" d="M133.6,197.2l-.23-.18-1.24-.06,1.47.24M152.36,146c-1,.7-2.6,3.62-3.13-.23-1,.18-8.74,10.41-10.5,15.33-1.6,4.52-1,5-1.51,6.77-.12,1.86.76,3.08.27,4.31-2.19.82-5.7-1-7.38-2.06-2.35-1.46-3.19-2.8-5-4.45-3.2.44-2.66,1.35-4.44,2.68l.17,1.3c-.9-.32-1.1-.63-1.13-1.44,0,2.55.84,7,1.17,9.91.48,4.21,1.3,10.94,2.59,16.94q3.87,1,7.86,1.73c.64-4.11,9.79.09,11.82,1.28,1.31,0,2.62.09,3.94.09a91,91,0,0,0,18.88-2,59.41,59.41,0,0,0-1.27-6.91,76.8,76.8,0,0,0-4.53-13c-1.61-3.75-7.41-8.75-1.13-17,1.25-1.63,1.14-1.77,2-3.85,1.14-2.83,2.29-5.27,3.62-8.05.84-1.77,3.37-6.44,3.68-7.94.19-3.28-2-3.41-5.15-3.19-1.62,1.95-2,3.28-4.62,5.64C157.2,143.23,154.65,145.56,152.36,146Z"/>
      <path class="cls-5" d="M62.87,132.18c-1.63-.67-1.88-1.23-3.6-.74.25.9.5,1.79.78,2.67,1.56-.21,3-.47,3.75,0,0,.94-1.35,2-2.79,2.9.3.85.61,1.71.93,2.55a17.79,17.79,0,0,0,7.59-2.43c1.08-.69,1.72-1.55,3.1-1.38.18,1.31-.26,1.85-.74,3,1.19.74,5.26-1.35,6.35-1.87,3.76-1.76,15.06-8.51,16.07-11.23l-.21-1.17c.7-.59,1.9-1.21,2.54-1.77,4.44-3.89,3.73-8.64,6-16.39.52-1.76,2.17-5.31,2.29-6.58-2.18-.77-4.44.2-6.19.92-.83.21-5.27,3.58-6.5,4.48-2.79,2-6.41,3.77-7,4.23.6.74,1,.78,1.67,1.58.42.51,1.07,1.26,1.5,1.84l.88,2.6c-1.29-.49-4.12-2.88-4.69-2.6,0,1.4.68,2.62,1,4.09l-.47-.33c-3.09-2.77-5.39-14.58-7-18.21-3.27-1.68-6.36-6.21-14.06-3.56-2,.68-5.23,2.32-6.13,3.4-2.29,2.73-1.1,21.39,5.16,30.13,2.19,3.06,4.26,3.14,3.79,5.25a3.34,3.34,0,0,1-2-.54l-1.07-.45Z"/>
      <path class="cls-6" d="M133.7,105.17c1.72,1.52,3.25,3.15,6.18,3.59,4,.6,5.13-1.45,6.42-3,2.67.7,3.44,2,7,.25a10.65,10.65,0,0,0,4.54-3.75c12.52,3.2-2.11,24.9-5.65,28-.52-1.2-.72-3.35-1.44-4.35-1,0-7.65,4.13-8.85,5a29.16,29.16,0,0,0-7,7.16c-4.31,6.25-6,12.52-6.47,21.74-10.6-2-18.22-15-19.5-16a42.78,42.78,0,0,0,3.18,5.91c1.11,2,2.24,3.91,3.38,5.84a45.13,45.13,0,0,1,5.16,12.85c1.78-1.33,1.24-2.24,4.44-2.68-.11-1.42,0-.61.26-.9,2.19,1.42,5,5.21,10.41,5.83-1.56-10.67,1.3-18.88,8.52-26,1.31-1.3,4.82-5.41,6.75-5a13.53,13.53,0,0,1,.25,4.13c2.54-1.44,9-12.12,10.63-16,3.17-7.44,3.23-12.42,3-20.27,0-.35-.07-1.26,0-1.55.15-1.93,0-1,.61-1.5.73,2.54,1.18,9.78,1,12.74-.66,9.7-6.39,19.45-12.44,26.62L152.36,146c2.29-.48,4.84-2.81,6.22-4.06,2.6-2.36,3-3.69,4.62-5.64,3.12-.22,5.34-.09,5.15,3.19l5.05-10.09c2.27-4.79,1.15-2.14-2.05-10A28.4,28.4,0,0,1,169,106.63a16.52,16.52,0,0,1,1.52-5.87c1.43-3.11,2.37-3.19,3.14-4.71a17.8,17.8,0,0,1-4.25-1.6c-.46,3.49-1.39,4.67-3.78,6-4,2.25-4.29,1-7.74.23-2,3.33-7.41,4.1-12.21,3.12-1.41,1.08-2.48,2.79-5.22,3.21-3.24.5-4.66-1-6.76-1.86"/>
      <path class="cls-6" d="M142.89,28.42l.32,1.07c-.87.4.53.44-.3-.08-1-.66.55-.43-.24-.22.49,4.85-.1,6.77-.77,11.44,2.27-.54,2.88.06,4,1.46-.66-4.34-1-5.91.27-10.17.53-1.79.25-2.15,2-3.24,4.1-2.51,9.46,1.42,11.5,4.6s2.15,5,1.76,9.3l2.31.29c-3.73.4-5.56.2-9,1.63-7.54,3.2-7.74,7.83,2.87,5,5-1.34,5.2-2.64,7.34-3.17-.5.93-.37.76-1.4,1.23.62,2.1.94,1.48.42,3.81l-.41-1.76c-.27-.81-.47-.69-.89-1.13a21.38,21.38,0,0,1,.59,3.17,33.54,33.54,0,0,1-.06,4c-.36,6.59-3,13.5-7.4,17.6-2.79,2.62-2.84,1.11-3.07,4.84a11.58,11.58,0,0,0,1.69,6.52c1.7,3.09,5,6.93,5.22,11.15,5.13-.63,4.74-5.5,4.29-10.42,2.34.28,1.45,2.42,6.58,4.94,2.23,1.09,6.86,2.09,8.2-.52.17-1.08-4.87-5.22-7.25-9-3.21-5.1-2.07-6.79-6.5-9.86-1.18.52-2.24,2.4-3.29,3.34,0,2,0,.25-.85,1.57l-1.3,3.88c-.49,1.59-.14,1.31-1.55,1.58-1.13-3,.61-8.09,1.93-10.34,5.76-9.83,14.61-6.88,13.65-24.34a11,11,0,0,0-1.87-2.28c-.72-.78-1.29-1.62-2.07-2.5.13,1.08.45,1.4-.08,2.12-2.41-4.34-2.89-9.45-4.47-14.52-1.09-3.49-4.56-10.85-8.17-11.08-4.28-.58-6.25,1.85-8,4.12-2.21,3-2.41,4-6.15,6"/>
      <path class="cls-5" d="M57.54,90.05l.44-.11c5.37-1.46,12.73-5.38,10.6-12.51-.3-.62-1.48-1.12-2.25-1.45a15.63,15.63,0,0,0-4.5-1.19,90.69,90.69,0,0,0-4.29,15.26"/>
      <path class="cls-6" d="M57.92,125.9a24,24,0,0,0,3.86,4.1c1,.81,1.78,1,2.07,1.85l-1,.33.94.43,1.07.45a3.34,3.34,0,0,0,2,.54c.47-2.11-1.6-2.19-3.79-5.25C56.86,119.61,55.67,101,58,98.22c.9-1.08,4.13-2.72,6.13-3.4,7.7-2.65,10.79,1.88,14.06,3.56-1.11-4.08-3.77-7-5.92-9.56-1.45.6-2.8,2.6-4.84,2.42.67-2.33,4.13-2.06,5-6.23a6.77,6.77,0,0,0-3.82-7.58c2.13,7.13-5.23,11-10.6,12.51l-.44.11a91.92,91.92,0,0,0,.38,35.85"/>
      <path class="cls-7" d="M129.05,17.66c-2.85.58-5.66,1.29-8.4,2.12a7.42,7.42,0,0,1-.36,1.28c-.71,1.69-2.1,1.46-2.54-.36l-1.76.62c1.3,5.77,5,7.64,9.78,3a3.38,3.38,0,0,1,.94-.75,10,10,0,0,1,2.34-5.95M142.73,16a9.32,9.32,0,0,1-1.73.83c-.84.4-1.62.91-2.35,1.35-2.45,1.45-2.31,4.83-4.06,3.13-1.2-1.17.15-3.42,2.49-4.87-1.15.13-2.29.27-3.43.44-1.3,1.78-2.74,4.2-1.74,6.15,1.55,3,6.42,1.73,8.5,0s3.52-4.62,5.54-6.73l.37-.37C145.12,15.89,143.92,15.92,142.73,16Z"/>
      <path class="cls-6" d="M122.81,49.22c0,7.37.2,11.28,4,16.12,2.22,2.88,8.16,7.51,5.73,13-.93-.69-.47-.29-1-1.55a10.76,10.76,0,0,0-.82-1.67c-.71-2.41-4.52-5.61-6.8-6.92a23,23,0,0,1-5.18,10.51,19.15,19.15,0,0,1-4,4c-.85.67-4.08,2.79-4.43,3.3,1.13,2.17,6.17,1.35,8.77,1,4.55-.69,4.76-3.54,7.3-3.77-1.09,3.69-4.78,11.63,2.19,11.32-.3-4,1.4-7.06,3.18-9.55,1.51-2.1,4.55-5.31,5-8.25-1.12-.64-5.28-4.92-4.83-7.21,1.12.18,4.1,1.93,6.74-1.87,1.2-1.72,2.73-5,1.09-7.38s-10.16-1.9-11.41,3.18c-.1.4-.12.74-.19,1l-.31,1c-1.31-.57-2.77-3.32-3.35-5.28-2-6.62,2.19-15.24,7-18,.16-4.63,1.43-7.36,2.86-10.66-1.27-.07-1,.49-1.51,1.7l-3.22,8.22c-.54,1.06-1.82,1.84-3.5,3.56-1,1-3,2.72-3.37,4.18"/>
      <path class="cls-10" d="M196.35,171.91a5.46,5.46,0,0,0,3.34,2.13c2.53.83,5.48.56,8.3.85q2.06-1.83,4-3.8c-5.12,0-10.29,1.39-15.63.82"/>
      <path class="cls-7" d="M132.71,86.28A16.09,16.09,0,0,0,134.29,95c1.61,3,3.23,3.18,6.83,2.43-.5-4.8,2-10.59,2.12-16,1,1.37.57,4.55.38,6.16-.26,2.1-.68,4.05-1,6.09,1.1,1.47,1.27,3,2.89,3.92a7.39,7.39,0,0,0,5.84.16c3.94-1.61,3.26-5.3,3.18-9.86-.25-1.22-1.69-3-2.26-5-.83-2.88-.46-3.94,0-6.7-6.27,2.49-7.4,3.32-14.61,1.28-.58,3.33-3.41,6.21-4.9,8.82m7.15-6.41c-.23,2.85-1.57,5.1-2.36,7.83-.75,2.57,1.77,7.92-1.62,5.72-2.06-1.34-1.85-5.37-.62-7.65.85-1.58,2.22-3,3.2-4.46C139.12,80.31,138.86,80.23,139.86,79.87ZM146,81.76c1.28,1.44,1.87,4.1,2.11,6.45s1.46,5.45.5,7.21C143.66,96.91,146.05,84.77,146,81.76Z"/>
      <path class="cls-11" d="M213.37,167.63c.63,0,1.27,0,1.9,0,.3-.33.6-.67.89-1a6.71,6.71,0,0,0-2.79,1.06"/>
      <path class="cls-6" d="M186.35,181.36c-1.28.06-.4.11-.67-.34.85-2.23,1.91-4.9,1.77-7.68-.16-3.16-1.77-4.74-3.35-6.09-2.38,1-4.43,3.95-6.5,4.86,1-5.2,19.07-14.44,22.15-16.32a75.16,75.16,0,0,0,8.44-6c3.3-2.62,6.81-6.95,7.9-11.45.3-1.23.25-3.14,1.2-3.85,2.3,2.42-2.08,6.66,1.54,8.64,1.73-.52,2.32-1.46,3-3.16-.9-1-.48-5.76-5.38-9.21-1.15,3.12-.86,4.83-2.6,7.84-7.31,12.66-20.3,15.3-29,23.22-1.48,1.34-9.47,8.77-8.54,11.81.63.43-.86.48.9.22.78-.12,1.33-1.21,1.61-1.81,4.56.22,5.46,2.59,6,7.06.13,1.12.13,3.37,1.54,2.26"/>
      <path class="cls-12" d="M126.28,61.47a1.65,1.65,0,0,0,.41-.52c1-1.62,1-2.45,3.59-4.14,6.43-4.26,18.84.57,21.31-5.15-2.44-.31-3.55-1.53-2.7-4-5.42-4.77-2.93-7.47-7.36-5.94.54,2.44,2.15,1.43,2.18,3.34-2-1-3.89-3.26-6.94-3.22-6.25.08-13.11,9.61-10.49,19.66m1-4.89c-1.41-3.79,2-8.81,3.68-10.18a13,13,0,0,1,4.58-2.52c2.43-.69,4.95-.89,5.33,1.6-1.31,1.38-2.65.85-4.75,1.51-2.35.73-5.41,3.63-6.73,5.53A32.8,32.8,0,0,0,127.24,56.58Z"/>
      <path class="cls-10" d="M193.75,182.17c1.59,1,2.21,1.35,2.63,1.59,1.43-.92,2.83-1.89,4.2-2.88-2.89-1.44-3.29-1.92-6.83,1.29"/>
      <path class="cls-13" d="M165.07,70.87c4.43,3.07,3.29,4.76,6.5,9.86,2.38,3.79,7.42,7.93,7.25,9-1.34,2.61-6,1.61-8.2.52-5.13-2.52-4.24-4.66-6.58-4.94.45,4.92.84,9.79-4.29,10.42l-.58,3.89a6.68,6.68,0,0,0,8-2.23c2.13-3.08-.56-6.59-1.24-9.3.93.46.28,0,.92.77,2.46,2.9.51,4.44,6.82,5.79,2.26.48,3.1-.73,5.07-1.38a15.32,15.32,0,0,1,2.67-.66c.66-.08,1.19-.06,1.79-.12,1.54-.14,1.17-.16,1.46-.41,4.93-4.28-14.09-4-14.25-25.58-1.39,0-4.84,3.41-5.33,4.36"/>
      <path class="cls-11" d="M206.06,176.58c-1.13-.1-2.38-.16-3.77-.26a11.65,11.65,0,0,0,2.5,1.31c.43-.34.85-.7,1.27-1m-6.54,2.76a5,5,0,0,0,1.65,1.11l.57-.42Q200.65,179.64,199.52,179.34Z"/>
      <path class="cls-4" d="M125.14,165.71c1.78,1.65,2.62,3,5,4.45,1.68,1.06,5.19,2.88,7.38,2.06.49-1.23-.39-2.45-.27-4.31-1.82-2.16,1-11.95,3.12-15.59,2.43-4.21,5.67-8.22,9.36-10.42,0,1.17.13,3.18-.47,3.91.53,3.85,2.09.93,3.13.23l1.66-2.17c6-7.17,11.78-16.92,12.44-26.62.2-3-.25-10.2-1-12.74-.63.53-.46-.43-.61,1.5,0,.29,0,1.2,0,1.55.27,7.85.21,12.83-3,20.27-1.64,3.84-8.09,14.52-10.63,16a13.53,13.53,0,0,0-.25-4.13c-1.93-.43-5.44,3.68-6.75,5-7.22,7.12-10.08,15.33-8.52,26-5.36-.62-8.22-4.41-10.41-5.83-.29.29-.37-.52-.26.9"/>
      <path class="cls-14" d="M154.87,43.66l5.3-1.17c3.05-5.35-4.69-15.51-10.26-13.38-4.86,1.86-5.58,13.65.07,17.34.81-.49,1.29-.94,2.28-1.47a26.49,26.49,0,0,0,2.61-1.32m0,0c-4.05-.29-4.27-6.87-2.45-9.2,2.19-.17,3,1.62,3.43,3.64a6.23,6.23,0,0,1-1,5.56"/>
      <path class="cls-8" d="M155.87,16.29l1.73.57c0-.14-.11-.28-.16-.41l-1.57-.16m-24.56.95c-6.14,5.87-2.25,15.38,6.49,12.06,5.13-1.94,8.31-9.61,11.67-13.4-.78,0-1.56,0-2.35,0h-.8l-.37.37c-2,2.11-3.38,4.89-5.54,6.73s-6.95,3-8.5,0c-1-2,.44-4.37,1.74-6.15C132.87,17,132.09,17.1,131.31,17.24Z"/>
      <path class="cls-11" d="M219.62,162.3c-.66.25-1.35.53-2.08.85l-5.16,2.46c3.69-.53,4.63-.75,5.31-.86.66-.81,1.3-1.62,1.93-2.45m-2.24-2.3a24.51,24.51,0,0,1,5.17-1.76l.88-1.32C220.75,157.55,218.18,158.76,217.38,160Z"/>
      <path class="cls-6" d="M184.83,127.66c-.9-.25-.52-.16-1.1-.68-5.65-5.09-12.9-21.51-7.62-29.86-5,2.83-6.06,11.6-4,18.45a52.11,52.11,0,0,0,3.65,8.64,44,44,0,0,0,4.49,6.87,2.11,2.11,0,0,0,.48.43c1.74-1.49,2-2.42,4.11-3.85"/>
      <path class="cls-6" d="M194.74,174c0,3.07-5.22,7.27-7.92,8.49-4.62,2.09-9-.14-12.51-2.15-5.82-3.28-15.58-9.15-14.82-18.14-3.67,4,.08,10.06,2.94,13.14a37.15,37.15,0,0,0,18.55,10c3.78.68,5,.93,7.23-1.14,2.95-2.73,1.61-1.81,5.31-4.22,1.06-.7,2.24-1.21,2.53-2.44a3.91,3.91,0,0,0-1.31-3.55"/>
      <path class="cls-8" d="M126.71,23.61a3.38,3.38,0,0,0-.94.75c-4.78,4.6-8.48,2.73-9.78-3l-1.13.43c-.72,3-.43,8.39,3.32,11.58a6.56,6.56,0,0,0,10.91-3.83c-1.62-1.74-2.25-2.61-2.38-5.89"/>
      <path class="cls-15" d="M160.37,49.74c-.16,5.43.41,6.85-1.3,12.23-3.07,9.66-14,19-23.46,10.21l3.85,1.55c-.65-3.46.58-4,2.29-6.06,1.4-1.69,1.45-5,.68-7.26l-1.61-.4c1.82,3.61-.17,11.08-7.36,11.25,4.7,10.75,22.57,7,27.25-8.32,1.13-3.7,2.15-10.23,1.16-14Z"/>
      <path class="cls-13" d="M110.29,86.05c-1.2.56-1.84.92-2,2.51,3.11,3.34,11.16,1.85,13,.69,1.09-.69,1.7-2.27,2.9-2.85-1.08,2.84-4.53,5.9-4,9.47.66,4.32,5.93,3.92,8.79,1.71l-.38-3c-7,.31-3.28-7.63-2.19-11.32-2.54.23-2.75,3.08-7.3,3.77-2.6.39-7.64,1.21-8.77-1"/>
      <path class="cls-8" d="M141.12,97.43c-3.6.75-5.22.54-6.83-2.43a16.09,16.09,0,0,1-1.58-8.72c-4.4,4.69-3.22,16.36,4.79,19,3,1,5.93-.24,6.91-2-1.64-1.88-2.64-1.73-3.29-5.83"/>
      <path class="cls-15" d="M151.59,51.66c-2.47,5.72-14.88.89-21.31,5.15-2.55,1.69-2.56,2.52-3.59,4.14a1.65,1.65,0,0,1-.41.52l1,2.2a7.52,7.52,0,0,1,5.29-5.77c3.24-.92,6.31.25,9.33.9C149,60.33,155,57.86,156,51.21Z"/>
      <path class="cls-13" d="M161.78,74.21c.4-1.59,3.4-5,4.48-6.31,4.33-5,7-1.83,9.17-12.64a12.76,12.76,0,0,0,.22-5l-1.48-3.13a3.26,3.26,0,0,0-.51-.53c1,17.46-7.89,14.51-13.65,24.34-1.32,2.25-3.06,7.37-1.93,10.34,1.41-.27,1.06,0,1.55-1.58l1.3-3.88c.84-1.32.87.44.85-1.57"/>
      <path class="cls-8" d="M152.19,62.75l2-.27c-.58,1.78-.71,1.12-3.31,3a9.18,9.18,0,0,0-1.64,1.37L148,68.15c0-.06-.12.11-.19.16-.27-.35-.38.34-.34-1.25l-1.07,1.33c-.36.57-.63,1-.92,1.52-1,1.81-.53,2.46-1.55,2.87.88-4.07,2.54-5.54,3.22-7.42-7.11,1.43-10.43,11.84-.52,8.76a15,15,0,0,0,6.63-4.45c.79-1,4.27-5.63,3.8-7-1.21-1.11-3.66-1.41-4.89,0"/>
      <path class="cls-8" d="M142.58,93.69c-1.14,9.68,6.68,10.53,11.37,8.32,8.87-4.17,1.4-13.49.54-14.1.08,4.56.76,8.25-3.18,9.86a7.39,7.39,0,0,1-5.84-.16c-1.62-.93-1.79-2.45-2.89-3.92"/>
      <path class="cls-9" d="M117.75,20.7c.44,1.82,1.83,2.05,2.54.36a7.42,7.42,0,0,0,.36-1.28c-1,.29-1.94.6-2.9.92"/>
      <path class="cls-7" d="M217.38,160c-2.18.38-8.92,6.13-15.25,7.06-3.64.54-4.29-.6-6.53-.7-.15,4.77,15.72-.24,16.78-.75l5.16-2.46c.73-.32,1.42-.6,2.08-.85,1-1.32,2-2.68,2.93-4.06a24.51,24.51,0,0,0-5.17,1.76"/>
      <path class="cls-6" d="M71.89,138.79a6.59,6.59,0,0,0-1.27,2c7.24-1,17.51-5.58,23.5-9.52,1.65-1.08,5.46-3.34,5.91-5.4a22.64,22.64,0,0,1-5.72-.21c-1,2.72-12.31,9.47-16.07,11.23-1.09.52-5.16,2.61-6.35,1.87"/>
      <path class="cls-13" d="M130.69,75.16a10.76,10.76,0,0,1,.82,1.67c.51,1.26.05.86,1,1.55,2.43-5.53-3.51-10.16-5.73-13-3.75-4.84-4-8.75-4-16.12-3.59,2-3.42,10.08-.45,15a14,14,0,0,0,2.25,2.67c.8.78,1.58,1.6,2.47,2.44a19.74,19.74,0,0,1,3.48,3.92c1.05,1.59.42,1.62.13,1.93"/>
      <path class="cls-7" d="M199.52,179.34q1.13.3,2.22.69c1-.78,2-1.58,3-2.4a11.65,11.65,0,0,1-2.5-1.31,9.63,9.63,0,0,1-4.51-1.27l0,3.95Z"/>
      <path class="cls-7" d="M215.27,167.58c-.63,0-1.27,0-1.9,0-1.74-.11-6.51,1.39-8.56,1.8-4.27.83-5.51,1-9.29-.45.32,2.39.14,2.29,2.72,2.48,5,.38,9.45-1.21,14.47-1.12.87-.9,1.72-1.82,2.56-2.76"/>
      <path class="cls-6" d="M137.22,167.91c.49-1.81-.09-2.25,1.51-6.77,1.76-4.92,9.5-15.15,10.5-15.33.6-.73.45-2.74.47-3.91-3.69,2.2-6.93,6.21-9.36,10.42-2.11,3.64-4.94,13.43-3.12,15.59"/>
      <path class="cls-14" d="M132.74,41.28c2.28-.63,3.37-1.3,6-.54.17-2.72,0-6.68,2.06-7.71,1,.44.54.39,1.13,1.41a14.64,14.64,0,0,0-.36-5.5c-1.19.54-1.83,1.26-3.28,1.82-2.07.8-2.16,0-3.17,2.06a22.23,22.23,0,0,0-2.42,8.46"/>
      <path class="cls-16" d="M127.24,56.58a32.8,32.8,0,0,1,2.11-4.06c1.32-1.9,4.38-4.8,6.73-5.53,2.1-.66,3.44-.13,4.75-1.51-.38-2.49-2.9-2.29-5.33-1.6a13,13,0,0,0-4.58,2.52c-1.7,1.37-5.09,6.39-3.68,10.18"/>
      <path class="cls-6" d="M107.14,100.53c1.68-.77,1-1.38,5-3.15a30.05,30.05,0,0,1,6.66-1.63c-.19-2.12.62-3.3,1.29-4.81A30.2,30.2,0,0,1,115.74,92c-2.47.28-2.86-.56-4.3,1.3a32.15,32.15,0,0,0-4.3,7.23"/>
      <path class="cls-6" d="M98.77,100.7c1.75-.72,4-1.69,6.19-.92.93-.7,1.91-3.1,2.64-4.18,1.13-1.67,2.16-2.57,3.11-4-2.38-.61-2.76-.92-6.54,3.38-1.18,1.33-4.89,4.58-5.4,5.75"/>
      <path class="cls-13" d="M142.89,28.42c3.74-2,3.94-3,6.15-6,1.71-2.27,3.68-4.7,8-4.12-.49-.6.13-.19-.92-.75a6.88,6.88,0,0,0-1.37-.45c-7.29-1.7-6.05,3.75-10.76,9.13-.82.93-1.38,1-1.06,2.19"/>
      <path class="cls-9" d="M139.86,79.87c-1,.36-.74.44-1.4,1.44-1,1.47-2.35,2.88-3.2,4.46-1.23,2.28-1.44,6.31.62,7.65,3.39,2.2.87-3.15,1.62-5.72.79-2.73,2.13-5,2.36-7.83"/>
      <path class="cls-4" d="M154.87,43.66a6.23,6.23,0,0,0,1-5.56c-.47-2-1.24-3.81-3.43-3.64-1.82,2.33-1.6,8.91,2.45,9.2"/>
      <path class="cls-9" d="M146,81.76c0,3-2.35,15.15,2.61,13.66,1-1.76-.27-4.93-.5-7.21s-.83-5-2.11-6.45"/>
      <path class="cls-6" d="M219.8,128c.86-.75,2.59,2.82,3.33,3.59,1.08,1.13,2.49,3,4.31,3.46a5.66,5.66,0,0,0,1-3.06l-.51-.56c-2-2.43-3.38-4.17-8.2-4.17-.75,1.24-.13.47.05.74"/>
      <path class="cls-9" d="M137.08,16.42c-2.34,1.45-3.69,3.7-2.49,4.87,1.75,1.7,1.61-1.68,4.06-3.13.73-.44,1.51-.95,2.35-1.35a9.32,9.32,0,0,0,1.73-.83q-2.85.14-5.65.44"/>
      <path class="cls-6" d="M222.18,120.78c0-1.26-.09-.61.34-.81a25.06,25.06,0,0,0,6,1.56,13.09,13.09,0,0,0-2.57-3.59c-.52.42.13.1-.72.33l-2.15.32c-1.12.29-1.47.33-2,1.38Z"/>
      <path class="cls-9" d="M147.49,67.06c0,1.59.07.9.34,1.25.07,0,.16-.22.19-.16l1.2-1.33a9.18,9.18,0,0,1,1.64-1.37c2.6-1.85,2.73-1.19,3.31-3l-2,.27a6.31,6.31,0,0,0-2.68,1.93c-.31.32-.72.65-1.08,1.08-.52.62-.36.71-.94,1.3"/>
      <path class="cls-6" d="M84.63,112.83c.57-.28,3.4,2.11,4.69,2.6l-.88-2.6-.11.47c-1-.85-2.93-2.64-4.65-3a5.61,5.61,0,0,0,.95,2.53"/>
      <path class="cls-6" d="M102.54,139.35l1.31,2.65a11.64,11.64,0,0,0,1.09-2.35c.65-1.81-.22-1.86,1.44-1.9l-.38-1.24c-2.17-.18-3,3.18-3.24,2.66,0-.06-.14.12-.22.18"/>
      <path class="cls-6" d="M185.59,166.27l1.25,1.12c3.69-5.33,3.71-3.08,6.76-5,0,0,.21-1.14-2.16.2l-5.38,3.23a1.85,1.85,0,0,0-.47.5"/>
      <path class="cls-6" d="M102.91,122.11l-.38-.88c-.21,0-.84.13-.85.13-.79,0-.23.14-.72-.15a38.83,38.83,0,0,0-2.9,3.22l2.45-.05a12.22,12.22,0,0,0,1.46-2.44Z"/>
      <path class="cls-2" d="M112.89,235.91c-5.48,4-12.41,5.46-19.25,5.46H73.18c-10.75,0-18.59-6.28-18.59-17.44V176.44c0-11.16,7.83-17.45,18.59-17.45h19c7.21,0,14.66,1.4,20.24,5.93,3.51-4.1,9-5.93,14.7-5.93h19c8.71,0,17.77,2,23.46,9.18a21.48,21.48,0,0,1,2.11,3.22q1.11-1.27,2.34-2.46c8.46-8.24,19.15-11.83,30.84-11.83,8.46,0,19.26.84,26.05,6.39,4.59,3.74,8.66,8.65,8.66,14.88a18.41,18.41,0,0,1-4.44,12.06,15.67,15.67,0,0,1-12,5.93c-3.87,0-8.07-1.33-11.7-2.61-1.33-.47-4.4-1.57-5.76-1.57-5.72,0-6.72,1.8-6.72,7.35s1,7.32,6.72,7.32c1.36,0,4.43-1.09,5.76-1.56,3.63-1.28,7.83-2.61,11.7-2.61a15.65,15.65,0,0,1,12,5.93,18.35,18.35,0,0,1,4.45,12.07c0,6.34-4.24,11.24-8.94,15-6.84,5.43-17.45,6.31-25.9,6.31-11.62,0-22.2-3.61-30.65-11.74-.38-.37-.75-.74-1.11-1.12-5.13,8.69-14.73,12.28-25.43,12.28H127.16c-5.45,0-10.72-1.64-14.27-5.46"/>
      <path class="cls-17" d="M142.07,186.82v.87c0-.17,0-.33,0-.44s0-.27,0-.43m1.2,24.1a5.15,5.15,0,0,0-1.2-.14v2.78h.14a4.68,4.68,0,0,0,1.07-.1,5.53,5.53,0,0,0,.13-1.29A4.74,4.74,0,0,0,143.27,210.92Zm-55.18-24.1v.87a3.71,3.71,0,0,0,0-.44A3.47,3.47,0,0,0,88.09,186.82Zm1.21,24.1a5.23,5.23,0,0,0-1.21-.14v2.78h.15a4.6,4.6,0,0,0,1.06-.1,5.58,5.58,0,0,0,.14-1.29A5.2,5.2,0,0,0,89.3,210.92Zm81.26-31.58a35.67,35.67,0,0,1,6.1-7.78c7.76-7.55,17.53-10.79,28.28-10.79,7.42,0,17.72.66,23.73,5.57,3.65,3,7.31,7,7.31,12a14.75,14.75,0,0,1-3.58,9.69,12,12,0,0,1-9.22,4.62c-3.33,0-7.35-1.29-10.48-2.4-1.76-.62-5.1-1.77-7-1.77-7.79,0-10.39,3.38-10.39,11s2.6,11,10.39,11c1.88,0,5.22-1.14,7-1.77,3.13-1.1,7.15-2.4,10.48-2.4A12,12,0,0,1,232.4,211a14.74,14.74,0,0,1,3.58,9.69c0,5.09-3.81,9.12-7.55,12.08-6.07,4.82-16.17,5.52-23.62,5.52-10.69,0-20.36-3.26-28.1-10.72a36.34,36.34,0,0,1-4.65-5.44c-3,10.35-11.78,15.58-24.44,15.58H127.16c-6.34,0-11.35-2.46-13.61-7.3-4.42,4.85-11.25,7.3-19.91,7.3H73.18c-8.72,0-14.91-4.66-14.91-13.77V176.44c0-9.1,6.17-13.78,14.91-13.78h19c7.51,0,15.65,1.61,20.59,7.8l.35.46c2-5.47,7.25-8.26,14-8.26h19c7.52,0,15.65,1.61,20.59,7.8A18.78,18.78,0,0,1,170.56,179.34Z"/>
      <path class="cls-18" d="M113.73,213.24q0,18.93-20.09,18.93H73.16c-6.21,0-9.31-2.72-9.31-8.25V176.47c0-5.53,3.1-8.25,9.31-8.25h19c12.81,0,19.22,5,19.22,15.23,0,6.7-2.62,11.36-7.67,14C110.43,200.63,113.73,205.87,113.73,213.24Zm-20.09-26q0-6.12-6.11-6.12h-5v12.33h5.14C91.7,193.45,93.64,191.31,93.64,187.24ZM95,212.18c0-4.66-2.33-6.89-6.89-6.89H82.58v13.78H88.2C92.77,219.07,95,216.74,95,212.18Zm72.68,1.06q0,18.93-20.09,18.93H127.12c-6.21,0-9.32-2.72-9.32-8.25V176.47c0-5.53,3.11-8.25,9.32-8.25h19c12.81,0,19.21,5,19.21,15.23,0,6.7-2.62,11.36-7.66,14C164.38,200.63,167.68,205.87,167.68,213.24Zm-20.09-26q0-6.12-6.11-6.12h-4.95v12.33h5.14C145.65,193.45,147.59,191.31,147.59,187.24ZM149,212.18c0-4.66-2.33-6.89-6.89-6.89h-5.53v13.78h5.63C146.72,219.07,149,216.74,149,212.18Zm81.42,8.54c0,2.23-1.75,4.85-5.44,7.66s-10.28,4.37-20.18,4.37-17.85-3.11-24.26-9.22-9.51-14.07-9.51-24,3.2-17.85,9.51-24.06S195,166.28,205,166.28s16.69,1.45,20.18,4.36,5.24,5.44,5.24,7.77a9.17,9.17,0,0,1-2.23,6.11,6.67,6.67,0,0,1-4.95,2.62c-1.85,0-4.76-.68-8.64-2s-6.89-2.13-8.83-2.13c-10.67,0-15.91,5.53-15.91,16.59s5.24,16.5,15.91,16.5c1.94,0,4.85-.68,8.83-2.14s6.79-2,8.64-2,3.39.87,4.95,2.71A8.86,8.86,0,0,1,230.37,220.72Z"/>
      <circle class="cls-1" cx="147.11" cy="107.06" r="100.07" transform="translate(-32.62 135.38) rotate(-45)"/>
      <path class="cls-2" d="M147.12,207.1A100.07,100.07,0,1,0,47.05,107,100.07,100.07,0,0,0,147.12,207.1"/>
      <circle class="cls-3" cx="147.12" cy="107.04" r="95.37" transform="translate(-16.07 26.59) rotate(-9.8)"/>
      <path class="cls-2" d="M147.12,202.41A95.38,95.38,0,1,0,51.75,107a95.38,95.38,0,0,0,95.37,95.38"/>
      <path class="cls-4" d="M131.31,17.24a13.3,13.3,0,0,1,3.94-2.56c1.66-.82,4.63-1,5.69-1.56-2.35-2.15-8.27,1-9.69,2.26A20.93,20.93,0,0,0,129,17.67c.76-.15,1.51-.3,2.27-.43"/>
      <path class="cls-4" d="M155.87,16.29a10.5,10.5,0,0,0-4.16-.46c.45-.56,0-.22.77-.73s1.22-.26,2-1c-1.86-.91-3.47,0-5,1.8q3.22.09,6.4.39"/>
      <path class="cls-4" d="M58.8,129.72c-.4-.53-.72-.73-1.23-1.34l-3.78-5.14C49.21,116.38,47,111,43,104.25c-.8-1.34-1.41-2.26-2.28-3.56-2.36-3.57-2.4-4.23-4.63-4.59-4.23-.67-7.31-1.92-12.4-2.35A27.34,27.34,0,0,0,8.82,96.11a24.81,24.81,0,0,1-4.21,1.63c-1.35-2-2.7-2.32-1.24-5.54s5.07-5.49,8.06-7.32a16.72,16.72,0,0,1,2.7-1.29l2.47-1.22c-4.11-1-14.46-2.67-16.6-3.69,0-1.93,1-2.52,2.14-3.39a19.56,19.56,0,0,1,3.39-2.15c5.29-2.59,12.66-2.67,18.66-1.75,2.7.41,8.1,2,8.7,2.07l-1.19-1c-1.09-.84-5.35-3.5-5.68-4.17a3.47,3.47,0,0,1,.33-3.24c2.6-3.6,11.49-.88,13-.85,0-5.77,5.21-11.22,8.41-5.64,2.63,4.61,2,5.81,8.67,10.08,1.78,1.14,3.41,1.16,6.62,3.09-.43,1-.83,2-1.21,3-3.12-.34-5.34.37-5.84.19.71-1.69,4.36-1.48,6.23-1.72-4.25-1.61-2.91-2.5-10.16-3.57.13-.63,0-.27.41-.65a1.77,1.77,0,0,1,.17-.12,1.86,1.86,0,0,1,.19-.11l.6-.28c-1.25-1.08-2.25-1.66-3.24-2.56-1.24-1.12-1.47-2.14-2.53-3.3C47,61,46.21,59,44.87,58.13c-2.95.2-3.84,3.93-4,7.12,2.36.75,3.18,2,4.75,2.2a23.74,23.74,0,0,0,3.91,3.26c1.16,1.76,3.37,3.32,4.52,5.85,2.21-.12,2.8.19,3.66,1.57L55,77.59c.4,1.21.61,1,.59,2.26-1.15-.13-1.75-1.31-2.53-2.27-2.52-3.11-4.21-5.61-7.67-8C41.67,67,35,64,29.17,65.36c-1.33.55-2.46,1.42-.68,2.65l5.68,4.15C37.11,74.5,45,82,43.68,86.8c-.8.31-.83-1.33-2.34-4C38,77,35.94,76.06,28.8,74.16a44.7,44.7,0,0,0-12.21-1.61c-3,0-9.61.91-11.15,2.74a6.47,6.47,0,0,0-2.87,2.16c5,3.77,8.91-3.07,29,11.77,1.76,1.29.64,1.42.63,1.42-.9.49-2.78-1.32-3.63-1.86-1.95-1.27-3.9-2.62-6-3.81-3.59-2-2.94-2.13-6.8-.34S5.52,90,4.91,93.33c-.31.7-.45,2,.55,2.06,1.18.09,7.47-4.93,19.36-3.42,8.3,1,14.57,3.73,23.61,3.75-.07.27.25.45-1.43.75a28.93,28.93,0,0,1-7,.16c.93,1.4,1.93,2.58,3,4.15,4.54,6.56,9.41,18,14.86,25.13.27,1.28.56,2.55.88,3.81"/>
      <path class="cls-4" d="M62.55,141.12c-2.93.22-6.35-.13-7.54-1.89,1.79-2.06,3.61-2.51,4.62-3.38-3.17,0-6.75-.4-7.38-2.77.71-1,5.09-2.65,6.64-3,.12.47.25.94.38,1.4l-.51.16a20.21,20.21,0,0,0-3.94,1.84c1.48,1.09,3.45.92,5.23.68.3,1,.62,1.94,1,2.9-1.24.78-2.57,1.45-3.24,1.85a6.5,6.5,0,0,0,4.17.71c.2.51.4,1,.61,1.54"/>
      <path class="cls-4" d="M134.29,0H138a18,18,0,0,1,9,3.6c3.91,2.93,9.93,8.39,11.72,13l-1.28-.14a9.88,9.88,0,0,0-1.19-2.14l-1.78-2a1.15,1.15,0,0,0-.2-.15,22.72,22.72,0,0,0-2-1.85c-2.25-2-3.51-3.76-6.87-6a14.41,14.41,0,0,0-13.43-2C126.39,4,120.63,8.44,118,13.46c-.78,1.49-2.27,4.34-2.26,6.35a4.24,4.24,0,0,0-.86,1.94l-2.11.83a28.83,28.83,0,0,1,2.81-8.44c4-8,11.21-13.36,18.73-14.14"/>
      <path class="cls-5" d="M61,137c-1.24.78-2.57,1.45-3.24,1.85a6.5,6.5,0,0,0,4.17.71c-.32-.85-.63-1.7-.93-2.56m-1.74-5.58-.51.16a20.21,20.21,0,0,0-3.94,1.84c1.48,1.09,3.45.92,5.23.68C59.77,133.23,59.52,132.34,59.27,131.44Z"/>
      <path class="cls-5" d="M43.68,86.8c-.8.31-.83-1.33-2.34-4C38,77,35.94,76.06,28.8,74.16a44.7,44.7,0,0,0-12.21-1.61c-3,0-9.61.91-11.15,2.74.83.63,3.28.51,4.53.82,13.07,3.24,24.39,13.48,26.92,14,6.06,1.14,14.66,1.49,20.65,0A90.69,90.69,0,0,1,61.83,74.8c-3.12-.34-5.34.37-5.84.19.71-1.69,4.36-1.48,6.23-1.72-4.25-1.61-2.91-2.5-10.16-3.57-1.38.13-1.87.07-2.53,1,1.16,1.76,3.37,3.32,4.52,5.85,2.21-.12,2.8.19,3.66,1.57L55,77.59c.4,1.21.61,1,.59,2.26-1.15-.13-1.75-1.31-2.53-2.27-2.52-3.11-4.21-5.61-7.67-8C41.67,67,35,64,29.17,65.36c.61.91,1.95,1.5,3.28,2.39,9.49,6.38,9.63,12.45,13.85,17.8.79,1,2,1.73,1.85,3.16-2,.23-2.43-.55-3.21-1.17a2.72,2.72,0,0,0-.67-.45c-.08,0-.24,0-.29-.15s-.2-.1-.3-.14"/>
      <path class="cls-6" d="M28.59,88.78c-.85.83-5.31.76-6.77.76-4.7,0-14.33.72-16.49,4.58-.47-.41-.34.62-.42-.79-.31.7-.45,2,.55,2.06,1.18.09,7.47-4.93,19.36-3.42,8.3,1,14.57,3.73,23.61,3.75-.07.27.25.45-1.43.75a28.93,28.93,0,0,1-7,.16c.93,1.4,1.93,2.58,3,4.15,4.54,6.56,9.41,18,14.86,25.13a91.92,91.92,0,0,1-.38-35.85c-6,1.5-14.59,1.15-20.65,0C34.36,89.59,23,79.35,10,76.11c-1.25-.31-3.7-.19-4.53-.82a6.47,6.47,0,0,0-2.87,2.16c5,3.77,8.91-3.07,29,11.77,1.76,1.29.64,1.42.63,1.42-.9.49-2.78-1.32-3.63-1.86"/>
      <path class="cls-7" d="M143.1,15.22a1,1,0,0,1-.38.76c1.2-.06,2.4-.09,3.6-.1,3.76-3.67,6.71-2.79,8-3.71a22.72,22.72,0,0,0-2-1.85c-2.25-2-3.51-3.76-6.87-6a14.41,14.41,0,0,0-13.43-2C126.39,4,120.63,8.44,118,13.46c-.78,1.49-2.27,4.34-2.26,6.35.07.53.16,1,.27,1.52.59-.22,1.17-.42,1.76-.62-.4-1.69,0-4.74,2.57-8.9,5.18-8.44,17.05-12.33,23.11-6.06-4.14-.47-4.44-2.44-9.68-.74a21.82,21.82,0,0,0-7.1,4.55c-5,4.35-5.53,8-6,10.22,2.74-.83,5.54-1.54,8.39-2.11a20.93,20.93,0,0,1,2.21-2.29c1.42-1.3,7.34-4.41,9.69-2.26-1.06.59-4,.74-5.69,1.56-.2.4-.88,1.2-1.6,2.18,1.14-.16,2.28-.31,3.43-.44a8.29,8.29,0,0,1,6-1.2"/>
      <path class="cls-8" d="M149.47,15.9c1.57-1.78,3.18-2.71,5-1.8-.81.74-1.23.47-2,1s-.32.17-.77.73a10.5,10.5,0,0,1,4.16.46l1.57.17a9.88,9.88,0,0,0-1.19-2.14l-1.78-2a1.15,1.15,0,0,0-.2-.15c-1.24.92-4.19,0-8,3.71h.8c.79,0,1.57,0,2.35,0m-14.22-1.22a13.3,13.3,0,0,0-3.94,2.56l2.34-.38C134.37,15.88,135.05,15.08,135.25,14.68Z"/>
      <path class="cls-8" d="M116,21.33c-.11-.48-.2-1-.27-1.52a4.24,4.24,0,0,0-.86,1.94l1.13-.42"/>
      <path class="cls-5" d="M2.79,85.16c.08,1.41,0,.38.43.79,2.16-3.86,11.78-4.6,16.49-4.59,1.45,0,5.92.08,6.76-.75-1.95-1.27-3.9-2.62-6-3.81-3.6-2-2.94-2.13-6.8-.34S3.4,81.81,2.79,85.16"/>
      <path class="cls-9" d="M143.43,5.75c-6.06-6.27-17.93-2.38-23.11,6.06-2.55,4.16-3,7.21-2.57,8.9,1-.33,1.93-.63,2.9-.93.47-2.22,1-5.87,6-10.22A21.82,21.82,0,0,1,133.75,5c5.24-1.7,5.54.27,9.68.74"/>
      <path class="cls-6" d="M43.68,86.8c.1,0,.24,0,.3.14s.21.1.29.15a2.72,2.72,0,0,1,.67.45c.78.62,1.19,1.4,3.21,1.17.14-1.43-1.06-2.15-1.85-3.16-4.22-5.35-4.36-11.42-13.85-17.8-1.33-.89-2.67-1.48-3.28-2.39-1.33.55-2.46,1.42-.68,2.65l5.68,4.15C37.11,74.5,45,82,43.68,86.8"/>
      <path class="cls-5" d="M45.62,67.45c1.63-.44,2.63-2.5,2-4.77C47,61,46.21,59,44.87,58.13c-2.95.2-3.84,3.93-4,7.12,2.36.75,3.18,2,4.75,2.2"/>
      <path class="cls-6" d="M45.62,67.45a23.74,23.74,0,0,0,3.91,3.26c.66-.94,1.15-.88,2.53-1,.13-.63,0-.27.41-.65a1.77,1.77,0,0,1,.17-.12,1.86,1.86,0,0,1,.19-.11l.6-.28c-1.25-1.08-2.25-1.66-3.24-2.56-1.24-1.12-1.47-2.14-2.53-3.3.59,2.27-.41,4.33-2,4.77"/>
      <path class="cls-9" d="M143.1,15.22a8.29,8.29,0,0,0-6,1.2q2.8-.3,5.64-.44a1,1,0,0,0,.38-.76"/>
      <path class="cls-4" d="M157,18.3c3.61.23,7.08,7.59,8.17,11.08,1.58,5.07,2.06,10.18,4.47,14.52.53-.72.21-1,.08-2.12.78.88,1.35,1.72,2.07,2.5a11,11,0,0,1,1.87,2.28,3.26,3.26,0,0,1,.51.53l1.48,3.13a12.76,12.76,0,0,1-.22,5c-2.17,10.81-4.84,7.6-9.17,12.64-1.08,1.26-4.08,4.72-4.48,6.31,1.05-.94,2.11-2.82,3.29-3.34.49-1,3.94-4.39,5.33-4.36.16,21.6,19.18,21.3,14.25,25.58-.29.25.08.27-1.46.41-.6.06-1.13,0-1.79.12a15.32,15.32,0,0,0-2.67.66c-2,.65-2.81,1.86-5.07,1.38-6.31-1.35-4.36-2.89-6.82-5.79-.64-.77,0-.31-.92-.77.68,2.71,3.37,6.22,1.24,9.3a6.68,6.68,0,0,1-8,2.23l.58-3.89c-.23-4.22-3.52-8.06-5.22-11.15a11.58,11.58,0,0,1-1.69-6.52c.23-3.73.28-2.22,3.07-4.84,4.38-4.1,7-11,7.4-17.6a33.54,33.54,0,0,0,.06-4,21.38,21.38,0,0,0-.59-3.17c.42.44.62.32.89,1.13l.41,1.76c.52-2.33.2-1.71-.42-3.81,1-.47.9-.3,1.4-1.23-2.14.53-2.38,1.83-7.34,3.17-10.61,2.86-10.41-1.77-2.87-5,3.39-1.43,5.22-1.23,9-1.63l-2.31-.29c.39-4.28.32-6.06-1.76-9.3s-7.4-7.11-11.5-4.6c-1.78,1.09-1.5,1.45-2,3.24-1.24,4.26-.93,5.83-.27,10.17-1.15-1.4-1.76-2-4-1.46.67-4.67,1.26-6.59.77-11.44.79-.21-.79-.44.24.22.83.52-.57.48.3.08l-.32-1.07c-.32-1.19.24-1.26,1.06-2.19,4.71-5.38,3.47-10.83,10.76-9.13a6.88,6.88,0,0,1,1.37.45c1,.56.43.15.92.75M128.55,94.56l.38,3c-2.86,2.21-8.13,2.61-8.79-1.71-.55-3.57,2.9-6.63,4-9.47-1.2.58-1.81,2.16-2.9,2.85-1.81,1.16-9.86,2.65-13-.69.2-1.59.84-2,2-2.51.35-.51,3.58-2.63,4.43-3.3a19.15,19.15,0,0,0,4-4,23,23,0,0,0,5.18-10.51c2.28,1.31,6.09,4.51,6.8,6.92.29-.31.92-.34-.13-1.93a19.74,19.74,0,0,0-3.48-3.92c-.89-.84-1.67-1.66-2.47-2.44a14,14,0,0,1-2.25-2.67c-3-4.9-3.14-13,.45-15,.35-1.46,2.35-3.14,3.37-4.18,1.68-1.72,3-2.5,3.5-3.56l3.22-8.22c.47-1.21.24-1.77,1.51-1.7-1.43,3.3-2.7,6-2.86,10.66-4.85,2.74-9,11.36-7,18,.58,2,2,4.71,3.35,5.28l.31-1c.07-.3.09-.64.19-1,1.25-5.08,9.8-5.5,11.41-3.18s.11,5.66-1.09,7.38c-2.64,3.8-5.62,2-6.74,1.87-.45,2.29,3.71,6.57,4.83,7.21-.49,2.94-3.53,6.15-5,8.25C130,87.5,128.25,90.56,128.55,94.56Zm4.19-53.28a22.23,22.23,0,0,1,2.42-8.46c1-2.07,1.1-1.26,3.17-2.06,1.45-.56,2.09-1.28,3.28-1.82a14.64,14.64,0,0,1,.36,5.5c-.59-1-.14-1-1.13-1.41-2,1-1.89,5-2.06,7.71C136.11,40,135,40.65,132.74,41.28Zm22.13,2.38A26.49,26.49,0,0,1,152.26,45c-1,.53-1.47,1-2.28,1.47-5.65-3.69-4.93-15.48-.07-17.34,5.57-2.13,13.31,8,10.26,13.38Zm-3.28,8,4.4-.45c-1,6.65-7,9.12-14.07,7.59-3-.65-6.09-1.82-9.33-.9a7.52,7.52,0,0,0-5.29,5.77l-1-2.2c-2.62-10,4.24-19.58,10.49-19.66,3,0,5,2.24,6.94,3.22,0-1.91-1.64-.9-2.18-3.34,4.43-1.53,1.94,1.17,7.36,5.94C148,50.13,149.15,51.35,151.59,51.66ZM161.87,49c1,3.74,0,10.27-1.16,14C156,78.24,138.16,82,133.46,71.26c7.19-.17,9.18-7.64,7.36-11.25l1.61.4c.77,2.29.72,5.57-.68,7.26-1.71,2.06-2.94,2.6-2.29,6.06l-3.85-1.55C145.05,81,156,71.63,159.07,62c1.71-5.38,1.14-6.8,1.3-12.23ZM147.49,67.06c.58-.59.42-.68.94-1.3.36-.43.77-.76,1.08-1.08a6.31,6.31,0,0,1,2.68-1.93c1.23-1.46,3.68-1.16,4.89,0,.47,1.34-3,6-3.8,7a15,15,0,0,1-6.63,4.45c-9.91,3.08-6.59-7.33.52-8.76-.68,1.88-2.34,3.35-3.22,7.42,1-.41.57-1.06,1.55-2.87.29-.52.56-1,.92-1.52Zm7,20.85c.86.61,8.33,9.93-.54,14.1-4.69,2.21-12.51,1.36-11.37-8.32.36-2,.78-4,1-6.09.19-1.61.61-4.79-.38-6.16-.13,5.4-2.62,11.19-2.12,16,.65,4.1,1.65,3.95,3.29,5.83-1,1.81-3.93,3-6.91,2-8-2.67-9.19-14.34-4.79-19,1.49-2.61,4.32-5.49,4.9-8.82,7.21,2,8.34,1.21,14.61-1.28-.45,2.76-.82,3.82,0,6.7C152.8,84.87,154.24,86.69,154.49,87.91Zm21.62,9.21c.11-.67.16-.54,1.07-1.07a14.31,14.31,0,0,1,1.66-.81,13.93,13.93,0,0,1,4-.79c7-.34,15.69,4,21.1,7.38s18.11,11.88,22,16.11a13.09,13.09,0,0,1,2.57,3.59,25.06,25.06,0,0,1-6-1.56c-.43.2-.29-.45-.34.81.79.29,3.37,3.51,4.07,4.56a12.43,12.43,0,0,1,2.21,6.6,5.66,5.66,0,0,1-1,3.06c-1.82-.51-3.23-2.33-4.31-3.46-.74-.77-2.47-4.34-3.33-3.59,1.19,3.11,4.17,7.93,2.08,12-.73,1.7-1.32,2.64-3,3.16-3.62-2,.76-6.22-1.54-8.64-.95.71-.9,2.62-1.2,3.85-1.09,4.5-4.6,8.83-7.9,11.45a75.16,75.16,0,0,1-8.44,6c-3.08,1.88-21.13,11.12-22.15,16.32,2.07-.91,4.12-3.84,6.5-4.86,1.58,1.35,3.19,2.93,3.35,6.09.14,2.78-.92,5.45-1.77,7.68.27.45-.61.4.67.34.36-.85,1.85-4.13,2.35-4.92a6.2,6.2,0,0,1,.49,1.57,7.24,7.24,0,0,0,.18,1.07c.27,1-.26,0,.32.65a4,4,0,0,0-.37-4.53c-1-1.48,0-1.1-1-5.19-.69-2.75,2.7-5.77,5.84-5.57-1.52,5.35.22,7,.58,9.56a3.91,3.91,0,0,1,1.31,3.55c-.29,1.23-1.47,1.74-2.53,2.44-3.7,2.41-2.36,1.49-5.31,4.22-2.22,2.07-3.45,1.82-7.23,1.14a37.15,37.15,0,0,1-18.55-10c-2.86-3.08-6.61-9.1-2.94-13.14,1.53-3.16,8-8.86,11.47-13.38,1.29-1.69,2.23-3,3.53-4.76,2.38-3.23,4.31-6.68,6.55-10,4.13-6.18,6.36-6.13,8.73-8-1.35-.54-4,.86-4.94,1.65-2.09,1.43-2.37,2.36-4.11,3.85a2.11,2.11,0,0,1-.48-.43,44,44,0,0,1-4.49-6.87,52.11,52.11,0,0,1-3.65-8.64C170.05,108.72,171.07,100,176.11,97.12ZM163.82,154c.48-2.1,11.19-22.42,12-25.82l4,4.61c-3.72,5.55-7,11.1-11.44,16.22l-2.13,2.48A10.28,10.28,0,0,1,163.82,154Zm21.77,12.29a1.85,1.85,0,0,1,.47-.5l5.38-3.23c2.37-1.34,2.13-.22,2.16-.2-3,2-3.07-.28-6.76,5Zm-52,30.93c1.65.24,3.33.44,5,.6a11.8,11.8,0,0,0-5.24-.78ZM60.05,134.11c.3,1,.63,1.94,1,2.91,1.44-.91,2.76-2,2.79-2.9C63,133.64,61.61,133.9,60.05,134.11Zm-2.13-8.21c.27,1.28.56,2.55.88,3.81.07.09.14.18.21.29l-.12,0c.12.47.25.94.38,1.41,1.72-.49,2,.07,3.6.74l1-.33c-.29-.87-1.06-1-2.07-1.85A24,24,0,0,1,57.92,125.9ZM166,196.23c.65-.13,1.29-.27,1.93-.42-.32-2.26-.73-4.48-1.22-6.62-.88-3.79-2.8-8.31-3.2-10,1,.27,9.86,7.95,18.74,8,2.43,0,3.75.45,5.45-.4,3.75-1.89,2.71-4.77,6.91-1.92l1.77-1.1c-.42-.24-1-.56-2.63-1.59,3.54-3.21,3.94-2.73,6.83-1.29l.59-.43a5,5,0,0,1-1.65-1.11L197.8,179l0-3.95a9.63,9.63,0,0,0,4.51,1.27c1.39.1,2.64.16,3.77.26.65-.56,1.3-1.12,1.93-1.69-2.82-.29-5.77,0-8.3-.85a5.46,5.46,0,0,1-3.34-2.13c5.34.57,10.51-.82,15.63-.82l.73-.75c-5-.09-9.47,1.5-14.47,1.12-2.58-.19-2.4-.09-2.72-2.48,3.78,1.42,5,1.28,9.29.45,2.05-.41,6.82-1.91,8.56-1.8a6.71,6.71,0,0,1,2.79-1.06c.52-.6,1-1.21,1.53-1.82-.68.11-1.62.33-5.31.86-1.06.51-16.93,5.52-16.78.75,2.24.1,2.89,1.24,6.53.7,6.33-.93,13.07-6.68,15.25-7.06.8-1.24,3.37-2.45,6.05-3.08.48-.73.94-1.46,1.4-2.2-4,.54-7.6,2.82-10.79,4.91-1.4.92-2.55,1.6-4,2.47-2.8,1.7-6.52,3.52-10,3.58a8.83,8.83,0,0,1-3.1-.33c-1.29-.5-.6-.28-.6-2.15a6.57,6.57,0,0,0-1.53-.31c.3-1.15.21-.24.35-.87l0-1.34,4.22-2.46c4.59-2.78,15.7-9.91,17-15.31,1.13.76,2,4,5.77-.07,1.65-1.77,2.22-3.94,2.22-7.31,1.23.33,1.72,1.2,2.81,1.52s1.46.17,2.18-1.14c2.88-5.24-.61-9.63-2.22-12.67,4.52.38,5.73.93,3-3.59-3.16-5.2-8.8-8.49-13.43-11.78s-7-5.05-12-8c-1.08-.65-2.2-1.2-3.34-1.89a47.73,47.73,0,0,0-10.54-4.52c-1.32-.41-2.91-.64-4.27-.95.64-2.77.07-4.15-3.55-6.29-5.07-3-7.79-5.71-9.78-11.73a31.49,31.49,0,0,1-1.73-9c3.31-.88,8-11.13,5-17.32-2.54-5.32-6.46-5.1-7.8-10.65-1.61-6.69-2.92-14.71-8.56-19.09-.89-.69-.93-.43-1.4-1.68l-.05-.12-1.28-.15c.05.13.11.27.16.41l-1.73-.57q-3.18-.32-6.4-.39c-3.36,3.79-6.54,11.46-11.67,13.4-8.74,3.32-12.63-6.19-6.49-12.06-.76.13-1.51.27-2.26.42a10,10,0,0,0-2.34,5.95c.13,3.28.76,4.15,2.38,5.89a6.56,6.56,0,0,1-10.91,3.83c-3.75-3.19-4-8.58-3.32-11.58-.71.27-1.41.54-2.11.83-.55,3.71,0,7.44,2.57,10.23,7.26,7.76,14.65,1.8,15-2.39a8,8,0,0,0,1.84.62l-2.76,8.61c-2.53,5.42-8.87,6.41-10.34,13A15.7,15.7,0,0,0,122,66.13c1,1.22,1,1-.22,4.29a28.1,28.1,0,0,1-1.89,3.94c-3.92,6.77-8.9,8.58-12,11.33-1.55,1.36-1,2.22-.87,4.36-4.75,3.18-5.07,5.67-10.72,10.18-2.07,1.66-10.4,8-12.95,8.26-.69-1.45-2.44-8.58-3.81-11.86-2.1-5-3.5-5.88-6-9.66,2.94-5.57-1.12-9.68-4.74-11.86-1.26-.76-1.84-.66-3-1.56-1-.74-1.86-1.32-2.64-1.79-.42,1-.82,2-1.21,3A15.63,15.63,0,0,1,66.33,76c.77.33,2,.83,2.25,1.45A6.77,6.77,0,0,1,72.4,85c-.88,4.17-4.34,3.9-5,6.23,2,.18,3.39-1.82,4.84-2.42,2.15,2.53,4.81,5.48,5.92,9.56,1.63,3.63,3.93,15.44,7,18.21l.47.33c-.33-1.47-1-2.69-1-4.09a5.61,5.61,0,0,1-.95-2.53c1.72.36,3.6,2.15,4.65,3l.11-.47c-.43-.58-1.08-1.33-1.5-1.84-.68-.8-1.07-.84-1.67-1.58.59-.46,4.21-2.19,7-4.23,1.23-.9,5.67-4.27,6.5-4.48.51-1.17,4.22-4.42,5.4-5.75,3.78-4.3,4.16-4,6.54-3.38-.95,1.46-2,2.36-3.11,4-.73,1.08-1.71,3.48-2.64,4.18-.12,1.27-1.77,4.82-2.29,6.58-2.3,7.75-1.59,12.5-6,16.39-.64.56-1.84,1.18-2.54,1.77l.21,1.17a22.64,22.64,0,0,0,5.72.21c-.45,2.06-4.26,4.32-5.91,5.4-6,3.94-16.26,8.5-23.5,9.52a6.59,6.59,0,0,1,1.27-2c.48-1.18.92-1.72.74-3-1.38-.17-2,.69-3.1,1.38a17.79,17.79,0,0,1-7.59,2.43c.2.52.4,1,.61,1.54a16.89,16.89,0,0,0,3.57-.61c1.3-.41,2.23-1,3.34-1.28-1.74,2.6-4.69,4.95,4.31,2.77,8.22-2,17-5.65,23.66-10.75.74-.57,1.1-1.05,1.84-1.54,0,4.61,1.07,11.28,3.92,14.82.64.79.64.82,1.92.85a12.94,12.94,0,0,0,.62-3.07h.61c1.19,5.09,10.38,17.85,10.72,20l2.59,21.39c.45,3.58.93,7.24,1.64,10.78l2.21.62c-1.29-6-2.11-12.73-2.59-16.94-.33-2.9-1.14-7.36-1.17-9.91,0,.81.23,1.12,1.13,1.44l-.17-1.3a45.13,45.13,0,0,0-5.16-12.85c-1.14-1.93-2.27-3.89-3.38-5.84a42.78,42.78,0,0,1-3.18-5.91l-2.6-6c-1.66,0-.79.09-1.44,1.9a11.64,11.64,0,0,1-1.09,2.35l-1.31-2.65c-.84-3-1.63-5.46-1.53-9a19.68,19.68,0,0,1,.67-4.65,33.68,33.68,0,0,0,1.23-3.55l-.94-.17a12.22,12.22,0,0,1-1.46,2.44l-2.45.05a38.83,38.83,0,0,1,2.9-3.22c.16-1.19,1.13-3.18,1.5-5.2s.69-3.72,1.18-5.62a42.71,42.71,0,0,1,3.5-9.86,32.15,32.15,0,0,1,4.3-7.23c1.44-1.86,1.83-1,4.3-1.3a30.2,30.2,0,0,0,4.36-1.06c-.67,1.51-1.48,2.69-1.29,4.81.31,2.32,1.72,4.36,3.84,4.8,3.2.67,4.74-.66,6.74-1.51a38.41,38.41,0,0,0,2,3.41,28.51,28.51,0,0,1,2.27,2.72c2.1.86,3.52,2.36,6.76,1.86,2.74-.42,3.81-2.13,5.22-3.21,4.8,1,10.19.21,12.21-3.12,3.45.8,3.76,2,7.74-.23,2.39-1.35,3.32-2.53,3.78-6a17.8,17.8,0,0,0,4.25,1.6c-.77,1.52-1.71,1.6-3.14,4.71a16.52,16.52,0,0,0-1.52,5.87,28.4,28.4,0,0,0,2.35,12.76c3.2,7.91,4.32,5.26,2.05,10l-5.05,10.09c-.31,1.5-2.84,6.17-3.68,7.94-1.33,2.78-2.48,5.22-3.62,8.05-.84,2.08-.73,2.22-2,3.85-6.28,8.22-.48,13.22,1.13,17a76.8,76.8,0,0,1,4.53,13A59.41,59.41,0,0,1,166,196.23Z"/>
      <path class="cls-5" d="M176.11,97.12c-5.28,8.35,2,24.77,7.62,29.86.58.52.2.43,1.1.68,1-.79,3.59-2.19,4.94-1.65-2.37,1.88-4.6,1.83-8.73,8-2.24,3.36-4.17,6.81-6.55,10-1.3,1.77-2.24,3.07-3.53,4.76-3.47,4.52-9.94,10.22-11.47,13.38-.76,9,9,14.86,14.82,18.14,3.54,2,7.89,4.24,12.51,2.15,2.7-1.22,8-5.42,7.92-8.49-.36-2.53-2.1-4.21-.58-9.56-3.14-.2-6.53,2.82-5.84,5.57,1,4.09,0,3.71,1,5.19a4,4,0,0,1,.37,4.53c-.58-.6-.05.32-.32-.65a7.24,7.24,0,0,1-.18-1.07,6.2,6.2,0,0,0-.49-1.57c-.5.79-2,4.07-2.35,4.92-1.41,1.11-1.41-1.14-1.54-2.26-.5-4.47-1.4-6.84-6-7.06-.28.6-.83,1.69-1.61,1.81-1.76.26-.27.21-.9-.22-.93-3,7.06-10.47,8.54-11.81,8.72-7.92,21.71-10.56,29-23.22,1.74-3,1.45-4.72,2.6-7.84,4.9,3.45,4.48,8.18,5.38,9.21,2.09-4.09-.89-8.91-2.08-12-.18-.27-.8.5-.05-.74,4.82,0,6.15,1.74,8.2,4.17l.51.56a12.43,12.43,0,0,0-2.21-6.6c-.7-1-3.28-4.27-4.07-4.56l-1.05-.81c.49-1,.84-1.09,2-1.38l2.15-.32c.85-.23.2.09.72-.33-3.88-4.23-16.5-12.71-22-16.11s-14.12-7.72-21.1-7.38a13.93,13.93,0,0,0-4,.79,14.31,14.31,0,0,0-1.66.81c-.91.53-1,.4-1.07,1.07"/>
      <path class="cls-5" d="M107.14,100.53a42.71,42.71,0,0,0-3.5,9.86c-.49,1.9-.81,3.61-1.18,5.62s-1.34,4-1.5,5.2c.49.29-.07.16.72.15,0,0,.64-.11.85-.13l.38.88a33.68,33.68,0,0,1-1.23,3.55,19.68,19.68,0,0,0-.67,4.65c-.1,3.58.69,6.05,1.53,9,.08-.06.18-.24.22-.18.29.52,1.07-2.84,3.24-2.66l.38,1.24,2.6,6c1.28,1,8.9,13.93,19.5,16,.43-9.22,2.16-15.49,6.47-21.74a29.16,29.16,0,0,1,7-7.16c1.2-.87,7.84-5,8.85-5,.72,1,.92,3.15,1.44,4.35,3.54-3.06,18.17-24.76,5.65-28a10.65,10.65,0,0,1-4.54,3.75c-3.58,1.7-4.35.45-7-.25-1.29,1.57-2.45,3.62-6.42,3-2.93-.44-4.46-2.07-6.18-3.59a28.51,28.51,0,0,0-2.27-2.72,38.41,38.41,0,0,1-2-3.41c-2,.85-3.54,2.18-6.74,1.51-2.12-.44-3.53-2.48-3.84-4.8a30.05,30.05,0,0,0-6.66,1.63c-4,1.77-3.33,2.38-5,3.15"/>
      <path class="cls-5" d="M133.6,197.2l-.23-.18-1.24-.06,1.47.24M152.36,146c-1,.7-2.6,3.62-3.13-.23-1,.18-8.74,10.41-10.5,15.33-1.6,4.52-1,5-1.51,6.77-.12,1.86.76,3.08.27,4.31-2.19.82-5.7-1-7.38-2.06-2.35-1.46-3.19-2.8-5-4.45-3.2.44-2.66,1.35-4.44,2.68l.17,1.3c-.9-.32-1.1-.63-1.13-1.44,0,2.55.84,7,1.17,9.91.48,4.21,1.3,10.94,2.59,16.94q3.87,1,7.86,1.73c.64-4.11,9.79.09,11.82,1.28,1.31,0,2.62.09,3.94.09a91,91,0,0,0,18.88-2,59.41,59.41,0,0,0-1.27-6.91,76.8,76.8,0,0,0-4.53-13c-1.61-3.75-7.41-8.75-1.13-17,1.25-1.63,1.14-1.77,2-3.85,1.14-2.83,2.29-5.27,3.62-8.05.84-1.77,3.37-6.44,3.68-7.94.19-3.28-2-3.41-5.15-3.19-1.62,1.95-2,3.28-4.62,5.64C157.2,143.23,154.65,145.56,152.36,146Z"/>
      <path class="cls-5" d="M62.87,132.18c-1.63-.67-1.88-1.23-3.6-.74.25.9.5,1.79.78,2.67,1.56-.21,3-.47,3.75,0,0,.94-1.35,2-2.79,2.9.3.85.61,1.71.93,2.55a17.79,17.79,0,0,0,7.59-2.43c1.08-.69,1.72-1.55,3.1-1.38.18,1.31-.26,1.85-.74,3,1.19.74,5.26-1.35,6.35-1.87,3.76-1.76,15.06-8.51,16.07-11.23l-.21-1.17c.7-.59,1.9-1.21,2.54-1.77,4.44-3.89,3.73-8.64,6-16.39.52-1.76,2.17-5.31,2.29-6.58-2.18-.77-4.44.2-6.19.92-.83.21-5.27,3.58-6.5,4.48-2.79,2-6.41,3.77-7,4.23.6.74,1,.78,1.67,1.58.42.51,1.07,1.26,1.5,1.84l.88,2.6c-1.29-.49-4.12-2.88-4.69-2.6,0,1.4.68,2.62,1,4.09l-.47-.33c-3.09-2.77-5.39-14.58-7-18.21-3.27-1.68-6.36-6.21-14.06-3.56-2,.68-5.23,2.32-6.13,3.4-2.29,2.73-1.1,21.39,5.16,30.13,2.19,3.06,4.26,3.14,3.79,5.25a3.34,3.34,0,0,1-2-.54l-1.07-.45Z"/>
      <path class="cls-6" d="M133.7,105.17c1.72,1.52,3.25,3.15,6.18,3.59,4,.6,5.13-1.45,6.42-3,2.67.7,3.44,2,7,.25a10.65,10.65,0,0,0,4.54-3.75c12.52,3.2-2.11,24.9-5.65,28-.52-1.2-.72-3.35-1.44-4.35-1,0-7.65,4.13-8.85,5a29.16,29.16,0,0,0-7,7.16c-4.31,6.25-6,12.52-6.47,21.74-10.6-2-18.22-15-19.5-16a42.78,42.78,0,0,0,3.18,5.91c1.11,2,2.24,3.91,3.38,5.84a45.13,45.13,0,0,1,5.16,12.85c1.78-1.33,1.24-2.24,4.44-2.68-.11-1.42,0-.61.26-.9,2.19,1.42,5,5.21,10.41,5.83-1.56-10.67,1.3-18.88,8.52-26,1.31-1.3,4.82-5.41,6.75-5a13.53,13.53,0,0,1,.25,4.13c2.54-1.44,9-12.12,10.63-16,3.17-7.44,3.23-12.42,3-20.27,0-.35-.07-1.26,0-1.55.15-1.93,0-1,.61-1.5.73,2.54,1.18,9.78,1,12.74-.66,9.7-6.39,19.45-12.44,26.62L152.36,146c2.29-.48,4.84-2.81,6.22-4.06,2.6-2.36,3-3.69,4.62-5.64,3.12-.22,5.34-.09,5.15,3.19l5.05-10.09c2.27-4.79,1.15-2.14-2.05-10A28.4,28.4,0,0,1,169,106.63a16.52,16.52,0,0,1,1.52-5.87c1.43-3.11,2.37-3.19,3.14-4.71a17.8,17.8,0,0,1-4.25-1.6c-.46,3.49-1.39,4.67-3.78,6-4,2.25-4.29,1-7.74.23-2,3.33-7.41,4.1-12.21,3.12-1.41,1.08-2.48,2.79-5.22,3.21-3.24.5-4.66-1-6.76-1.86"/>
      <path class="cls-6" d="M142.89,28.42l.32,1.07c-.87.4.53.44-.3-.08-1-.66.55-.43-.24-.22.49,4.85-.1,6.77-.77,11.44,2.27-.54,2.88.06,4,1.46-.66-4.34-1-5.91.27-10.17.53-1.79.25-2.15,2-3.24,4.1-2.51,9.46,1.42,11.5,4.6s2.15,5,1.76,9.3l2.31.29c-3.73.4-5.56.2-9,1.63-7.54,3.2-7.74,7.83,2.87,5,5-1.34,5.2-2.64,7.34-3.17-.5.93-.37.76-1.4,1.23.62,2.1.94,1.48.42,3.81l-.41-1.76c-.27-.81-.47-.69-.89-1.13a21.38,21.38,0,0,1,.59,3.17,33.54,33.54,0,0,1-.06,4c-.36,6.59-3,13.5-7.4,17.6-2.79,2.62-2.84,1.11-3.07,4.84a11.58,11.58,0,0,0,1.69,6.52c1.7,3.09,5,6.93,5.22,11.15,5.13-.63,4.74-5.5,4.29-10.42,2.34.28,1.45,2.42,6.58,4.94,2.23,1.09,6.86,2.09,8.2-.52.17-1.08-4.87-5.22-7.25-9-3.21-5.1-2.07-6.79-6.5-9.86-1.18.52-2.24,2.4-3.29,3.34,0,2,0,.25-.85,1.57l-1.3,3.88c-.49,1.59-.14,1.31-1.55,1.58-1.13-3,.61-8.09,1.93-10.34,5.76-9.83,14.61-6.88,13.65-24.34a11,11,0,0,0-1.87-2.28c-.72-.78-1.29-1.62-2.07-2.5.13,1.08.45,1.4-.08,2.12-2.41-4.34-2.89-9.45-4.47-14.52-1.09-3.49-4.56-10.85-8.17-11.08-4.28-.58-6.25,1.85-8,4.12-2.21,3-2.41,4-6.15,6"/>
      <path class="cls-5" d="M57.54,90.05l.44-.11c5.37-1.46,12.73-5.38,10.6-12.51-.3-.62-1.48-1.12-2.25-1.45a15.63,15.63,0,0,0-4.5-1.19,90.69,90.69,0,0,0-4.29,15.26"/>
      <path class="cls-6" d="M57.92,125.9a24,24,0,0,0,3.86,4.1c1,.81,1.78,1,2.07,1.85l-1,.33.94.43,1.07.45a3.34,3.34,0,0,0,2,.54c.47-2.11-1.6-2.19-3.79-5.25C56.86,119.61,55.67,101,58,98.22c.9-1.08,4.13-2.72,6.13-3.4,7.7-2.65,10.79,1.88,14.06,3.56-1.11-4.08-3.77-7-5.92-9.56-1.45.6-2.8,2.6-4.84,2.42.67-2.33,4.13-2.06,5-6.23a6.77,6.77,0,0,0-3.82-7.58c2.13,7.13-5.23,11-10.6,12.51l-.44.11a91.92,91.92,0,0,0,.38,35.85"/>
      <path class="cls-7" d="M129.05,17.66c-2.85.58-5.66,1.29-8.4,2.12a7.42,7.42,0,0,1-.36,1.28c-.71,1.69-2.1,1.46-2.54-.36l-1.76.62c1.3,5.77,5,7.64,9.78,3a3.38,3.38,0,0,1,.94-.75,10,10,0,0,1,2.34-5.95M142.73,16a9.32,9.32,0,0,1-1.73.83c-.84.4-1.62.91-2.35,1.35-2.45,1.45-2.31,4.83-4.06,3.13-1.2-1.17.15-3.42,2.49-4.87-1.15.13-2.29.27-3.43.44-1.3,1.78-2.74,4.2-1.74,6.15,1.55,3,6.42,1.73,8.5,0s3.52-4.62,5.54-6.73l.37-.37C145.12,15.89,143.92,15.92,142.73,16Z"/>
      <path class="cls-6" d="M122.81,49.22c0,7.37.2,11.28,4,16.12,2.22,2.88,8.16,7.51,5.73,13-.93-.69-.47-.29-1-1.55a10.76,10.76,0,0,0-.82-1.67c-.71-2.41-4.52-5.61-6.8-6.92a23,23,0,0,1-5.18,10.51,19.15,19.15,0,0,1-4,4c-.85.67-4.08,2.79-4.43,3.3,1.13,2.17,6.17,1.35,8.77,1,4.55-.69,4.76-3.54,7.3-3.77-1.09,3.69-4.78,11.63,2.19,11.32-.3-4,1.4-7.06,3.18-9.55,1.51-2.1,4.55-5.31,5-8.25-1.12-.64-5.28-4.92-4.83-7.21,1.12.18,4.1,1.93,6.74-1.87,1.2-1.72,2.73-5,1.09-7.38s-10.16-1.9-11.41,3.18c-.1.4-.12.74-.19,1l-.31,1c-1.31-.57-2.77-3.32-3.35-5.28-2-6.62,2.19-15.24,7-18,.16-4.63,1.43-7.36,2.86-10.66-1.27-.07-1,.49-1.51,1.7l-3.22,8.22c-.54,1.06-1.82,1.84-3.5,3.56-1,1-3,2.72-3.37,4.18"/>
      <path class="cls-10" d="M196.35,171.91a5.46,5.46,0,0,0,3.34,2.13c2.53.83,5.48.56,8.3.85q2.06-1.83,4-3.8c-5.12,0-10.29,1.39-15.63.82"/>
      <path class="cls-7" d="M132.71,86.28A16.09,16.09,0,0,0,134.29,95c1.61,3,3.23,3.18,6.83,2.43-.5-4.8,2-10.59,2.12-16,1,1.37.57,4.55.38,6.16-.26,2.1-.68,4.05-1,6.09,1.1,1.47,1.27,3,2.89,3.92a7.39,7.39,0,0,0,5.84.16c3.94-1.61,3.26-5.3,3.18-9.86-.25-1.22-1.69-3-2.26-5-.83-2.88-.46-3.94,0-6.7-6.27,2.49-7.4,3.32-14.61,1.28-.58,3.33-3.41,6.21-4.9,8.82m7.15-6.41c-.23,2.85-1.57,5.1-2.36,7.83-.75,2.57,1.77,7.92-1.62,5.72-2.06-1.34-1.85-5.37-.62-7.65.85-1.58,2.22-3,3.2-4.46C139.12,80.31,138.86,80.23,139.86,79.87ZM146,81.76c1.28,1.44,1.87,4.1,2.11,6.45s1.46,5.45.5,7.21C143.66,96.91,146.05,84.77,146,81.76Z"/>
      <path class="cls-11" d="M213.37,167.63c.63,0,1.27,0,1.9,0,.3-.33.6-.67.89-1a6.71,6.71,0,0,0-2.79,1.06"/>
      <path class="cls-6" d="M186.35,181.36c-1.28.06-.4.11-.67-.34.85-2.23,1.91-4.9,1.77-7.68-.16-3.16-1.77-4.74-3.35-6.09-2.38,1-4.43,3.95-6.5,4.86,1-5.2,19.07-14.44,22.15-16.32a75.16,75.16,0,0,0,8.44-6c3.3-2.62,6.81-6.95,7.9-11.45.3-1.23.25-3.14,1.2-3.85,2.3,2.42-2.08,6.66,1.54,8.64,1.73-.52,2.32-1.46,3-3.16-.9-1-.48-5.76-5.38-9.21-1.15,3.12-.86,4.83-2.6,7.84-7.31,12.66-20.3,15.3-29,23.22-1.48,1.34-9.47,8.77-8.54,11.81.63.43-.86.48.9.22.78-.12,1.33-1.21,1.61-1.81,4.56.22,5.46,2.59,6,7.06.13,1.12.13,3.37,1.54,2.26"/>
      <path class="cls-12" d="M126.28,61.47a1.65,1.65,0,0,0,.41-.52c1-1.62,1-2.45,3.59-4.14,6.43-4.26,18.84.57,21.31-5.15-2.44-.31-3.55-1.53-2.7-4-5.42-4.77-2.93-7.47-7.36-5.94.54,2.44,2.15,1.43,2.18,3.34-2-1-3.89-3.26-6.94-3.22-6.25.08-13.11,9.61-10.49,19.66m1-4.89c-1.41-3.79,2-8.81,3.68-10.18a13,13,0,0,1,4.58-2.52c2.43-.69,4.95-.89,5.33,1.6-1.31,1.38-2.65.85-4.75,1.51-2.35.73-5.41,3.63-6.73,5.53A32.8,32.8,0,0,0,127.24,56.58Z"/>
      <path class="cls-10" d="M193.75,182.17c1.59,1,2.21,1.35,2.63,1.59,1.43-.92,2.83-1.89,4.2-2.88-2.89-1.44-3.29-1.92-6.83,1.29"/>
      <path class="cls-13" d="M165.07,70.87c4.43,3.07,3.29,4.76,6.5,9.86,2.38,3.79,7.42,7.93,7.25,9-1.34,2.61-6,1.61-8.2.52-5.13-2.52-4.24-4.66-6.58-4.94.45,4.92.84,9.79-4.29,10.42l-.58,3.89a6.68,6.68,0,0,0,8-2.23c2.13-3.08-.56-6.59-1.24-9.3.93.46.28,0,.92.77,2.46,2.9.51,4.44,6.82,5.79,2.26.48,3.1-.73,5.07-1.38a15.32,15.32,0,0,1,2.67-.66c.66-.08,1.19-.06,1.79-.12,1.54-.14,1.17-.16,1.46-.41,4.93-4.28-14.09-4-14.25-25.58-1.39,0-4.84,3.41-5.33,4.36"/>
      <path class="cls-11" d="M206.06,176.58c-1.13-.1-2.38-.16-3.77-.26a11.65,11.65,0,0,0,2.5,1.31c.43-.34.85-.7,1.27-1m-6.54,2.76a5,5,0,0,0,1.65,1.11l.57-.42Q200.65,179.64,199.52,179.34Z"/>
      <path class="cls-4" d="M125.14,165.71c1.78,1.65,2.62,3,5,4.45,1.68,1.06,5.19,2.88,7.38,2.06.49-1.23-.39-2.45-.27-4.31-1.82-2.16,1-11.95,3.12-15.59,2.43-4.21,5.67-8.22,9.36-10.42,0,1.17.13,3.18-.47,3.91.53,3.85,2.09.93,3.13.23l1.66-2.17c6-7.17,11.78-16.92,12.44-26.62.2-3-.25-10.2-1-12.74-.63.53-.46-.43-.61,1.5,0,.29,0,1.2,0,1.55.27,7.85.21,12.83-3,20.27-1.64,3.84-8.09,14.52-10.63,16a13.53,13.53,0,0,0-.25-4.13c-1.93-.43-5.44,3.68-6.75,5-7.22,7.12-10.08,15.33-8.52,26-5.36-.62-8.22-4.41-10.41-5.83-.29.29-.37-.52-.26.9"/>
      <path class="cls-14" d="M154.87,43.66l5.3-1.17c3.05-5.35-4.69-15.51-10.26-13.38-4.86,1.86-5.58,13.65.07,17.34.81-.49,1.29-.94,2.28-1.47a26.49,26.49,0,0,0,2.61-1.32m0,0c-4.05-.29-4.27-6.87-2.45-9.2,2.19-.17,3,1.62,3.43,3.64a6.23,6.23,0,0,1-1,5.56"/>
      <path class="cls-8" d="M155.87,16.29l1.73.57c0-.14-.11-.28-.16-.41l-1.57-.16m-24.56.95c-6.14,5.87-2.25,15.38,6.49,12.06,5.13-1.94,8.31-9.61,11.67-13.4-.78,0-1.56,0-2.35,0h-.8l-.37.37c-2,2.11-3.38,4.89-5.54,6.73s-6.95,3-8.5,0c-1-2,.44-4.37,1.74-6.15C132.87,17,132.09,17.1,131.31,17.24Z"/>
      <path class="cls-11" d="M219.62,162.3c-.66.25-1.35.53-2.08.85l-5.16,2.46c3.69-.53,4.63-.75,5.31-.86.66-.81,1.3-1.62,1.93-2.45m-2.24-2.3a24.51,24.51,0,0,1,5.17-1.76l.88-1.32C220.75,157.55,218.18,158.76,217.38,160Z"/>
      <path class="cls-6" d="M184.83,127.66c-.9-.25-.52-.16-1.1-.68-5.65-5.09-12.9-21.51-7.62-29.86-5,2.83-6.06,11.6-4,18.45a52.11,52.11,0,0,0,3.65,8.64,44,44,0,0,0,4.49,6.87,2.11,2.11,0,0,0,.48.43c1.74-1.49,2-2.42,4.11-3.85"/>
      <path class="cls-6" d="M194.74,174c0,3.07-5.22,7.27-7.92,8.49-4.62,2.09-9-.14-12.51-2.15-5.82-3.28-15.58-9.15-14.82-18.14-3.67,4,.08,10.06,2.94,13.14a37.15,37.15,0,0,0,18.55,10c3.78.68,5,.93,7.23-1.14,2.95-2.73,1.61-1.81,5.31-4.22,1.06-.7,2.24-1.21,2.53-2.44a3.91,3.91,0,0,0-1.31-3.55"/>
      <path class="cls-8" d="M126.71,23.61a3.38,3.38,0,0,0-.94.75c-4.78,4.6-8.48,2.73-9.78-3l-1.13.43c-.72,3-.43,8.39,3.32,11.58a6.56,6.56,0,0,0,10.91-3.83c-1.62-1.74-2.25-2.61-2.38-5.89"/>
      <path class="cls-15" d="M160.37,49.74c-.16,5.43.41,6.85-1.3,12.23-3.07,9.66-14,19-23.46,10.21l3.85,1.55c-.65-3.46.58-4,2.29-6.06,1.4-1.69,1.45-5,.68-7.26l-1.61-.4c1.82,3.61-.17,11.08-7.36,11.25,4.7,10.75,22.57,7,27.25-8.32,1.13-3.7,2.15-10.23,1.16-14Z"/>
      <path class="cls-13" d="M110.29,86.05c-1.2.56-1.84.92-2,2.51,3.11,3.34,11.16,1.85,13,.69,1.09-.69,1.7-2.27,2.9-2.85-1.08,2.84-4.53,5.9-4,9.47.66,4.32,5.93,3.92,8.79,1.71l-.38-3c-7,.31-3.28-7.63-2.19-11.32-2.54.23-2.75,3.08-7.3,3.77-2.6.39-7.64,1.21-8.77-1"/>
      <path class="cls-8" d="M141.12,97.43c-3.6.75-5.22.54-6.83-2.43a16.09,16.09,0,0,1-1.58-8.72c-4.4,4.69-3.22,16.36,4.79,19,3,1,5.93-.24,6.91-2-1.64-1.88-2.64-1.73-3.29-5.83"/>
      <path class="cls-15" d="M151.59,51.66c-2.47,5.72-14.88.89-21.31,5.15-2.55,1.69-2.56,2.52-3.59,4.14a1.65,1.65,0,0,1-.41.52l1,2.2a7.52,7.52,0,0,1,5.29-5.77c3.24-.92,6.31.25,9.33.9C149,60.33,155,57.86,156,51.21Z"/>
      <path class="cls-13" d="M161.78,74.21c.4-1.59,3.4-5,4.48-6.31,4.33-5,7-1.83,9.17-12.64a12.76,12.76,0,0,0,.22-5l-1.48-3.13a3.26,3.26,0,0,0-.51-.53c1,17.46-7.89,14.51-13.65,24.34-1.32,2.25-3.06,7.37-1.93,10.34,1.41-.27,1.06,0,1.55-1.58l1.3-3.88c.84-1.32.87.44.85-1.57"/>
      <path class="cls-8" d="M152.19,62.75l2-.27c-.58,1.78-.71,1.12-3.31,3a9.18,9.18,0,0,0-1.64,1.37L148,68.15c0-.06-.12.11-.19.16-.27-.35-.38.34-.34-1.25l-1.07,1.33c-.36.57-.63,1-.92,1.52-1,1.81-.53,2.46-1.55,2.87.88-4.07,2.54-5.54,3.22-7.42-7.11,1.43-10.43,11.84-.52,8.76a15,15,0,0,0,6.63-4.45c.79-1,4.27-5.63,3.8-7-1.21-1.11-3.66-1.41-4.89,0"/>
      <path class="cls-8" d="M142.58,93.69c-1.14,9.68,6.68,10.53,11.37,8.32,8.87-4.17,1.4-13.49.54-14.1.08,4.56.76,8.25-3.18,9.86a7.39,7.39,0,0,1-5.84-.16c-1.62-.93-1.79-2.45-2.89-3.92"/>
      <path class="cls-9" d="M117.75,20.7c.44,1.82,1.83,2.05,2.54.36a7.42,7.42,0,0,0,.36-1.28c-1,.29-1.94.6-2.9.92"/>
      <path class="cls-7" d="M217.38,160c-2.18.38-8.92,6.13-15.25,7.06-3.64.54-4.29-.6-6.53-.7-.15,4.77,15.72-.24,16.78-.75l5.16-2.46c.73-.32,1.42-.6,2.08-.85,1-1.32,2-2.68,2.93-4.06a24.51,24.51,0,0,0-5.17,1.76"/>
      <path class="cls-6" d="M71.89,138.79a6.59,6.59,0,0,0-1.27,2c7.24-1,17.51-5.58,23.5-9.52,1.65-1.08,5.46-3.34,5.91-5.4a22.64,22.64,0,0,1-5.72-.21c-1,2.72-12.31,9.47-16.07,11.23-1.09.52-5.16,2.61-6.35,1.87"/>
      <path class="cls-13" d="M130.69,75.16a10.76,10.76,0,0,1,.82,1.67c.51,1.26.05.86,1,1.55,2.43-5.53-3.51-10.16-5.73-13-3.75-4.84-4-8.75-4-16.12-3.59,2-3.42,10.08-.45,15a14,14,0,0,0,2.25,2.67c.8.78,1.58,1.6,2.47,2.44a19.74,19.74,0,0,1,3.48,3.92c1.05,1.59.42,1.62.13,1.93"/>
      <path class="cls-7" d="M199.52,179.34q1.13.3,2.22.69c1-.78,2-1.58,3-2.4a11.65,11.65,0,0,1-2.5-1.31,9.63,9.63,0,0,1-4.51-1.27l0,3.95Z"/>
      <path class="cls-7" d="M215.27,167.58c-.63,0-1.27,0-1.9,0-1.74-.11-6.51,1.39-8.56,1.8-4.27.83-5.51,1-9.29-.45.32,2.39.14,2.29,2.72,2.48,5,.38,9.45-1.21,14.47-1.12.87-.9,1.72-1.82,2.56-2.76"/>
      <path class="cls-6" d="M137.22,167.91c.49-1.81-.09-2.25,1.51-6.77,1.76-4.92,9.5-15.15,10.5-15.33.6-.73.45-2.74.47-3.91-3.69,2.2-6.93,6.21-9.36,10.42-2.11,3.64-4.94,13.43-3.12,15.59"/>
      <path class="cls-14" d="M132.74,41.28c2.28-.63,3.37-1.3,6-.54.17-2.72,0-6.68,2.06-7.71,1,.44.54.39,1.13,1.41a14.64,14.64,0,0,0-.36-5.5c-1.19.54-1.83,1.26-3.28,1.82-2.07.8-2.16,0-3.17,2.06a22.23,22.23,0,0,0-2.42,8.46"/>
      <path class="cls-16" d="M127.24,56.58a32.8,32.8,0,0,1,2.11-4.06c1.32-1.9,4.38-4.8,6.73-5.53,2.1-.66,3.44-.13,4.75-1.51-.38-2.49-2.9-2.29-5.33-1.6a13,13,0,0,0-4.58,2.52c-1.7,1.37-5.09,6.39-3.68,10.18"/>
      <path class="cls-6" d="M107.14,100.53c1.68-.77,1-1.38,5-3.15a30.05,30.05,0,0,1,6.66-1.63c-.19-2.12.62-3.3,1.29-4.81A30.2,30.2,0,0,1,115.74,92c-2.47.28-2.86-.56-4.3,1.3a32.15,32.15,0,0,0-4.3,7.23"/>
      <path class="cls-6" d="M98.77,100.7c1.75-.72,4-1.69,6.19-.92.93-.7,1.91-3.1,2.64-4.18,1.13-1.67,2.16-2.57,3.11-4-2.38-.61-2.76-.92-6.54,3.38-1.18,1.33-4.89,4.58-5.4,5.75"/>
      <path class="cls-13" d="M142.89,28.42c3.74-2,3.94-3,6.15-6,1.71-2.27,3.68-4.7,8-4.12-.49-.6.13-.19-.92-.75a6.88,6.88,0,0,0-1.37-.45c-7.29-1.7-6.05,3.75-10.76,9.13-.82.93-1.38,1-1.06,2.19"/>
      <path class="cls-9" d="M139.86,79.87c-1,.36-.74.44-1.4,1.44-1,1.47-2.35,2.88-3.2,4.46-1.23,2.28-1.44,6.31.62,7.65,3.39,2.2.87-3.15,1.62-5.72.79-2.73,2.13-5,2.36-7.83"/>
      <path class="cls-4" d="M154.87,43.66a6.23,6.23,0,0,0,1-5.56c-.47-2-1.24-3.81-3.43-3.64-1.82,2.33-1.6,8.91,2.45,9.2"/>
      <path class="cls-9" d="M146,81.76c0,3-2.35,15.15,2.61,13.66,1-1.76-.27-4.93-.5-7.21s-.83-5-2.11-6.45"/>
      <path class="cls-6" d="M219.8,128c.86-.75,2.59,2.82,3.33,3.59,1.08,1.13,2.49,3,4.31,3.46a5.66,5.66,0,0,0,1-3.06l-.51-.56c-2-2.43-3.38-4.17-8.2-4.17-.75,1.24-.13.47.05.74"/>
      <path class="cls-9" d="M137.08,16.42c-2.34,1.45-3.69,3.7-2.49,4.87,1.75,1.7,1.61-1.68,4.06-3.13.73-.44,1.51-.95,2.35-1.35a9.32,9.32,0,0,0,1.73-.83q-2.85.14-5.65.44"/>
      <path class="cls-6" d="M222.18,120.78c0-1.26-.09-.61.34-.81a25.06,25.06,0,0,0,6,1.56,13.09,13.09,0,0,0-2.57-3.59c-.52.42.13.1-.72.33l-2.15.32c-1.12.29-1.47.33-2,1.38Z"/>
      <path class="cls-9" d="M147.49,67.06c0,1.59.07.9.34,1.25.07,0,.16-.22.19-.16l1.2-1.33a9.18,9.18,0,0,1,1.64-1.37c2.6-1.85,2.73-1.19,3.31-3l-2,.27a6.31,6.31,0,0,0-2.68,1.93c-.31.32-.72.65-1.08,1.08-.52.62-.36.71-.94,1.3"/>
      <path class="cls-6" d="M84.63,112.83c.57-.28,3.4,2.11,4.69,2.6l-.88-2.6-.11.47c-1-.85-2.93-2.64-4.65-3a5.61,5.61,0,0,0,.95,2.53"/>
      <path class="cls-6" d="M102.54,139.35l1.31,2.65a11.64,11.64,0,0,0,1.09-2.35c.65-1.81-.22-1.86,1.44-1.9l-.38-1.24c-2.17-.18-3,3.18-3.24,2.66,0-.06-.14.12-.22.18"/>
      <path class="cls-6" d="M185.59,166.27l1.25,1.12c3.69-5.33,3.71-3.08,6.76-5,0,0,.21-1.14-2.16.2l-5.38,3.23a1.85,1.85,0,0,0-.47.5"/>
      <path class="cls-6" d="M102.91,122.11l-.38-.88c-.21,0-.84.13-.85.13-.79,0-.23.14-.72-.15a38.83,38.83,0,0,0-2.9,3.22l2.45-.05a12.22,12.22,0,0,0,1.46-2.44Z"/>
      <path class="cls-2" d="M112.89,235.91c-5.48,4-12.41,5.46-19.25,5.46H73.18c-10.75,0-18.59-6.28-18.59-17.44V176.44c0-11.16,7.83-17.45,18.59-17.45h19c7.21,0,14.66,1.4,20.24,5.93,3.51-4.1,9-5.93,14.7-5.93h19c8.71,0,17.77,2,23.46,9.18a21.48,21.48,0,0,1,2.11,3.22q1.11-1.27,2.34-2.46c8.46-8.24,19.15-11.83,30.84-11.83,8.46,0,19.26.84,26.05,6.39,4.59,3.74,8.66,8.65,8.66,14.88a18.41,18.41,0,0,1-4.44,12.06,15.67,15.67,0,0,1-12,5.93c-3.87,0-8.07-1.33-11.7-2.61-1.33-.47-4.4-1.57-5.76-1.57-5.72,0-6.72,1.8-6.72,7.35s1,7.32,6.72,7.32c1.36,0,4.43-1.09,5.76-1.56,3.63-1.28,7.83-2.61,11.7-2.61a15.65,15.65,0,0,1,12,5.93,18.35,18.35,0,0,1,4.45,12.07c0,6.34-4.24,11.24-8.94,15-6.84,5.43-17.45,6.31-25.9,6.31-11.62,0-22.2-3.61-30.65-11.74-.38-.37-.75-.74-1.11-1.12-5.13,8.69-14.73,12.28-25.43,12.28H127.16c-5.45,0-10.72-1.64-14.27-5.46"/>
      <path class="cls-17" d="M142.07,186.82v.87c0-.17,0-.33,0-.44s0-.27,0-.43m1.2,24.1a5.15,5.15,0,0,0-1.2-.14v2.78h.14a4.68,4.68,0,0,0,1.07-.1,5.53,5.53,0,0,0,.13-1.29A4.74,4.74,0,0,0,143.27,210.92Zm-55.18-24.1v.87a3.71,3.71,0,0,0,0-.44A3.47,3.47,0,0,0,88.09,186.82Zm1.21,24.1a5.23,5.23,0,0,0-1.21-.14v2.78h.15a4.6,4.6,0,0,0,1.06-.1,5.58,5.58,0,0,0,.14-1.29A5.2,5.2,0,0,0,89.3,210.92Zm81.26-31.58a35.67,35.67,0,0,1,6.1-7.78c7.76-7.55,17.53-10.79,28.28-10.79,7.42,0,17.72.66,23.73,5.57,3.65,3,7.31,7,7.31,12a14.75,14.75,0,0,1-3.58,9.69,12,12,0,0,1-9.22,4.62c-3.33,0-7.35-1.29-10.48-2.4-1.76-.62-5.1-1.77-7-1.77-7.79,0-10.39,3.38-10.39,11s2.6,11,10.39,11c1.88,0,5.22-1.14,7-1.77,3.13-1.1,7.15-2.4,10.48-2.4A12,12,0,0,1,232.4,211a14.74,14.74,0,0,1,3.58,9.69c0,5.09-3.81,9.12-7.55,12.08-6.07,4.82-16.17,5.52-23.62,5.52-10.69,0-20.36-3.26-28.1-10.72a36.34,36.34,0,0,1-4.65-5.44c-3,10.35-11.78,15.58-24.44,15.58H127.16c-6.34,0-11.35-2.46-13.61-7.3-4.42,4.85-11.25,7.3-19.91,7.3H73.18c-8.72,0-14.91-4.66-14.91-13.77V176.44c0-9.1,6.17-13.78,14.91-13.78h19c7.51,0,15.65,1.61,20.59,7.8l.35.46c2-5.47,7.25-8.26,14-8.26h19c7.52,0,15.65,1.61,20.59,7.8A18.78,18.78,0,0,1,170.56,179.34Z"/>
      <path class="cls-18" d="M113.73,213.24q0,18.93-20.09,18.93H73.16c-6.21,0-9.31-2.72-9.31-8.25V176.47c0-5.53,3.1-8.25,9.31-8.25h19c12.81,0,19.22,5,19.22,15.23,0,6.7-2.62,11.36-7.67,14C110.43,200.63,113.73,205.87,113.73,213.24Zm-20.09-26q0-6.12-6.11-6.12h-5v12.33h5.14C91.7,193.45,93.64,191.31,93.64,187.24ZM95,212.18c0-4.66-2.33-6.89-6.89-6.89H82.58v13.78H88.2C92.77,219.07,95,216.74,95,212.18Zm72.68,1.06q0,18.93-20.09,18.93H127.12c-6.21,0-9.32-2.72-9.32-8.25V176.47c0-5.53,3.11-8.25,9.32-8.25h19c12.81,0,19.21,5,19.21,15.23,0,6.7-2.62,11.36-7.66,14C164.38,200.63,167.68,205.87,167.68,213.24Zm-20.09-26q0-6.12-6.11-6.12h-4.95v12.33h5.14C145.65,193.45,147.59,191.31,147.59,187.24ZM149,212.18c0-4.66-2.33-6.89-6.89-6.89h-5.53v13.78h5.63C146.72,219.07,149,216.74,149,212.18Zm81.42,8.54c0,2.23-1.75,4.85-5.44,7.66s-10.28,4.37-20.18,4.37-17.85-3.11-24.26-9.22-9.51-14.07-9.51-24,3.2-17.85,9.51-24.06S195,166.28,205,166.28s16.69,1.45,20.18,4.36,5.24,5.44,5.24,7.77a9.17,9.17,0,0,1-2.23,6.11,6.67,6.67,0,0,1-4.95,2.62c-1.85,0-4.76-.68-8.64-2s-6.89-2.13-8.83-2.13c-10.67,0-15.91,5.53-15.91,16.59s5.24,16.5,15.91,16.5c1.94,0,4.85-.68,8.83-2.14s6.79-2,8.64-2,3.39.87,4.95,2.71A8.86,8.86,0,0,1,230.37,220.72Z"/>
    </g>
  </g>
</svg>
