<svg xmlns="http://www.w3.org/2000/svg" viewBox="0 0 92.27 91.78">
  <defs>
    <style>
      .cls-1 {
        fill: #fff;
      }
    </style>
  </defs>
  <g id="Capa_2" data-name="Capa 2">
    <g id="Capa_1-2" data-name="Capa 1">
      <g>
        <path class="cls-1" d="M42.64,47.49l2.17-2.17L47,47.48l2.17-2.16,2.18,2.16,1.15-1.15.71-.71c.33-.32.37-.32.71,0s1,1,1.43,1.43l.38.35.41-.37,1.47-1.47c.26-.26.32-.26.59,0,.52.5,1,1,1.54,1.53l.39.36,2.11-2.11,2.38,2.48c-.24.42-.34.44-.73.06l-1.22-1.23-.4-.36L60.1,48.46,57.94,46.3l-2.22,2.19-2.21-2.18-2.18,2.15-2.15-2.15c-.76.68-1.42,1.42-2.2,2.14L44.82,46.3l-2.18,2.16-2.2-2.19-.7.68c-.32.31-.63.63-1,.95s-.43.36-.8-.12a3,3,0,0,1,.22-.28c.62-.63,1.25-1.26,1.88-1.88.32-.32.36-.32.7,0Z"/>
        <path class="cls-1" d="M38.42,45,38,44.51a3.4,3.4,0,0,1,.22-.3c.62-.63,1.25-1.25,1.88-1.87.32-.32.36-.32.7,0s1,.95,1.43,1.43l.37.34c.13-.11.25-.19.35-.29l1.43-1.43c.4-.4.42-.4.8,0L46.74,44l.26.23L49.16,42l2.17,2.16L53.55,42l2.15,2.15c.16-.15.29-.25.41-.37l1.47-1.47c.29-.27.34-.27.63,0,.5.48,1,1,1.47,1.46a4.5,4.5,0,0,0,.38.35c.14-.12.26-.22.37-.33l1.47-1.46c.32-.31.37-.31.67,0l2.1,2.09c-.25.55-.39.58-.76.22s-.82-.82-1.23-1.22l-.39-.36c-.14.12-.28.23-.4.35-.49.49-1,1-1.47,1.46-.28.28-.34.28-.63,0l-1.53-1.53L57.88,43l-2.13,2.12c-.79-.65-1.42-1.42-2.19-2.1a3.36,3.36,0,0,0-.29.24l-1.6,1.6c-.31.3-.36.3-.67,0-.49-.49-1-1-1.47-1.47-.11-.11-.23-.21-.37-.33-.15.13-.27.23-.38.34l-1.4,1.39c-.38.39-.4.39-.8,0l-1.43-1.43L44.77,43l-2.16,2.14L40.43,43Z"/>
        <path class="cls-1" d="M85.46,28.08l-1.19-1.19c-.35-.35-.35-.39,0-.74S85,25.37,85.41,25s.29-.22.61.15l-1.34,1.36.88.9c.65.65.65.65,0,1.29-.29.3-.59.59-.93.93.49.57,1,1,1.55,1.6l-1.51,1.56,1.52,1.53-1.56,1.6,1,1c.54.54.55.55,0,1.08-.32.31-.65.61-1,1l1.57,1.58-1.52,1.55L86,43.5a1.11,1.11,0,0,1-.11.2,1.9,1.9,0,0,1-.2.18c-.11-.08-.21-.15-.3-.23l-1.23-1.23c-.23-.25-.23-.31,0-.56s.59-.6.88-.89l.36-.39-1-1-.31-.3c-.2-.19-.17-.36,0-.54.33-.31.64-.63,1-1l.34-.37L83.9,35.88l1.52-1.56L83.9,32.78l1.53-1.55-1-1L84.15,30a.33.33,0,0,1,0-.54l1-.95C85.22,28.36,85.31,28.25,85.46,28.08Z"/>
        <path class="cls-1" d="M75.68,80.45,90.21,65.91c.42.23.44.34.06.73L76.42,80.48C76,80.88,75.94,80.87,75.68,80.45Z"/>
        <path class="cls-1" d="M85.22,60.89c.39.28.41.35,0,.72L71.38,75.49c-.37.37-.45.35-.72,0Z"/>
        <path class="cls-1" d="M64.24,69c-.4-.3-.41-.36,0-.74L78.08,54.41c.36-.36.45-.34.71.07Z"/>
        <path class="cls-1" d="M69.25,74c-.41-.28-.42-.33,0-.78l12-12,1.77-1.77c.37-.37.44-.35.71,0C79,64.32,74.12,69.16,69.25,74Z"/>
        <path class="cls-1" d="M83.1,40.59,81.54,39l1.51-1.54L81.54,35.9l1.57-1.57-1.54-1.55,1.53-1.54-1.55-1.58,1.5-1.56-1.44-1.48,1.78-1.74.3.26-1.36,1.41,1.5,1.56-1.51,1.52,1.51,1.57-1.56,1.59,1.57,1.57-1.52,1.55,1.51,1.55L82.32,39l1.51,1.56-1.56,1.58,1.4,1.42-.23.27-1.78-1.77Z"/>
        <path class="cls-1" d="M12.36,69.49H2.87c-.23,0-.31-.13-.31-.34s.1-.33.32-.33H21.82c.21,0,.32.09.33.31s-.09.36-.34.36H12.36Z"/>
        <path class="cls-1" d="M21.9,71.23c-.1.64-.13.67-.64.67H3.44c-.42,0-.55-.09-.57-.36s0-.29.21-.3h.44c5.92,0,11.85,0,17.78,0Z"/>
        <path class="cls-1" d="M12.34,67.08H3.18c-.17,0-.32,0-.32-.27s.07-.35.29-.39a2.36,2.36,0,0,1,.38,0H21.17a2.08,2.08,0,0,1,.43,0c.21,0,.25.23.25.41s-.15.23-.31.23h-9.2Z"/>
        <path class="cls-1" d="M77.68,82.59l-.42-.49a3.6,3.6,0,0,1,.3-.34q6.93-6.95,13.87-13.87l.1-.11c.32-.3.4-.28.74.22Z"/>
        <path class="cls-1" d="M74.3,79.13l-.29-.3L88.59,64.25l.29.26C88.7,64.86,74.81,78.79,74.3,79.13Z"/>
        <path class="cls-1" d="M80.25,55.81l.25.28c-.19.38-14.08,14.31-14.58,14.64l-.3-.28Z"/>
        <path class="cls-1" d="M67.59,72.49l-.37-.44c.12-.13.22-.25.33-.36q6.92-6.93,13.84-13.84l.17-.17c.14-.14.29-.2.46,0s.12.34,0,.5l-.13.13L68,72.14C67.88,72.24,67.77,72.33,67.59,72.49Z"/>
        <path class="cls-1" d="M72.63,77.49l-.41-.38c.13-.16.21-.27.31-.37l13.91-13.9c.08-.08.15-.19.25-.22a.45.45,0,0,1,.34.05.24.24,0,0,1,.07.37,2.73,2.73,0,0,1-.23.25L73,77.19C72.88,77.28,72.78,77.36,72.63,77.49Z"/>
        <path class="cls-1" d="M61.36,29.45l-.25.23L47.24,15.82l.26-.23Z"/>
        <path class="cls-1" d="M46,17.48,59.47,30.93c-.25.34-.34.35-.74-.06l-9.21-9.21-3.45-3.44C45.74,17.89,45.75,17.89,46,17.48Z"/>
        <path class="cls-1" d="M62.61,27.81,49.19,14.39c.26-.35.34-.35.75.06L61.09,25.6c.51.51,1,1,1.53,1.53C62.93,27.45,62.93,27.5,62.61,27.81Z"/>
        <path class="cls-1" d="M45.09,19.63l12.2,12.25c-.52.36-.66.36-1,0-1.1-1.09-2.19-2.19-3.28-3.28-2.6-2.6-5.2-5.21-7.81-7.8A.78.78,0,0,1,45.09,19.63Z"/>
        <path class="cls-1" d="M3.74,64.64C3.93,64,4,64,4.55,64H20.26c.47,0,.53.07.7.62a5.35,5.35,0,0,1-.55,0H4.4Z"/>
        <path class="cls-1" d="M21,73.67c-.18.6-.24.64-.8.64H4.45c-.46,0-.53-.06-.7-.62a5.35,5.35,0,0,1,.55,0h16Z"/>
        <path class="cls-1" d="M51.42,13.33a.64.64,0,0,1,.92.13q5.58,5.61,11.18,11.19c.37.37.37.38.15.87h-.09a.9.9,0,0,1-.2-.14L51.49,13.49A.62.62,0,0,1,51.42,13.33Z"/>
        <path class="cls-1" d="M48.58,4.49c0,.4,0,.8,0,1.2s-.08.4-.4.41H45.87c-.27,0-.38-.12-.38-.38q0-1.23,0-2.46a.3.3,0,0,1,.35-.35c.8,0,1.6,0,2.41,0,.25,0,.34.13.33.36Z"/>
        <path class="cls-1" d="M62.52,59.34l-2,2-2-2,2-2Z"/>
        <path class="cls-1" d="M37.22,29.51c-.53.08-.52.08-.75-.31-.09-.16-.2-.3-.29-.45a1.31,1.31,0,0,1,.06-1.57c.4-.52.42-.73,0-1.27a1.34,1.34,0,0,1,.09-1.85.67.67,0,0,0,0-1,1.51,1.51,0,0,1-.31-1.53,2.06,2.06,0,0,1,.25-.4c.36-.46.36-.62,0-1.11a1.43,1.43,0,0,1-.26-1.49,4.68,4.68,0,0,1,.58-.93.62.62,0,0,1,.48-.07c.19,0,.14.23.1.36a2.41,2.41,0,0,1-.27.56c-.38.51-.41.7,0,1.19A1.38,1.38,0,0,1,37.2,21a1.64,1.64,0,0,1-.26.51c-.37.49-.39.69,0,1.19a1.35,1.35,0,0,1,.26,1.26,2.22,2.22,0,0,1-.31.59c-.3.44-.31.59,0,1a1.44,1.44,0,0,1,0,2,.67.67,0,0,0,0,1A1.37,1.37,0,0,1,37.22,29.51Z"/>
        <path class="cls-1" d="M34,28a1.37,1.37,0,0,1,.33-1c.33-.43.32-.63,0-1.07a1.41,1.41,0,0,1,0-1.86c.36-.54.36-.65,0-1.2a1.38,1.38,0,0,1,0-1.7c.45-.67.44-.67,0-1.31a1.43,1.43,0,0,1-.08-1.55,3.06,3.06,0,0,1,.45-.73.65.65,0,0,1,.47-.11c.18,0,.21.2.15.34a4.4,4.4,0,0,1-.36.72.72.72,0,0,0,0,1,1.47,1.47,0,0,1,0,2c-.32.48-.31.64,0,1.11a1.48,1.48,0,0,1,0,1.83c-.36.56-.36.63,0,1.19a1.41,1.41,0,0,1,0,1.74.83.83,0,0,0,0,1.21,1.93,1.93,0,0,1,.27.56c0,.1,0,.32-.06.33s-.44.06-.48,0C34.43,29,33.91,28.62,34,28Z"/>
        <path class="cls-1" d="M29.67,60.38c-.15-.48-.14-.5.22-.7l.44-.28a1.43,1.43,0,0,1,1.67,0c.59.41.65.41,1.22,0a1.49,1.49,0,0,1,1.8,0c.54.39.64.39,1.19,0a1.46,1.46,0,0,1,1.79,0c.55.39.65.39,1.19,0a1.47,1.47,0,0,1,1.83,0,3.53,3.53,0,0,0,.32.21c.35.2.36.24.2.7a1.17,1.17,0,0,1-.84-.27c-.51-.37-.7-.36-1.24,0a1.4,1.4,0,0,1-1.78-.05.83.83,0,0,0-1.13,0,2.6,2.6,0,0,1-.88.36,1.27,1.27,0,0,1-1-.33.8.8,0,0,0-1.13,0,1.4,1.4,0,0,1-1.86,0,.81.81,0,0,0-1.17,0A1.16,1.16,0,0,1,29.67,60.38Z"/>
        <path class="cls-1" d="M64.07,22.56c-.39-.21-9.41-9.22-9.63-9.59a.76.76,0,0,1,1.05.19l4,3.95c1.44,1.45,2.87,2.9,4.33,4.32A1.08,1.08,0,0,1,64.07,22.56Z"/>
        <path class="cls-1" d="M31.17,57.14a1.58,1.58,0,0,1,.93.36.8.8,0,0,0,1.09,0,1.38,1.38,0,0,1,1.86-.05.83.83,0,0,0,1.21,0,1.32,1.32,0,0,1,1.73,0,.9.9,0,0,0,1.22,0,1.34,1.34,0,0,1,1.81.05,1.38,1.38,0,0,0,.34.18c.25.11.35.29.26.52s-.31.2-.49.14a2.9,2.9,0,0,1-.54-.31.74.74,0,0,0-1.08,0,1.42,1.42,0,0,1-.89.31,1.32,1.32,0,0,1-.93-.32.68.68,0,0,0-1,0,1.51,1.51,0,0,1-2.06,0,.68.68,0,0,0-.93,0,1.53,1.53,0,0,1-1,.39,1.64,1.64,0,0,1-.93-.33c-.47-.35-.63-.33-1.12,0a2.5,2.5,0,0,1-.64.3c-.1,0-.31,0-.33-.11s0-.4,0-.44c.48-.24.86-.68,1.45-.69Z"/>
        <path class="cls-1" d="M27.4,24.53a1.67,1.67,0,1,1,0,3.34,1.67,1.67,0,0,1-1.71-1.7A1.62,1.62,0,0,1,27.4,24.53Z"/>
        <path class="cls-1" d="M19.19,76.1a1.21,1.21,0,0,1-1.1.63q-5.73,0-11.46,0a1.21,1.21,0,0,1-1.08-.58C5.87,76,18.32,76,19.19,76.1Z"/>
        <path class="cls-1" d="M20.86,12.1l.34.38-.38.4L10.5,23.21a1.23,1.23,0,0,1-.33.28.4.4,0,0,1-.33-.06c-.14-.08-.11-.21,0-.33l.21-.2L20.5,12.44C20.6,12.33,20.71,12.24,20.86,12.1Z"/>
        <path class="cls-1" d="M17,8.22l.36.34c-.17.19-.28.33-.4.45Q11.79,14.19,6.62,19.37a.94.94,0,0,1-.33.27A.38.38,0,0,1,6,19.55s0-.2,0-.29A1.29,1.29,0,0,1,6.2,19Q11.41,13.8,16.63,8.59Z"/>
        <path class="cls-1" d="M14.44,5.7l.35.34c-.11.13-.2.24-.3.34L4,16.88l-.21.2c-.12.1-.25.11-.33,0a.51.51,0,0,1,0-.34c0-.1.14-.17.22-.25L14.1,6Z"/>
        <path class="cls-1" d="M44.56,22.86l9.56,9.56a1,1,0,0,1-1-.28Q49,28,44.83,23.83A.94.94,0,0,1,44.56,22.86Z"/>
        <path class="cls-1" d="M19.2,62.22H5.51a1,1,0,0,1,.88-.55H18.33A1,1,0,0,1,19.2,62.22Z"/>
        <path class="cls-1" d="M19.6,10.86l.3.3c-.1.12-.19.23-.29.33Q14.36,16.74,9.11,22c-.14.14-.28.45-.54.18s.06-.37.19-.5L19.29,11.13C19.38,11,19.48,11,19.6,10.86Z"/>
        <path class="cls-1" d="M11.87,3.15l.29.26c0,.06,0,.12-.06.15a3.57,3.57,0,0,1-.27.28L1.43,14.24a1.1,1.1,0,0,1-.28.25.3.3,0,0,1-.29,0,.33.33,0,0,1,0-.28c0-.1.15-.17.23-.25L11.54,3.45Z"/>
        <path class="cls-1" d="M15.73,7l.29.27c0,.06,0,.12-.06.15l-.27.28L5.32,18.07l-.27.26a.22.22,0,0,1-.34,0,.22.22,0,0,1,0-.34l.21-.2L15.4,7.31Z"/>
        <path class="cls-1" d="M7.45,21c-.25-.16-.31-.32-.12-.53l.24-.24L17.87,10a2.21,2.21,0,0,1,.32-.29.25.25,0,0,1,.24,0,.32.32,0,0,1,.06.28c0,.1-.14.17-.22.25L7.77,20.73Z"/>
        <path class="cls-1" d="M2,15.59c.11-.13.21-.25.32-.36l10.4-10.4A2.73,2.73,0,0,1,13,4.6a.2.2,0,0,1,.33,0c.14.13.11.25,0,.37l-.2.21L2.78,15.49a1.75,1.75,0,0,1-.24.23C2.33,15.92,2.17,15.83,2,15.59Z"/>
        <path class="cls-1" d="M11.31,24.87c-.25-.15-.32-.31-.13-.52l.24-.24,10.3-10.3a1.4,1.4,0,0,1,.32-.28.3.3,0,0,1,.28.06.25.25,0,0,1,0,.24.9.9,0,0,1-.22.26l-10.5,10.5C11.53,24.69,11.42,24.78,11.31,24.87Z"/>
        <path class="cls-1" d="M86.53,9l.33.38c-.14.15-.25.28-.38.41L76.16,20.06a1.19,1.19,0,0,1-.32.28.41.41,0,0,1-.34-.05c-.13-.09-.11-.22,0-.33l.2-.21L86.16,9.29Z"/>
        <path class="cls-1" d="M82.69,5.08l.36.33c-.18.2-.29.33-.41.45L72.28,16.22a1.1,1.1,0,0,1-.33.28.41.41,0,0,1-.33-.09.37.37,0,0,1,0-.29,1.09,1.09,0,0,1,.23-.25L82.29,5.44C82.4,5.33,82.52,5.23,82.69,5.08Z"/>
        <path class="cls-1" d="M80.1,2.56l.35.33c-.11.13-.2.24-.3.34L69.66,13.73l-.21.2a.2.2,0,0,1-.33,0,.5.5,0,0,1,0-.34c0-.1.14-.17.22-.25Q74.52,8.09,79.76,2.86C79.85,2.77,80,2.69,80.1,2.56Z"/>
        <path class="cls-1" d="M85.26,7.72l.31.29a3.39,3.39,0,0,1-.3.33L74.77,18.85c-.14.13-.28.44-.54.17s.06-.37.19-.5L85,8C85,7.89,85.14,7.82,85.26,7.72Z"/>
        <path class="cls-1" d="M77.53,0l.29.26a.36.36,0,0,1-.06.15,3.45,3.45,0,0,1-.26.28L67.09,11.09a1.14,1.14,0,0,1-.28.26.33.33,0,0,1-.28,0,.33.33,0,0,1,0-.29c0-.1.15-.17.23-.25L77.2.3Z"/>
        <path class="cls-1" d="M81.39,3.86l.29.26c0,.07,0,.12-.06.15l-.27.28L71,14.92l-.28.27a.21.21,0,0,1-.34,0,.21.21,0,0,1,0-.33l.2-.21L81.06,4.16Z"/>
        <path class="cls-1" d="M73.11,17.87c-.25-.16-.31-.32-.12-.53l.24-.24L83.53,6.81a1.45,1.45,0,0,1,.32-.29.25.25,0,0,1,.25,0,.37.37,0,0,1,.05.29c0,.09-.14.17-.22.25l-10.5,10.5C73.33,17.69,73.22,17.77,73.11,17.87Z"/>
        <path class="cls-1" d="M67.69,12.44c.11-.12.21-.24.33-.35l10.4-10.4.24-.24a.21.21,0,0,1,.33,0c.15.13.11.25,0,.37l-.2.21L68.45,12.34l-.25.24C68,12.77,67.84,12.68,67.69,12.44Z"/>
        <path class="cls-1" d="M77,21.73c-.25-.15-.31-.31-.12-.52a2.73,2.73,0,0,1,.23-.25l10.3-10.29a1.24,1.24,0,0,1,.32-.29.32.32,0,0,1,.29.06.27.27,0,0,1,0,.25.86.86,0,0,1-.22.25l-10.5,10.5Z"/>
        <path class="cls-1" d="M0,4.19,2.07,2.08a1.75,1.75,0,0,1,.25.16L4,3.94c.18.18.23.34,0,.53L2.21,6.3s-.09,0-.08,0ZM2.11,3.08,1,4.22,2.12,5.34,3.24,4.2Z"/>
        <path class="cls-1" d="M31.26,46.82l-2.12-2.18,2-2,2.17,2.13C32.67,45.42,32,46.12,31.26,46.82Zm0-1a10.66,10.66,0,0,0,1.11-1.13l-1.15-1.14L30,44.68Z"/>
        <path class="cls-1" d="M48.31,70c0,.4,0,.8,0,1.21,0,.25-.08.39-.36.39-.8,0-1.6,0-2.41,0-.24,0-.34-.13-.34-.36,0-.8,0-1.61,0-2.41,0-.24.12-.34.36-.34H48c.25,0,.34.12.34.36S48.31,69.64,48.31,70Zm-.61.87c0-.51,0-1,0-1.4a.26.26,0,0,0-.3-.29H46.2c-.16,0-.29,0-.29.24,0,.47,0,.94,0,1.45Z"/>
        <path class="cls-1" d="M5.76,88.56a1.69,1.69,0,0,1-1.65,1.67,1.7,1.7,0,1,1,0-3.4A1.65,1.65,0,0,1,5.76,88.56Zm-1.65-1a1,1,0,0,0-1,1,1.07,1.07,0,0,0,1,1,1,1,0,0,0,1-1A.92.92,0,0,0,4.11,87.53Z"/>
        <path class="cls-1" d="M78.1,49.32a1.62,1.62,0,0,1,1.65-1.7,1.66,1.66,0,0,1,1.69,1.7A1.64,1.64,0,0,1,79.75,51,1.6,1.6,0,0,1,78.1,49.32Zm1.69,1c.49.1,1-.54,1-1a1.13,1.13,0,0,0-1-1,1.14,1.14,0,0,0-1.07,1A1,1,0,0,0,79.79,50.29Z"/>
        <path class="cls-1" d="M9.69,50.2H8.63c-.31,0-.38-.09-.38-.36s.14-.33.37-.33.41,0,.62,0c.42,0,.44,0,.45-.43,0-.19,0-.38,0-.58,0-.36.08-.43.36-.43s.33.18.33.41V49c0,.48,0,.49.48.5.18,0,.35,0,.53,0,.36,0,.43.08.43.36s-.18.34-.41.33h-.53c-.47,0-.49,0-.5.48v.53c0,.36-.08.43-.36.43s-.33-.18-.33-.41S9.69,50.6,9.69,50.2Z"/>
        <path class="cls-1" d="M87.84,89.64c0-.42,0-.74,0-1.06s.09-.38.35-.38.34.14.34.36,0,.42,0,.63c0,.42,0,.44.43.45h.67c.26,0,.34.13.34.36s-.1.33-.32.33h-.72c-.36,0-.39,0-.4.38s0,.48,0,.73-.09.32-.31.33-.38-.07-.37-.33V90.33H86.72c-.21,0-.33-.09-.33-.32s.06-.37.32-.37Z"/>
        <path class="cls-1" d="M62,81.82l-.54.52-.47.45c-.51-.33-.53-.42-.17-.78s.45-.41.71-.66l-1-1,.4-.43,1,1,1-1,.47.45-1,1,1,1.06-.43.4Z"/>
        <path class="cls-1" d="M9.05,35.62A1.69,1.69,0,0,1,10.72,37c0,.1,0,.28-.1.31a.38.38,0,0,1-.51-.08,2.26,2.26,0,0,1-.17-.35.89.89,0,0,0-1-.57,1,1,0,0,0-.89.69c-.05.12-.11.28-.21.33a.43.43,0,0,1-.4-.05.46.46,0,0,1-.07-.39A1.64,1.64,0,0,1,9.05,35.62Z"/>
        <path class="cls-1" d="M70.65,30.06c-.14-.5-.13-.54.31-.72a1,1,0,0,0,.66-1,1,1,0,0,0-.66-.91.32.32,0,0,0-.09,0c-.26-.11-.37-.29-.28-.52s.31-.18.49-.14a1.68,1.68,0,0,1,1.24,1.49A1.64,1.64,0,0,1,70.65,30.06Z"/>
        <path class="cls-1" d="M30.31,6.22c.48-.18.53-.16.7.26a1.11,1.11,0,0,0,1,.73,1,1,0,0,0,.94-.71c.17-.43.21-.44.68-.32a1.54,1.54,0,0,1-1.34,1.67A1.64,1.64,0,0,1,30.31,6.22Z"/>
        <path class="cls-1" d="M26.7,89.13a1.55,1.55,0,0,1-1.4-.83,1.65,1.65,0,0,1,0-1.69,1.52,1.52,0,0,1,1-.79c.18,0,.41-.11.47.17a.38.38,0,0,1-.26.49,1.35,1.35,0,0,0-.57.4,1,1,0,0,0,.45,1.5C26.83,88.57,26.85,88.6,26.7,89.13Z"/>
        <path class="cls-1" d="M49.53,31.23a9.76,9.76,0,0,1-3.74-3.75Z"/>
        <path class="cls-1" d="M15.15,78.49a8.77,8.77,0,0,1-5.57,0Z"/>
        <path class="cls-1" d="M59.15,14.11a9.67,9.67,0,0,1,3.76,3.82Z"/>
        <path class="cls-1" d="M9.66,59.81a8.39,8.39,0,0,1,5.4,0Z"/>
      </g>
    </g>
  </g>
</svg>
