<?xml version="1.0" encoding="utf-8"?>
<!-- Generator: Adobe Illustrator 26.3.1, SVG Export Plug-In . SVG Version: 6.00 Build 0)  -->
<svg version="1.1" id="Capa_1" xmlns="http://www.w3.org/2000/svg" xmlns:xlink="http://www.w3.org/1999/xlink" x="0px" y="0px"
	 viewBox="0 0 178 178" style="enable-background:new 0 0 178 178;" xml:space="preserve">
<style type="text/css">
	.st0{opacity:0.26;}
	.st1{fill:#1D1D1B;}
</style>
<g id="Capa_2_00000031166975548142105120000017391861050020432535_" class="st0">
	<g id="Capa_1-2">
		<g>
			<path class="st1" d="M68.3,178c0-0.1,0-0.2,0-0.2c-0.5-0.7-1-1.4-1.5-2.2c-0.2-0.3-0.3-0.7-0.4-1c0-0.1-0.1-0.3-0.2-0.4
				c-0.8-0.8-0.9-2.1-0.2-3c0.6-1.1,1.1-2.2,1.7-3.3c0.3-0.6,0.7-1.1,1.1-1.7c0.6-0.9,1.2-1.7,1.9-2.5c0.7-0.7,1.3-1.4,2-2.1
				c0.9-1,1.9-2,2.8-3c0.8-0.8,1.7-1.5,2.6-2.2c0.5-0.5,1.1-0.9,1.7-1.3c1-0.7,2-1.4,2.9-2.1c0.3-0.2,0.6-0.3,0.9-0.4
				c0.5-0.3,1-0.6,1.5-0.9c0.6-0.3,1.3-0.6,1.9-0.8c0.5-0.1,1.1,0,1.6,0.3c2.1,1.2,4.1,2.4,6.1,3.6c1.2,0.7,2.4,1.5,3.5,2.3
				c0.7,0.5,1.3,1.1,1.9,1.6s1.6,1.2,2.5,1.8c0.8,0.4,1.4,1,1.9,1.7c0.3,0.5,0.5,1.1,0.8,1.7c0.8-0.1,1.6,0.2,2.1,0.8
				c0.8,0.9,1.6,1.8,2.3,2.7c0.5,0.6,0.9,1.4,1.2,2.1c0.1,0.6,0.4,1.1,0.6,1.6c0.5,1.7,0.4,3.6-0.2,5.3c-0.3,0.5-0.7,1-1.1,1.5h-1.6
				l1.8-1.5c-0.2-0.7,0.6-1.4,0.2-2.1c-0.5,0-0.4,0.4-0.6,0.6s-0.4,0.8-0.7,1.1c-0.3,0.5-1,0.6-1.4,0.3c-0.9-0.5-1.6-1.2-2.1-2.1
				c-0.8-1.6-1.2-3.5-1-5.3c0.1-0.8,0.4-1.5,1-2c0.3-0.3,0.7-0.4,1.1-0.3c0.3,0.1,0.6,0.2,1.1,0.4c-0.1-0.2-0.1-0.3-0.2-0.4
				c-0.3-0.4-0.6-0.7-1-1.1c-0.3-0.2-0.7-0.6-1-0.5c-0.9,0.1-1.6,0.5-2.1,1.2c-0.5,0.8-0.6,1.8-0.4,2.7c0.2,1.6,0.7,3.2,1.5,4.6
				c0.1,0.2,0.2,0.4,0.2,0.6c0.1,0.6,0.4,1.2,0.8,1.6l1.8,2.2h-1.4c-0.2-0.2-0.4-0.5-0.6-0.8c-0.5-0.5-0.9-1.1-1.2-1.7
				c-0.3-0.8-0.8-1.6-1.1-2.4c-0.3-0.6-0.5-1.3-0.7-2c-0.2-0.7-0.2-1.4-0.4-2.2c-0.1-1.1,0.1-2.1,0.5-3.1c0-0.1,0.2-0.2,0.3-0.3
				l1.2-1.1c-0.2-0.1-0.5-0.1-0.7-0.2c-0.4,0-0.8,0.2-1.2,0.2c-1.3,0.1-2.3,0.9-3.5,1.4c-0.8,0.4-1.6,0.9-2.2,1.5l-0.5,0.3l3.4,3.8
				c0.6-0.2,1,0.1,1,0.9L100,172c0.2,0.4,0.3,0.6,0.4,0.9c0.2,0.4,0.3,0.8,0.4,1.2c0.2,0.8,0.3,1.6,1.1,2c0,0,0,0.1,0.1,0.2
				l-0.7,0.2l0.1,1.3c0.5-0.1,1-0.1,1.5,0.3h-2.7c0.2-1.3,0-2.6-0.4-3.8c-0.9-2.3-2.4-4.3-4.5-5.7c-2.5,1.9-4.8,4.1-6.8,6.5
				c0.5,0.9,0.9,1.9,1,3h-1.1c0-0.8-0.3-1.6-0.8-2.2c-0.7,0.6-1.2,1.4-1.6,2.2h-1.4c0.3-0.4,0.6-0.8,0.9-1.2
				c0.9-1.3,1.9-2.5,3.1-3.6c0.4-0.5,1.1-0.8,1.4-1.3c0.7-0.9,1.4-1.7,2.2-2.4c0.6-0.6,1.2-1.1,1.9-1.5c0.7-0.5,1.3-1.1,2.1-1.6
				s1.4-0.8,2-1.3c0.7-0.4,1.4-0.7,2.2-1c1.1-0.6,2.4-0.8,3.6-0.7c-0.4-0.5-0.8-1.1-1.3-1.5c-0.5-0.3-1-0.6-1.6-0.9
				c-0.1-0.1-0.2-0.1-0.3-0.1c-0.9,0.2-1.7,0.5-2.6,0.9c-1.1,0.5-2.2,1-3.3,1.7c-2.2,1.3-4.3,2.8-6.2,4.5c-0.6,0.6-1.2,1.1-1.8,1.7
				c-1.1,1.1-2.2,2.3-3.2,3.5c-1,1.3-1.8,2.8-2.8,4.2c-0.1,0.2-0.1,0.4-0.2,0.6h-2.7l3.2-4.8c1.8-2.5,3.9-4.8,6.3-6.9
				c2-1.9,4.2-3.6,6.5-5c1.1-0.8,2.2-1.3,3.5-1.7c0.4-0.1,0.7-0.4,0.9-0.8l-1.2-0.9c-1,0.5-1.9,1-2.9,1.3c-1.3,0.5-2.5,1.3-3.5,2.3
				c-1.4,1.3-2.8,2.5-4.2,3.8c-1.2,1.1-2.4,2.2-3.5,3.4s-2.1,2.2-3.1,3.4s-2,2.5-3,3.8c-0.5,0.7-0.9,1.4-1.4,2.1h-3.2
				c0.4-0.7,0.8-1.4,1.3-2.1c1.4-1.9,2.8-3.8,4.2-5.7c0.3-0.4,0.5-0.7,0.8-1.1c1.7-1.9,3.5-3.6,5.4-5.4c1-0.9,2.1-1.9,3.1-2.8
				c0.5-0.5,1.1-0.9,1.6-1.4s0.8-1,1.5-1c0.2,0,0.3-0.2,0.4-0.3c1-0.9,2.3-1.5,3.6-1.9c0.2-0.1,0.4-0.1,0.6-0.2
				c-0.4-0.2-0.7-0.4-0.9-0.6c-1.7-1-3.6-1.9-5.2-3.1c-0.8-0.5-1.8-0.6-2.7-0.1c-0.9,0.5-1.8,1-2.7,1.6c-0.6,0.4-1.2,0.8-1.7,1.3
				c-0.9,0.8-2,1.4-2.9,2.1c-0.7,0.5-1.3,1-2,1.6c-1.2,1.1-2.3,2.4-3.5,3.6c-0.2,0.2-0.4,0.5-0.6,0.7c-0.5,0.6-1.1,1.2-1.6,1.8
				s-0.9,1.3-1.4,1.9c-1.1,1.5-2.1,3.1-2.8,4.8c-0.3,0.4-0.3,1-0.1,1.4c0.3,0.6,0.7,1.2,1,1.7s0.9,1.4,1.4,2c0.2,0.3,0.4,0.6,0.5,1
				L68.3,178z M106.5,167.2c-0.7,0.4-1.1,1.1-1.2,1.9c-0.1,1.1,0,2.3,0.3,3.4c0.3,1.3,1,2.5,2.1,3.3c0.6,0.4,0.9,0.4,1.3-0.2
				c0.6-0.9,0.9-1.9,1-2.9c0-1.4-0.4-2.9-1.3-4C108.4,167.8,107.5,167.3,106.5,167.2L106.5,167.2z M90.4,165.8
				c1.2-0.4,1.6-1.5,2.1-2.5C91.5,163.8,91.2,165,90.4,165.8L90.4,165.8z"/>
			<path class="st1" d="M178,112.1c-1.2-0.1-2.4-0.3-3.6-0.4s-2.7-0.3-4-0.6c-1.1-0.2-2.1-0.4-3.1-0.6c-0.7-0.2-1.3-0.4-2-0.6
				c-0.2-0.1-0.4-0.1-0.6-0.2c-0.7-0.3-1.4-0.5-2.1-0.7c-0.6-0.2-1.2-0.4-1.8-0.7c-0.6-0.2-1.2-0.5-1.7-0.8
				c-0.6-0.3-1.2-0.7-1.8-1.1c-0.4-0.3-0.7-0.9-0.6-1.4c-0.2-2.3-0.5-4.7-0.7-7c-0.1-1.4-0.2-2.9-0.2-4.3c0-0.8,0.1-1.7,0.2-2.5
				c0.1-1,0.1-1.9,0-2.9c-0.3-1.6,0.1-3.2,1.2-4.4c-0.7-0.7-0.9-1.7-0.6-2.6c0.3-1,0.4-1.9,0.7-2.9c0.3-1,0.7-1.9,1.3-2.7
				c0.6-1.1,1.5-2,2.5-2.7c0.9-0.6,1.9-1.1,2.9-1.4c0.5,0,1,0,1.5,0.1c0.2,0,0.3,0,0.5,0c0-0.1-0.1-0.3-0.2-0.4
				c-0.5-0.6-0.4-1.6,0.2-2.1c0,0,0.1,0,0.1-0.1c0.2-0.2,0.4-0.4,0.7-0.6c1-0.7,2.1-1.4,3.3-2c1.2-0.6,2.6-0.9,3.9-1
				c1.2,0,2.3,0,3.5,0c0.2,0,0.5,0.1,0.7,0.1v0.7c-0.8,0.2-1.7,0.2-2.5,0.1c-0.8,0.1-1.7,0-2.5,0.1c-0.8,0.1-1.5,0.4-2.3,0.7
				c-0.6,0.3-1.2,0.8-1.9,1c-0.9,0.5-1.8,1.1-2.6,1.8c0.2,0.9,1.1,1.4,1.2,2.3c0,0,0.1,0.1,0.1,0.1c0.7,0.5,1.2,1.2,1.7,2
				c0.3,0.5,0.6,1,0.9,1.5c1.5-1.1,2.4-2.6,4.2-3.1l0.2-0.9L175,73l2.9-0.4v1.1c-1.3,0-2.6,0.3-3.8,0.8c-0.5,0.2-0.9,0.4-1.3,0.7
				c-0.5,0.5-1,0.9-1.6,1.3c-0.5,0.2-0.7,0.8-0.5,1.3c0,0,0,0.1,0.1,0.1c0.1,0.2,0.2,0.4,0.3,0.6c0.1,0,0.2,0,0.3-0.1
				c1.3-0.7,2.9-0.9,4.3-0.5c0.8,0.2,1.5,0.6,2.2,0.8v1.2c-0.3-0.2-0.7-0.4-1-0.5c-1.1-0.5-2.3-0.8-3.6-0.7
				c-0.7,0.1-1.3,0.4-1.8,0.9c-1.3,0.8-2.4,1.8-3.2,3.1c-0.6,1-1.1,2-1.4,3.2c-0.3,1.1-0.4,2.3-0.4,3.5c3,0.9,6,1.5,9.1,1.6
				c0.4-0.5,0.7-1,1.1-1.5s0.8-0.9,1.2-1.4v1.6c-0.7,0.2-0.7,0.9-1,1.4l1,0.2v0.9c-0.3,0.1-0.6,0.1-0.9,0.1
				c-0.9-0.1-1.8-0.2-2.6-0.3s-1.9-0.4-2.9-0.5c-1.8-0.2-3.6-0.6-5.4-1.1c-1.3-0.4-2.6-0.9-3.9-1.4c-0.4-0.2-0.7-0.3-1.1-0.5
				s-0.6-0.7-1.2-0.6c-1.1-0.7-2.1-1.6-2.8-2.6c-0.2,0.6-0.3,1.1-0.4,1.7c0,0.7,0.1,1.5,0.2,2.2c0,0.1,0.2,0.2,0.3,0.3
				c1.2,1.1,2.6,2,4.1,2.6c2.1,1,4.3,1.8,6.6,2.4c1.4,0.3,2.8,0.6,4.2,0.9c1.9,0.4,3.8,0.6,5.7,0.7v1.8c-0.2,0-0.4,0.1-0.6,0.1
				c-2.7-0.1-5.4-0.4-8-1c-2.8-0.5-5.5-1.3-8.1-2.4c-1.2-0.4-2.3-1-3.2-1.8c-0.3-0.3-0.7-0.4-1.1-0.2v1.5c0.9,0.5,1.8,0.9,2.7,1.5
				c1.2,0.8,2.6,1.3,4.1,1.6c1.8,0.4,3.5,0.8,5.3,1.2c0.5,0.1,1,0.3,1.5,0.3c1.6,0.3,3.3,0.5,4.9,0.8c0.9,0.1,1.8,0.2,2.7,0.3v2.8
				c-1.2-0.1-2.5-0.2-3.8-0.4c-1.6-0.2-3.2-0.6-4.8-0.9c-1.4-0.3-2.7-0.6-4.1-0.9l-2.9-0.5c-0.2,0-0.4-0.1-0.6-0.2
				c-0.4-0.2-0.7-0.4-1.1-0.5c-1.2-0.3-2.3-0.9-3.3-1.7c-0.2-0.1-0.4-0.2-0.5-0.3c0,0.4,0,0.8,0,1.2c0.2,2.1,0.4,4.2,0.6,6.3
				c0,0.4,0.1,0.7,0.4,1c1.1,0.9,2.4,1.6,3.7,2c0.7,0.3,1.5,0.4,2.3,0.7c1,0.3,2,0.6,3,1c2.3,0.9,4.7,1,7,1.4c1.3,0.3,2.7,0.3,4,0.5
				L178,112.1z M167.9,74.6c-0.2,0.7-0.3,1.3-0.4,1.8c-0.1,0.4-0.2,0.8-0.4,1.2c-0.4,0.7-0.8,1.3-1.1,2c-0.8,1.4-1.7,2.7-2.9,3.7
				c-1.4,1.3-2.8,2.1-4.7,1.4c-0.1,0-0.2,0-0.4,0c0.1,0.2,0.2,0.5,0.3,0.7c0.3,0.3,0.6,0.5,0.9,0.8c0.8,1,2,1.3,3.1,1.9
				c0.8,0.4,1.7,0.7,2.5,1c0.2,0.1,0.4,0.1,0.6,0.1c0.1-0.2,0.1-0.3,0.2-0.5c0.1-1.3,0.3-2.6,0.8-3.8c0.1-0.2,0.2-0.5-0.2-0.7
				s-0.1-0.8,0.4-1.2l0.1,0.6c0.1-0.1,0.2-0.2,0.3-0.3c0.3-0.7,0.8-1.3,1.3-1.8c0.3-0.4,0.9-0.8,0.5-1.5c0,0,0.1-0.2,0.3-0.4
				l0.3,0.6l1-0.9c-0.2-0.5-0.4-0.8-0.6-1.2s-0.5-1-0.7-1.6c-0.1-0.2-0.3-0.3-0.3-0.4C168.7,75.4,168.3,75.1,167.9,74.6L167.9,74.6z
				 M158,79.9h-0.1c-0.1,0.5-0.2,1.1-0.3,1.6c-0.2,0.4-0.2,0.9,0,1.4c0.3,0.4,0.7,0.7,1.2,0.9c0.9,0.3,1.9,0.1,2.7-0.5
				c0.9-0.6,1.6-1.4,2.2-2.3c0.6-0.6,1.1-1.4,1.4-2.2c0.1-0.4,0.6-0.7,0.8-1.1c0.5-1.3,0.9-2.6,1.1-4c-0.7-1-1.9-0.8-2.7-1.2
				c-0.3,0.2-0.7,0.4-1,0.5c-0.4,0.1-0.7,0.2-0.9,0.7c0.2,0.1,0.3,0.1,0.5,0.1c0.3-0.1,0.6-0.2,0.9-0.2c1.4-0.1,2,0.2,1.9,1.6
				c0.1,1-0.2,2-0.8,2.8c-0.5,0.6-1,1.3-1.4,1.9c-0.7,0.9-1.6,1.5-2.6,1.9c-1.6,0.6-2.6,0.1-2.7-1.4C158,80.1,158,80,158,79.9z
				 M165.1,75.3c0-1-0.1-1.3-0.8-1.2c-1.4,0-2.8,0.6-3.8,1.6c-0.6,0.7-1.1,1.5-1.5,2.3c-0.3,0.7-0.4,1.4-0.4,2.1
				c0,1.1,0.4,1.2,1.4,1.2c0.2,0,0.4-0.1,0.6-0.2c0.4-0.2,0.9-0.4,1.3-0.7c0.9-0.7,1.6-1.5,2.2-2.4
				C164.8,77.3,165.1,76.3,165.1,75.3L165.1,75.3z M163.8,94.8c1.1,0.4,2.2,0.4,3.3,0.2c-0.4-0.2-0.7-0.3-1.1-0.4
				C165.3,94.6,164.5,94.6,163.8,94.8L163.8,94.8z"/>
			<path class="st1" d="M0,65.7c0.4,0.2,0.8,0.3,1.3,0.3c1.3,0,2.7,0.3,3.9,0.8C5.9,67,6.5,67.4,7,67.9c0.1,0.1,0.2,0.2,0.3,0.2
				c0.8,0.4,1,0.7,0.8,1.6c-0.1,0.5-0.2,1-0.2,1.6c-0.2,1.4-0.6,2.8-1.3,4.1c-0.2,0.3-0.3,0.6-0.4,0.9c0.2,0.2,0.5,0.4,0.7,0.6
				c0.8,0.5,1.1,0.4,1.7-0.2c0.5-0.5,1-1,1.5-1.3c0.8-0.7,1.7-1.2,2.7-1.7c0.3-0.1,0.6-0.2,0.9-0.2c0.3-0.1,0.6,0.1,0.7,0.4
				c0.5,0.5,0.7,1.3,0.7,2c-0.1,0.8-0.1,1.6-0.2,2.3c0,0.4-0.1,0.8-0.1,1.2c0.8-0.1,1.5-0.1,1.9-1c0.3-0.5,0.7-0.9,1.2-1.2
				c0.9-0.6,1.3-1.7,1.2-2.7c0-0.5-0.1-1,0.3-1.5c0.6-0.6,1.6-0.7,2.3-0.2c0.1,0.1,0.2,0.3,0.2,0.5c0.1,0.5,0.1,1.1,0.1,1.7
				c0.4,0,0.8,0,1.2,0s0.7,0.2,0.8,0.8c0,0.2,0,0.5,0,0.7c0,1.1-0.1,1.3-1.2,1.6c-0.4,0.1-0.9,0.2-1.3,0.2c-0.4,0-0.7,0.2-0.8,0.5
				c-0.2,0.3-0.5,0.5-0.8,0.8c-0.6,0.9-1.2,1.8-1.9,2.7c-0.1,0.2-0.2,0.4-0.2,0.7c-0.4,1.6-0.9,3.2-1.4,4.8
				c-0.2,0.8-0.7,1.6-0.1,2.4c0.1,0.2,0.1,0.3,0.1,0.5c-0.1,1-0.2,2-0.4,2.9s-0.5,1.8-0.8,2.8s-0.5,2-0.8,2.9
				c-0.1,0.4-0.2,0.7-0.4,1.1c-0.7,1.6-1.4,3.3-2,4.9c-0.4,1-0.7,2-1,2.9c-0.2,0.4-0.4,0.7-0.6,1.1c-0.1,0.1-0.1,0.3-0.2,0.5
				c-0.2,1-1.1,1.7-2.1,1.8c-1.2,0.2-2.4,0.4-3.6,0.5c-0.8,0.1-1.6,0-2.4,0.1S0.7,112,0,112.3v-1.1c0.8-0.1,1.7-0.1,2.5-0.1
				c1.8,0,3.7-0.1,5.4-0.5c0.6-0.1,1.4-0.3,1.4-1.2c0-0.1,0.1-0.2,0.1-0.3c0.9-1.2,1-2.8,1.8-4c0.2-1,0.5-1.9,1-2.7
				c0.1-0.1,0-0.3,0-0.4c-0.6,0.2-1.1,0.3-1.6,0.4c-1.4,0.3-2.8,0.4-4.2,0.3c-1.3,0-2.7,0-4.1,0c-0.8,0-1.6,0-2.4,0v-2.8l3.9,0.2
				c1.9,0.2,3.9,0,5.7-0.3c1-0.3,2.1-0.5,3.2-0.7c0.3-0.1,0.6-0.2,0.8-0.3l0.6-2c-0.3,0-0.5,0-0.8,0c-1.2,0.2-2.4,0.4-3.6,0.6
				c-1.1,0.2-2.1,0.4-3.2,0.5c-2,0.1-3.9,0.2-5.8,0.2c-0.3,0-0.6,0-0.8-0.1v-1.8c1.6-0.1,3.1-0.2,4.7-0.4c0.7,0,1.4-0.1,2.1-0.3
				c0.9-0.3,1.8-0.5,2.7-0.6c1.5-0.2,3-0.6,4.5-1c0.6-0.1,1.1-0.5,1.3-1c0.1-0.5,0.2-1.1,0.2-1.6c0-0.3,0-0.6,0-1
				c-0.8,0.2-1.4,0.4-2.1,0.6c-1.4,0.5-2.9,0.8-4.4,0.9C8,92,7,92,5.9,92.1c-0.6,0.1-1.2,0.2-1.8,0.2c-0.5,0-1,0-1.5,0.1l-2.4,0.1
				c0,0-0.1-0.1-0.2-0.1v-0.9c0.3,0,0.7,0,1,0c0.5,0.1,1-0.1,1.1-0.6c0,0,0,0,0,0C2.3,90.4,2.6,90,3,89.9c0.2,0.7-0.5,0.9-0.5,1.6
				c1.2,0,2.3-0.1,3.5-0.2c0.2-0.1,0.5-0.2,0.8-0.2c0.8,0.1,1.5-0.5,1.7-1.2c0.1-0.3,0.3-0.5,0.6-0.6c0.3,0.7-0.4,1-0.4,1.7
				c0.9-0.2,1.8-0.3,2.7-0.4s1.9-0.4,2.8-0.7c0.6-0.1,1-0.6,1.2-1.1c0.4-1.2,0.8-2.4,1.2-3.7c0.3-0.9,0.6-1.9,0.7-2.8
				c0-0.4,0-0.7,0-1.1c-0.2,0-0.4-0.1-0.6-0.3c-0.5-0.5-1.3-0.5-1.8-0.1c-0.7,0.6-1.5,0.9-2.4,0.9c-0.1,0-0.2,0-0.2,0.1
				c-1,0.5-1.9,1.1-2.8,1.8c-1.1,0.9-2.2,1.8-3.4,2.5c-1.1,0.7-2.2,1.3-3.3,1.9c-0.8,0.3-1.4,0.7-2,1.3c-0.1,0.2-0.4,0.3-0.6,0.4
				v-1.3c0.2-0.2,0.4-0.3,0.6-0.5L4,85.9c-0.3-0.6-0.5-1.3-0.8-1.9c-0.2-0.4-0.5-0.8-0.8-1.2c-0.5-0.7-1.1-1.3-1.7-2
				c-0.2-0.2-0.4-0.4-0.7-0.5V79c0.1,0,0.1,0,0.2,0c1.4,1.1,2.5,2.4,3.3,3.9c0.5,0.8,0.9,1.6,1.4,2.5c0.7-0.4,1.3-0.7,1.9-1.1
				c1.4-1,2.8-1.9,4.1-2.9c0.7-0.5,1.5-0.8,2.2-1c0.5-0.1,0.8-0.6,0.8-1.1c0-0.3,0-0.6,0.1-0.9c0.2-1.2,0.2-2.5-0.1-3.7
				c-0.3,0-0.5,0.1-0.8,0.2c-0.6,0.3-1.2,0.7-1.8,1.1c-0.7,0.6-1.4,1.2-2.2,1.8c-0.5,0.5-1.1,0.7-1.8,0.5c-0.7-0.2-1.3-0.5-1.8-1
				c-0.5-0.4-1-1-1.5-1.5c-1.1-1.1-2.5-1.8-4-2v-1.1c2.1,0.2,4,1.3,5.3,3c0.2-0.3,0.3-0.5,0.4-0.7c0.6-1.5,1.1-3,1.3-4.6
				c0.2-0.8-0.2-1.6-0.9-2c-1.1-0.7-2.3-1.2-3.6-1.3c-0.8-0.2-1.6-0.2-2.4-0.3L0,65.7z M23.1,77.1l0.1-1h-0.9
				c-0.8,0-1.1-0.3-1.1-1.1c0-0.5,0-0.9-0.1-1.4c-0.8,0-0.8,0-0.9,0.5c-0.1,0.6-0.2,1.3-0.3,1.9c-0.2,0.8-0.7,1.5-1.3,2
				c-0.6,0.5-1.1,1.1-1.8,1.7l1.4,0.8c0.6-0.8,1.1-1.5,1.7-2.2c0.3-0.6,0.9-1,1.6-1.1C22,77.2,22.5,77.1,23.1,77.1z"/>
			<path class="st1" d="M110.2,0c-0.1,0.2,0,0.3,0.2,0.3c1.3,0.2,1.5,0.5,1.6,1.9c0.1,1.5,0,3.1-0.3,4.6c-0.3,1.3-0.8,2.5-1.5,3.6
				c-0.9,1.5-2,2.9-3.2,4.2c-0.8,0.7-1.4,1.6-2.2,2.3c-0.8,0.7-1.8,1.1-2.8,1.2c-0.1,0-0.2,0-0.3,0.1c-0.6,0.6-1.2,0.3-1.7-0.1
				c-0.7-0.6-1.4-1.2-2-1.9c-0.6-0.9-1.3-1.8-1.8-2.7c-0.2-0.3-0.3-0.6-0.5-0.9c-0.3,0.1-0.6,0.1-0.9,0.2c-0.8,0.3-0.9,0.6-0.8,1.5
				c0.1,0.7,0.2,1.3,0.2,2c0.1,1.1,0,2.2-0.3,3.2c-0.1,0.3-0.2,0.6-0.4,0.9c-0.1,0.1-0.3,0.3-0.4,0.3c-0.6-0.1-1.3,0.1-1.9-0.3
				c-0.8-0.6-1.5-1.3-2.3-1.9c-0.3-0.2-0.5-0.5-0.8-0.8c-0.2,0.3-0.3,0.6-0.4,0.9c-0.1,0.2-0.1,0.5,0,0.8c0.5,1,0.3,2,0.6,3
				c0.1,0.2,0.1,0.4,0.3,0.6c0.4,0.5,0.9,1,1.5,1.4c0.5,0.3,0.8,0.9,0.7,1.4c-0.1,0.7-0.6,1.2-1.2,1.5c-0.2,0.1-0.5,0-0.7-0.1
				c-0.5-0.2-0.9-0.5-1.4-0.9c-0.3,0.3-0.5,0.7-0.8,1s-0.6,0.4-1.1,0.1s-0.7-0.5-1-0.7c-0.3-0.2-0.5-0.6-0.3-1
				c0.2-0.6,0.4-1.1,0.8-1.7c0.2-0.3,0.2-0.7,0.1-1c-0.1-0.4-0.2-0.7-0.2-1.1c-0.3-1-0.6-2-1-3c-0.1-0.3-0.3-0.5-0.5-0.7
				c-1.1-1.2-2.1-2.5-3-3.8c-0.4-0.8-1.1-1.4-1.9-1.6c-0.6-0.3-1.1-0.7-1.5-1.2c-0.5-0.5-1-1-1.4-1.6c-0.6-0.8-1.2-1.5-1.9-2.2
				c-0.2-0.3-0.4-0.6-0.6-0.9c-1-1.3-1.9-2.7-2.8-4.1c-0.6-0.9-1.1-1.8-1.6-2.6h1.1l1.7,2.3l1-2.3h3.2c-0.9,1.7-1.6,3.6-2.3,5.4
				l1.4,1.7c0.5-1,1-2,1.5-2.9c0.7-1.4,1.4-2.8,2.1-4.1h2.5c-0.1,0.3-0.2,0.5-0.4,0.8c-0.2,0.3-0.4,0.7-0.6,1.1
				c-0.2,0.8-0.6,1.6-1,2.3c-0.7,1.4-1.3,2.8-1.9,4.3c-0.3,0.6-0.2,1.3,0.2,1.7c0.3,0.3,0.5,0.6,0.8,0.8s0.7,0.5,1.1,0.8
				c0.3-0.8,0.5-1.6,0.8-2.3s0.7-1.7,1.1-2.5c0.6-1.1,1.2-2.2,1.8-3.2c0.3-0.6,0.6-1.1,0.9-1.7c0.4-0.7,0.9-1.4,1.4-2.1H86
				c0.3,0.6,0.8,1.1,0.4,2l-0.7-1.5c-1.2,1.4-2.1,3-2.7,4.7c0.1,0.7,0.8,1.1,0.6,1.9c-0.7-0.2-0.6-1-1.1-1.3
				c-0.4,0.9-0.9,1.7-1.3,2.5c-0.4,0.8-0.7,1.7-1,2.5c-0.3,0.6-0.2,1.3,0.3,1.8c0.8,0.9,1.4,2,2.1,2.9c0.6,0.8,1.3,1.5,1.9,2.2
				c0.3,0.2,0.5,0.5,0.8,0.7c0.3-0.1,0.6-0.3,0.8-0.4c0.2-0.2,0.6-0.4,0.7-0.6c0.1-0.5,0.2-1.1,0.2-1.6c0-0.3,0.1-0.6,0.2-0.8
				c0.2-0.3,0.4-0.6,0.5-1c0.1-1.2,0.2-2.4,0.2-3.5c-0.1-1.1-0.1-2.2,0-3.3c0.2-1.4,0.2-2.9,0.4-4.3c0.3-1,0.3-2,0.1-3h1.1
				c0.1,1.7,0,3.4-0.4,5c0.7,0.2,1.4,0.3,2,0.4c0.5,0.1,1,0.1,1.4,0.1c0.9-0.1,1.8-0.1,2.7-0.2c0.3,0,0.7-0.1,1-0.2
				c1.1-0.4,2-1,2.7-1.8c0.7-0.6,1.1-1.6,1.1-2.5c0-0.3,0.1-0.5,0.2-0.8L110.2,0z M96.7,12.1c0.1,0.3,0.2,0.5,0.3,0.7
				c0.9,1.6,2.1,3.1,3.6,4.3c0.2,0.2,0.5,0.2,0.7,0.1c0.3-0.1,0.5-0.2,0.8-0.3c0.7-0.1,1.4-0.5,1.9-1l2-1.9c0.5-0.4,0.9-0.8,1.2-1.3
				c0.8-1.1,1.5-2.3,2.3-3.4c0.5-0.8,0.9-1.7,1.1-2.6c0.3-1.1,0.4-2.3,0.4-3.5c0-0.6,0-1.2-0.1-1.9l-2.6-0.4c0,0-0.1,0-0.2,0.1
				c-0.6,0.1-1.2,0.2-1.8,0.2l-2.5-0.2c-0.1,1.8,0.7,3.5-0.1,5.2c0.2,0.1,0.3,0.3,0.5,0.4c0,0.1,0,0.2,0,0.4l-0.6-0.3
				c-0.5,1.4-1.4,2.7-2.5,3.7C99.9,11.5,98.3,12.1,96.7,12.1z M89.1,6.1c-0.1,0.8-0.2,1.5-0.2,2.1c0,0.8,0,1.7,0.1,2.5
				c0.1,0.8-0.2,1.6-0.1,2.5c0,0.9-0.2,1.7-0.5,2.5c-0.2,0.5,0,1.1,0.4,1.3c0.3,0.2,0.5,0.5,0.8,0.7c0.8,0.8,1.8,1.5,2.9,1.9
				c0.4-0.3,0.6-0.7,0.6-1.2c0-0.6,0-1.1,0-1.7c0-1-0.1-1.9-0.2-2.9c-0.1-0.6,0.1-1.2,0.6-1.6c0.5-0.5,1.2-0.8,1.9-0.9
				c0.7-0.2,1.4-0.3,2.1-0.4c0.8-0.1,1.5-0.4,2.2-0.7c0.8-0.4,1.5-1,2-1.6c0.7-1,1.1-2.1,1.4-3.3c0.2-0.6,0.2-1.2,0.1-1.8
				C103,3.1,103,2.5,103,2c0.1-0.6-0.2-1.1-0.8-1.3c-0.1,0-0.1,0-0.2,0l-0.5-0.1c-0.2,0.7-0.5,1.2-0.7,1.9c-0.5,1.4-1.6,2.5-3,3.1
				c-1.7,0.8-3.7,1.1-5.6,0.9C91.2,6.4,90.1,6.3,89.1,6.1z M89.4,25.5c-0.7-0.7-1.2-1.4-1.8-2c-0.2-0.3-0.4-0.6-0.5-1
				c-0.1-0.6-0.2-1.2-0.3-1.8c-0.1-0.5-0.2-1.1-0.4-1.6l-1.4,0.6c0.3,0.9,0.6,1.8,0.8,2.7c0.2,0.6,0.2,1.2,0,1.8
				c-0.3,0.5-0.6,0.9-0.9,1.4l0.8,0.8c0.2-0.4,0.4-0.6,0.6-0.8c0.3-0.5,0.9-0.6,1.4-0.3c0,0,0,0,0.1,0l1.3,0.9L89.4,25.5z"/>
			<path class="st1" d="M0,164.3c1.1,0.2,2.2,0.3,3.3,0.5c1,0.2,2.1,0.5,3.1,0.8c1.8,0.6,3.6,1.2,5.4,1.8l4.9,1.7
				c0.1,0,0.3,0,0.3,0.1c0.6,0.7,1.5,0.8,2.2,1.3s1.3,1,2,1.4c0.2,0.1,0.4,0.3,0.7,0.5c0-0.5,0.1-1,0.1-1.4c0-1.6,0.1-3.1,0.1-4.6
				c0.1-0.5,0.1-1,0.1-1.6c0-0.4,0.1-0.9-0.5-1.1c-0.9-1.3-2.3-1.8-3.6-2.4c-1.1-0.6-2.3-1.2-3.5-1.7c-1.8-0.8-3.6-1.5-5.5-2.1
				c-0.8-0.2-1.6-0.5-2.3-0.7c-0.3-0.1-0.6-0.1-0.9-0.2c-1.6-0.4-3.2-0.7-4.8-1.1c-0.3,0-0.6,0-0.9,0.1v-1.1c1.5,0.1,3,0.3,4.5,0.7
				c1.3,0.4,2.6,0.6,3.9,1s2.7,0.8,4,1.3c0.9,0.3,1.9,0.7,2.8,1.1c0.7,0.3,1.4,0.7,2.1,1.1c0.3,0.1,0.6,0.2,0.9,0.3
				c1,0.6,2,1.1,3,1.7c0.6,0.4,1.1,0.8,1.6,1.3c0.3,0.4,0.5,1,0.4,1.5c0,1,0,2-0.1,3.1c-0.1,2.7-0.1,5.4-0.4,8.1
				c-0.1,0.7-0.3,1.4-0.4,2.1h-4c-0.2-0.2-0.4-0.4-0.6-0.5c-0.7-0.4-1.4-0.9-2.1-1.3c-2.2-1.4-4.5-2.5-7-3.3
				c-2.1-0.7-4.3-1.3-6.4-1.8c-0.7-0.1-1.5-0.2-2.2-0.3v-2c2,0.2,4,0.6,6,1.2c1.2,0.4,2.4,0.6,3.5,1c2.7,0.9,5.3,2,7.8,3.4
				c1.1,0.5,2.1,1.2,3,2.1c0.3,0.3,0.7,0.5,1.2,0.4l0.2-1.5c-0.9-0.6-1.8-1.2-2.5-1.9c-1.1-0.9-2.4-1.6-3.8-2
				c-1.8-0.6-3.5-1.3-5.3-1.9s-3.4-1.1-5.2-1.6s-3.2-0.8-4.8-1.1L0,164.3z M11.4,173.3c1,0.9,2.2,0.6,3.3,0.7
				C13.7,173.3,12.5,173.6,11.4,173.3L11.4,173.3z"/>
			<path class="st1" d="M22.1,0c0,0.4,0,0.9,0,1.4c-0.1,1.1-0.2,2.3-0.4,3.4c-0.1,0.7-0.4,1.5-0.9,2c-0.2,0.2-0.4,0.5-0.6,0.7
				c0.5,0.7,0.7,1.6,0.3,2.4c-0.5,1.1-0.8,2.2-1.3,3.2c-0.3,0.6-0.7,1.2-1.1,1.8c-0.4,0.5-0.9,1-1.3,1.5c-1,1-2.3,1.7-3.6,2.1
				c-0.9,0.3-1.8,0.3-2.7,0c-0.1,0-0.2,0-0.3,0c0,0-0.1,0-0.1,0.1c0,0.1,0.1,0.2,0.1,0.4c0.3,0.7,0.1,1.6-0.6,2
				c-0.2,0.2-0.5,0.3-0.8,0.5c-1.2,0.6-2.4,1.2-3.7,1.6c-1.4,0.4-2.9,0.5-4.4,0.4c-0.2,0-0.5,0-0.7,0v-1.1c0.1,0,0.2,0,0.3,0
				c1.6,0.3,3.1,0.1,4.6-0.3c0.5-0.1,1-0.5,1.4-0.6c1.1-0.4,2.1-0.9,2.9-1.6c-0.3-0.6-0.6-1.1-0.8-1.7c-0.2-0.4-0.2-0.7-0.6-1.1
				c-0.4-0.4-0.7-0.9-0.9-1.5c-0.3-0.6-0.6-1.3-1-2c-1.6,0.9-2.7,2.3-4.5,2.5l-0.3,0.8H1.1L1,16.2H0v-0.9l1.4-0.2
				c0.9-0.1,1.7-0.5,2.4-1.1c0.2-0.3,0.5-0.4,0.9-0.6c0.5-0.2,0.9-0.5,1.2-1l-0.4-1.2c-0.1,0-0.2,0-0.4,0.1c-1.3,0.5-2.9,0.5-4.2,0
				C0.6,11.1,0.3,11,0,10.9V9.6c1.1,0.7,2.4,1,3.7,0.9c0.5-0.1,1.1-0.3,1.5-0.5c1.3-0.7,2.5-1.5,3.5-2.6c0.9-1.1,1.6-2.4,2-3.8
				c0.3-0.9,0.4-1.9,0.6-2.8c-0.4-0.2-0.7-0.2-1-0.4C10.1,0.3,9.9,0.2,9.6,0h2.5c0.8,0.4,1.6,0.9,2.4,1.2c1,0.3,1.9,0.9,2.6,1.6
				C17.1,2.9,17.2,3,17.3,3c1.2,0.6,2.2,1.6,2.8,2.9c0.5-0.3,0.5-1,0.6-1.5c0.1-0.7,0.1-1.4,0.1-2.2c0-0.1-0.1-0.2-0.2-0.3l-2.1-2
				H22.1z M8.2,15.5c0.2-0.3,0.3-0.7,0.4-1c0.2-0.8,0.5-1.6,1.1-2.2c0.5-0.5,0.9-1,1.2-1.6c0.7-1,1.5-1.8,2.4-2.6
				c1-0.9,2.2-1.5,3.5-1.8c0.3-0.1,0.6-0.1,0.9,0c0.5,0.1,1,0.3,1.6,0.5c0-0.2-0.1-0.5-0.2-0.7c-0.2-0.3-0.6-0.6-0.8-0.9
				c-0.7-1.1-1.9-1.6-2.8-2.3c-0.8-0.5-1.6-1-2.5-1.4c-0.1-0.1-0.3-0.1-0.4-0.1l-1.6,4.7c0.4,0.4,0.4,0.8-0.2,1.2L10.4,7
				C9.8,7.6,9.2,8.1,8.7,8.7S7.8,9.5,8,10.2c0,0.1-0.1,0.1-0.2,0.2L7.4,10l-1,0.7l0.4,1.4c0.2,0.5,0.3,1,0.5,1.6
				c0.1,0.2,0.2,0.3,0.2,0.5C7.5,14.6,7.8,14.9,8.2,15.5z M13.6,17.1c-0.3-0.4-0.6-0.2-0.9-0.2c-0.4,0-0.9,0-1.3,0
				c-0.6,0-1-0.5-0.9-1.1c0,0,0-0.1,0-0.1c0-1.5,0.7-2.9,1.7-3.9c0.2-0.1,0.3-0.3,0.5-0.4c0.9-1,2-1.7,3.3-2.1
				c0.7-0.2,1.4-0.2,2,0.1c0.3,0.1,0.5,0.4,0.5,0.6c0.1,0.4,0.2,0.9,0.2,1.3c0.1-0.1,0.2-0.2,0.2-0.3c0.2-0.6,0.4-1.2,0.6-1.8
				c0.1-0.3,0.1-0.6-0.1-0.9c-0.5-0.7-1.3-1.2-2.2-1.2C16,7.4,14.9,7.9,14,8.8c-1,0.8-1.9,1.8-2.6,2.9c-0.2,0.4-0.6,0.6-0.8,0.9
				c-0.7,1.2-1.2,2.5-1.5,3.8c0.6,1,1.7,1,2.6,1.5C12.2,17.4,13.1,17.8,13.6,17.1z M12.3,16.5c0.9-0.1,1.8-0.3,2.6-0.6
				c1.2-0.7,2.2-1.8,2.8-3.1c0.3-0.6,0.5-1.3,0.4-2.1c-0.1-0.5-0.3-0.9-0.8-0.9c-0.5,0-1,0-1.5,0.1c-1.1,0.4-2.2,1.1-3,2
				c-1,0.9-1.6,2-1.9,3.3C10.9,16,11.2,16.5,12.3,16.5z"/>
			<path class="st1" d="M161.1,178c0.1-0.6,0.3-1.2,0.6-1.7c0.2-0.3,0.2-0.7,0.2-1c-0.2-0.8-0.1-1.7,0.3-2.5
				c0.3-1.4,0.8-2.8,1.5-4.1c0.5-0.9,0.8-1.9,1.2-2.9c0.2-0.4,0.5-0.8,0.7-1.2s0.4-0.8,0.7-1.2c0.8-1.5,1.5-2.9,2.3-4.4
				c0.4-1,0.9-1.8,1.6-2.6c0.1-0.1,0.2-0.3,0.2-0.5c0.4-0.9,1.3-1.5,2.3-1.4c0.6,0,1.3,0,1.9-0.1c1.2-0.1,2.3,0,3.5,0.2v1.1
				c-0.6-0.2-1.3-0.3-2-0.2c-1.1,0-2.3-0.1-3.4,0c-0.6-0.1-1.1,0.2-1.4,0.8c-0.2,0.4-0.4,0.8-0.7,1.2c-0.3,0.4-0.6,0.8-0.8,1.3
				c-0.4,1.1-1.1,2.1-1.6,3.2c-0.3,0.6-0.6,1.1-0.9,1.8c1.3-0.4,2.7-0.5,4-0.4c2.3,0.2,4.5,0.6,6.8,0.9v2.7
				c-0.8-0.1-1.5-0.2-2.3-0.3c-1.6-0.4-3.3-0.5-5-0.5c-1.4,0.1-2.9,0.3-4.3,0.4c-0.3,0.1-0.6,0.1-0.8,0.2l-0.8,1.9
				c0.1,0,0.3,0,0.4,0.1c2.2-0.1,4.4-0.2,6.6-0.3c1,0,2,0.1,3,0.2s2.2,0.2,3.2,0.3v2c-0.7-0.1-1.4-0.1-2.1-0.2c-2.2,0-4.4,0-6.6,0.2
				c-1.6,0.1-3.1,0.2-4.7,0.4c-1,0.1-1.2,0.4-1.4,1.4c0,0.2-0.1,0.3-0.2,0.5c-0.1,0.5-0.4,1-0.1,1.5c0.7-0.1,1.5-0.2,2.2-0.4
				c1.4-0.2,2.9-0.3,4.4-0.3c0.6,0,1.2,0.1,1.7,0c0.8,0,1.5-0.1,2.3-0.1c1.2,0.1,2.4,0.2,3.6,0.4c0.3,0,0.6,0,1,0v1.1l-1.4-0.1
				c-0.4,0.5-0.8,0.9-1.1,1.2c-0.1,0.1-0.3,0-0.6,0.1l1-1.4c-1.8-0.3-3.6-0.4-5.4-0.1c-0.5,0.4-0.6,1.2-1.4,1.5
				c-0.2-0.7,0.6-1,0.6-1.5c-1.1,0-2.1,0-3.1,0c-0.8,0-1.6,0.1-2.4,0.3c-0.5,0.1-1,0.4-1.3,0.8c-0.3,0.5-0.5,1-0.7,1.6L161.1,178z"
				/>
			<path class="st1" d="M178,23.5c-1.3-0.2-2.5-0.4-3.8-0.7c-1-0.2-2-0.5-3-0.8c-1-0.3-1.9-0.9-2.6-1.7c-0.2-0.2-0.4-0.5-0.7-0.6
				c-0.5-0.3-0.6-0.9-0.4-1.4c0.3-1.4,0.7-2.7,1.3-4c0.3-0.5,0.6-1,0.9-1.5l0.6-1l-1-0.8c-0.3-0.3-0.8-0.3-1.1,0
				c-1.2,0.8-2.3,1.5-3.5,2.2c-0.7,0.4-1.5,0.6-2.3,0.6c-0.3,0-0.6-0.2-0.7-0.4c-0.5-0.9-0.6-1.9-0.3-2.9c0.1-0.7,0.3-1.4,0.5-2
				c0-0.2,0.1-0.4,0.1-0.7c-0.4,0-0.8,0.1-1.2,0.1c-0.2,0-0.3,0.1-0.5,0.2c-0.6,0.7-1.3,1.3-2.1,1.8c-0.7,0.6-1.1,1.5-1.1,2.4
				c-0.1,0.5,0,0.9-0.5,1.3c-0.7,0.5-1.6,0.5-2.4,0c-0.1-0.1-0.2-0.3-0.2-0.5c0-0.6,0.1-1.1,0.1-1.7c-0.4-0.1-0.9-0.1-1.3-0.2
				s-0.6-0.3-0.6-0.8s0.1-0.8,0.1-1.2c0-0.4,0.3-0.8,0.8-0.8c0.6-0.1,1.2-0.1,1.8-0.1c0.3,0.1,0.7-0.1,0.9-0.4
				c0.2-0.2,0.5-0.4,0.7-0.6c0.8-0.8,1.6-1.7,2.3-2.6c0.1-0.2,0.2-0.4,0.2-0.6l1.6-3.9h1.1c-0.3,0.6-0.5,1.3-0.8,1.9
				c-0.4,0.9-0.8,1.9-1.1,2.8c-0.1,0.3-0.1,0.7-0.2,1c0.3,0.1,0.5,0.3,0.7,0.5c0.3,0.3,0.6,0.4,1,0.3c0.5,0,1.1-0.2,1.5-0.6
				c0.2-0.2,0.5-0.3,0.8-0.2c0.3,0.1,0.7,0.1,1,0c1.1-0.4,2.1-0.9,3.1-1.5c1.1-0.7,2.3-1.4,3.5-1.9c1.3-0.5,2.6-1,3.8-1.6
				c0.6-0.2,1.3-0.2,1.7-0.8h1v0.7l-4.4,2l0.5,1.4c0.1,0.6,0.4,1.2,0.7,1.8c1,1.3,1.6,3,3.1,3.8v1.2c-2-1.3-3.5-3.2-4.3-5.4
				c-0.3-0.8-0.7-1.6-1-2.4c-0.9,0.5-1.8,0.9-2.6,1.3c-0.6,0.3-1.2,0.6-1.8,1c-0.4,0.2-1,0.4-1.3,0.6c-0.9,0.6-1.9,1-3,1.1
				c-0.5,0.1-0.9,0.5-0.9,1c0,0.3-0.1,0.6-0.2,0.9c-0.4,1.2-0.5,2.5-0.4,3.7c0.3,0,0.7-0.1,1-0.1c0.6-0.2,1.2-0.5,1.8-0.8
				c0.8-0.5,1.6-1,2.4-1.6c0.5-0.4,1.2-0.5,1.8-0.2c0.7,0.3,1.2,0.7,1.7,1.2c0.4,0.5,0.8,0.9,1.1,1.4c0.8,1.1,1.8,1.9,3.1,2.4
				c0.8,0.4,1.8,0.5,2.6,0.2v1.1c-0.6,0.1-1.1,0.1-1.7,0c-1.6-0.1-3-0.9-4-2.1c-0.4-0.4-0.8-0.9-1.2-1.4c-0.1,0.1-0.2,0.1-0.2,0.2
				c-1.2,1.7-1.9,3.6-2.3,5.7c0,0.2,0.1,0.4,0.2,0.5c0.2,0.2,0.5,0.4,0.7,0.6c0.5,0.6,1.1,1,1.8,1.2c0.9,0.3,1.7,0.5,2.6,0.8
				c0.6,0.2,1.3,0.4,1.9,0.5c0.7,0.1,1.5,0.1,2.2,0.2L178,23.5z M155.2,12.8c0.4,0.1,0.8,0.1,0.9-0.3s0.4-1.3,0.6-1.9
				c0.1-0.4,0.2-0.9,0.6-1.1c0.3-0.2,0.6-0.5,0.9-0.8c0.6-0.5,1.2-0.9,1.9-1.4l-1.3-0.9c-0.8,0.8-1.5,1.5-2.3,2.2
				c-0.5,0.5-1.1,0.7-1.8,0.5c-0.4,0-0.8,0-1.2,0l-0.2,1l1,0.1c0.6,0,1,0.4,1,1c0,0.1,0,0.1,0,0.1C155.2,11.8,155.2,12.2,155.2,12.8
				L155.2,12.8z"/>
			<path class="st1" d="M0,174.4c1.1,0.2,2.2,0.5,3.3,0.7c0.7,0.2,1.5,0.4,2.2,0.7c0.4,0.2,0.7,0.1,1,0.2c1.3,0.4,2.5,0.8,3.8,1.2
				c0.5,0.2,1,0.5,1.6,0.7h-3c-0.1-0.1-0.3-0.3-0.4-0.4c-0.6-0.2-1.2-0.3-1.8-0.5c-0.2-0.1-0.5-0.2-0.7-0.3
				c-1.2-0.2-2.3-0.5-3.4-0.7L1,177.7c-0.1,0.1-0.1,0.2-0.2,0.3H0v-0.7c0.6-0.2,0.9-0.8,1.3-1.5L0,175.5V174.4z"/>
			<path class="st1" d="M0,77.1l2.3-0.3c-0.2,0.7-0.8,0.6-1.1,0.6c-0.4,0-0.8,0-1.2,0L0,77.1z"/>
			<path class="st1" d="M170.5,178c0-0.8,0.6-1.3,1.4-1.9c0,0.4,0,0.6-0.1,0.7c-0.3,0.4-0.6,0.8-0.9,1.2H170.5z"/>
			<path class="st1" d="M144,35.3c0.3,0.4,0.6,0.8,0.8,1.1c0.2,0.3,0.6,0.4,1,0.3c1.3-0.4,2.6-0.8,4-1.1c0.8-0.2,1.6-0.2,2.4,0
				c0.3,0.1,0.5,0.3,0.6,0.6c0.3,1,0.1,2-0.5,2.9c-0.3,0.7-0.8,1.3-1.1,2c-0.1,0.1-0.1,0.2-0.2,0.4c0.8,0.2,1.6,0.4,2.3-0.3
				c0.4-0.3,1-0.5,1.5-0.6c1-0.2,1.8-1,2.2-2c0.2-0.5,0.3-1,0.8-1.2c0.8-0.3,1.7-0.1,2.2,0.7c0.1,0.2,0.1,0.5,0,0.7
				c-0.1,0.5-0.3,1-0.5,1.5c0.4,0.2,0.8,0.4,1.2,0.6s0.5,0.5,0.3,0.9c-0.1,0.2-0.1,0.3-0.2,0.5c-0.5,1.2-0.9,1.4-2.1,1.1
				c-0.2,0-0.5-0.1-0.7-0.2c-0.5-0.3-1-0.4-1.5,0.2c-1,0.3-1.9,0.8-2.7,1.4c-0.6,0.3-1.1,0.8-1.5,1.3c-0.4,0.7-0.9,1.3-1.5,1.9
				c-0.8,0.9-1.6,1.8-2.4,2.8c-0.1,0.1-0.2,0.3-0.2,0.5c0.1,1-0.5,1.7-0.9,2.5c-0.3,0.7-0.7,1.3-1.2,1.8c-0.6,0.7-1.2,1.5-1.7,2.3
				c-0.2,0.3-0.5,0.5-0.7,0.8c-1.1,1.2-2.3,2.5-3.5,3.7c-1.4,1.4-2.8,2.9-4.2,4.3c-0.5,0.5-1.1,1-1.7,1.5c-0.6,0.5-1.4,0.6-2.1,0.3
				c-0.8-0.3-1.7-0.3-2.6-0.6c-1-0.3-2-0.7-3-1.1c-1-0.4-1.9-0.8-2.9-1.3c-0.8-0.5-1.7-1-2.5-1.5c-1.1-0.7-2.3-1.3-3.4-2
				s-2-1.4-3-2.1c-0.5-0.3-1-0.7-1.4-1.2c-0.9-0.9-1.9-1.7-3-2.5c-0.4-0.3-0.6-0.8-1-1.1c-0.7-0.7-1.3-1.4-1.8-2.2
				c-0.4-0.5-0.5-1.3-0.3-1.9c0.7-2.3,1.4-4.6,2.1-6.9c0.4-1.3,0.9-2.6,1.5-3.9c0.3-0.8,0.8-1.5,1.2-2.2c0.4-0.8,0.8-1.7,1.1-2.6
				c0.4-1.6,1.4-2.9,2.8-3.5c-0.7-1.3,0.1-2.2,0.8-3.1c0.7-1,1.5-1.9,2.3-2.8c1.4-1.4,3.1-2.3,5-2.7c0.9-0.2,1.9-0.3,2.9-0.1
				c0.5,0.2,0.9,0.4,1.3,0.6c0.1,0,0.3,0.1,0.4,0.1c0.1-0.1,0.1-0.1,0.1-0.2c-0.2-1.1,0.2-1.9,1.3-2.1c1.4-0.4,2.8-0.6,4.2-0.7
				c1.6,0,3.2,0.3,4.7,0.8c2.1,0.8,4.1,1.7,6,3c1,0.6,1.9,1.4,2.6,2.3c0.2,0.6,0.5,1.1,0.9,1.6c0.4,0.4,0.1,0.9-0.2,1.3
				c-0.6,1.2-1.4,2.3-2.2,3.3c-0.4,0.5-0.9,0.8-1.4,1.3C144.6,34.7,144.4,35,144,35.3z M139.8,61.2c-1.7-0.1-3.3-0.5-4.8-1.2
				c-2.3-1-4.6-2-6.8-3c-0.7-0.3-1.4-0.6-2-1c-1.8-1.2-3.7-2.3-5.5-3.6c-1.1-0.8-2.2-1.5-3.3-2.3c-0.8-0.6-1.6-1.1-2.4-1.7
				c-0.1-0.1-0.4-0.2-0.4-0.3c-0.1-0.6-0.7-0.8-1-1.2c-0.9-0.7-1.6-1.6-2.2-2.6c-0.1-0.2-0.3-0.4-0.4-0.6c-0.2,0.4-0.3,0.7-0.4,1
				c-0.6,2-1.2,3.9-1.8,5.9c-0.2,0.5-0.2,1.1,0,1.7c0.6,1.1,1.5,2.1,2.5,2.9c0.6,0.5,1.2,1.1,1.8,1.6c1.2,1,2.3,2,3.5,3
				c0.4,0.3,0.8,0.6,1.2,0.9c1.4,0.9,2.8,1.7,4.2,2.6c0.3,0.2,0.6,0.3,0.8,0.4c0.7,0.4,1.5,0.8,2.2,1.2s1.4,0.6,2.1,0.9
				c1.7,0.7,3.5,1.3,5.3,1.7c0.5,0.2,1.1,0.1,1.5-0.3c0.4-0.4,0.8-0.8,1.2-1.2s0.8-0.8,1.2-1.3s0.5-0.6,0.8-0.9s0.5-0.4,0.7-0.6
				c0.5-0.5,0.9-1,1.4-1.5C139.4,61.6,139.6,61.4,139.8,61.2L139.8,61.2z M138.4,43.2c-0.1-0.4-0.1-0.9-0.1-1.3c0-1-0.1-2-0.4-2.9
				c-0.2-0.4-0.3-0.9-0.4-1.3c-0.4-1.8-1.7-3.3-3.5-4.1c-0.8-0.4-1.7-0.5-2.6-0.2c-1.6,0.3-3,0.8-4.4,1.7c-1.1,0.8-2.1,1.8-2.8,2.9
				c-0.5,0.8-0.9,1.6-1.4,2.4c2.4,2,5.1,3.7,7.9,5.2C132.8,43.5,135.5,43.4,138.4,43.2L138.4,43.2z M115.8,33.3
				c-0.6,0.3-1,0.9-1.2,1.5c-0.2,0.4-0.3,0.9-0.4,1.4c-0.1,0.2-0.1,0.4,0,0.6c0.3,0.8,0.8,1.5,1.2,2.2c1.9,2.5,4.1,4.7,6.6,6.7
				c1.3,1.1,2.8,2,4.2,2.9c1.2,0.8,2.5,1.5,3.9,2.2c1.5,0.7,3.1,1.2,4.7,1.7c0.8,0.3,1.7,0.5,2.6,0.7c0.9,0.1,1.7,0.3,2.6,0.5
				c1.5,0.4,3.1,0.7,4.6,0.9c0.6,0.1,1.2-0.1,1.5-0.5c0.3-0.5,0.6-1,0.9-1.5c0.1-0.2,0.2-0.5,0.3-0.7c-0.8-0.1-1.5-0.1-2.2-0.2
				c-1-0.2-2-0.3-2.9-0.6s-1.9-0.6-2.8-0.8s-1.6-0.3-2.4-0.5c-0.7-0.1-1.3-0.4-1.9-0.7c-0.4-0.2-0.8-0.2-1.1-0.4
				c-1.5-0.6-3-1.4-4.4-2.2c-0.4-0.3-0.9-0.5-1.3-0.8c-0.4-0.3-0.9-0.6-1.4-0.9c-0.7-0.4-1.3-0.8-1.9-1.2c-1-0.7-2.1-1.4-3-2.2
				c-0.8-0.7-1.6-1.4-2.3-2.1c-0.6-0.6-1.4-1.1-1.7-2.1c0-0.1-0.1-0.2-0.2-0.2C116.8,35.9,116.1,34.7,115.8,33.3L115.8,33.3z
				 M137,28.7c3.2,0.1,5.9,2.4,6.6,5.5c1.9-1.3,3.3-3.2,4.2-5.3c-0.2-0.3-0.5-0.7-0.7-1c-0.3-0.7-0.8-1.2-1.4-1.6
				c-0.8-0.5-1.5-1-2.3-1.5c-0.5-0.4-1.1-0.7-1.6-1c-0.6-0.3-1.3-0.5-1.9-0.8c-1.6-0.7-3.4-1.1-5.1-1.1c-0.5,0-1,0.2-1.5,0.2
				c-1.1,0.1-2.2,0.3-3.2,0.7c-0.2,0.9,0.5,1.8,0.2,2.7c0,0,0,0,0.1,0.1c0.5,0.8,0.7,1.6,0.8,2.5c0.1,0.5,0.1,1.1,0.2,1.7
				c1.8-0.4,3.3-1.5,5.1-1.2l0.4-0.7L137,28V28.7z M131.3,32.3c0.2,0,0.4,0,0.5,0c0.8-0.1,1.7,0,2.5,0.4c0.9,0.4,1.7,1,2.4,1.7
				c1.4,1.7,2.3,3.7,2.4,5.9c0.1,0.9,0.2,1.8,0.3,2.8c0.8-0.1,1.4-0.1,2.1-0.3c1.6-0.3,3.3-0.7,4.9-1.1c0.8-0.2,1.6-0.2,2.4-0.1
				c0.5,0.1,1.1-0.2,1.2-0.7c0,0,0,0,0,0c0.1-0.3,0.2-0.5,0.4-0.7c0.7-0.8,1.1-1.8,1.3-2.9c0.2-0.7,0.1-0.8-0.6-0.8
				c-0.7,0-1.5,0.1-2.2,0.3c-0.9,0.2-1.9,0.6-2.8,0.9c-0.5,0.2-1.1,0.2-1.5-0.1c-0.7-0.5-1.3-1.2-1.6-2c-0.4-1.1-0.9-2.2-1.6-3.2
				c-0.6-0.9-1.5-1.6-2.5-2.1c-0.8-0.3-1.7-0.5-2.5-0.5c-1-0.2-2.1-0.1-3,0.4c-0.3,0.2-0.7,0.3-1.1,0.3c-0.5,0.1-0.9,0.3-1.3,0.6
				L131.3,32.3z M140.6,49.5c1,0.2,1.9,0.5,2.8,0.7c0.9,0.2,1.8,0.4,2.8,0.5c0.6,0.1,1.2-0.2,1.6-0.6c0.8-1,1.7-1.9,2.5-2.9
				c0.6-0.7,1.1-1.5,1.7-2.3c0.2-0.3,0.3-0.6,0.5-0.9c-0.2-0.3-0.4-0.5-0.6-0.8c-0.2-0.2-0.4-0.4-0.7-0.5c-0.5-0.1-1-0.1-1.6,0
				c-0.3,0.1-0.7,0.1-1.1,0c-0.3-0.1-0.7-0.2-1-0.2c-1.1,0.1-2.2,0.3-3.3,0.5c-1.4,0.4-2.7,0.7-4.1,0.9c-1.2,0.2-2.5,0.4-3.7,0.4
				c-1.2,0-2.4,0.3-3.6,0.9c-0.4,0.3-0.8,0.5-1.2,0.9c0.8,0.5,1.7,1,2.6,1.2c1.2-1,1.2-1,1.8-0.7l-1.3,1c1.7,0.8,3.4,1.3,5.2,1.6
				c0.6-0.3,0.9-1,1.7-1.1C141.6,48.8,140.9,49,140.6,49.5L140.6,49.5z M112,41c0.7,0.8,1.3,1.6,1.9,2.5c0.8,1.2,1.9,2.2,3.1,3
				c1.4,1,2.9,2.1,4.3,3.1c1.2,0.8,2.3,1.7,3.5,2.4c1.6,1,3.2,1.8,4.8,2.7c0.9,0.5,1.9,0.8,2.7,1.3c2,1.1,4.1,1.9,6.4,2.2
				c1.2,0.2,2.3,0.4,3.5,0.6l1.4-1.8c-0.8-0.2-1.6-0.4-2.3-0.6c-1.7-0.4-3.5-0.7-5.2-1.3c-1.9-0.6-3.8-1.4-5.7-2.2
				c-2.8-1.2-5.5-2.7-8-4.5c-2.4-1.5-4.5-3.3-6.5-5.3c-0.9-0.8-1.7-1.8-2.3-2.9c-0.2-0.4-0.6-0.7-1-0.7L112,41z M129.8,27.4
				c-0.3,0.3-0.5,0.6-0.8,0.9c-0.4,0.7-0.9,1.3-1.5,1.7c-0.6,0.4-1.2,0.8-1.7,1.2c-0.8,0.7-1.7,1.3-2.7,1.8c-1.2,0.6-2.6,0.9-4,0.9
				c-0.6-0.1-1.1-0.3-1.6-0.6c-0.2-0.2-0.5-0.4-0.8-0.5c0,0.2,0,0.4,0,0.7c0.1,0.4,0.4,0.7,0.5,1.1c0.5,1.1,1.2,2.1,2.1,3
				c0.6,0.7,1.2,1.3,1.9,1.8c0.2,0.1,0.4,0.3,0.6,0.4l2.8-4.1c-0.1-0.2-0.2-0.4-0.2-0.4c0.2-0.3,0.2-0.7,0.8-0.8l-0.2,0.8
				c0.3-0.2,0.5-0.4,0.8-0.6c0.4-0.3,0.7-0.5,1.1-0.7c0.7-0.3,1.5-0.6,1.6-1.5c0,0,0.1-0.1,0.2-0.1l0.2,0.6l1.1-0.3
				c0-0.6,0-1.1,0-1.5s-0.1-1.1-0.1-1.7c0-0.2-0.1-0.4-0.1-0.5C130.2,28.3,130.1,27.8,129.8,27.4z M118.5,28.6l-0.2-0.1
				c-0.2,0.4-0.4,0.8-0.7,1.1c-1.1,1-0.6,2,0.4,2.8c0.7,0.6,1.7,0.8,2.5,0.5c0.8-0.2,1.6-0.5,2.3-0.9c1-0.5,1.9-1,2.7-1.8
				c0.2-0.2,0.5-0.3,0.7-0.5c0.2-0.1,0.4-0.3,0.6-0.5c0.9-0.9,1.7-2,2.3-3.1c-0.3-1.1-1.3-1.5-2-2c-0.4,0-0.8,0-1.2,0
				c-0.4-0.1-0.8,0-1,0.3c0.4,0.2,0.8,0.3,1.2,0.4c1.3,0.3,1.9,0.9,1.2,2.2c-0.5,1.1-1.3,2.1-2.4,2.7c-0.3,0.1-0.6,0.2-0.8,0.4
				c-1.2,0.7-2.5,1.1-3.9,1.1c-1,0.2-1.9-0.5-2-1.4c0-0.3,0-0.5,0-0.8C118.5,28.8,118.5,28.7,118.5,28.6z M124.7,25L124.7,25
				c-0.4,0-0.8,0-1.1,0.1c-1.8,0.4-3.3,1.6-4.3,3.2c-0.8,1.4-0.2,2.1,1.2,2.3c0.2,0,0.3,0,0.5,0c1.2-0.1,2.3-0.5,3.3-1.1
				c1.2-0.6,2.1-1.5,2.7-2.7c0.3-0.4,0.2-1-0.2-1.2c-0.1-0.1-0.3-0.1-0.4-0.2C125.9,25.2,125.3,25.1,124.7,25z M159,38.5
				c-0.8-0.3-0.8-0.3-1.1,0.2c-0.4,0.7-0.9,1.4-1.4,2.1c-0.1,0.1-0.2,0.2-0.3,0.2c-0.6,0.2-1.2,0.4-1.8,0.7s-1.1,0.5-1.8,0.8
				l0.9,1.2c0.8-0.5,1.5-0.9,2.4-1.3c0.6-0.4,1.2-0.5,1.9-0.4l1.5,0.5l0.5-1c-0.4-0.2-0.7-0.2-1-0.4c-0.5-0.2-0.7-0.8-0.6-1.2
				C158.5,39.5,158.7,39,159,38.5z M121.2,45.9C121.2,45.9,121.3,45.9,121.2,45.9c0.1-0.1,0.1-0.1,0.1-0.1c-0.5-0.4-1-1-1.8-1
				c-0.3-0.1-0.6-0.2-0.8-0.3c-0.2,0-0.4-0.1-0.6-0.1c0.2,0.2,0.4,0.3,0.6,0.5C119.5,45.2,120.3,45.5,121.2,45.9L121.2,45.9z"/>
			<path class="st1" d="M74.5,73.1c-0.1-0.7,0.1-1.5,0.6-2c1.1-1.2,2.3-2.3,3.7-3.2c0.1-0.1,0.3-0.2,0.5-0.3c1.4-0.7,3-1.2,4.6-1.3
				c1.1,0,2.1,0.1,3.1,0.5c0.4,0.2,0.8,0.5,1.1,0.8l0.4,0.2c0.1-0.1,0.2-0.2,0.1-0.3c-0.1-0.8,0.4-1.5,1.1-1.7c0.1,0,0.2,0,0.3,0
				c1.5-0.1,3-0.1,4.5,0.1c1.4,0.2,2.8,0.7,4,1.4c1.6,0.8,3,1.9,4.3,3.1c0.8,0.7,1.6,1.3,2.3,2.1c0.7,0.7,1.1,1.6,1.4,2.5
				c0.1,0.3,0.2,0.6,0.3,0.9c0.2,0.5,0.1,1.1-0.3,1.4c-0.9,1.1-1.8,2-2.9,2.9c-0.8,0.5-1.6,1-2.5,1.6c0.1,0.4,0.3,0.7,0.4,1.1
				c0.4,0.6,0.6,0.7,1.3,0.6c1.7-0.3,3.5-0.4,5.2-0.1c0.3,0.1,0.6,0.2,0.9,0.3c0.3,0.1,0.4,0.4,0.4,0.7c0.1,1-0.3,2-1,2.7
				c-0.5,0.6-1,1.2-1.6,1.8c-0.1,0.1-0.2,0.2-0.2,0.3c0.7,0.4,1.5,0.5,2.3,0.2c0.8-0.3,1.6-0.4,2.5-0.5c0.2,0,0.4-0.1,0.5-0.2
				c0.6-0.4,1-1,1.4-1.6c0.3-0.5,0.8-0.8,1.4-0.7c0.7,0.1,1.2,0.5,1.5,1.1c0,0.2,0,0.5-0.1,0.7c-0.2,0.5-0.5,0.9-0.8,1.4
				c0.3,0.3,0.7,0.5,1,0.8s0.5,0.6,0.2,1s-0.5,0.7-0.7,1c-0.2,0.4-0.7,0.5-1.1,0.4c-0.6-0.2-1.1-0.5-1.7-0.7
				c-0.2-0.1-0.5-0.2-0.7-0.2c-1.2,0.3-2.3,0.7-3.4,1.1c-0.7,0.3-1.3,0.7-1.8,1.2c-1.1,1-2.4,1.9-3.5,2.9c-0.6,0.6-1.5,1-1.6,2
				c-0.1,0.2-0.2,0.4-0.3,0.6c-0.5,0.6-1,1.3-1.6,1.8c-0.8,0.7-1.6,1.4-2.4,2.1l-2.4,2c-0.3,0.2-0.6,0.4-0.8,0.6
				c-1.6,1-3.1,2.1-4.6,3.1c-0.7,0.5-1.4,1.1-2.2,1.5c-0.4,0.3-0.9,0.5-1.3,0.8c-0.1,0-0.2,0.1-0.3,0.2c-0.8,0.8-2.1,1-3,0.3
				c-1-0.6-2-0.9-3-1.4c-0.7-0.4-1.4-0.8-2-1.3c-0.9-0.6-1.8-1.2-2.7-1.9c-0.7-0.5-1.3-1.2-2-1.8c-0.4-0.3-0.7-0.7-1.1-1
				c-1.4-1.2-2.8-2.4-4-3.8c-0.8-0.9-1.4-1.9-2.1-2.8c-0.3-0.4-0.5-0.7-0.9-1c-0.6-0.6-1.2-1.3-1.6-2.1c-0.6-0.9-1.1-1.9-1.6-2.9
				c-0.3-0.6-0.2-1.3,0.1-1.9c0.9-1.5,1.8-3,2.6-4.5c0.9-1.6,1.8-3.2,2.8-4.8c0.5-0.9,1.3-1.6,1.8-2.4c0.6-0.7,1.1-1.5,1.5-2.3
				c0.6-1.4,1.8-2.5,3.3-2.9C74.3,73.2,74.4,73.2,74.5,73.1z M67,83.9c-0.9,1.6-1.6,2.9-2.4,4.2c-0.4,0.8-0.9,1.6-1.3,2.4
				c-0.2,0.3-0.3,0.7-0.3,1.1c0.4,1.5,1.1,2.8,2.1,3.9c0.4,0.6,0.9,1.1,1.3,1.6c1.4,2,3,3.8,4.7,5.4c1.1,1,2.2,2,3.3,3
				c0.1,0.1,0.1,0.1,0.2,0.2c1,0.9,2.1,1.8,3.2,2.6c0.9,0.6,1.8,1.2,2.7,1.7c0.9,0.4,1.8,0.9,2.8,1.3c0.4,0.3,1,0.3,1.4,0.1
				c0.6-0.3,1.2-0.7,1.8-1.1s1.3-0.9,1.9-1.4c0.2-0.2,0.5-0.3,0.8-0.5c0.7-0.5,1.3-0.9,2-1.4c0.2-0.1,0.3-0.3,0.6-0.5
				c-1.6-0.3-3.2-1-4.6-2c-2.1-1.4-4.2-2.9-6.3-4.4c-1-0.7-2-1.5-2.9-2.3c-1.3-1.2-2.5-2.5-3.8-3.7c-0.8-0.9-1.7-1.7-2.5-2.6
				c-0.4-0.5-0.9-1-1.3-1.4s-1.1-0.8-1.2-1.6c0-0.1-0.1-0.1-0.2-0.2C68.3,87,67.5,85.5,67,83.9z M85.9,89.5c0.7-0.3,1.4-0.4,2-0.7
				c1.1-0.4,2.3-0.6,3.5-0.4l2.6,0.3c0.1-0.7,0.3-1.4,0.3-2c0-0.5,0-1,0-1.5c0-0.7-0.2-1.3-0.2-2c-0.1-1.9-1.1-3.6-2.6-4.7
				c-0.7-0.5-1.6-0.8-2.5-0.8c-1.5-0.1-2.9,0.1-4.3,0.7c-2.2,0.9-4.1,2.6-5.4,4.6C81.2,85.4,83.4,87.6,85.9,89.5L85.9,89.5z
				 M73.8,74.6c-0.6,0.3-1.1,0.8-1.5,1.3c-0.2,0.4-0.4,0.8-0.6,1.2c-0.2,0.3-0.2,0.7-0.1,1c0.4,1.5,1.1,2.9,1.9,4.2
				c1.2,2,2.5,3.9,4,5.6c1.2,1.3,2.4,2.5,3.7,3.7c0.9,0.9,1.8,1.7,2.8,2.4c1.3,0.9,2.6,1.7,4,2.4c1.3,0.9,2.8,1.5,4.3,1.9
				c0.3,0.1,0.5,0.2,0.7,0.3l2.1,1c0.3,0.1,0.5,0.2,0.8,0.3c0.7,0.3,1.4,0.6,2.2,0.8c0.5,0.2,1.1,0.1,1.6-0.2
				c0.3-0.3,0.6-0.6,0.8-0.9c0.3-0.3,0.5-0.7,0.7-1.1c-0.8-0.2-1.6-0.5-2.3-0.7c-1.4-0.5-2.7-1-3.9-1.8c-1-0.5-1.9-1-2.9-1.5
				s-1.7-0.9-2.4-1.3c-0.6-0.3-1.1-0.8-1.7-1.1c-1.3-0.7-2.5-1.7-3.5-2.8c-1.3-1.2-2.6-2.3-3.8-3.5c-0.8-0.8-1.6-1.7-2.3-2.6
				c-0.6-0.7-1-1.5-1.6-2.2c-0.7-0.7-1.3-1.7-1.6-2.7c0-0.1-0.1-0.2-0.1-0.2C74.2,77.3,73.8,76,73.8,74.6L73.8,74.6z M100.8,80.8
				l0.4-0.1c0.1,0,0.2-0.1,0.3-0.1c1.4-0.9,2.7-1.9,3.7-3.2c0.6-0.7,0.8-1.2,0.3-2c0-0.1,0-0.1,0-0.2c-0.2-0.7-0.5-1.4-1.1-1.9
				c-0.7-0.6-1.3-1.3-1.9-1.9c-0.5-0.4-1-0.9-1.5-1.3c-0.5-0.4-1.1-0.7-1.6-1c-1.4-1.1-3.1-1.8-4.8-2.2c-0.6-0.1-1.2,0-1.8-0.2
				c-1.1-0.1-2.1-0.1-3.2,0.1c0,0.5,0,0.9,0,1.3s-0.2,0.8-0.2,1.3c0,0,0,0.1,0.1,0.2c0.3,0.9,0.4,1.8,0.3,2.8c0,0.5,0,1,0,1.5
				c1,0.2,1.8-0.2,2.6-0.3s1.8,0.1,2.7,0.1l0.4-0.4l0.1,0.1l-0.1,0.7c1.4,0.5,2.7,1.3,3.8,2.4C100.2,77.7,100.7,79.2,100.8,80.8
				L100.8,80.8z M108.5,84.8c-0.4-0.3-0.8-0.5-1.3-0.5c-0.5,0-1,0-1.5,0c-0.9,0.1-1.9,0.2-2.8,0.3c-0.7,0.2-1.4-0.1-1.9-0.6
				c-0.5-0.5-0.8-1.2-0.9-1.8c-0.1-0.6-0.3-1.2-0.4-1.9c-0.1-0.8-0.4-1.6-0.8-2.3c-0.3-0.6-0.8-1.2-1.3-1.7
				c-1.1-0.8-2.4-1.4-3.8-1.6c-0.7-0.2-1.4-0.2-2,0.1c-0.3,0.1-0.7,0.1-1,0.1c-0.5,0-1,0.1-1.4,0.3l-0.2,1.3
				c0.2,0.1,0.4,0.1,0.6,0.1c0.8,0.1,1.6,0.4,2.3,0.8c1,0.6,1.7,1.5,2.2,2.5c0.6,1.2,1,2.5,1,3.8c0.1,0.9,0.1,1.8,0,2.8
				c-0.1,0.7-0.1,1.4-0.2,2.2c0.7,0,1.4,0.1,2.1,0.1c0.8,0,1.7-0.1,2.5-0.1s1.7,0.1,2.5,0c0.8,0,1.6,0.1,2.4,0.4
				c0.4,0.2,1,0.1,1.2-0.4c0.3-0.3,0.6-0.7,0.9-1C107.5,86.9,108.1,85.9,108.5,84.8L108.5,84.8z M86.8,90.4l2.3,1.6
				c0.7-0.3,1.2-0.8,1.9-0.6c-0.2,0.6-1,0.5-1.3,0.9c1.4,1.1,3,2,4.8,2.5c0.6-0.2,1.1-0.8,1.8-0.8c-0.1,0.8-1,0.7-1.2,1.2l0.6,0.3
				c0.6,0.3,1.3,0.6,1.9,0.9c0.9,0.4,1.8,0.7,2.6,1c0.6,0.2,1.3,0.1,1.8-0.3c1-0.8,1.9-1.5,2.9-2.3c0.6-0.4,1.2-0.9,1.7-1.4
				c0.4-0.5,0.8-1,1.1-1.5c-0.2-0.2-0.3-0.4-0.4-0.7c-0.1-0.4-0.4-0.7-0.8-0.8c-0.5-0.2-1-0.2-1.5-0.1c-0.3,0.1-0.6,0-0.8-0.2
				c-0.3-0.2-0.6-0.4-1-0.4c-1.2-0.1-2.4-0.1-3.6,0c-0.7,0-1.5,0.2-2.2,0.2c-1.8-0.1-3.5-0.2-5.3-0.4c-1-0.2-2-0.2-2.9,0
				C88.3,89.6,87.5,89.9,86.8,90.4z M68.6,81.4c0.7,1.4,1.3,2.8,1.9,4.1c0.1,0.1,0.1,0.3,0.2,0.4c1,1.1,2,2.2,3,3.3
				c0.7,0.8,1.4,1.5,2.1,2.2c1.1,1.2,2.2,2.4,3.4,3.4c1.4,1.3,2.9,2.5,4.3,3.7c0.7,0.5,1.4,0.9,2.1,1.5c1.8,1.5,3.8,2.7,5.9,3.4
				c1.1,0.4,2.2,0.8,3.2,1.2l1.6-1.4l-2.1-1c-2.6-1-5.1-2.3-7.5-3.8c-0.8-0.6-1.8-1.1-2.6-1.6c-2.5-1.7-4.9-3.7-7-5.9
				c-2-2-3.8-4.2-5.4-6.6c-0.8-1-1.3-2.1-1.7-3.2c-0.1-0.4-0.4-0.8-0.8-0.9L68.6,81.4z M82.9,77.6l-0.5,0.7c0.9-0.5,1.8-0.9,2.8-1.1
				c0.5-0.1,1.2-0.3,1.3-1c0,0,0.2-0.1,0.3-0.1l0.1,0.6l1.4-0.2c-0.1-0.3-0.1-0.7,0-1c0.2-1,0.4-1.9,0.5-2.9c0-0.4,0-0.8-0.1-1.2
				l-1,0.9c-0.4,0.4-0.8,0.8-1.3,1.1c-0.7,0.4-1.4,0.7-2,1c-1.4,0.7-2.9,1.2-4.5,1.5c-1.9,0.3-3.6,0.2-4.8-1.5c0,0-0.1-0.1-0.2-0.1
				c-0.1,0.2-0.1,0.4-0.1,0.7c0.1,0.4,0.2,0.8,0.3,1.2c0.1,1.3,0.9,2.3,1.5,3.3c0.5,0.8,1,1.6,1.6,2.3c0.1,0.1,0.3,0.3,0.4,0.4
				l3.4-3.4c0-0.3,0-0.6,0.1-0.7S82.4,77.3,82.9,77.6L82.9,77.6z M84.7,67.4l-0.1,0.2c0.1,0.1,0.2,0.3,0.3,0.3s0.5,0.1,0.8,0.2
				c1.3,0.6,1.7,1.3,0.8,2.5c-0.7,1-1.6,1.7-2.7,2.1c-0.3,0.1-0.7,0.1-0.9,0.3c-1.3,0.5-2.7,0.6-4.1,0.3c-1-0.1-1.7-0.9-1.6-1.9
				c0-0.2,0.1-0.5,0.2-0.7c0-0.1,0.1-0.2,0.1-0.4c-0.1,0-0.3,0.1-0.4,0.2c-0.4,0.3-0.7,0.7-1,1.1c-0.2,0.3-0.5,0.7-0.5,1
				c0,0.7,0.3,1.3,0.8,1.7c0.7,0.5,1.5,0.8,2.3,0.8c1-0.1,2-0.3,2.9-0.6c0.7-0.1,1.3-0.4,1.9-0.7c0.4-0.3,0.9-0.6,1.4-0.8
				c0.2-0.1,0.4-0.2,0.5-0.3c1.1-0.8,2.1-1.7,3-2.7c-0.2-0.5-0.4-0.9-0.7-1.3c-0.4-0.4-0.8-0.8-1.2-1.1L84.7,67.4z M86.5,69.6
				c-1.2-1.2-2.9-1.8-4.6-1.4c-0.4,0.1-0.8,0.3-1.2,0.4c-1.2,0.4-2.2,1.2-2.8,2.3c-0.4,0.8-0.3,1.1,0.5,1.7c0.2,0.1,0.4,0.2,0.7,0.2
				c0.5,0.1,0.9,0.1,1.4,0.2c1.4,0,2.7-0.4,3.9-1C85.3,71.5,86.1,70.6,86.5,69.6L86.5,69.6z M108.9,92.1c0.1,0,0.2-0.1,0.4-0.1
				c0.9-0.4,1.9-0.7,2.9-0.9c0.5-0.1,1,0,1.4,0.2c0.4,0.3,0.8,0.5,1.2,0.7c0.2-0.1,0.3-0.3,0.5-0.4c0.1-0.1,0.1-0.2,0.2-0.3
				c0,0,0-0.1-0.1-0.1l-0.7-0.5c-0.5-0.3-0.6-0.9-0.3-1.4c0,0,0,0,0-0.1c0.3-0.4,0.5-0.8,0.8-1.3l-0.7-0.3c-0.6,0.6-1.1,1.1-1.6,1.6
				c-0.3,0.3-0.6,0.7-1.1,0.8s-0.9,0.2-1.4,0.3l-2.2,0.4L108.9,92.1z M76.6,87.9c-0.5-1.2-1.7-1.5-2.6-2
				C74.6,86.9,75.8,87.1,76.6,87.9L76.6,87.9z"/>
			<path class="st1" d="M64,53.5c0.4,0.6,0.5,1.3,0.3,2c-0.5,1.5-1.2,3-2.1,4.3c-1.1,1.6-2.6,2.8-4.3,3.7c-0.8,0.4-1.8,0.6-2.7,0.7
				c-0.5-0.1-1-0.2-1.5-0.3c-0.1,0-0.3,0-0.5,0c0,0.1,0.1,0.3,0.1,0.4c0.4,0.7,0.1,1.6-0.6,1.9c0,0-0.1,0-0.1,0.1
				c-1.4,0.8-2.8,1.4-4.4,1.8c-1.5,0.3-3.1,0.4-4.6,0.1c-2-0.3-4-0.8-5.9-1.5c-0.9-0.2-1.8-0.7-2.6-1.2c-0.5-0.5-1-1-1.5-1.5
				c-0.1-0.1-0.2-0.3-0.3-0.3c-0.7-0.3-0.7-0.9-0.5-1.5c0.2-0.9,0.6-1.9,1-2.7c0.5-0.9,1-1.8,1.6-2.7c0.2-0.3,0.4-0.6,0.6-0.9
				c-0.2-0.2-0.3-0.4-0.5-0.6c-0.7-0.6-1.1-0.7-1.8-0.2c-0.8,0.5-1.7,1-2.6,1.3c-0.7,0.3-1.4,0.5-2.1,0.7c-0.3,0.1-0.7,0.1-1,0.1
				c-0.4,0-0.5-0.2-0.7-0.5c-0.4-0.6-0.4-1.3-0.3-2c0.2-0.8,0.4-1.5,0.6-2.3c0.1-0.4,0.2-0.8,0.4-1.2c-0.8-0.2-1.6,0.1-2.1,0.6
				c-0.7,0.6-1.4,1.1-2.1,1.5c-0.2,0.1-0.3,0.3-0.4,0.4c-0.3,0.6-0.5,1.2-0.6,1.9c-0.2,1.4-1.3,1.5-2.2,1.2
				c-0.7-0.2-0.9-0.5-0.8-1.3c0-0.2,0.1-0.5,0.1-0.7l0.1-0.6c-0.4-0.1-0.9-0.2-1.3-0.3s-0.6-0.3-0.5-0.9c0.1-0.4,0.1-0.8,0.2-1.1
				c0-0.5,0.4-0.8,0.9-0.8c0.6,0,1.2,0,1.8,0c0.3,0.1,0.7-0.1,0.9-0.3c0.2-0.3,0.6-0.4,0.9-0.7c0.8-0.7,1.6-1.5,2.3-2.2
				c0.2-0.2,0.3-0.5,0.4-0.8c0.6-1.5,1.3-2.9,2.2-4.3c0.2-0.4,0.5-0.9,0.7-1.3c0-0.1,0.1-0.2,0-0.3c-0.4-1.5,0.4-2.7,0.8-4
				c0.4-0.9,0.8-1.8,1.3-2.7c0.5-0.9,0.9-1.9,1.4-2.8c0.2-0.3,0.3-0.6,0.5-0.9c1-1.6,2.1-3.2,3.2-4.9c0.5-0.8,0.9-1.5,1.3-2.3
				c0.2-0.3,0.5-0.7,0.8-1c0.1-0.1,0.2-0.3,0.3-0.4c0.4-1,1.5-1.5,2.5-1.3c0.9,0,1.8,0,2.7,0s2,0.2,3,0.4c1,0.2,2,0.4,3,0.7
				c1,0.3,1.9,0.6,2.8,0.9c1.3,0.4,2.6,0.8,3.8,1.3s2.2,0.9,3.3,1.4c0.9,0.4,1.8,0.9,2.7,1.5c0.6,0.4,1.4,0.7,2,1.1
				c0.3,0.2,0.6,0.4,0.9,0.5c0.5,0.4,1.1,0.7,1.6,1.1c0.6,0.4,1.1,0.9,1.6,1.5c0.4,0.5,0.6,1.1,0.4,1.7c-0.1,1.5-0.3,3-0.4,4.5
				c-0.1,2.1-0.4,4.2-0.8,6.3c-0.2,0.9-0.5,1.8-0.7,2.8s-0.4,1.9-0.5,2.9c0,0.8-0.3,1.7-0.7,2.4C64.9,52.4,64.5,52.9,64,53.5z
				 M66.7,40.5c0.1-0.5,0.1-0.8,0.2-1.2c0.2-2.1,0.4-4.1,0.6-6.2c0.1-0.4,0-0.8-0.2-1.1c-0.9-1.1-2-2-3.3-2.7
				c-0.7-0.4-1.4-0.7-2.1-1.1c-1.1-0.6-2.1-1.2-3.2-1.8c-0.7-0.4-1.5-0.8-2.3-1.1c-1.6-0.6-3.2-1.1-4.8-1.6l-0.9-0.3
				c-0.8-0.2-1.5-0.5-2.3-0.7c-0.8-0.2-1.6-0.4-2.3-0.5c-0.8-0.1-1.6-0.3-2.3-0.4c-1-0.1-2.1-0.2-3.1-0.2c-0.5,0-1.1,0-1.5,0.6
				s-0.6,0.9-0.9,1.4s-0.6,0.9-0.9,1.3s-0.4,0.8-0.7,1.2s-0.4,0.6-0.6,0.9s-0.3,0.4-0.4,0.7l-1,1.7c1.8-0.3,3.6-0.2,5.4,0.2
				c2.3,0.5,4.6,0.9,7,1.4c0.7,0.1,1.4,0.3,2.1,0.5c1.9,0.7,3.9,1.5,5.8,2.2c1.4,0.5,2.7,1.1,4.1,1.7c0.9,0.4,1.8,0.7,2.7,1.1
				c0.2,0.1,0.4,0.1,0.5,0.2c0.3,0.5,0.8,0.7,1.3,0.9c1,0.5,1.9,1.2,2.6,2C66.3,40.1,66.5,40.3,66.7,40.5L66.7,40.5z M47,42.8
				c-1.7,2.5-4.4,3.2-7,4c0.2,0.7,0.3,1.4,0.5,2.1c0.1,0.4,0.3,0.9,0.5,1.3c0.4,0.6,0.7,1.1,1,1.7c0.4,0.9,1,1.7,1.8,2.2
				c1,0.7,2.1,1.1,3.2,1.2c0.7,0,1.3-0.2,1.9-0.5c1.4-0.5,2.6-1.3,3.7-2.4c0.7-0.8,1.4-1.7,1.8-2.6c0.5-1.2,1-2.4,1.2-3.6
				C53,44.7,50.1,43.6,47,42.8z M64.1,51.8c0.5-0.5,0.8-1.2,0.9-1.8c0.1-0.4,0.1-0.8,0.1-1.2c0.1-0.3,0-0.6-0.2-0.9
				c-1-1.3-2.2-2.4-3.5-3.2c-1.9-1.3-3.9-2.6-6-3.7c-1.6-0.8-3.2-1.4-4.8-2c-1.2-0.5-2.3-0.8-3.6-1.2c-1.7-0.3-3.3-0.5-5-0.7
				c-1-0.2-2-0.2-3-0.2c-0.9,0.1-1.8,0.1-2.7,0c-1.5-0.1-3.1,0-4.6,0.1c-0.6-0.1-1.2,0.3-1.5,0.9c-0.2,0.6-0.4,1.2-0.6,1.7
				c0,0.2,0,0.4,0,0.6c0.7,0,1.3-0.1,2-0.2c1.5-0.2,3.1-0.2,4.6,0c1,0,2,0.3,3,0.3c1.5,0,3,0.2,4.5,0.6c0.2,0.1,0.5,0.1,0.7,0.1
				c0.6,0.1,1.3,0.2,1.9,0.4c0.9,0.2,1.7,0.5,2.6,0.9c0.8,0.4,1.7,0.7,2.6,0.9c0.6,0.2,1.2,0.4,1.8,0.6c1.1,0.5,2.2,1,3.3,1.6
				c0.8,0.4,1.6,0.9,2.3,1.4c0.9,0.4,1.7,1,2.4,1.8c0,0.1,0.1,0.1,0.2,0.2C62.8,49.3,63.4,50.5,64.1,51.8L64.1,51.8z M44.4,60.7
				c-1.5,0.1-3-0.1-4.4-0.7c-1.4-0.8-2.5-1.9-3.2-3.3c-0.1,0.1-0.3,0.2-0.4,0.3c-1,1.4-1.8,2.9-2.3,4.4c-0.3,0.9-0.3,1.6,0.6,2.1
				c0,0,0,0,0,0.1c0.4,0.6,1,1,1.7,1.3l2.5,1c0.6,0.2,1.2,0.4,1.8,0.6c0.7,0.2,1.3,0.3,2,0.3c1.2,0.1,2.3,0.6,3.5,0.2
				c0.2,0,0.4,0,0.6,0c0.6,0,1.1-0.1,1.6-0.2c1.4-0.5,2.7-1.1,4-1.7c0.1-1-0.9-1.7-0.7-2.6c0,0-0.1-0.1-0.1-0.1
				c-0.6-0.6-1.1-1.4-1.3-2.3c-0.2-0.5-0.4-1-0.6-1.7c-1.6,0.9-3,2.2-4.8,2.2c-0.1,0.3,0,0.7-0.5,0.7L44.4,60.7z M28.2,56
				c0.3,0,0.6,0,0.9-0.1c1-0.4,2-0.8,3-1.3c0.6-0.3,1.1-0.6,1.7-1c0.4-0.2,0.8-0.2,1.2-0.1c0.8,0.3,1.5,0.9,2,1.7
				c0.6,1,1.3,2,2.2,2.8c0.7,0.6,1.5,1.1,2.3,1.4c1.1,0.2,2.3,0.3,3.4,0.1c0.8-0.1,1.6-0.3,2.3-0.8c0.4-0.3,0.8-0.5,1.2-0.7
				c0.5-0.2,0.8-0.5,1.1-0.9L49.2,56c-0.2,0.1-0.5,0.1-0.7,0.1c-0.8,0.1-1.6,0.2-2.4,0.1c-1.1-0.2-2.1-0.7-3-1.4
				c-1.5-1.4-2.6-3.1-3.2-5c-0.3-0.9-0.6-1.8-0.9-2.7c-0.8,0.3-1.4,0.5-2.1,0.8s-1.5,0.7-2.3,1.1s-1.5,0.6-2.3,1
				c-0.7,0.3-1.5,0.5-2.3,0.5c-0.5,0-0.9,0.4-1,0.8c-0.1,0.4-0.3,0.8-0.4,1.2C28.3,53.7,28.1,54.8,28.2,56z M42.6,41.6
				c-0.8-0.1-1.5-0.3-2.3-0.3c-0.9-0.1-1.8-0.1-2.7-0.1c-0.4,0-0.7,0.2-0.9,0.5c-0.2,0.4-0.4,0.8-1,1c-0.1-0.7,0.6-1,0.7-1.6
				c-1,0-2-0.1-2.9-0.1c-0.9,0-1.9,0-2.8,0.2c-0.6,0.1-1.1,0.4-1.4,1c-0.6,1.1-1.2,2.2-1.8,3.2c-0.5,0.8-0.9,1.8-1.2,2.7
				c-0.1,0.3-0.2,0.7-0.2,0.9c0.2,0.2,0.5,0.4,0.7,0.5c0.2,0.3,0.6,0.4,1,0.4c0.5,0,1-0.2,1.5-0.5c0.2-0.2,0.5-0.2,0.8-0.1
				c0.4,0.1,0.8,0.1,1.1,0c1.1-0.3,2.1-0.7,3.1-1.2c1.2-0.7,2.5-1.2,3.8-1.7c1.2-0.5,2.4-0.9,3.7-1.2c1.2-0.3,2.3-0.8,3.2-1.6
				c0.4-0.4,0.8-0.7,1.1-1.1c-0.9-0.4-1.9-0.6-2.9-0.6c-0.5,0.5-0.7,1.2-1.6,1.1L42.6,41.6z M32,34.3c1.2,0,2.2,0.1,3.2,0.1
				c1.4,0,2.9,0,4.3,0.1c2.1,0.2,4.1,0.7,6.2,1c3,0.6,5.9,1.5,8.7,2.7c2.7,1,5.2,2.3,7.6,3.9c1.1,0.6,2.1,1.4,2.9,2.3
				c0.2,0.3,0.6,0.4,1,0.4l0.3-1.5c-0.9-0.7-1.7-1.3-2.4-2.1c-1-1-2.2-1.7-3.6-2.2c-1.4-0.6-2.9-1.2-4.3-1.9
				c-1.8-0.8-3.6-1.6-5.5-2.2c-1.4-0.5-2.9-0.9-4.3-1.3s-3-0.8-4.6-1.1c-1-0.2-2-0.4-3.1-0.4c-1.6,0-3.2,0-4.8,0.1
				c-0.2,0-0.4,0.1-0.6,0.2L32,34.3z M50.1,55.5c0.1,0.6,0.2,1.1,0.3,1.5s0.3,1,0.5,1.5c0.1,0.2,0.1,0.3,0.2,0.5
				c0,0.5,0.3,0.8,0.7,1.3c0.2-0.4,0.4-0.7,0.5-1.1c0.2-0.7,0.6-1.4,1.1-1.9c0.5-0.5,1-1.1,1.5-1.6c0.7-0.9,1.6-1.7,2.5-2.4
				c0.9-0.7,2-1.2,3.1-1.4c0.8-0.2,1.6-0.1,2.3,0.3c0.2,0.1,0.5,0.2,0.7,0.2c0-0.2-0.1-0.5-0.2-0.7c-0.2-0.3-0.5-0.6-0.7-1
				c-0.6-1.1-1.7-1.7-2.7-2.5c-0.8-0.6-1.6-1.1-2.5-1.5c-0.1-0.1-0.3-0.1-0.4-0.1L55,51.4l0.3,0.2c-0.2,0.9-0.3,1.1-0.7,1v-0.7
				c-0.3,0.4-0.6,0.8-0.9,1.1c-0.3,0.3-0.8,0.5-1.1,0.8s-0.9,0.8-0.8,1.5c0,0-0.1,0.1-0.2,0.2L51.1,55L50.1,55.5z M62.4,57h0.2
				c0.1-0.4,0.2-0.8,0.4-1.2c0.9-1.2,0-2.2-1-2.7c-0.8-0.4-1.8-0.3-2.6,0.1c-1,0.5-1.9,1.1-2.6,1.8c-0.7,0.5-1.2,1.1-1.7,1.8
				c-0.2,0.4-0.7,0.6-1,1c-0.8,1.1-1.3,2.4-1.8,3.7c0.5,1.1,1.7,1.1,2.5,1.7c0.5-0.6,1.5-0.1,2-0.8c-0.2-0.4-0.5-0.2-0.7-0.2
				c-0.4,0-0.8,0-1.1,0c-1-0.2-1.2-0.5-1.1-1.5c0.2-1.4,0.9-2.7,2-3.5c0.2-0.1,0.3-0.2,0.4-0.3c0.9-0.9,2-1.5,3.2-1.9
				c0.7-0.2,1.5-0.2,2.2,0.1c0.3,0.1,0.6,0.4,0.6,0.8C62.3,56.3,62.4,56.7,62.4,57z M56,61.8c1-0.2,2-0.1,2.9-0.7
				c0.5-0.3,0.9-0.7,1.3-1.1c0.9-0.8,1.5-1.9,1.7-3.1c0-0.4,0.1-0.8-0.3-1.1c-0.4-0.3-0.8-0.4-1.3-0.3c-0.5,0.2-1.1,0.3-1.6,0.5
				c-1,0.5-1.8,1.1-2.6,1.8c-0.9,0.8-1.5,1.8-1.7,3c-0.1,0.6,0,0.8,0.6,1C55.3,61.8,55.7,61.8,56,61.8z M19.2,52.8l1,0.2
				c0.5,0.1,1,0.5,0.9,1.1c0,0.1,0,0.1,0,0.2c-0.1,0.5-0.1,0.9-0.2,1.4h0.7c0.3-0.8,0.7-1.5,0.9-2.2c0.4-0.8,1-1.4,1.7-1.8
				c0.6-0.4,1.2-0.8,2-1.3L25,49.4c-0.3,0.3-0.6,0.7-0.9,1c-0.3,0.3-0.6,0.6-1,0.9c-0.4,0.4-1,0.7-1.6,0.7c-0.5,0-1.1-0.1-1.7-0.2
				L19.2,52.8z M56.2,40.6c0.9,1,2,0.7,3.1,0.9C58.4,40.8,57.2,41,56.2,40.6L56.2,40.6z"/>
			<path class="st1" d="M31.2,129.1l0.5-1.2c0.2-0.4,0-0.8-0.3-1c-1-0.9-2-1.8-3-2.8c-0.5-0.5-0.8-1.1-1.1-1.7
				c-0.3-0.6-0.1-0.8,0.3-1.3c0.7-0.6,1.6-1,2.5-0.9c0.7,0,1.4,0,2.1,0c0.2,0,0.5-0.1,0.7-0.1c-0.1-0.3-0.2-0.6-0.3-0.9
				c-0.1-0.2-0.3-0.5-0.5-0.6c-0.9-0.5-1.8-1.1-2.6-1.8c-0.2-0.1-0.4-0.2-0.6-0.2c-0.6-0.1-1.3-0.1-1.9,0c-1.3,0.3-1.8-0.6-1.9-1.6
				c-0.1-0.7,0.2-1,0.9-1.2c0.4-0.1,0.8-0.2,1.3-0.3c0-0.4-0.1-0.9-0.1-1.3s0.1-0.7,0.6-0.8s0.8-0.1,1.2-0.2c0.4-0.1,0.9,0.2,1,0.6
				c0.2,0.5,0.4,1.1,0.6,1.7c0,0.3,0.3,0.6,0.6,0.8c0.3,0.2,0.6,0.5,0.9,0.6c0.9,0.5,1.9,1,2.9,1.5c0.6,0.1,1.2,0.2,1.8,0.2
				c1.3,0.2,2.6,0.4,3.9,0.6c0.7,0.2,1.7,0.5,2.4-0.2c0.2-0.1,0.5-0.1,0.8-0.1c0.8,0,1.7-0.1,2.5,0s2,0.2,2.9,0.4s2.1,0.3,3.1,0.4
				c0.3,0.1,0.7,0.1,1,0.2c1.8,0.5,3.7,1,5.5,1.4c0.9,0.2,1.7,0.3,2.6,0.6c0.5,0.1,0.9,0.3,1.3,0.4c0.2,0.1,0.3,0.1,0.5,0.1
				c1,0.1,1.8,0.9,2.1,1.9c0.4,1.2,0.8,2.4,1.1,3.7c0.1,0.6,0.2,1.3,0.3,1.9c0.2,1.1,0.3,2.2,0.4,3.3c0.1,0.9,0.1,1.8,0,2.7
				c0,0.4,0,0.9,0,1.3c0,1,0.1,1.9,0,2.9s-0.2,2.1-0.3,3.2c-0.1,0.7-0.2,1.3-0.3,2c0,0.2-0.1,0.4-0.1,0.6c-0.2,0.7-0.3,1.4-0.4,2.2
				c-0.1,0.6-0.2,1.2-0.4,1.8c-0.2,0.6-0.3,1.3-0.6,1.9c-0.2,0.7-0.5,1.3-0.8,1.9c-0.2,0.3-0.4,0.5-0.7,0.6
				c-0.2,0.1-0.5,0.2-0.7,0.3c-2.3,0.6-4.5,1.1-6.8,1.7c-1.3,0.3-2.5,0.5-3.8,0.7c-1,0.1-1.9,0.1-2.9,0.2c-0.9,0.1-1.7,0.2-2.6,0.4
				c-1.6,0.5-3.3,0.3-4.7-0.6c-0.4,0.6-1.1,1-1.9,1c-1.7,0.1-3.5-0.2-5.1-0.6c-1.7-0.5-3.3-1.5-4.5-2.8c-0.6-0.7-1-1.6-1.3-2.4
				c-0.2-0.5-0.2-1.1-0.2-1.6c0-0.1,0-0.3-0.1-0.5l-0.4,0.3c-0.5,0.5-1.4,0.6-2,0.1c-0.4-0.4-0.8-0.7-1.1-1.1
				c-0.1-0.1-0.1-0.2-0.2-0.3c-1.3-1.2-2.3-2.6-3-4.3c-0.2-0.5-0.4-1.1-0.5-1.6c-0.4-1.7-0.6-3.5-0.6-5.3c0-1.1,0-2.1,0-3.1
				c0.1-1.1,0.4-2.1,1.1-2.9c0.1-0.2,0.2-0.3,0.2-0.5c0.2-0.4,0.4-0.8,0.9-0.8c1.2-0.1,2.5-0.1,3.7,0
				C28.7,128.4,30,128.7,31.2,129.1z M55.6,119.4c0.3,0.7,0.6,1.3,0.8,2c0.5,1.6,0.8,3.3,0.9,5c0.2,1.4,0.3,2.9,0.5,4.3
				c0.3,1.7,0.4,3.3,0.3,5c0,0.9-0.1,1.8-0.2,2.7c-0.1,1.9-0.2,3.8-0.3,5.7c-0.1,1-0.1,2-0.2,3c0,0.2,0,0.5-0.1,0.7
				c-0.3,0.5-0.5,1.1-0.5,1.7c-0.1,1.1-0.5,2.1-1,3c-0.1,0.2-0.2,0.5-0.3,0.7c0.3,0,0.7-0.1,1-0.1c2-0.5,4-1.1,6-1.4
				c1.2-0.2,1.6-1,2-1.8c0.4-0.9,0.6-1.8,0.8-2.7c0.2-1.1,0.4-2.1,0.5-3.2c0.4-2.1,0.7-4.3,0.8-6.4c0-1.2,0-2.4,0-3.6
				c0-0.9,0-1.8-0.1-2.6c0-0.9,0-1.8-0.2-2.7c-0.3-1-0.2-2-0.6-3s-0.6-2.1-0.9-3.1c-0.1-0.5-0.5-0.9-0.9-1.1
				c-0.6-0.2-1.3-0.4-1.9-0.5s-1.6-0.3-2.4-0.5c-0.4-0.1-0.8-0.2-1.2-0.3l-2-0.4L55.6,119.4z M40.8,129.9c-0.3,0.3-0.6,0.5-0.9,0.8
				c-0.9,0.5-1.7,1.1-2.3,1.9c-0.3,0.4-0.6,0.8-1,1.1c-1.3,1.3-1.8,3.2-1.6,5c0.1,1,0.6,1.9,1.4,2.6c1.5,1.7,3.6,2.9,5.8,3.4
				c1.5,0.2,3,0.2,4.4,0.1c0.5-3.1,0.6-6.2,0.4-9.3C43.6,133.9,43.4,133.4,40.8,129.9z M43.6,117.9c0.4,0.8,0.7,1.5,1,2.1
				c0.6,1.4,1.1,2.8,1.4,4.3c0.3,1,0.5,2.1,0.8,3.1c0.1,0.4,0.2,0.7,0.3,1.1s0.1,0.6,0.2,0.9c0.1,0.6,0.2,1.2,0.3,1.9
				c0,0.3,0.1,0.6,0.1,0.9c0.1,0.8,0.2,1.5,0.3,2.2c0.1,1.6-0.1,3.2,0,4.9c0,2.5-0.2,5.1-0.7,7.6c-0.1,0.8-0.4,1.5-0.5,2.3
				s-0.8,1.4-0.8,2.2c-0.4,1.1-1.1,2.1-2,2.9c0.6,0.3,1.3,0.4,2,0.3c0.5-0.1,1-0.2,1.4-0.4c0.2,0,0.4-0.2,0.5-0.3
				c0.9-1.3,1.5-2.7,1.9-4.2c0.3-1.3,0.8-2.7,1-4c0.3-1.6,0.5-3.3,0.8-4.9c0.1-0.8,0-1.7,0.1-2.6c0.2-3,0-6.1-0.8-9
				c-0.3-0.9-0.5-1.8-0.7-2.8c0-0.2-0.1-0.4-0.1-0.6c-0.4-0.9-0.8-1.8-1-2.7c-0.4-1.5-1-3-1.6-4.4c-0.2-0.5-0.5-1-1.2-1.1
				s-1.1,0-1.7,0C44.3,117.8,44,117.8,43.6,117.9z M29.2,138.7c-1.5-2.8-1-6.3,1.3-8.5c-0.3-0.1-0.5-0.3-0.8-0.4
				c-1.5-0.4-3.1-0.6-4.7-0.6c-0.9,0-1.5,0.1-1.7,1.1c0,0,0,0,0,0.1c-0.5,0.7-0.8,1.4-0.8,2.3c0,0.9-0.1,1.7-0.1,2.6
				c0,0.6,0,1.2,0,1.8c0.1,1,0.4,2.1,0.5,3.1c0.2,1.4,0.7,2.7,1.5,3.9c0.5,0.7,1,1.4,1.6,2.1c0.5,0.6,1.1,1.1,1.6,1.6
				c0.9-0.3,1.2-1.3,2.1-1.5c0.1,0,0.1-0.1,0.1-0.2c0.3-0.5,0.7-1,1.1-1.4l2-1.7c-0.3-0.3-0.5-0.5-0.8-0.8c-1.2-0.7-2.2-1.8-2.8-3
				c-0.2,0-0.4,0-0.6,0s-0.1-0.1-0.2-0.2L29.2,138.7z M40.2,129.1c-0.5-0.6-0.9-1.2-1.3-1.7c-1.1-1.2-2.3-2.5-3.5-3.7
				c-0.5-0.6-1-1.3-1.3-2.1c-0.2-0.5-0.7-0.8-1.3-0.6c-0.2,0.1-0.4,0.1-0.6,0.1c-0.9-0.1-1.8,0-2.7,0.2c-0.4,0.1-0.8,0.2-1.3,0.4
				c0.2,0.4,0.4,0.9,0.7,1.2c0.9,1.1,2,2.1,3.1,3c0.6,0.4,0.9,1.1,0.8,1.8c-0.1,0.7-0.4,1.3-0.8,1.9c-0.4,0.6-0.9,1.1-1.3,1.7
				c-1.1,1.4-1.5,3.2-1.3,4.9c0.2,0.8,0.5,1.6,0.8,2.3c0.3,1,1,1.8,1.8,2.3c0.3,0.2,0.6,0.4,0.8,0.7c0.3,0.4,0.7,0.7,1.2,0.9
				l1.1-0.8c-0.8-1.1-1.3-2.4-1.3-3.8c0-1.2,0.4-2.5,1-3.5c0.9-1.4,2-2.6,3.3-3.6C38.8,130.2,39.5,129.7,40.2,129.1L40.2,129.1z
				 M34.2,117.4c-0.1,0.3,0,0.6-0.2,0.7c-0.5,0.5-0.4,1.4,0.1,1.8c0.7,0.6,1.1,1.4,1.3,2.3c0,0.1,0,0.1,0.1,0.2
				c0.7,0.9,1.5,1.8,2.2,2.6c0.8,0.8,1.7,1.6,2.4,2.5c0.8,1.2,1.8,2.2,2.7,3.4c0.6,0.9,1.3,1.7,2.2,2.4c0.5,0.4,1.2,0.7,1.8,0.9
				c0.1-0.7,0.1-1.4-0.1-2.1c0-0.5-0.3-0.9-0.8-0.9c-0.5-0.1-0.9-0.3-1.1-0.8c0.6-0.3,1,0.4,1.6,0.4c-0.2-1.8-0.6-3.6-1.3-5.2
				c-0.6-0.4-1.3-0.2-1.8-0.9c0.6-0.4,1.1,0.3,1.7,0.1c-0.3-0.9-0.5-1.8-0.8-2.7s-0.7-1.8-1-2.6c-0.2-0.5-0.7-0.9-1.2-1
				c-1.2-0.2-2.3-0.4-3.5-0.6c-1.3-0.3-2.6-0.4-3.9-0.3C34.5,117.5,34.4,117.5,34.2,117.4L34.2,117.4z M50,118.3
				c0.1,0.4,0.2,0.7,0.3,1c0.3,1.1,0.7,2.2,1,3.3s0.7,2.1,1,3.2c0.3,1.3,0.4,2.6,0.7,3.8c0.5,2.5,0.8,5.1,0.7,7.6
				c-0.1,1.2,0,2.5-0.1,3.7c-0.2,2.7-0.6,5.5-1.2,8.1c-0.2,1.3-0.7,2.5-1.3,3.6c-0.3,0.4-0.3,0.8,0,1.2l1.4-0.2
				c0.6-1.4,1.1-2.6,1.6-3.9c0.1-0.3,0.2-0.7,0.3-1c0.2-1.6,0.3-3.1,0.5-4.7c0-0.5,0.1-1,0.1-1.5c0.1-1.4,0.2-2.7,0.3-4.1
				c0-0.3,0-0.6,0-1c0-1.7,0.1-3.4,0-5.1s-0.3-3.2-0.5-4.8c0-0.9-0.2-1.9-0.4-2.8c-0.6-1.9-1.3-3.7-2-5.6c-0.1-0.3-0.3-0.6-0.5-0.7
				C51.2,118.5,50.6,118.4,50,118.3L50,118.3z M42.9,154c0.3-0.1,0.5-0.3,0.7-0.5c0.2-0.3,0.4-0.7,0.7-1c0.7-1,1.2-2.1,1.5-3.3
				c0.3-0.9,0.5-1.8,0.6-2.7c0-0.2,0-0.4,0-0.6c-0.8,0-1.7,0.1-2.5,0s-1.7-0.2-2.4-0.3c-0.1,0.2-0.2,0.4-0.3,0.4
				c-0.4,0-0.8,0.2-1.1-0.3l0.7-0.2l-3.4-1.8c-0.3,0.1-0.7,0.1-1,0l0.4-0.5l-1-0.9c-0.3,0.2-0.5,0.5-0.7,0.6c-1,0.3-1.7,1.2-2.6,1.6
				c-0.4,0.2-0.6,0.6-0.7,1c0.4,0.1,0.7,0.1,1,0.1c0.8,0,1.6,0.1,2.3,0.4c0.6,0.3,1.3,0.6,2,0.8c1.1,0.3,2.1,0.8,3,1.4
				c1.2,0.7,2.1,1.7,2.8,2.9c0.2,0.5,0.4,1.1,0.3,1.7C43,153.2,43,153.5,42.9,154z M38.2,154.5v0.1c0.5-0.1,1-0.1,1.6,0
				c0.6,0.1,1.2,0.2,1.6-0.3c0.4-0.4,0.6-1,0.7-1.6c-0.1-1.2-0.7-2.3-1.8-3c-1.2-1-2.7-1.8-4.2-2.2c-0.4-0.1-0.7-0.4-1.1-0.6
				c-1.3-0.3-2.7-0.5-4.1-0.5c-0.9,0.9-0.5,1.9-0.8,2.9c0.7,0.4,0.6,1.4,1.4,1.7c0.4-0.2,0.1-0.5,0-0.6c-0.2-0.5-0.4-1-0.4-1.5
				c-0.1-0.5,0.3-1.1,0.8-1.1c0,0,0,0,0,0c1.1-0.3,2.3-0.2,3.3,0.2l1.9,1c1.1,0.6,1.9,1.5,2.5,2.6c0.6,1,0.7,2.5-1,2.8
				C38.5,154.4,38.4,154.5,38.2,154.5L38.2,154.5z M37.4,154h0.2c0.7,0,1.4,0,1.8-0.6s0-1.4-0.4-2c0,0,0,0-0.1-0.1
				c-0.8-1.1-1.9-2-3.2-2.6c-0.9-0.6-2.1-0.8-3.1-0.6c-0.8,0.1-1,0.3-0.9,1.2c0.2,1,0.6,1.9,1.3,2.7C34.2,153.2,35.7,153.9,37.4,154
				L37.4,154z M33.5,116.6c-0.1-0.1-0.2-0.1-0.3-0.2c-0.7-0.4-1.5-0.7-2.2-1.1s-1.4-0.9-1.3-1.9c0-0.4-0.1-0.7-0.3-1.1
				c-0.3-0.1-0.7-0.1-1,0.1c0,0.2,0.1,0.5,0.1,0.8c0.2,0.5-0.1,1-0.6,1.2c-0.1,0-0.2,0.1-0.3,0.1c-0.5,0.1-1,0.2-1.5,0.3l0.4,0.8
				c0.2,0,0.4-0.1,0.5-0.1c1.5-0.2,2.9,0.2,4.1,1.2c0.5,0.5,1.2,0.9,1.8,1.4L33.5,116.6z M51.9,143.4c-0.3,0.6-0.3,1.4,0,2
				c0.1,0.1,0,0.4,0.1,0.5s0.1,0.5,0.2,0.8C52.3,145.6,52.2,144.4,51.9,143.4z"/>
			<path class="st1" d="M146.6,117c0.1-0.1,0.3-0.2,0.4-0.3c0.5-0.6,1.5-0.7,2.1-0.2c0.3,0.1,0.5,0.3,0.7,0.5
				c0.8,0.8,1.8,1.4,2.6,2.3c0.9,1.1,1.7,2.4,2.2,3.8c0.8,2.2,1.4,4.6,1.6,6.9c0.2,1.2,0.1,2.4-0.2,3.5c-0.2,0.6-0.4,1.2-0.7,1.8
				s-0.7,0.6-1.1,0.6c-1.4,0.3-2.8,0.4-4.2,0.4c-0.6,0-1.1-0.1-1.7-0.2l-1.1-0.1c-0.1,0.2-0.2,0.4-0.3,0.7c-0.3,1-0.2,1.4,0.7,1.8
				c0.6,0.3,1.1,0.6,1.6,1c0.9,0.6,1.7,1.4,2.4,2.2c0.2,0.2,0.3,0.4,0.4,0.7c0.2,0.3,0.1,0.7-0.1,1c-0.6,0.8-1.6,1.3-2.6,1.4
				c-0.6,0.1-1.2,0.2-1.8,0.3c-0.2,0-0.4,0.1-0.7,0.2c0.3,0.8,0.6,1.4,1.6,1.6c0.5,0.1,1,0.4,1.4,0.8c0.8,0.7,2,0.8,2.9,0.4
				c0.5-0.1,1-0.4,1.6,0c0.7,0.5,1,1.3,0.8,2.1c-0.1,0.2-0.3,0.3-0.5,0.4c-0.5,0.2-1,0.4-1.5,0.6c0.1,0.4,0.2,0.8,0.3,1.2
				s0,0.7-0.5,0.9c-0.4,0.1-0.7,0.2-1.1,0.3c-0.4,0.2-0.9,0-1.1-0.4c-0.3-0.5-0.6-1-0.8-1.6c-0.1-0.4-0.3-0.7-0.8-0.7
				c-0.2,0-0.4-0.1-0.6-0.2c-0.5-0.2-1.1-0.5-1.6-0.7s-1.1-0.3-1.6-0.5c-0.2-0.1-0.4-0.1-0.6-0.1c-1.3,0-2.6,0.1-3.9,0.1
				c-0.8,0-1.7-0.1-2.5-0.1c-0.3,0-0.5,0-0.8,0.1c-0.7,0.5-1.6,0.8-2.5,0.8c-1.5,0.2-2.9,0.3-4.4,0.2c-1-0.1-2,0-3.1,0
				c-0.3,0-0.6,0-0.9-0.1c-1.5-0.2-3.1-0.4-4.6-0.5c-0.6-0.1-1.2-0.1-1.8-0.1c-1.1,0-2.2-0.1-3.3-0.4c-0.1,0-0.2-0.1-0.3-0.1
				c-1.1,0.1-2.2-0.6-2.5-1.7c-0.4-1.1-1-2-1.4-3.1c-0.3-0.7-0.5-1.5-0.7-2.3c-0.3-1-0.6-2-0.8-3.1c-0.2-0.9-0.4-1.8-0.4-2.7
				c0-0.4-0.1-0.9-0.2-1.3c-0.2-1.3-0.4-2.6-0.5-3.9c-0.2-1.7-0.2-3.5,0.1-5.2c0.1-0.5,0.1-0.9,0-1.4c-0.1-0.9,0-1.7,0.1-2.6
				c0.1-1.1,0.4-2.2,0.7-3.2c0.2-0.6,0.7-1.2,1.3-1.4c1.5-0.6,2.9-1.2,4.4-1.7c1.8-0.7,3.7-1.4,5.5-2c1-0.3,2.1-0.5,3.2-0.7
				c0.9-0.2,1.7-0.4,2.6-0.7c1.5-0.7,3.2-0.7,4.6-0.1c0.4-0.8,1.2-1.2,2.1-1.3c1.2-0.1,2.4-0.2,3.6-0.2c0.7,0,1.3,0.2,2,0.3
				c0.6,0.2,1.3,0.4,1.9,0.6c1.7,0.7,3.1,1.9,4,3.4c0.2,0.5,0.4,1,0.4,1.5C146.5,116.7,146.6,116.8,146.6,117z M119.8,115.5
				c-0.4,0.1-0.7,0.2-1.1,0.3c-1.3,0.5-2.5,1-3.8,1.6c-0.8,0.3-1.5,0.5-2.3,0.8c-0.7,0.4-1.2,1.1-1.3,1.9c-0.2,0.9-0.3,1.8-0.4,2.7
				c-0.1,1.1-0.1,2.2-0.1,3.2c-0.1,2.1-0.1,4.3,0.2,6.4c0.3,1.5,0.3,3.1,0.7,4.6c0,0.1,0,0.2,0.1,0.4c0.1,0.8,0.2,1.6,0.4,2.4
				s0.5,1.6,0.7,2.4c0.5,1.7,1.2,3.4,2,5.1c0.2,0.4,0.5,1,1.1,1c0.6,0,1.2,0.1,1.8,0.2c0.5,0.1,1,0.1,1.5,0.2c0.5,0,0.9,0,1.4,0
				c0.3,0,0.6,0.1,0.9,0.1c0.8,0,1.5,0,2.2,0.2c0.2,0,0.4,0,0.6,0c-0.4-0.6-0.7-1.2-1-1.9c-0.5-1.2-0.9-2.4-1.2-3.6
				c-0.8-3.1-2-6.1-2.3-9.3c-0.2-1.6-0.4-3.1-0.5-4.7c-0.1-1.1-0.2-2.3-0.2-3.4c-0.2-1.9-0.3-3.7-0.2-5.6
				C119,118.7,119.3,117.1,119.8,115.5L119.8,115.5z M131.1,112.7c-0.7-0.2-1.3-0.2-2,0c-0.4,0.1-0.9,0.3-1.3,0.5
				c-0.3,0.1-0.5,0.3-0.6,0.6c-0.7,1.4-1.1,3-1.3,4.6c-0.2,2.2-0.4,4.5-0.6,6.7c0,2.1,0.2,4.2,0.5,6.3c0.2,1.4,0.4,2.7,0.8,4.1
				c0.4,1.3,0.8,2.6,1.4,3.8c0.6,1.2,0.8,2.6,1.8,3.6c0.1,0.2,0.2,0.4,0.3,0.6c0.3,0.7,0.6,1.4,0.9,2.1c0.1,0.3,0.3,0.5,0.4,0.8
				c0.4,0.7,0.7,1.4,1.1,2c0.3,0.5,0.8,0.9,1.4,0.9c0.4,0,0.8-0.1,1.2-0.2c0.4-0.1,0.8-0.2,1.2-0.4c-0.5-0.7-0.9-1.3-1.3-1.9
				c-0.8-1.3-1.5-2.6-2-4c-0.4-0.9-0.8-1.9-1.2-2.8s-0.7-1.6-1-2.5c-0.3-0.9-0.6-1.8-0.9-2.7c-0.3-1.3-0.5-2.5-0.7-3.8
				c-0.1-1.4-0.4-2.8-0.5-4.2s-0.2-2.8-0.3-4.2c0-0.9,0.2-1.8,0.2-2.8c-0.1-1.1,0.1-2.2,0.5-3.2c0-0.1,0-0.2,0-0.2
				C129.5,114.9,130.3,113.8,131.1,112.7L131.1,112.7z M137.6,136.5c0.3-0.3,0.6-0.6,0.9-0.9c0.8-0.6,1.5-1.3,2-2.1
				c0.2-0.4,0.5-0.8,0.8-1.2c0.9-1.2,1.3-2.6,1.1-4.1c-0.1-1.2-0.3-2.4-1.5-3.1c-0.1,0-0.1-0.1-0.2-0.2c-1.1-1-2.5-1.8-3.9-2.3
				c-1.1-0.3-2.3-0.5-3.4-0.4c-1.2,0.1-2.3,0.2-3.5,0.6c-0.1,3.1,0.3,6.3,0.9,9.4C133.8,132.3,135.6,134.4,137.6,136.5L137.6,136.5z
				 M147.9,126.1c0.6,1.4,1.4,2.7,1.4,4.4c-0.1,1.6-0.6,3.1-1.5,4.4c0.3,0.1,0.5,0.2,0.8,0.2c1.5,0.2,3.1,0.2,4.6,0
				c0.9,0,1.6-0.6,1.7-1.5c0.2-0.7,0.3-1.5,0.4-2.3c0-1.1-0.3-2.1-0.4-3.2c0-0.5-0.1-0.9-0.2-1.3c-0.1-0.6-0.4-1.1-0.6-1.7
				c-0.4-1.8-1.2-3.4-2.4-4.8c-0.4-0.4-0.9-0.7-1.2-1.2c-0.7-0.8-1.6-1.5-2.5-2c-0.9,0.5-1.1,1.5-1.9,1.8c0,0,0,0.1-0.1,0.2
				c-0.2,0.6-0.6,1.1-0.9,1.6c-0.5,0.6-1.1,1.2-1.7,1.9c1.4,1.1,3.2,1.6,4.1,3.2c0.3,0.1,0.6-0.3,0.9,0.2L147.9,126.1z M141.6,124.1
				c0.1,0.2,0.3,0.3,0.4,0.5c0.5,0.6,0.9,1.3,1.2,2.1c0.3,1,0.4,2,0.2,3c-0.4,2.1-1.5,4-3.1,5.5c-0.6,0.7-1.3,1.3-2,2
				c0.6,0.5,1.1,1,1.6,1.5c1.3,1.1,2.6,2.1,3.9,3.1c0.6,0.5,1.1,1.1,1.6,1.8c0.2,0.5,0.8,0.7,1.3,0.5c0,0,0.1,0,0.1,0
				c0.2-0.1,0.4-0.1,0.6-0.1c1.1,0,2.3-0.3,3.3-0.8c0.2-0.1,0.3-0.2,0.5-0.4c-0.2-0.4-0.5-0.8-0.8-1.1c-1.1-1-2.3-1.8-3.6-2.6
				c-0.5-0.2-0.8-0.6-0.9-1.1c-0.1-0.8,0.1-1.7,0.4-2.4c0.3-0.6,0.7-1.2,1-1.8c0.4-0.7,0.6-1.5,0.8-2.3c0.1-0.7,0.1-1.4,0-2.1
				c-0.3-1.1-0.8-2.1-1.5-3c-0.4-0.7-1-1.2-1.7-1.6c-0.4-0.2-0.8-0.4-1.1-0.7c-0.4-0.4-0.8-0.6-1.4-0.7L141.6,124.1z M131.8,136.5
				c0.4,1.8,1.1,3.4,2,5c0.6,0.3,1.4,0.1,1.9,0.6c-0.5,0.5-1.1-0.1-1.7,0.1c0.4,0.8,0.8,1.7,1.2,2.5s0.9,1.6,1.4,2.4
				c0.3,0.6,0.9,0.9,1.6,0.9c1.2,0,2.5,0.1,3.7,0.1c1,0.1,2,0,2.9-0.1c0.3-0.1,0.7-0.1,1-0.2c0.1-0.3,0.2-0.7,0.2-1
				c0-0.3,0-0.5-0.1-0.8c-0.2-0.5-0.6-1-1.2-1.3c-0.3-0.1-0.5-0.4-0.5-0.6c-0.1-0.4-0.4-0.8-0.6-1.1c-0.7-0.8-1.5-1.5-2.4-2.1
				c-1.2-0.8-2.2-1.7-3.3-2.7c-0.9-0.8-1.8-1.7-2.6-2.6c-0.8-1-1.9-1.7-3-2.3c-0.5-0.2-0.9-0.3-1.4-0.4c0.1,1,0.3,1.9,0.7,2.8
				c0.6,0.1,1.3,0.1,1.8,0.8C132.9,136.9,132.4,136.4,131.8,136.5L131.8,136.5z M130.1,149.3c-0.1-0.3-0.2-0.6-0.3-0.8
				c-0.4-0.9-0.9-1.7-1.2-2.5c-1-2-1.9-4.2-2.5-6.3c-0.4-1.6-0.9-3.1-1.4-4.6c-0.7-2.1-0.6-4.3-1-6.5c-0.1-0.5-0.1-1-0.2-1.5
				c0-1.4-0.1-2.8-0.1-4.3c-0.1-2.5,0.2-5.1,1-7.5c0.1-0.3,0.1-0.8-0.2-1l-1.3,0.4c-0.4,1.5-0.7,2.8-1.1,4.2
				c-0.1,0.2-0.1,0.5-0.1,0.8c0,1.4,0.1,2.9,0.2,4.3c0,0.8,0.2,1.5,0.2,2.3c0,2.1,0.2,4.2,0.6,6.4c0.2,1.5,0.5,3,0.8,4.5
				s0.8,3.1,1.1,4.7c0.3,1.2,0.7,2.3,1.3,3.4c0.6,1.1,1.2,2.2,1.8,3.3c0.2,0.3,0.4,0.6,0.6,0.8L130.1,149.3z M132.1,113
				c-0.3,0.2-0.5,0.4-0.6,0.6c-0.3,0.6-0.6,1.2-0.9,1.9c-0.5,1.8-0.8,3.6-0.9,5.5c0,0.2,0.1,0.4,0.2,0.6c0.9-0.1,1.7-0.3,2.5-0.3
				s1.6,0,2.3,0c0.1-0.3,0.2-0.5,0.2-0.5c0.4-0.1,0.8-0.3,1.1,0.2l-0.6,0.3l3.6,1.3c0.2,0,0.4-0.5,0.9-0.2l-0.3,0.5l1.1,0.7
				c0.1-0.2,0.3-0.4,0.5-0.6c0.8-0.7,1.6-1.3,2.4-2c0.3-0.3,0.5-0.7,0.7-1.1c-0.6,0-0.9,0-1.3,0c-0.7,0.1-1.5,0.1-2.2-0.1
				c-0.7-0.2-1.4-0.4-2.1-0.5c-1.7-0.4-3.2-1.1-4.7-2c-0.6-0.5-1.2-1.1-1.6-1.7c-0.2-0.2-0.3-0.5-0.4-0.8
				C132.2,114.2,132.2,113.7,132.1,113L132.1,113z M143.7,114.3c0,0.2,0.1,0.4,0.1,0.5c0.2,0.2,0.3,0.5,0.4,0.8
				c0.5,1.2,0.5,1.9-1,2.3c-1.2,0.4-2.4,0.3-3.6-0.2c-0.4-0.2-0.8-0.3-1.1-0.5c-1.2-0.5-2.2-1.3-3-2.3c-0.4-0.5-0.6-1.3-0.4-1.9
				c0.1-0.6,0.6-0.8,1.1-1c0.1,0,0.1-0.1,0.2-0.2c-0.2,0-0.4,0-0.6,0c-0.3,0.1-0.6,0.1-0.9,0.1c-0.5-0.1-1,0-1.3,0.4
				c-0.3,0.5-0.5,1-0.6,1.6c0,0.9,0.4,1.8,1.2,2.3c0.7,0.5,1.4,0.9,2.2,1.3c1,0.5,2.1,0.8,3.3,1c0.3,0.1,0.5,0.1,0.8,0.2
				c0.2,0.1,0.4,0.1,0.6,0.2c1.3,0.1,2.6,0.1,3.9-0.1c0.8-0.9,0.3-2,0.4-2.9C144.8,115.5,144.8,114.4,143.7,114.3L143.7,114.3z
				 M138.2,112.1c-0.6,0.1-1.1,0.2-1.7,0.4c-0.6,0.1-1,0.6-0.9,1.2c0,0.2,0.1,0.4,0.2,0.5c0.2,0.3,0.4,0.6,0.6,0.8
				c0.8,0.9,1.9,1.5,3,1.9c1.1,0.6,2.5,0.7,3.7,0.3c0.8-0.2,1-0.5,0.8-1.2c-0.3-1-0.9-1.8-1.6-2.5
				C141.1,112.7,139.7,112.2,138.2,112.1L138.2,112.1z M154.1,149.5c-0.1-0.5-0.2-0.8-0.7-0.7c-0.7,0.1-1.4,0.1-2,0.2
				c-0.9,0-1.7-0.2-2.4-0.8c-0.7-0.3-1.3-0.7-2-1.1l-0.3,1.6c0.1,0,0.1,0.1,0.2,0.1c0.8,0.3,1.6,0.5,2.4,0.9
				c0.6,0.2,1.1,0.6,1.4,1.1c0.2,0.5,0.4,1,0.6,1.6c0.4,0,0.8,0.1,1.1-0.3c-0.1-0.3-0.2-0.6-0.3-0.8c-0.2-0.5,0.1-1.1,0.7-1.2
				L154.1,149.5z M124.6,124.7c0-0.5,0.4-1.1-0.1-1.7c-0.4-0.4-0.2-1.1-0.7-1.6C123.8,122.7,124.5,123.6,124.6,124.7L124.6,124.7z"
				/>
			<path class="st1" d="M68.8,174.3c-0.1-0.9,0-1.7,0.3-2.5c0-0.1,0.3-0.1,0.6-0.2c-0.1,0.6-0.2,1-0.3,1.4S69.4,173.9,68.8,174.3z"
				/>
			<path class="st1" d="M72.1,174.2c-0.1-0.2-0.1-0.4-0.2-0.6c0-0.8,0.2-1.5,0.6-2.2c0.5,0.5,0,0.9,0,1.4s-0.1,0.9-0.2,1.4
				L72.1,174.2z"/>
			<path class="st1" d="M70.3,173.8c-0.3-0.8,0.1-1.6,0.2-2.6c0.2,0.2,0.4,0.3,0.4,0.4C70.9,172.4,70.7,173.1,70.3,173.8z"/>
			<path class="st1" d="M88.2,157.7c-0.1,0-0.3,0-0.3-0.1c-0.2-0.8-0.1-1.6,0.1-2.3C88.4,155.9,88.4,156.4,88.2,157.7z"/>
			<path class="st1" d="M86.6,155.8c0.4,0.7-0.2,1.4-0.1,2.1c-0.4,0.1-0.5,0-0.5-0.3c0.1-0.6,0.2-1.2,0.4-1.8H86.6z"/>
			<path class="st1" d="M77.4,161.8c1,0.5,0.6,1.4,1,2c-0.3-0.1-0.5-0.1-0.6-0.1C77.7,163.2,77.5,162.6,77.4,161.8z"/>
			<path class="st1" d="M19.2,166.1c-0.1,0.6-0.3,0.7-2,1.4c0-0.2-0.1-0.4,0-0.4C17.8,166.6,18.5,166.3,19.2,166.1z"/>
			<path class="st1" d="M16,165.8c0.7-0.4,1.4-0.6,2.1-0.8c0,0.4-0.2,0.7-0.6,0.7c0,0,0,0-0.1,0C17,165.7,16.6,166.3,16,165.8z"/>
			<path class="st1" d="M8.5,160.3c-0.1,0.8-0.9,0.9-1.3,1.4c-0.3-0.1-0.4-0.3-0.2-0.5c0.4-0.4,0.9-0.7,1.3-1.1L8.5,160.3z"/>
			<path class="st1" d="M160.3,103c0.4-0.8,1.1-1,1.8-1.5l0.3,0.4C161.7,102.4,161,102.8,160.3,103z"/>
			<path class="st1" d="M163.5,103c-0.6,0.5-1.3,0.9-2,1.1c0-0.3,0.2-0.6,0.5-0.7C162.4,103.2,162.8,102.7,163.5,103z"/>
			<path class="st1" d="M172.9,106c0.3,0.4,0,0.9-1.1,1.6C171.7,107,171.8,106.8,172.9,106z"/>
			<path class="st1" d="M175.4,83.7c-0.6-0.6-0.6-0.8-0.4-1.7C175.4,82.5,175.6,83.1,175.4,83.7z"/>
			<path class="st1" d="M2,7.4c-0.3-0.6-0.4-1.3-0.3-2C2.4,6.1,2.5,6.4,2,7.4z"/>
			<path class="st1" d="M7.3,88.1c0,0.2,0.2,0.4,0.1,0.5c-0.2,0.6-0.6,1.1-1.1,1.4C6.3,89.4,6.6,88.9,7.3,88.1z"/>
			<path class="st1" d="M11.6,87.9c0,0.7-0.3,1.3-0.9,1.7C10.6,88.8,11.2,88.4,11.6,87.9z"/>
			<path class="st1" d="M12.8,84.4c0.1,0.7-0.3,1.4-1,1.7l0.9-1.8L12.8,84.4z"/>
			<path class="st1" d="M14.7,82c0,0.2,0,0.3-0.1,0.4c-0.4,0.3-0.5,0.9-1.2,0.8C13.6,82.5,14.2,82.3,14.7,82z"/>
			<path class="st1" d="M13.9,86.9c0,0.6-0.2,1.2-0.7,1.7c-0.1-0.2-0.2-0.4-0.1-0.5C13.1,87.6,13.4,87.2,13.9,86.9z"/>
			<path class="st1" d="M9.7,87.2c-0.1-0.9,0.1-1.4,0.6-1.7C10.4,86.1,10.2,86.7,9.7,87.2z"/>
			<path class="st1" d="M3.6,89.2c0-0.8,0.5-1.1,0.8-1.6C4.6,88.3,4.4,88.7,3.6,89.2z"/>
			<path class="st1" d="M85.4,6.4c-0.7-0.3-1-0.8-0.9-1.8C85,4.8,85.1,5.2,85.4,6.4z"/>
			<path class="st1" d="M83,10.1c-0.6-0.4-0.9-1-0.8-1.7C82.8,8.7,83.1,9.4,83,10.1z"/>
			<path class="st1" d="M87.3,4.4c-0.4-0.3-0.7-0.8-0.8-1.3c0-0.1,0.1-0.2,0.2-0.3c0.1,0,0.2,0,0.3,0.1c0.2,0.4,0.4,0.9,0.5,1.3
				L87.3,4.4z"/>
			<path class="st1" d="M85.2,13c-0.7-0.3-1-1-0.8-1.7C84.8,11.8,85.1,12.4,85.2,13z"/>
			<path class="st1" d="M87,8.6c-0.6-0.9-0.6-1-0.6-1.5C87,7.3,87.2,8,87,8.6z"/>
			<path class="st1" d="M86.1,16.1c-0.5-0.5-0.7-1.3-0.4-1.9C86.2,14.8,86.1,15.4,86.1,16.1z"/>
			<path class="st1" d="M82.5,12.5c-0.5-0.4-0.8-0.9-0.9-1.6C82.2,11.1,82.6,11.8,82.5,12.5z"/>
			<path class="st1" d="M85.6,10.5l-1-1.4c0.8-0.1,0.9,0.6,1.2,0.9c0.1,0.1,0,0.3,0,0.5L85.6,10.5z"/>
			<path class="st1" d="M85.9,172.9c0.5,0.4,0.5,0.4,0,2.1c-0.1-0.1-0.4-0.2-0.3-0.3c0-0.4,0.1-0.8,0.2-1.1
				C85.7,173.4,85.8,173.1,85.9,172.9z"/>
			<path class="st1" d="M174.3,11.6c0.7-0.3,1.5-0.3,2.3-0.1C175.9,12,175,12,174.3,11.6z"/>
			<path class="st1" d="M172.5,6.7h-1.9c0.4-0.5,1.2-0.6,1.7-0.2C172.4,6.6,172.5,6.6,172.5,6.7z"/>
			<path class="st1" d="M165,9.3c0.1-0.5,0.5-1,0.9-1.3c0.1-0.1,0.4-0.1,0.7-0.1C166.2,8.5,165.6,9,165,9.3z"/>
			<path class="st1" d="M169.4,6.4c0.2-0.7,0.8-1.2,1.5-1.3C170.5,5.7,170,6.1,169.4,6.4z"/>
			<path class="st1" d="M164.1,11c0.4-0.8,0.8-1.1,1.5-1.1C165.4,10.5,164.8,10.9,164.1,11z"/>
			<path class="st1" d="M169.1,7.5c0,0.2,0.1,0.4,0,0.5c-0.4,0.3-0.6,0.9-1.3,0.8C168,8.2,168.5,7.7,169.1,7.5z"/>
			<path class="st1" d="M172.6,8.8c0.6-0.1,1.1,0,1.6,0.3C173.8,9.6,173.1,9.5,172.6,8.8z"/>
			<path class="st1" d="M176.7,14c-0.5,0.3-0.6,0.3-1.6-0.1c0.1-0.1,0.1-0.3,0.2-0.3C175.7,13.5,176.1,13.6,176.7,14z"/>
			<path class="st1" d="M8.9,107.5c-0.6,0.5-1.3,0.9-2,1.1c-0.3,0.1-0.4,0-0.6-0.3c0.4-0.2,0.8-0.4,1.2-0.5
				C7.9,107.7,8.2,107.1,8.9,107.5z"/>
			<path class="st1" d="M5.4,107.8c0-0.6,0.3-0.7,0.6-0.9c1-0.4,1.2-0.5,1.6-0.3C7,107.2,6.2,107.5,5.4,107.8z"/>
			<path class="st1" d="M6.8,104.7c-0.5,0.9-1.4,1.4-2.4,1.4C5,105.4,5.9,104.9,6.8,104.7z"/>
			<path class="st1" d="M10.4,79.7c0.3-0.6,0.7-1.1,1.4-1.4C11.6,79.2,11,79.8,10.4,79.7z"/>
			<path class="st1" d="M11.1,77.8c0.3-0.9,0.8-1.4,1.4-1.3C12.3,77.1,11.7,77.6,11.1,77.8z"/>
			<path class="st1" d="M6.5,83.2c0.2-0.7,0.6-1.3,1.2-1.6C7.8,82.2,7.4,82.8,6.5,83.2z"/>
			<path class="st1" d="M4.6,81.7c0.6-0.2,1.2-0.2,1.8-0.1c-0.4,0.5-1.1,0.6-1.7,0.2C4.7,81.8,4.6,81.7,4.6,81.7z"/>
			<path class="st1" d="M9.1,79.1c-0.2,0.6-0.6,1.1-1.2,1.4C7.9,79.7,8.4,79.1,9.1,79.1z"/>
			<path class="st1" d="M2.7,79c0.6,0.2,1.2,0,1.6,0.5c-0.5,0.2-1,0.2-1.5,0C2.7,79.5,2.7,79.3,2.7,79z"/>
			<path class="st1" d="M175.7,94.5c0.1-0.7,0.1-0.7,1.6-1.2c0.2,0.2,0.2,0.4,0,0.5C176.8,94,176.3,94.2,175.7,94.5z"/>
			<path class="st1" d="M171.4,70.2c-0.3-1.1,0.1-1.8,1-1.8L171.4,70.2z"/>
			<path class="st1" d="M176.9,71.1c-0.3-1.1-0.1-1.5,0.8-1.9C177.2,69.8,177.4,70.5,176.9,71.1z"/>
			<path class="st1" d="M174.1,158.1l-2.5,0.6c0,0-0.1-0.1-0.1-0.2c0.5-0.4,1.1-0.7,1.7-0.8c0.2,0,0.5,0,0.7,0
				C174,157.7,174,157.9,174.1,158.1z"/>
			<path class="st1" d="M173.2,161.5c0-0.4,0.3-0.5,0.6-0.6c0.6-0.4,1.3-0.5,2-0.4C175,161,174.1,161.3,173.2,161.5z"/>
			<path class="st1" d="M175,158.8c-0.7,0.7-1.5,0.6-2.4,0.9c0-0.2,0-0.4,0.1-0.4c0.6-0.2,1.3-0.5,2-0.7
				C174.7,158.6,174.8,158.7,175,158.8z"/>
			<path class="st1" d="M165.9,1.5c-0.3,0.6-0.7,1.2-1.2,1.6C164.6,2.3,165.1,1.6,165.9,1.5z"/>
			<path class="st1" d="M164,4c-0.3,0.7-0.9,0.9-1.4,1.2C162.7,4.6,163.1,4.2,164,4z"/>
			<path class="st1" d="M168,0.6c0.2,0.7-0.1,1.3-0.7,1.7C167.3,1.6,167.5,1,168,0.6z"/>
			<path class="st1" d="M1.1,173.8c0-0.2,0-0.4,0-0.4c0.6-0.3,1.2-0.5,1.9-0.6C2.8,173.3,2.8,173.3,1.1,173.8z"/>
			<path class="st1" d="M176.7,17.8c0.5,0.7,0.2,1.5-0.7,1.9L176.7,17.8z"/>
			<path class="st1" d="M4.2,19.5c0.2,1.1-0.3,1.8-1.2,1.6L4.2,19.5z"/>
			<path class="st1" d="M94.6,1.1c1-0.3,1.2-0.2,1.8,0.6C95.7,1.7,95.1,1.5,94.6,1.1z"/>
			<path class="st1" d="M95,4.1c-0.6,0.1-1.2-0.1-1.6-0.7C94.2,3.4,94.3,3.4,95,4.1z"/>
			<path class="st1" d="M166.3,177.8c0-0.8,0.4-1.5,1.1-1.8C167.4,176.9,166.8,177.2,166.3,177.8z"/>
			<path class="st1" d="M175.7,75.8c-0.6,0.3-1.3,0.3-2,0.1c0.1-0.2,0.2-0.3,0.3-0.4C174.5,75.4,175.1,75.5,175.7,75.8z"/>
			<path class="st1" d="M177.3,7.3C177.2,7.2,177,7.1,177,7c0-0.5,0-0.9,0-1.5C177.5,5.9,177.6,6.3,177.3,7.3z"/>
			<path class="st1" d="M1.1,85.1c0.2,0.5,0.2,1,0,1.5c0,0.1-0.2,0.1-0.3,0.2C0.7,86.1,0.5,85.6,1.1,85.1z"/>
			<path class="st1" d="M0.7,13.6c0.4-0.5,1-0.5,2-0.1c-0.1,0.1-0.2,0.3-0.3,0.3C1.8,13.8,1.3,13.8,0.7,13.6z"/>
			<path class="st1" d="M107.6,169.3c1.1,0.5,1.8,1.5,1.9,2.7c0.3,0.9,0,1.9-0.8,2.5c-0.6,0-1.2-0.4-1.4-1c-0.4-0.8-0.7-1.8-0.6-2.7
				C106.7,170.2,107.1,169.6,107.6,169.3z M107.6,170c-0.4,0.5-0.5,1.2-0.3,1.8c0.3,0.8,0.3,1.8,1.2,2.3c0.9-1.1,0.8-2.8-0.4-3.8
				C107.9,170.2,107.7,170.1,107.6,170L107.6,170z"/>
			<path class="st1" d="M162.3,85.5c0.1,0.7,0,1.3-0.4,1.9C161.6,86.7,161.8,86,162.3,85.5z"/>
			<path class="st1" d="M160,79c-0.2-1.3,0.3-2.6,1.4-3.4c0.6-0.6,1.4-0.8,2.2-0.6c0.4,0.5,0.4,1.2,0,1.7c-0.4,0.9-1.1,1.7-2,2.2
				C161.1,79.2,160.5,79.2,160,79z M163.3,75.6c-1.4-0.1-2.6,0.9-2.7,2.3c0,0.2,0,0.5,0,0.7C162.1,78.4,163.3,77.1,163.3,75.6
				L163.3,75.6z"/>
			<path class="st1" d="M108.9,7.6L108,5.8c0.2,0,0.3,0,0.4,0c0.3,0.3,0.5,0.6,0.7,1c0.2,0.2,0.1,0.6-0.1,0.7
				C108.9,7.6,108.9,7.6,108.9,7.6z"/>
			<path class="st1" d="M105.2,11.4c-0.2-0.7-0.9-0.9-1.1-1.6c0.4-0.2,0.6,0.1,0.8,0.3S105.5,10.6,105.2,11.4z"/>
			<path class="st1" d="M98.7,6.9L97.5,9c-0.4-0.3-0.3-0.6-0.1-0.8C97.8,7.8,97.7,7,98.7,6.9z"/>
			<path class="st1" d="M102.1,4.1c0.3,0.8-0.5,1.1-0.7,1.6c0,0.1-0.3,0.1-0.5,0.1C101.1,5.2,101.6,4.6,102.1,4.1z"/>
			<path class="st1" d="M90.4,10.6c-0.6-0.6-0.7-1.4-0.5-2.2C90.3,9.1,90.5,9.9,90.4,10.6z"/>
			<path class="st1" d="M91.8,17.5c-0.4-0.6-0.5-1.3-0.3-2C92.1,16,92.2,16.8,91.8,17.5z"/>
			<path class="st1" d="M90.8,15.9c-0.4-0.4-0.6-1-0.7-1.5c0-0.1,0.1-0.3,0.2-0.6C90.7,14.4,90.8,15.2,90.8,15.9z"/>
			<path class="st1" d="M91.2,9.6C91,8.9,91.4,8.2,92,7.9C92.1,8.3,91.9,8.8,91.2,9.6z"/>
			<path class="st1" d="M94.2,9.1c0-0.7,0.5-1,0.9-1.4C95.2,7.8,95.3,8,95.3,8C95.1,8.5,94.7,8.9,94.2,9.1z"/>
			<path class="st1" d="M91.7,13.2c-0.4-0.5-0.5-1.1-0.4-1.7C91.8,11.8,92,12.6,91.7,13.2z"/>
			<path class="st1" d="M100.1,4.5c0.3,0.2,0.2,0.4,0,0.6s-0.3,0.8-0.9,0.8C99.2,5.3,99.5,4.8,100.1,4.5z"/>
			<path class="st1" d="M12.6,15.6c-0.4-0.6-0.3-1.3,0.2-1.7c0.5-0.8,1.2-1.5,2.1-1.9c0.5-0.3,1.1-0.3,1.7,0
				c0.2,0.9-0.1,1.8-0.8,2.5c-0.4,0.5-1,0.8-1.5,1.1C13.7,15.9,13.1,15.9,12.6,15.6z M16,12.4c-0.6-0.1-1.3,0.1-1.7,0.6
				c-0.7,0.5-1.2,1.2-1.5,2.1C14.3,15.6,16.1,14.1,16,12.4z"/>
			<path class="st1" d="M134.3,65.1c-0.7,0-1.4,0.1-2.1,0.1c-0.4,0-0.6-0.2-0.5-0.7c0.8,0.3,1.7,0,2.6,0.1L134.3,65.1z"/>
			<path class="st1" d="M131.2,63.8c0.7-0.5,1.7-0.6,2.4-0.1C132.8,64,132,64,131.2,63.8z"/>
			<path class="st1" d="M130.6,62c0.9-0.4,1.9-0.5,2.9-0.3c-0.1,0.1-0.2,0.3-0.4,0.3C132.4,62.2,131.5,62.2,130.6,62z"/>
			<path class="st1" d="M114.2,50.1c-0.8,0.4-1.7,0.6-2.6,0.4c0.6-0.6,1.4-0.5,2.1-0.6C113.8,49.8,113.9,50,114.2,50.1z"/>
			<path class="st1" d="M114.7,51.9l-2.3,0.1c0.1-0.5,0.4-0.5,0.8-0.5C114.2,51.4,114.3,51.4,114.7,51.9z"/>
			<path class="st1" d="M122.4,58.3c-0.5,0.6-1.3,0.9-2.1,0.9c0.1-0.2,0.2-0.4,0.4-0.5C121.2,58.4,121.8,58.2,122.4,58.3z"/>
			<path class="st1" d="M133.6,36.9l-0.2,1.7C132.8,38.1,132.8,37.8,133.6,36.9z"/>
			<path class="st1" d="M136.1,37.7c0.1,0.1,0.3,0.3,0.2,0.3c-0.2,0.4-0.1,1-0.5,1.4C135.6,38.8,135.6,38.5,136.1,37.7z"/>
			<path class="st1" d="M129.3,48.7c0.4-0.6,0.4-0.6,2-0.5c-0.1,0.1-0.1,0.3-0.2,0.3C130.5,48.6,129.9,48.7,129.3,48.7z"/>
			<path class="st1" d="M136.5,23.4l-1.6,1.3c0-0.5,0.2-1,0.7-1.3C135.8,23.1,136.2,23.1,136.5,23.4
				C136.4,23.3,136.5,23.4,136.5,23.4z"/>
			<path class="st1" d="M140.8,26.2l-1.1,1.4c-0.3-0.1-0.4-0.2-0.3-0.5C139.7,26.5,140.2,26.1,140.8,26.2z"/>
			<path class="st1" d="M138,33.7c0.8,0,1.6,0.2,2.3,0.6c-0.2,0.1-0.4,0.2-0.4,0.2C139.3,34.2,138.5,34.4,138,33.7z"/>
			<path class="st1" d="M141.7,41.6c0.5-0.5,1.2-0.8,1.9-1C143.3,41.3,142.7,41.6,141.7,41.6z"/>
			<path class="st1" d="M142.5,40.1c-0.7,0.4-1.5,0.2-2-0.4c0.1,0,0.1-0.2,0.2-0.1C141.2,39.7,141.8,39.9,142.5,40.1z"/>
			<path class="st1" d="M136.6,31.5c-0.8,0-1.5-0.2-2.1-0.7c0.3-0.1,0.5-0.2,0.6-0.2C135.5,30.8,136.2,30.8,136.6,31.5z"/>
			<path class="st1" d="M149.9,37.8c-0.5,0.5-1.1,0.7-1.8,0.7C148.5,37.9,149.2,37.6,149.9,37.8z"/>
			<path class="st1" d="M148.5,39.3c-0.6,0.3-1,1-1.9,0.8c0.4-0.6,1.1-0.6,1.6-1c0.1-0.1,0.2,0,0.4,0L148.5,39.3z"/>
			<path class="st1" d="M140.9,37.6l-1.5-0.7c0.3-0.2,0.4-0.4,0.5-0.3c0.4,0.2,1,0.3,1.1,0.9L140.9,37.6z"/>
			<path class="st1" d="M145.6,38.9c-0.3,0.5-0.9,0.8-1.5,0.8C144.3,39.1,145,38.7,145.6,38.9z"/>
			<path class="st1" d="M140.1,32c-0.7,0.5-1-0.2-1.5-0.4C138.9,31.2,139.1,31.2,140.1,32z"/>
			<path class="st1" d="M140.5,46.3c0,0.9-0.6,1.4-1.6,1.5C139.2,47.1,140,47,140.5,46.3z"/>
			<path class="st1" d="M143.1,49.3c0.3-0.8,0.9-1,1.6-1.5c0,0.3,0,0.5,0,0.5C144.2,48.8,143.7,49.2,143.1,49.3z"/>
			<path class="st1" d="M145.5,46.5c0.9-1,1.1-1.2,1.6-1.2C146.8,46,146.2,46.4,145.5,46.5z"/>
			<path class="st1" d="M147.1,48c-0.3,0.6-0.7,1-1.3,1.3C145.8,48.6,146.4,48,147.1,48C147.1,48,147.1,48,147.1,48z"/>
			<path class="st1" d="M143.3,46.6c-0.4-0.3-0.1-0.5,0.1-0.7s0.3-0.8,1-0.6C144.2,45.8,143.8,46.3,143.3,46.6z"/>
			<path class="st1" d="M136.6,45.8L138,45l0.1,0.2c-0.2,0.5-0.5,0.8-1,1c-0.1,0-0.3,0-0.4,0L136.6,45.8z"/>
			<path class="st1" d="M148.1,44.5c0.4-0.5,1.1-0.8,1.7-0.7c-0.1,0.2-0.1,0.3-0.2,0.3C149.1,44.3,148.7,44.7,148.1,44.5z"/>
			<path class="st1" d="M125.7,26c0.1,0.6-0.2,1.2-0.7,1.6c-0.7,0.6-1.6,1.1-2.6,1.2c-0.6,0.1-1.2-0.1-1.6-0.5
				c0.2-1.2,1-2.1,2.1-2.5C124.4,25.4,124.5,25.2,125.7,26z M121.5,28.2c1.5,0.4,3.1-0.4,3.7-1.8c-1.3-0.6-2.9-0.1-3.5,1.2
				C121.6,27.8,121.6,28,121.5,28.2z"/>
			<path class="st1" d="M85.8,105.9c-0.2,0.1-0.3,0.2-0.5,0.2c-0.8,0.1-1.6-0.1-2.3-0.5c0.5-0.4,0.9-0.1,1.4,0s1,0.1,1.4,0.2
				L85.8,105.9z"/>
			<path class="st1" d="M86,109c-0.1,0.2-0.2,0.3-0.2,0.3c-0.7-0.1-1.4-0.1-2.1-0.2c-0.3,0-0.4-0.2-0.3-0.6L86,109z"/>
			<path class="st1" d="M85.3,108l-2.3-0.3c0-0.4,0.3-0.5,0.5-0.5C84.1,107.2,85.2,107.6,85.3,108z"/>
			<path class="st1" d="M66.5,90.7c0.7-0.5,1.5-0.2,2.3-0.3c0,0.2-0.1,0.4-0.1,0.4C68,91,67.2,91,66.5,90.7z"/>
			<path class="st1" d="M69.2,92.4c-0.1,0.1-0.2,0.2-0.3,0.2c-0.7,0-1.3-0.2-1.9-0.4c0.1-0.2,0.4-0.4,0.7-0.3
				C68.1,92.1,68.7,92,69.2,92.4z"/>
			<path class="st1" d="M75.3,100.1c-0.1,0.3-0.1,0.5-0.1,0.5c-0.6,0.3-1.3,0.4-1.9,0.4C73.8,100.2,74.6,100.5,75.3,100.1z"/>
			<path class="st1" d="M93,82.7c0.2,0.8-0.3,1.3-0.5,1.8C92.1,84,92.2,83.6,93,82.7z"/>
			<path class="st1" d="M90.4,81.6c0,0.6-0.1,1.2-0.4,1.6C89.5,82.6,89.7,82.2,90.4,81.6z"/>
			<path class="st1" d="M86.3,92.2c-0.7,0.4-1,0.4-2.2,0c0-0.3,0.2-0.4,0.4-0.4C85,92,85.6,92.1,86.3,92.2z"/>
			<path class="st1" d="M96,68.8l-1.7,0.9c-0.2-0.6,0.3-0.7,0.5-0.9S95.4,68.5,96,68.8z"/>
			<path class="st1" d="M99.7,72.4c-0.6,0.3-0.9,0.9-1.6,1.2c0-0.5,0.3-0.9,0.7-1.1C99.1,72.3,99.1,72.3,99.7,72.4z"/>
			<path class="st1" d="M95.6,79.2c0.8,0.1,1.5,0.5,2.1,1.1c-0.2,0.1-0.4,0.1-0.6,0.1C96.4,80.2,95.9,79.8,95.6,79.2z"/>
			<path class="st1" d="M97.6,87.7c0.6-0.4,1.3-0.6,2-0.6C99.1,87.7,98.3,88,97.6,87.7z"/>
			<path class="st1" d="M94.4,76.9c-1.2-0.6-1.2-0.6-1.7-1.2c0.8-0.2,1.2,0.5,1.7,0.7C94.4,76.4,94.4,76.6,94.4,76.9z"/>
			<path class="st1" d="M104.8,86.6c-0.8,0.7-1.4,0.9-2.1,0.5c0.6-0.2,1.2-0.4,1.8-0.6C104.5,86.5,104.7,86.6,104.8,86.6z"/>
			<path class="st1" d="M98.6,86.3c-0.7,0.4-1.1-0.1-1.5-0.2c-0.3-0.1-0.4-0.3-0.2-0.7L98.6,86.3z"/>
			<path class="st1" d="M106.5,85.4c-0.6,0.5-1.4,0.7-2.1,0.4C105,85.4,105.8,85.2,106.5,85.4z"/>
			<path class="st1" d="M96.5,82.7c0.2-0.3,0.4-0.4,0.6-0.2s0.8,0.4,0.7,1.1C97.2,83.4,96.8,83.1,96.5,82.7z"/>
			<path class="st1" d="M93.3,77.4c0.4,0.4,1.1,0.4,1.2,1.1C93.5,78.4,93.1,78.1,93.3,77.4z"/>
			<path class="st1" d="M97.8,77.9c-0.6,0.3-0.7,0.2-1.3-0.7C97,77,97,77,97.8,77.9z"/>
			<path class="st1" d="M102,85.8c-0.7,0.6-1,0.6-1.6,0.4C100.8,85.7,101.4,85.5,102,85.8z"/>
			<path class="st1" d="M95.6,92.2c-0.1,0.3-0.1,0.5-0.2,0.6c-0.5,0.3-1,0.5-1.6,0.5C93.9,92.9,93.9,92.9,95.6,92.2z"/>
			<path class="st1" d="M99.4,94.6c-0.5,0.5-1.2,0.9-1.9,0.9C97.9,94.9,98.6,94.5,99.4,94.6z"/>
			<path class="st1" d="M102.2,92.3c-0.3,0.7-1,1-1.8,0.8l1.6-1L102.2,92.3z"/>
			<path class="st1" d="M101.7,95.2l-1.5,0.9c0.1-0.7,0.7-1.2,1.3-1.1c0,0,0,0,0.1,0L101.7,95.2z"/>
			<path class="st1" d="M98.1,92.9c0.2-0.7,0.7-0.9,1.1-1.2c0,0,0.2,0.1,0.4,0.2C99.2,92.4,98.7,92.8,98.1,92.9z"/>
			<path class="st1" d="M105.1,91.5c-0.5,0.4-1.2,0.6-1.8,0.4C103.8,91.4,104.5,91.2,105.1,91.5z"/>
			<path class="st1" d="M93.3,90.4c-0.6,0.8-0.9,1-1.5,0.7C92.2,90.7,92.8,90.4,93.3,90.4z"/>
			<path class="st1" d="M76.6,78.4c0.2-0.6,0.7-1,1.3-1.1C77.7,77.9,77.2,78.4,76.6,78.4z"/>
			<path class="st1" d="M79.7,70.7c1.1-2.2,3.5-2.8,5.2-1.4c0.1,0.6-0.3,1.2-0.9,1.4c-0.8,0.5-1.8,0.8-2.8,0.8
				C80.6,71.5,80.1,71.2,79.7,70.7z M84.4,69.7c0-0.1-0.1-0.1-0.1-0.2c-0.6-0.5-1.5-0.5-2.2-0.2c-0.8,0.1-1.4,0.7-1.7,1.4
				C81.8,71.4,83.5,70.9,84.4,69.7L84.4,69.7z"/>
			<path class="st1" d="M43.5,26.9c-0.8,0.5-1.7,0.8-2.7,0.8c0.2-0.6,0.8-0.6,1.2-0.7s1-0.2,1.4-0.3L43.5,26.9z"/>
			<path class="st1" d="M39.3,24.7c0.7-0.4,1.5-0.7,2.3-0.8c0.3,0,0.4,0.1,0.4,0.4c-0.7,0.2-1.4,0.4-2.1,0.6
				C39.7,24.9,39.5,24.8,39.3,24.7z"/>
			<path class="st1" d="M42.7,25c-0.1,0.7-0.2,0.7-2.2,1c-0.2-0.2-0.2-0.4,0.1-0.4l0.3-0.1L42.7,25z"/>
			<path class="st1" d="M62.3,34.9c0.7-0.5,1.5-0.8,2.4-1c-0.2,0.3-0.2,0.5-0.3,0.5c-0.5,0.3-1.1,0.5-1.6,0.7
				C62.6,35.2,62.5,35.1,62.3,34.9z"/>
			<path class="st1" d="M61.3,33.4c0.1-0.1,0.2-0.1,0.3-0.2l1.8-0.5c-0.1,0.2-0.1,0.5-0.1,0.5c-0.6,0.2-1.2,0.4-1.8,0.5
				C61.6,33.7,61.5,33.6,61.3,33.4z"/>
			<path class="st1" d="M54.2,27.1c0,0.5-0.1,0.7-0.3,0.9s-0.6,0.5-0.9,0.6c-0.1,0.1-0.2,0-0.4,0s0-0.3,0.1-0.4
				C53.1,27.9,53.6,27.6,54.2,27.1z"/>
			<path class="st1" d="M46,52c-0.2-0.6-0.3-1.2-0.2-1.8C46.4,50.5,46.5,51,46,52z"/>
			<path class="st1" d="M43.3,49.9c0.3,0.6,0.3,1.3,0,1.8c-0.2-0.2-0.4-0.4-0.3-0.4C43.2,50.9,42.7,50.3,43.3,49.9z"/>
			<path class="st1" d="M47.8,39.5c-0.3,0.7-0.6,0.8-1.9,0.9C46,40,46,40,46.7,39.8C47,39.7,47.4,39.6,47.8,39.5z"/>
			<path class="st1" d="M47.3,64.2c0.1,1.2-0.5,1.8-1.3,1.6L47.3,64.2z"/>
			<path class="st1" d="M41.1,64l0.9-1.8c0.1,0.2,0.3,0.3,0.3,0.4C42.1,63.2,42,63.8,41.1,64z"/>
			<path class="st1" d="M42.2,56c-0.8,0.2-1.6,0.2-2.3-0.2c0.5-0.6,1.1-0.1,1.6-0.2C41.8,55.5,42.1,55.7,42.2,56z"/>
			<path class="st1" d="M30.9,52.8c0.4-0.5,0.7-1.3,1.6-1.3C32.2,52.1,31.6,52.6,30.9,52.8z"/>
			<path class="st1" d="M35.4,50.2c0.4-0.6,1-1.1,1.7-1.3c0,0.6-0.4,0.7-0.7,0.9c-0.3,0.2-0.5,0.4-0.8,0.6L35.4,50.2z"/>
			<path class="st1" d="M29.8,54.5c0.7-0.8,1.1-1.1,1.7-1c-0.2,0.6-0.8,0.8-1.2,1.1C30.2,54.6,30,54.5,29.8,54.5z"/>
			<path class="st1" d="M44.4,57.8c0.6,0,1.3,0.1,1.9,0.4c-0.5,0.6-1.1,0.1-1.6,0.1c-0.1,0-0.3-0.2-0.4-0.3L44.4,57.8z"/>
			<path class="st1" d="M38.6,50.8l-1.9-0.2c0.2-0.6,0.7-0.5,1-0.4S38.6,50.2,38.6,50.8z"/>
			<path class="st1" d="M35.3,51.6c-0.5,0.5-0.8,1-1.5,1C33.9,51.9,34.6,51.4,35.3,51.6C35.3,51.6,35.3,51.6,35.3,51.6z"/>
			<path class="st1" d="M40,53.8c-0.6-0.3-1.2-0.2-1.5-0.8c0.5-0.2,1.1-0.1,1.5,0.3C40,53.3,40,53.5,40,53.8z"/>
			<path class="st1" d="M43.5,56.4c0.4-0.4,1.1-0.4,1.5,0.1c0,0,0.1,0.1,0.1,0.1C44.5,56.8,43.9,56.7,43.5,56.4z"/>
			<path class="st1" d="M38.4,42.3c0.1,0.5,0,0.6-1.1,1.6c-0.1-0.1-0.2-0.2-0.2-0.3C37.3,43.1,37.8,42.6,38.4,42.3z"/>
			<path class="st1" d="M32.4,45.2l-1.2,1.6c-0.2-0.7,0.3-1.4,1-1.6C32.2,45.2,32.3,45.2,32.4,45.2z"/>
			<path class="st1" d="M34.2,41.8c-0.1,0.8-0.7,1.2-1.2,1.7c-0.1-0.2-0.2-0.4-0.1-0.4C33.1,42.6,33.4,42,34.2,41.8z"/>
			<path class="st1" d="M28.7,48.5c0.3-0.6,0.9-1,1.6-1C29.9,48.1,29.4,48.4,28.7,48.5z"/>
			<path class="st1" d="M31.5,42.3c0.1,0.9-0.6,1.2-1,1.7C30.5,43.4,30.7,43,31.5,42.3z"/>
			<path class="st1" d="M33.7,46c0.1-0.6,0.3-1.2,0.8-1.6c0.1,0.2,0.2,0.4,0.2,0.4C34.3,45.3,34.4,45.9,33.7,46z"/>
			<path class="st1" d="M60.1,57.7c0.1,1.8-1.3,3.3-3,3.5c-0.4,0-0.7,0-1.1-0.1c-0.3-0.6-0.2-1.3,0.3-1.7c0.6-0.8,1.4-1.4,2.3-1.8
				C59.1,57.3,59.6,57.4,60.1,57.7z M59.6,58c-0.6-0.2-1.2-0.1-1.6,0.3c-0.8,0.5-1.4,1.2-1.8,2.1C57.7,61,59.4,59.8,59.6,58z"/>
			<path class="st1" d="M62.8,124.6l-1.3-1.9c-0.1-0.2-0.2-0.4,0.1-0.5c0.6,0.5,1.1,1.1,1.3,1.9C63.1,124.2,62.9,124.4,62.8,124.6z"
				/>
			<path class="st1" d="M60.7,126.9l-1.6-2.2c0.4-0.2,0.6,0,0.7,0.2c0.4,0.6,1,1.1,1.1,1.9L60.7,126.9z"/>
			<path class="st1" d="M62.2,125.6c-0.8-0.4-0.9-1.3-1.5-2c0.2,0,0.4-0.1,0.5,0c0.4,0.6,0.8,1.2,1.2,1.8
				C62.3,125.4,62.2,125.4,62.2,125.6z"/>
			<path class="st1" d="M59,147.5l0.4-0.3c0.6,0.5,1.1,1.1,1.4,1.8C59.9,148.9,59.7,148,59,147.5z"/>
			<path class="st1" d="M61.7,147.7c-0.9,0-0.9-0.9-1.3-1.3c-0.1-0.1,0-0.3-0.1-0.6C60.9,146.3,61.4,146.9,61.7,147.7z"/>
			<path class="st1" d="M62,136.1c0.2-0.1,0.3-0.2,0.3-0.2c0.5,0.3,1.1,0.6,1.7,1C63.3,137.2,63.3,137.2,62,136.1z"/>
			<path class="st1" d="M37.3,134.7c0.3-0.7,1-0.5,1.3-0.8c0,0,0.2,0.1,0.4,0.2C38.6,134.6,37.9,134.8,37.3,134.7z"/>
			<path class="st1" d="M39.7,136.7c-0.3,0.6-1.1,0.9-1.7,0.7C38.4,136.9,39.1,136.6,39.7,136.7z"/>
			<path class="st1" d="M48.8,133.4c0.1,0,0.2-0.1,0.3-0.1c0.5,0.5,0.8,1,1.1,1.7C49.6,135,49.5,134.9,48.8,133.4z"/>
			<path class="st1" d="M26.9,136.9c-0.2,0.4-0.6,0.6-1,0.4c0,0,0,0,0,0c-0.4-0.1-0.8-0.1-0.9-0.7L26.9,136.9z"/>
			<path class="st1" d="M26.8,142.5c-0.6,0.4-1.4,0.3-1.8-0.2c-0.1-0.1-0.2-0.3-0.2-0.5C25.5,142,26,142.3,26.8,142.5z"/>
			<path class="st1" d="M32.3,132.8c0.6,0.4,0.5,1.1,0.8,1.6c0.1,0.2,0,0.2-0.2,0.6C32.4,134.4,32.2,133.6,32.3,132.8z"/>
			<path class="st1" d="M34,124.5c-0.7-0.2-1.4-0.6-1.9-1.2c0.6,0,1.1,0.2,1.5,0.6C33.8,124,33.9,124.2,34,124.5z"/>
			<path class="st1" d="M30.3,122.8c0.6,0.2,1.2,0.7,1.6,1.2C31.1,124.1,30.4,123.5,30.3,122.8z"/>
			<path class="st1" d="M32.1,139.5c-0.5-0.5-0.5-1.1-0.5-1.8c0.2,0,0.3,0,0.4,0.1C32.2,138.2,32.2,138.9,32.1,139.5z"/>
			<path class="st1" d="M37.8,127.9c-0.7-0.2-1.3-0.5-1.7-1.1C36.8,126.8,37.5,127.2,37.8,127.9z"/>
			<path class="st1" d="M36.6,129.9l-0.5-1.8c0.8,0.3,0.7,1,0.9,1.4c0,0.1-0.1,0.3-0.2,0.4L36.6,129.9z"/>
			<path class="st1" d="M35,127c-0.4,0-0.6,0-0.7-0.1c-0.3-0.3-1-0.3-0.9-1C34.1,126.1,34.6,126.4,35,127z"/>
			<path class="st1" d="M33.1,136.3c0.3,0.5,0.4,1.1,0.2,1.7c-0.2-0.1-0.3-0.2-0.4-0.3C32.8,137.2,32.8,136.7,33.1,136.3z"/>
			<path class="st1" d="M34.6,130.5c0.3,0.5,0.4,1.2,0.2,1.7c-0.2-0.1-0.4-0.1-0.4-0.2C34.2,131.5,34.2,130.9,34.6,130.5z"/>
			<path class="st1" d="M42.7,126.4c0.8-0.4,1.3,0.2,1.9,0.5C44.1,127.3,44.1,127.3,42.7,126.4z"/>
			<path class="st1" d="M40,122.2l-2-0.7C38.7,121.2,39.6,121.5,40,122.2C40,122.2,40,122.2,40,122.2z"/>
			<path class="st1" d="M43.7,122.8c-0.7,0-1.4-0.2-2-0.7c0.2-0.1,0.3-0.3,0.4-0.2C42.6,122.1,43.2,122.2,43.7,122.8z"/>
			<path class="st1" d="M37,120.9c-0.8,0.1-1-0.7-1.6-0.9c0.2-0.1,0.2-0.2,0.3-0.2C36.3,120,36.7,120.4,37,120.9z"/>
			<path class="st1" d="M44,130.1l-1.5-0.7c0.5-0.2,1.1-0.2,1.5,0.2c0.1,0.1,0.1,0.3,0.2,0.4L44,130.1z"/>
			<path class="st1" d="M40.5,120c0.6-0.1,1.2,0.1,1.7,0.5C41.6,120.8,40.8,120.6,40.5,120z"/>
			<path class="st1" d="M37.2,152.6c-1.3,0.4-2.7,0-3.6-0.9c-0.5-0.4-0.8-0.9-0.9-1.4c-0.1-0.5,0.3-1,0.8-1c0.1,0,0.3,0,0.4,0
				c1.1,0.3,2.1,0.9,2.8,1.7C37.1,151.4,37.3,152,37.2,152.6z M33.2,149.8c0.1,1.4,1.4,2.4,2.8,2.3c0.2,0,0.4-0.1,0.6-0.1
				C36.3,150.7,34.4,149.5,33.2,149.8L33.2,149.8z"/>
			<path class="st1" d="M116.5,144.8c1.3,1.3,1.6,1.8,1.5,2.2c-0.7-0.4-1.3-1-1.7-1.7C116.4,145.3,116.5,145,116.5,144.8z"/>
			<path class="st1" d="M120.1,144.4c-0.2-0.1-0.4-0.1-0.6-0.2c-0.6-0.5-1.1-1.1-1.4-1.8c0.6,0,0.8,0.6,1.1,0.9s0.7,0.7,1,1
				L120.1,144.4z"/>
			<path class="st1" d="M115,120.2c1,0.1,1.4,0.9,2.2,1.4c-0.2,0.1-0.4,0.3-0.5,0.2C116,121.5,115.4,120.9,115,120.2z"/>
			<path class="st1" d="M116.8,143.9c0.7-0.2,0.9,0.1,1.1,0.4c0.8,0.9,0.8,0.9,0.6,1.5L116.8,143.9z"/>
			<path class="st1" d="M115.9,123.5l-1.5-1.6c0.7-0.2,0.7-0.2,1.6,1C116.1,123.1,116.1,123.1,115.9,123.5z"/>
			<path class="st1" d="M115.8,133.3c-0.6,0.4-1.2,0.1-2.1-0.7C114.6,132.3,115.1,133,115.8,133.3z"/>
			<path class="st1" d="M115.7,136.2c-0.7,0.1-0.9-0.4-1.4-0.6c0.2-0.2,0.4-0.3,0.4-0.3C115.2,135.4,115.5,135.8,115.7,136.2z"/>
			<path class="st1" d="M129.4,134.2c-0.3,0-0.6,0.1-0.6,0c-0.4-0.4-0.8-0.9-1.2-1.3c0.2-0.3,0.3-0.3,0.5-0.1
				C128.5,133.2,128.9,133.6,129.4,134.2z"/>
			<path class="st1" d="M139.4,128.7c-0.3,0.6-1,0.6-1.3,1.1l-0.2-0.1c0-0.2,0.1-0.3,0.1-0.5C138.4,128.8,138.9,128.6,139.4,128.7z"
				/>
			<path class="st1" d="M140.5,131.2c-0.2,0.3-0.2,0.5-0.3,0.5c-0.7,0.4-0.9,0.5-1.3,0.3C139.3,131.5,139.9,131.2,140.5,131.2z"/>
			<path class="st1" d="M137.4,133.4c-1.1,0.6-1.1,0.6-1.5,0.2C136.3,133.2,136.9,133.1,137.4,133.4z"/>
			<path class="st1" d="M151.8,122.5l-2-0.5c0.4-0.3,1-0.4,1.4-0.2C151.5,121.8,151.6,122,151.8,122.5z"/>
			<path class="st1" d="M152.3,127.6c-0.6-0.2-1.2,0.3-1.9-0.1c0.4-0.5,1.1-0.6,1.6-0.3C152.1,127.4,152.2,127.5,152.3,127.6z"/>
			<path class="st1" d="M144.9,130.2c0.4,0.7,0.7,1.4,0.9,2.2c-0.8-0.3-0.8-1-1.1-1.5c-0.2-0.2-0.1-0.4,0-0.6
				C144.8,130.3,144.8,130.3,144.9,130.2z"/>
			<path class="st1" d="M140.8,138.1c0.8,0,1.5,0.3,2,0.9C142,139,141.3,138.7,140.8,138.1z"/>
			<path class="st1" d="M144.9,125.7c0.8,0.3,0.5,1,0.8,1.5c0.1,0.1-0.1,0.3-0.2,0.5C145,127.1,144.8,126.4,144.9,125.7z"/>
			<path class="st1" d="M147.3,140.9c0.7,0.1,1.3,0.4,1.8,1C148.3,142.1,147.6,141.6,147.3,140.9z"/>
			<path class="st1" d="M141.8,135.8l0.8,1.8c-0.6,0-0.7-0.4-0.8-0.7S141.2,136.2,141.8,135.8z"/>
			<path class="st1" d="M143.8,138.6c0.6-0.1,1.3,0.1,1.8,0.6C145.1,139.5,144.6,139.4,143.8,138.6z"/>
			<path class="st1" d="M143.7,133.2c0,0.7,0.4,1.2,0,1.8c-0.4-0.3-0.6-0.8-0.5-1.3C143.3,133.5,143.5,133.4,143.7,133.2z"/>
			<path class="st1" d="M145.2,140.8l2,0.9c-0.6,0.3-1,0-1.4-0.1C145.5,141.6,145.2,141.2,145.2,140.8
				C145.2,140.8,145.2,140.8,145.2,140.8z"/>
			<path class="st1" d="M144,127.4c0.6,0.8,0.7,1.2,0.4,1.7C143.9,128.6,143.8,128,144,127.4z"/>
			<path class="st1" d="M136.3,140.1c-0.5,0.5-1.1,0.4-2-0.3C134.7,139.6,134.7,139.6,136.3,140.1z"/>
			<path class="st1" d="M141.5,144.5c-0.7,0.4-1.6,0.2-2-0.5C140.2,144.2,140.9,144,141.5,144.5z"/>
			<path class="st1" d="M135.9,143.9c0.7-0.1,1.4,0.1,1.9,0.5C137.1,144.6,136.3,144.4,135.9,143.9z"/>
			<path class="st1" d="M135.9,137.4c-0.6,0.3-1.3,0.1-1.7-0.4C134.8,136.8,135.4,137,135.9,137.4z"/>
			<path class="st1" d="M144.3,145.6c-0.6,0.2-1.3-0.2-1.6-0.8C143.4,144.7,143.8,145.3,144.3,145.6z"/>
			<path class="st1" d="M139.7,142.5h-1.6c0-0.5,0.4-0.5,0.6-0.4S139.6,141.8,139.7,142.5z"/>
			<path class="st1" d="M137.5,146c0.7-0.4,1.2,0,1.9,0.1C138.8,146.5,138.1,146.4,137.5,146z"/>
			<path class="st1" d="M138.1,113.5c1.2-0.5,2.5-0.4,3.6,0.4c0.5,0.3,1,0.6,1.1,1.3s-0.2,1.4-1,1.3c-1.2-0.1-2.3-0.5-3.2-1.3
				C138.2,114.6,138,114,138.1,113.5z M138.6,114c0.7,1.4,2.6,2.2,3.7,1.7c-0.4-1.4-1.8-2.2-3.2-1.9
				C139,113.8,138.8,113.9,138.6,114L138.6,114z"/>
		</g>
	</g>
</g>
</svg>
