<svg xmlns="http://www.w3.org/2000/svg" viewBox="0 0 160.34 160.34">
  <defs>
    <style>
      .cls-1 {
        fill: #fff;
      }
    </style>
  </defs>
  <g id="Capa_2" data-name="Capa 2">
    <g id="Capa_1-2" data-name="Capa 1">
      <g>
        <path class="cls-1" d="M0,124.27A9,9,0,0,0,4.56,123a43.14,43.14,0,0,1,4-2.13,7.68,7.68,0,0,1,6.66.37c1,.47,1.87,1,2.79,1.58a8.72,8.72,0,0,0,9.68,0,30.21,30.21,0,0,1,3.82-2,7.7,7.7,0,0,1,6.59.37c1,.53,2,1.15,3.06,1.74a8.84,8.84,0,0,0,5.28,1.32,9.61,9.61,0,0,0,4-1.32,38.76,38.76,0,0,1,4-2.13,7.72,7.72,0,0,1,6.58.41c1,.52,2,1.13,3,1.71a8.58,8.58,0,0,0,9.19.06l2.42-1.42a8.54,8.54,0,0,1,9,0,36,36,0,0,0,4,2.14,8.16,8.16,0,0,0,7.53-.74c.94-.55,1.87-1.13,2.84-1.64a8.27,8.27,0,0,1,8.13,0c.9.47,1.77,1,2.64,1.52a8.63,8.63,0,0,0,9.4,0,32.9,32.9,0,0,1,3.89-2.06,7.8,7.8,0,0,1,6.73.39c1,.51,2,1.1,2.93,1.67a8.63,8.63,0,0,0,9.4,0,32.14,32.14,0,0,1,3.89-2.06,7.7,7.7,0,0,1,6.59.37c1.07.53,2.09,1.18,3.13,1.78a8.74,8.74,0,0,0,4.56,1.3v1.28a8.79,8.79,0,0,1-4.7-1.37L153.71,123a8.72,8.72,0,0,0-9.62,0c-.87.52-1.74,1-2.64,1.52a8.28,8.28,0,0,1-8,0c-.92-.48-1.81-1-2.71-1.55a8.71,8.71,0,0,0-9.55,0c-1,.57-1.92,1.17-2.92,1.66a8.12,8.12,0,0,1-7.56,0c-1.26-.64-2.44-1.43-3.7-2.07a8.25,8.25,0,0,0-7.85,0c-1.23.63-2.4,1.4-3.63,2a8.19,8.19,0,0,1-7.78,0c-1-.49-1.91-1.06-2.85-1.62a8.67,8.67,0,0,0-9.48,0l-1.86,1.1a8.7,8.7,0,0,1-9.68,0l-2-1.18a8.65,8.65,0,0,0-9.27,0c-.67.39-1.34.78-2,1.18a8.72,8.72,0,0,1-9.69,0c-.92-.55-1.83-1.12-2.78-1.59a8.18,8.18,0,0,0-7.56,0c-1.32.65-2.54,1.48-3.85,2.14a8.17,8.17,0,0,1-7.7,0c-1-.48-1.87-1-2.79-1.59a8.72,8.72,0,0,0-9.62,0c-.86.52-1.75,1-2.63,1.51a7.87,7.87,0,0,1-4,1Z"/>
        <path class="cls-1" d="M0,92.2a8.86,8.86,0,0,0,4.56-1.3,43.14,43.14,0,0,1,4-2.13,7.68,7.68,0,0,1,6.66.37c1,.49,1.92,1.06,2.86,1.62a8.7,8.7,0,0,0,9.54,0,32.07,32.07,0,0,1,3.89-2,7.7,7.7,0,0,1,6.59.38c1,.5,2,1.11,3,1.7a8.67,8.67,0,0,0,9.41,0,32.5,32.5,0,0,1,4-2.09,7.68,7.68,0,0,1,6.58.42c1,.51,2,1.12,3,1.7a8.56,8.56,0,0,0,9.19.06c.81-.46,1.61-1,2.42-1.41a8.46,8.46,0,0,1,9,0c.91.51,1.79,1.06,2.71,1.56a8.54,8.54,0,0,0,8.84-.16,37.82,37.82,0,0,1,4-2.14,7.7,7.7,0,0,1,6.59.35c1,.51,2,1.12,3,1.7a8.63,8.63,0,0,0,9.4,0,32.9,32.9,0,0,1,3.89-2.06,7.77,7.77,0,0,1,6.73.4c1,.51,2,1.13,3,1.71a8.63,8.63,0,0,0,9.2,0,36.94,36.94,0,0,1,4-2.13,7.67,7.67,0,0,1,6.59.36c1.07.54,2.09,1.18,3.13,1.78a8.74,8.74,0,0,0,4.56,1.3v1.28a8.78,8.78,0,0,1-4.77-1.41L153.71,91a8.72,8.72,0,0,0-9.62,0c-.87.52-1.74,1-2.64,1.52a8.28,8.28,0,0,1-8,0c-.92-.48-1.81-1-2.71-1.55a8.71,8.71,0,0,0-9.55,0c-1,.58-1.92,1.17-2.92,1.66a8.12,8.12,0,0,1-7.56,0c-1.26-.63-2.44-1.43-3.7-2.07a8.25,8.25,0,0,0-7.85,0c-1.23.63-2.4,1.4-3.63,2a8.16,8.16,0,0,1-7.78,0c-1-.5-2-1.1-2.92-1.66a8.67,8.67,0,0,0-9.34,0q-.93.54-1.86,1.11a8.81,8.81,0,0,1-9.9,0c-.86-.53-1.73-1.06-2.64-1.51a8.2,8.2,0,0,0-7.7,0c-1.29.64-2.49,1.45-3.78,2.1a8.1,8.1,0,0,1-7.55,0c-1-.49-2-1.08-2.93-1.66a8.71,8.71,0,0,0-9.55,0c-.92.55-1.83,1.1-2.78,1.59a8.28,8.28,0,0,1-7.85,0c-.92-.47-1.81-1-2.71-1.56a8.7,8.7,0,0,0-9.61,0c-.87.52-1.76,1-2.64,1.51a7.87,7.87,0,0,1-4,1Z"/>
        <path class="cls-1" d="M160.34,56.12a9.87,9.87,0,0,1-4.77-1.46,31.92,31.92,0,0,0-3.43-1.89,8.33,8.33,0,0,0-7.83.65c-.95.55-1.88,1.13-2.85,1.64a8.27,8.27,0,0,1-8.13,0c-.92-.49-1.81-1-2.7-1.56a8.61,8.61,0,0,0-9.27,0,35.58,35.58,0,0,1-4,2.1,7.79,7.79,0,0,1-6.74-.4c-1-.52-2-1.13-3-1.71a8.65,8.65,0,0,0-9.27,0,33.91,33.91,0,0,1-4,2.09,7.72,7.72,0,0,1-6.66-.4c-1-.52-2-1.12-3-1.7a8.59,8.59,0,0,0-9.26,0,37.4,37.4,0,0,1-4,2.09,7.75,7.75,0,0,1-6.66-.37c-1-.5-2-1.09-2.92-1.67a8.67,8.67,0,0,0-9.41,0,35.64,35.64,0,0,1-4,2.09A7.67,7.67,0,0,1,42,55.18c-1.14-.57-2.22-1.26-3.34-1.89a8.13,8.13,0,0,0-6.17-1,15.34,15.34,0,0,0-2.88,1.19c-1.33.66-2.59,1.5-4,2.06a7.68,7.68,0,0,1-6.52-.37c-1-.51-2-1.11-3-1.7a8.59,8.59,0,0,0-9.33-.06c-.71.42-1.43.83-2.14,1.26A9.53,9.53,0,0,1,0,56.12V54.84a12.36,12.36,0,0,0,6-2.19,15,15,0,0,1,3.25-1.52,8.4,8.4,0,0,1,7,1.12c1,.59,2,1.19,3,1.69a8.14,8.14,0,0,0,7.34,0c1-.49,2-1.1,3-1.69a8.69,8.69,0,0,1,9.55,0l2,1.19a8.63,8.63,0,0,0,9.4,0c1-.56,1.88-1.13,2.86-1.63a8.23,8.23,0,0,1,7.77,0c1,.5,1.91,1.08,2.85,1.64a8.77,8.77,0,0,0,9.49-.05,27.63,27.63,0,0,1,4-2.07,7.78,7.78,0,0,1,6.59.47c1,.49,1.87,1,2.78,1.59a8.71,8.71,0,0,0,9.48.06c1-.56,1.88-1.14,2.85-1.64a8.22,8.22,0,0,1,7.78,0c1,.49,1.91,1.06,2.85,1.62a8.69,8.69,0,0,0,9.48,0c.76-.45,1.51-.9,2.28-1.34a8.6,8.6,0,0,1,9.13.16l2.13,1.26a8.63,8.63,0,0,0,9.27,0l2-1.18a8.71,8.71,0,0,1,9.55,0c.61.37,1.25.73,1.85,1.11a10,10,0,0,0,4.84,1.51Z"/>
        <path class="cls-1" d="M0,108.23a8.92,8.92,0,0,0,4.63-1.33,38.49,38.49,0,0,1,4-2.1,7.72,7.72,0,0,1,6.66.38c1,.49,2,1.09,2.93,1.66a8.65,8.65,0,0,0,9.4,0,32.58,32.58,0,0,1,4-2.09,7.66,7.66,0,0,1,6.59.37c1,.51,2,1.12,3,1.7a8.65,8.65,0,0,0,9.41,0,31.1,31.1,0,0,1,4-2.08,7.66,7.66,0,0,1,6.51.37c1,.53,2,1.15,3.07,1.74a8.58,8.58,0,0,0,9.19.07c.81-.47,1.61-1,2.42-1.42a8.46,8.46,0,0,1,9,0c.86.49,1.7,1,2.56,1.49a8.58,8.58,0,0,0,9.06-.13,35.58,35.58,0,0,1,4-2.1,7.7,7.7,0,0,1,6.59.36c1,.5,2,1.11,3,1.7a8.61,8.61,0,0,0,9.33.05,35.2,35.2,0,0,1,4-2.12,7.67,7.67,0,0,1,6.59.39c1,.52,2,1.15,3.06,1.74a8.63,8.63,0,0,0,9.2,0,37,37,0,0,1,4-2.14,7.63,7.63,0,0,1,6.59.37c1.07.53,2.09,1.17,3.13,1.77a8.65,8.65,0,0,0,4.56,1.3v1.28a8.78,8.78,0,0,1-4.7-1.36l-2-1.19a8.69,8.69,0,0,0-9.48,0c-.9.53-1.79,1.08-2.71,1.56a8.28,8.28,0,0,1-8,0c-1-.49-1.86-1.06-2.78-1.6a8.65,8.65,0,0,0-9.34,0c-.81.47-1.6,1-2.42,1.42a8.6,8.6,0,0,1-9.06-.15c-1-.58-2-1.2-3-1.71a8.19,8.19,0,0,0-7.55,0c-1.29.64-2.5,1.45-3.78,2.1a8.19,8.19,0,0,1-7.78,0c-1-.49-1.91-1.07-2.85-1.63a8.69,8.69,0,0,0-9.48,0c-.59.35-1.2.7-1.79,1.06a8.81,8.81,0,0,1-9.9,0A30.55,30.55,0,0,0,61,106.42a8.16,8.16,0,0,0-7.42,0c-1.34.66-2.58,1.5-3.92,2.17a8.1,8.1,0,0,1-7.55,0c-1-.49-2-1.08-2.93-1.65a8.71,8.71,0,0,0-9.55,0c-.92.55-1.83,1.11-2.78,1.59a8.22,8.22,0,0,1-7.85,0c-.9-.46-1.77-1-2.64-1.51a8.74,8.74,0,0,0-9.75,0c-.85.52-1.71,1-2.57,1.48a8,8,0,0,1-4,1Z"/>
        <path class="cls-1" d="M160.34,24.05a9.76,9.76,0,0,1-4.77-1.46,31.47,31.47,0,0,0-3.36-1.86,8.35,8.35,0,0,0-7.9.62c-1,.58-2,1.19-3,1.71a8.14,8.14,0,0,1-7.7,0c-1-.51-2-1.12-3-1.7a8.61,8.61,0,0,0-9.27,0,35.58,35.58,0,0,1-4,2.1A7.84,7.84,0,0,1,110.6,23c-1-.5-1.91-1.08-2.85-1.63a8.65,8.65,0,0,0-9.41,0,30.6,30.6,0,0,1-3.88,2.05,7.72,7.72,0,0,1-6.66-.4c-1-.51-2-1.11-3-1.7a8.59,8.59,0,0,0-9.26,0,35.64,35.64,0,0,1-4,2.09A7.66,7.66,0,0,1,65,23.13c-1-.5-2-1.11-3-1.69a8.67,8.67,0,0,0-9.41,0,34,34,0,0,1-4,2.09A7.67,7.67,0,0,1,42,23.11c-1.09-.54-2.13-1.2-3.2-1.82a8.89,8.89,0,0,0-5.14-1.24,9.78,9.78,0,0,0-4,1.33,39.65,39.65,0,0,1-4,2.13,7.69,7.69,0,0,1-6.52-.38c-1.05-.52-2.05-1.14-3.07-1.74a8.56,8.56,0,0,0-9.19-.06c-.74.42-1.48.86-2.21,1.3A9.53,9.53,0,0,1,0,24.05V22.77a12.28,12.28,0,0,0,6-2.14,15,15,0,0,1,3.32-1.56,8.36,8.36,0,0,1,7,1.11c1,.59,2,1.2,3,1.69a8.11,8.11,0,0,0,7.34,0c1-.49,2-1.1,3-1.69a8.71,8.71,0,0,1,9.55,0l2,1.18a8.63,8.63,0,0,0,9.4,0c.92-.54,1.83-1.1,2.78-1.59a8.25,8.25,0,0,1,7.92,0c.93.48,1.82,1,2.71,1.56a8.79,8.79,0,0,0,9.63,0,25.75,25.75,0,0,1,4-2.06,7.78,7.78,0,0,1,6.44.47c1,.49,1.91,1.06,2.85,1.62a8.71,8.71,0,0,0,9.48.06c1-.56,1.88-1.14,2.85-1.64a8.22,8.22,0,0,1,7.78,0c1,.49,1.91,1.07,2.85,1.62a8.67,8.67,0,0,0,9.41,0c.8-.48,1.6-1,2.42-1.42a8.56,8.56,0,0,1,9,.15c.74.43,1.46.88,2.2,1.3a8.67,8.67,0,0,0,9.28,0l2-1.19a8.68,8.68,0,0,1,9.54,0c.62.36,1.26.72,1.86,1.1a10,10,0,0,0,4.84,1.51Z"/>
        <path class="cls-1" d="M160.34,88.19a9.76,9.76,0,0,1-4.77-1.46,31.47,31.47,0,0,0-3.36-1.86,8.32,8.32,0,0,0-7.9.62c-1,.57-2,1.18-3,1.7a8.12,8.12,0,0,1-7.7,0c-1-.51-2-1.12-3-1.71a8.63,8.63,0,0,0-9.27,0,35.58,35.58,0,0,1-4,2.1,7.84,7.84,0,0,1-6.81-.43c-1-.5-1.91-1.08-2.85-1.64a8.65,8.65,0,0,0-9.41,0,31.94,31.94,0,0,1-3.88,2.05,7.72,7.72,0,0,1-6.66-.4c-1-.52-2-1.12-3-1.7a8.59,8.59,0,0,0-9.26,0,37.4,37.4,0,0,1-4,2.09A7.7,7.7,0,0,1,65,87.27c-1-.5-2-1.11-3-1.7a8.65,8.65,0,0,0-9.41,0,34,34,0,0,1-4,2.08A7.66,7.66,0,0,1,42,87.25C41,86.7,39.91,86,38.84,85.43a8.82,8.82,0,0,0-5.14-1.24,9.68,9.68,0,0,0-4,1.33,37.65,37.65,0,0,1-4,2.12,7.68,7.68,0,0,1-6.52-.37c-1.05-.52-2.05-1.15-3.07-1.74a8.56,8.56,0,0,0-9.19-.06c-.74.42-1.48.85-2.21,1.3A9.53,9.53,0,0,1,0,88.19V86.91a12.19,12.19,0,0,0,6-2.15A16,16,0,0,1,9.27,83.2a8.43,8.43,0,0,1,7,1.11c1,.6,2,1.2,3,1.7a8.14,8.14,0,0,0,7.34,0,34.36,34.36,0,0,0,3-1.7,8.71,8.71,0,0,1,9.55,0l2,1.19a8.63,8.63,0,0,0,9.4,0c.92-.54,1.83-1.11,2.78-1.59a8.25,8.25,0,0,1,7.92,0c.93.47,1.82,1,2.71,1.55a8.81,8.81,0,0,0,9.63,0,26.22,26.22,0,0,1,4-2.06,7.74,7.74,0,0,1,6.44.47c1,.49,1.91,1.06,2.85,1.62a8.69,8.69,0,0,0,9.48,0c1-.55,1.88-1.13,2.85-1.63a8.25,8.25,0,0,1,7.78,0c1,.5,1.91,1.07,2.85,1.63a8.67,8.67,0,0,0,9.41,0c.8-.47,1.6-1,2.42-1.42a8.61,8.61,0,0,1,9,.15c.74.43,1.46.88,2.2,1.31a8.65,8.65,0,0,0,9.28,0l2-1.18a8.68,8.68,0,0,1,9.54,0c.62.37,1.26.72,1.86,1.11a10,10,0,0,0,4.84,1.51Z"/>
        <path class="cls-1" d="M160.34,157.62a8.87,8.87,0,0,1-4.77-1.41l-1.86-1.1a8.72,8.72,0,0,0-9.62,0c-.87.52-1.74,1-2.64,1.52a8.28,8.28,0,0,1-8,0c-.92-.48-1.81-1-2.71-1.55a8.71,8.71,0,0,0-9.55,0c-.75.45-1.51.91-2.28,1.34a8.6,8.6,0,0,1-9.06-.15c-1-.58-2-1.2-3-1.7a8.13,8.13,0,0,0-7.55,0c-1.29.64-2.5,1.44-3.78,2.1a8.19,8.19,0,0,1-7.78,0c-1-.5-2-1.1-2.92-1.66a8.67,8.67,0,0,0-9.34,0l-1.86,1.1a8.79,8.79,0,0,1-9.9,0c-.86-.53-1.73-1.06-2.64-1.51a8.23,8.23,0,0,0-7.7,0c-1.29.65-2.49,1.46-3.78,2.11a8.13,8.13,0,0,1-7.55,0c-1-.49-2-1.09-2.93-1.66a8.69,8.69,0,0,0-9.55,0c-.92.54-1.83,1.1-2.78,1.58a8.22,8.22,0,0,1-7.85,0c-.92-.47-1.81-1-2.71-1.55a8.72,8.72,0,0,0-9.61,0c-.87.53-1.75,1-2.64,1.52a8.08,8.08,0,0,1-4,1v-1.29A8.85,8.85,0,0,0,4.56,155a43.14,43.14,0,0,1,4-2.13,7.68,7.68,0,0,1,6.66.37c1,.49,1.92,1.06,2.86,1.62a8.7,8.7,0,0,0,9.54,0,32.07,32.07,0,0,1,3.89-2.05,7.7,7.7,0,0,1,6.59.37c1,.51,2,1.12,3,1.7a8.67,8.67,0,0,0,9.41,0,29.94,29.94,0,0,1,4-2.09,7.72,7.72,0,0,1,6.58.41c1,.52,2,1.12,3,1.71a8.58,8.58,0,0,0,9.19.06l2.42-1.42a8.46,8.46,0,0,1,9,0c.91.52,1.79,1.07,2.71,1.57a8.51,8.51,0,0,0,8.84-.17,37.74,37.74,0,0,1,4-2.13,7.7,7.7,0,0,1,6.59.35c1,.51,2,1.11,3,1.7a8.63,8.63,0,0,0,9.4,0,32.9,32.9,0,0,1,3.89-2.06,7.77,7.77,0,0,1,6.73.39c1,.52,2,1.13,3,1.71a8.63,8.63,0,0,0,9.2,0,38.84,38.84,0,0,1,4-2.14,7.7,7.7,0,0,1,6.59.37c1.07.53,2.09,1.18,3.13,1.78a8.64,8.64,0,0,0,4.56,1.29Z"/>
        <path class="cls-1" d="M0,6.73A11.86,11.86,0,0,0,6,4.59,14.06,14.06,0,0,1,8.5,3.26a8.57,8.57,0,0,1,7.75.88c1,.59,2,1.2,3,1.7a8.18,8.18,0,0,0,7.34,0c1-.5,2-1.11,3-1.7a8.73,8.73,0,0,1,9.62,0l1.92,1.15a8.69,8.69,0,0,0,9.41,0c.94-.56,1.88-1.14,2.86-1.63a8.23,8.23,0,0,1,7.77,0c1,.49,1.91,1.08,2.85,1.63a8.77,8.77,0,0,0,9.49,0,27.17,27.17,0,0,1,4-2.1A7.77,7.77,0,0,1,84,3.63c1,.5,1.91,1.07,2.85,1.63a8.69,8.69,0,0,0,9.48,0c1-.55,1.88-1.14,2.85-1.63a8.22,8.22,0,0,1,7.78,0c1.26.64,2.44,1.44,3.7,2.07a8.25,8.25,0,0,0,7.78,0c1.07-.54,2.08-1.2,3.13-1.79a8.62,8.62,0,0,1,9.13.15c1,.58,2,1.2,3,1.7a8.15,8.15,0,0,0,7.49,0c1-.49,2-1.08,2.92-1.66a8.71,8.71,0,0,1,9.55,0c.65.38,1.3.75,1.93,1.15a10,10,0,0,0,4.77,1.46V8a9.87,9.87,0,0,1-4.77-1.46,31.47,31.47,0,0,0-3.36-1.86,8.35,8.35,0,0,0-7.9.61c-1,.58-2,1.19-3,1.71a8.12,8.12,0,0,1-7.7,0c-1-.52-2-1.13-3-1.71a8.65,8.65,0,0,0-9.27,0,35.66,35.66,0,0,1-4,2.11,7.79,7.79,0,0,1-6.74-.4c-1-.51-2-1.1-2.92-1.67a8.65,8.65,0,0,0-9.41,0,31.94,31.94,0,0,1-3.88,2.05,7.66,7.66,0,0,1-6.59-.37c-1.08-.53-2.1-1.17-3.14-1.77a8.58,8.58,0,0,0-9.12,0,36.94,36.94,0,0,1-4,2.13A7.63,7.63,0,0,1,65,7.1C64,6.6,63,6,62,5.4a8.65,8.65,0,0,0-9.41,0,34.24,34.24,0,0,1-3.88,2.05A7.69,7.69,0,0,1,42,7c-1.14-.58-2.22-1.27-3.34-1.89a8.08,8.08,0,0,0-6.1-.93,15.34,15.34,0,0,0-2.88,1.19c-1.33.65-2.59,1.5-4,2.06a7.66,7.66,0,0,1-6.51-.37c-1-.51-2-1.11-3-1.7a8.56,8.56,0,0,0-9.33-.06L4.7,6.59A9.44,9.44,0,0,1,0,8Z"/>
        <path class="cls-1" d="M160.34,72.15a9.86,9.86,0,0,1-4.77-1.45,29.88,29.88,0,0,0-3.36-1.87,8.38,8.38,0,0,0-7.9.62c-1,.58-2,1.19-3,1.71a8.14,8.14,0,0,1-7.7,0c-1-.51-2-1.12-3-1.7a8.63,8.63,0,0,0-9.27,0,34,34,0,0,1-4,2.1,7.79,7.79,0,0,1-6.74-.39c-1-.51-2-1.1-2.92-1.67a8.67,8.67,0,0,0-9.41,0,32,32,0,0,1-3.88,2.06,7.7,7.7,0,0,1-6.59-.37c-1.08-.53-2.1-1.17-3.14-1.77a8.58,8.58,0,0,0-9.12,0,38.76,38.76,0,0,1-4,2.13A7.7,7.7,0,0,1,65,71.24c-1-.51-2-1.12-3-1.7a8.67,8.67,0,0,0-9.41,0,34.31,34.31,0,0,1-3.88,2.06A7.72,7.72,0,0,1,42,71.18c-1.14-.58-2.22-1.27-3.34-1.9a8.12,8.12,0,0,0-6.1-.92,15.3,15.3,0,0,0-2.88,1.18c-1.33.66-2.59,1.5-4,2.07a7.67,7.67,0,0,1-6.51-.38c-1-.5-2-1.11-3-1.69a8.58,8.58,0,0,0-9.33-.07c-.71.42-1.43.83-2.14,1.26A9.53,9.53,0,0,1,0,72.15V70.87a11.87,11.87,0,0,0,6-2.15A15.45,15.45,0,0,1,8.5,67.39a8.57,8.57,0,0,1,7.75.89,33.92,33.92,0,0,0,3,1.69,8.14,8.14,0,0,0,7.34,0c1-.5,2-1.11,3-1.7a8.72,8.72,0,0,1,9.62,0l1.92,1.15a8.69,8.69,0,0,0,9.41,0c.94-.56,1.88-1.14,2.86-1.63a8.17,8.17,0,0,1,7.77,0c1,.49,1.91,1.08,2.85,1.63a8.77,8.77,0,0,0,9.49,0,28.09,28.09,0,0,1,4-2.09,7.74,7.74,0,0,1,6.44.46c1,.49,1.91,1.06,2.85,1.63a8.71,8.71,0,0,0,9.48,0c1-.55,1.88-1.14,2.85-1.63a8.19,8.19,0,0,1,7.78,0c1.26.64,2.44,1.43,3.7,2.07a8.22,8.22,0,0,0,7.78,0c1.07-.54,2.08-1.19,3.13-1.78a8.6,8.6,0,0,1,9.13.15c1,.58,2,1.2,3,1.7a8.18,8.18,0,0,0,7.49,0c1-.49,2-1.08,2.92-1.66a8.71,8.71,0,0,1,9.55,0c.65.38,1.3.75,1.93,1.15a10,10,0,0,0,4.77,1.46Z"/>
        <path class="cls-1" d="M0,76.16a8.85,8.85,0,0,0,4.56-1.29,43.14,43.14,0,0,1,4-2.13,7.66,7.66,0,0,1,6.59.33c1,.51,2,1.11,3,1.7a8.65,8.65,0,0,0,9.4,0,34,34,0,0,1,4-2.09,7.67,7.67,0,0,1,6.59.37c1,.51,2,1.12,3,1.7a8.67,8.67,0,0,0,9.41,0,30.46,30.46,0,0,1,3.95-2.09,7.65,7.65,0,0,1,6.52.38c1,.52,2,1.14,3.07,1.73a8.56,8.56,0,0,0,9.19.07l2.42-1.42a8.46,8.46,0,0,1,9,0c.86.49,1.7,1,2.56,1.49a8.54,8.54,0,0,0,9.06-.14c1-.56,1.92-1.16,2.92-1.66a8.12,8.12,0,0,1,7.7,0c1,.51,2,1.12,3,1.7a8.62,8.62,0,0,0,9.19.06,38,38,0,0,1,4-2.14,7.73,7.73,0,0,1,6.73.39c1,.52,2,1.13,3,1.71a8.63,8.63,0,0,0,9.2,0,37,37,0,0,1,4-2.14,7.67,7.67,0,0,1,6.59.37c1.07.53,2.09,1.18,3.13,1.77a8.56,8.56,0,0,0,4.56,1.3v1.29a8.88,8.88,0,0,1-4.7-1.37l-2-1.19a8.69,8.69,0,0,0-9.48,0c-.92.54-1.83,1.11-2.78,1.59a8.22,8.22,0,0,1-7.85,0c-1.26-.64-2.44-1.43-3.7-2.07a8.25,8.25,0,0,0-7.71,0c-.88.44-1.73,1-2.56,1.48a8.81,8.81,0,0,1-9.9.08c-.92-.55-1.83-1.12-2.79-1.59a8.16,8.16,0,0,0-7.55,0c-1.29.64-2.5,1.44-3.78,2.1a8.19,8.19,0,0,1-7.78,0c-1-.5-2-1.1-2.92-1.67a8.69,8.69,0,0,0-9.34,0c-.62.36-1.24.72-1.86,1.1a8.78,8.78,0,0,1-9.83,0c-.88-.55-1.78-1.09-2.71-1.55a8.23,8.23,0,0,0-7.7,0c-1.29.65-2.49,1.46-3.78,2.11a8.16,8.16,0,0,1-7.55,0c-1-.49-2-1.09-2.93-1.66a8.71,8.71,0,0,0-9.55,0c-.92.55-1.83,1.11-2.78,1.59a8.22,8.22,0,0,1-7.85,0c-.9-.46-1.77-1-2.64-1.51a8.74,8.74,0,0,0-9.75,0c-.85.52-1.71,1-2.57,1.48a8.11,8.11,0,0,1-4,1Z"/>
        <path class="cls-1" d="M160.34,40.09a9.92,9.92,0,0,1-4.7-1.42,34.41,34.41,0,0,0-3.73-2A7.88,7.88,0,0,0,145,37c-1,.52-2,1.12-3,1.7a8.57,8.57,0,0,1-9.2,0A35.94,35.94,0,0,0,129,36.65a7.78,7.78,0,0,0-6.74.32c-1.06.51-2,1.14-3.07,1.74a8.59,8.59,0,0,1-9.33-.05,35.3,35.3,0,0,0-3.74-2,7.82,7.82,0,0,0-6.74.29c-1,.49-2,1.09-2.92,1.66a8.68,8.68,0,0,1-9.62,0C85.89,38,85,37.49,84,37a8.2,8.2,0,0,0-7.7,0c-1,.5-2,1.09-2.92,1.66a8.63,8.63,0,0,1-9.41,0,30.92,30.92,0,0,0-3.81-2,7.8,7.8,0,0,0-6.73.36c-1,.51-2,1.09-2.93,1.67a8.62,8.62,0,0,1-9.4,0,33.14,33.14,0,0,0-3.81-2,7.82,7.82,0,0,0-6.74.34c-1,.51-2,1.12-3,1.7a8.63,8.63,0,0,1-9.34,0,32,32,0,0,0-3.88-2.06A7.77,7.77,0,0,0,7.69,37c-1,.5-2,1.09-2.92,1.67A9.73,9.73,0,0,1,0,40.09V38.8a11.34,11.34,0,0,0,5.74-2A15.42,15.42,0,0,1,8.5,35.33a8.54,8.54,0,0,1,7.75.88c1,.59,2,1.2,3,1.7a8.18,8.18,0,0,0,7.34,0c1-.5,2-1.11,3-1.7a8.73,8.73,0,0,1,9.62,0c.66.4,1.32.8,2,1.19a8.65,8.65,0,0,0,9.27,0c1-.57,1.93-1.16,2.93-1.67a8.23,8.23,0,0,1,7.77,0c1,.49,1.91,1.08,2.85,1.63a8.77,8.77,0,0,0,9.49,0,27.17,27.17,0,0,1,4-2.1A7.77,7.77,0,0,1,84,35.7c1,.49,1.91,1.07,2.85,1.63a8.69,8.69,0,0,0,9.48.05c1-.55,1.88-1.14,2.85-1.63a8.22,8.22,0,0,1,7.78,0c1.26.64,2.44,1.43,3.7,2.07a8.25,8.25,0,0,0,7.78,0c1.07-.55,2.08-1.2,3.13-1.79a8.62,8.62,0,0,1,9.13.15c1,.57,1.92,1.17,2.92,1.67a8.2,8.2,0,0,0,7.63,0c1.29-.65,2.49-1.46,3.78-2.11a8.17,8.17,0,0,1,7.7,0c1,.51,2,1.09,2.92,1.67a10.07,10.07,0,0,0,4.7,1.42Z"/>
        <path class="cls-1" d="M0,140.3A8.85,8.85,0,0,0,4.56,139a43.24,43.24,0,0,1,4-2.14,7.66,7.66,0,0,1,6.59.34c1,.5,2,1.11,3,1.7a8.63,8.63,0,0,0,9.4,0,34,34,0,0,1,4-2.08,7.67,7.67,0,0,1,6.59.37c1,.51,2,1.11,3,1.7a8.67,8.67,0,0,0,9.41,0,31.66,31.66,0,0,1,3.95-2.08,7.68,7.68,0,0,1,6.52.37c1,.52,2,1.15,3.07,1.74a8.56,8.56,0,0,0,9.19.06c.81-.46,1.61-.95,2.42-1.41a8.46,8.46,0,0,1,9,0c.86.49,1.7,1,2.56,1.49a8.56,8.56,0,0,0,9.06-.14c1-.57,1.92-1.16,2.92-1.67a8.14,8.14,0,0,1,7.7,0c1,.52,2,1.13,3,1.71a8.6,8.6,0,0,0,9.19,0,39.89,39.89,0,0,1,4-2.14,7.77,7.77,0,0,1,6.73.4c1,.52,2,1.13,3,1.71a8.61,8.61,0,0,0,9.2,0,36.94,36.94,0,0,1,4-2.13,7.67,7.67,0,0,1,6.59.36c1.07.54,2.09,1.18,3.13,1.78a8.65,8.65,0,0,0,4.56,1.3v1.28a8.7,8.7,0,0,1-4.7-1.37c-.67-.39-1.34-.78-2-1.18a8.69,8.69,0,0,0-9.48,0c-.92.54-1.83,1.11-2.78,1.59a8.22,8.22,0,0,1-7.85,0c-1.26-.64-2.44-1.44-3.7-2.07a8.25,8.25,0,0,0-7.71,0c-.88.44-1.73,1-2.56,1.48a8.83,8.83,0,0,1-9.9.08c-.92-.56-1.83-1.12-2.79-1.59a8.19,8.19,0,0,0-7.55,0c-1.29.64-2.5,1.45-3.78,2.1a8.19,8.19,0,0,1-7.78,0c-1-.51-2-1.1-2.92-1.67a8.67,8.67,0,0,0-9.34,0l-1.86,1.11a8.78,8.78,0,0,1-9.83,0c-.88-.54-1.78-1.08-2.71-1.55a8.23,8.23,0,0,0-7.7,0c-1.29.64-2.49,1.46-3.78,2.1a8.1,8.1,0,0,1-7.55,0c-1-.49-2-1.08-2.93-1.65a8.71,8.71,0,0,0-9.55,0c-.92.55-1.83,1.11-2.78,1.59a8.25,8.25,0,0,1-7.85,0c-.9-.46-1.77-1-2.64-1.51a8.74,8.74,0,0,0-9.75,0c-.85.51-1.71,1-2.57,1.48a8,8,0,0,1-4,1Z"/>
        <path class="cls-1" d="M160.34,120.26a9.87,9.87,0,0,1-4.77-1.46,31.92,31.92,0,0,0-3.43-1.89,8.35,8.35,0,0,0-7.83.64c-1,.57-1.92,1.17-2.92,1.68a8.17,8.17,0,0,1-7.84,0c-1-.5-2-1.1-2.92-1.67a8.65,8.65,0,0,0-9.27,0,35.66,35.66,0,0,1-4,2.11,7.79,7.79,0,0,1-6.74-.4c-1-.52-2-1.13-3-1.71a8.61,8.61,0,0,0-9.27,0,35.5,35.5,0,0,1-4,2.09,7.66,7.66,0,0,1-6.59-.37c-1.05-.52-2.06-1.14-3.07-1.73a8.61,8.61,0,0,0-9.26,0,35.72,35.72,0,0,1-4,2.1,7.7,7.7,0,0,1-6.59-.34c-1-.5-2-1.11-3-1.7a8.67,8.67,0,0,0-9.41,0,32.58,32.58,0,0,1-4,2.09,7.66,7.66,0,0,1-6.59-.37c-1.14-.57-2.22-1.27-3.34-1.9a8.17,8.17,0,0,0-6.17-1,15.34,15.34,0,0,0-2.88,1.19c-1.33.65-2.59,1.5-4,2.06a7.65,7.65,0,0,1-6.52-.38c-1-.5-2-1.1-3-1.69a8.58,8.58,0,0,0-9.33-.06L4.7,118.83A9.44,9.44,0,0,1,0,120.26V119a12.25,12.25,0,0,0,6-2.18,14.58,14.58,0,0,1,3.25-1.52,8.4,8.4,0,0,1,7,1.11c1,.59,2,1.2,3,1.7a8.18,8.18,0,0,0,7.34,0c1-.5,2-1.11,3-1.7a8.71,8.71,0,0,1,9.55,0l2,1.19a8.69,8.69,0,0,0,9.41,0c1-.56,1.88-1.14,2.86-1.63a8.23,8.23,0,0,1,7.77,0c1,.49,1.91,1.08,2.85,1.63a8.77,8.77,0,0,0,9.49,0,26.65,26.65,0,0,1,4-2.07,7.78,7.78,0,0,1,6.59.47c1,.49,1.87,1,2.78,1.59a8.69,8.69,0,0,0,9.48,0c1-.55,1.88-1.14,2.85-1.63a8.25,8.25,0,0,1,7.78,0c1,.49,1.91,1.07,2.85,1.63a8.69,8.69,0,0,0,9.48,0c.76-.45,1.51-.91,2.28-1.34a8.6,8.6,0,0,1,9.13.15c.71.42,1.42.86,2.14,1.27a8.61,8.61,0,0,0,9.26,0l2-1.18a8.69,8.69,0,0,1,9.55,0c.32.19.65.37,1,.58a11.06,11.06,0,0,0,5.73,2Z"/>
        <path class="cls-1" d="M0,60.13a8.77,8.77,0,0,0,4.56-1.3c1.33-.73,2.64-1.54,4-2.13a7.66,7.66,0,0,1,6.59.34c1,.48,1.92,1.05,2.86,1.62a8.74,8.74,0,0,0,9.68,0,30.48,30.48,0,0,1,3.74-2,7.7,7.7,0,0,1,6.67.35c1.12.56,2.18,1.23,3.27,1.86a8.81,8.81,0,0,0,5.07,1.2,9.78,9.78,0,0,0,4-1.33,36.86,36.86,0,0,1,4-2.12A7.63,7.63,0,0,1,61,57c1,.52,2,1.14,3.07,1.74a8.56,8.56,0,0,0,9.19.06c.79-.45,1.57-.92,2.35-1.37a8.5,8.5,0,0,1,9.12,0c.83.48,1.65,1,2.49,1.45a8.54,8.54,0,0,0,9-.14c1-.56,1.88-1.13,2.85-1.63a8.19,8.19,0,0,1,7.85,0c1,.5,1.91,1.07,2.85,1.63a8.63,8.63,0,0,0,9.4,0,32.9,32.9,0,0,1,3.89-2.06,7.7,7.7,0,0,1,6.59.33c1.05.52,2.05,1.14,3.07,1.74a8.65,8.65,0,0,0,9.4,0,32.07,32.07,0,0,1,3.89-2.05,7.59,7.59,0,0,1,6.51.33c1.1.54,2.15,1.2,3.21,1.81a8.74,8.74,0,0,0,4.56,1.3v1.28a8.7,8.7,0,0,1-4.7-1.37c-.65-.37-1.29-.75-1.93-1.14a8.72,8.72,0,0,0-9.62,0c-.87.52-1.74,1-2.64,1.51a8.28,8.28,0,0,1-8,0c-.92-.47-1.81-1-2.71-1.55a8.73,8.73,0,0,0-9.55,0c-1,.58-1.92,1.17-2.92,1.66a8.12,8.12,0,0,1-7.56,0c-1.29-.65-2.49-1.46-3.78-2.1a8.2,8.2,0,0,0-7.7,0c-1.26.64-2.44,1.43-3.7,2.07a8.19,8.19,0,0,1-7.78,0c-1-.51-2-1.11-2.92-1.67a8.67,8.67,0,0,0-9.34,0L73.57,60a8.7,8.7,0,0,1-9.68,0l-2-1.19a8.65,8.65,0,0,0-9.27,0c-.67.39-1.34.78-2,1.18a8.72,8.72,0,0,1-9.69,0c-.64-.38-1.28-.77-1.93-1.14a8.67,8.67,0,0,0-9.41.07c-.91.55-1.83,1.11-2.78,1.59a8.28,8.28,0,0,1-7.85,0c-.92-.47-1.81-1-2.71-1.55a8.72,8.72,0,0,0-9.61,0c-.87.52-1.76,1-2.64,1.52a8,8,0,0,1-4,1Z"/>
        <path class="cls-1" d="M0,28.06a8.85,8.85,0,0,0,4.56-1.29c1.33-.74,2.64-1.54,4-2.14a7.66,7.66,0,0,1,6.59.34c1,.49,2,1.08,2.93,1.66a8.7,8.7,0,0,0,9.54,0,31.58,31.58,0,0,1,3.81-2,7.66,7.66,0,0,1,6.67.34c1.12.56,2.18,1.24,3.27,1.86a8.23,8.23,0,0,0,6.25,1,15.53,15.53,0,0,0,2.87-1.19c1.34-.65,2.59-1.5,4-2.06A7.66,7.66,0,0,1,61,25c1,.52,2,1.15,3.07,1.74a8.56,8.56,0,0,0,9.19.06c.76-.43,1.52-.88,2.28-1.33a8.53,8.53,0,0,1,9.26,0c.85.5,1.7,1,2.57,1.48a8.54,8.54,0,0,0,8.84-.16,37.74,37.74,0,0,1,4-2.13,7.7,7.7,0,0,1,6.67.38c1,.5,2,1.09,2.92,1.67a8.65,8.65,0,0,0,9.4,0,36.15,36.15,0,0,1,3.89-2.06,7.7,7.7,0,0,1,6.59.33c1.08.53,2.1,1.17,3.13,1.78a8.61,8.61,0,0,0,9.2,0,38.76,38.76,0,0,1,4-2.13,7.62,7.62,0,0,1,6.51.33c1.11.54,2.15,1.2,3.21,1.81a8.65,8.65,0,0,0,4.56,1.3v1.28a8.78,8.78,0,0,1-4.77-1.41l-1.86-1.1a8.72,8.72,0,0,0-9.62,0c-.87.52-1.74,1.05-2.64,1.51a8.23,8.23,0,0,1-8,0c-1.21-.62-2.35-1.38-3.56-2a8.28,8.28,0,0,0-7.85,0c-.9.46-1.76,1-2.63,1.52a8.76,8.76,0,0,1-9.69,0c-.94-.57-1.88-1.15-2.86-1.63a8.19,8.19,0,0,0-7.55,0c-1.29.64-2.5,1.45-3.78,2.1a8.19,8.19,0,0,1-7.78,0c-1-.51-2-1.1-2.92-1.67a8.67,8.67,0,0,0-9.34,0c-.94.55-1.88,1.13-2.85,1.63a8.2,8.2,0,0,1-7.91,0c-1.24-.64-2.4-1.41-3.64-2a8.17,8.17,0,0,0-7.7,0c-1.29.64-2.49,1.46-3.78,2.1a8.1,8.1,0,0,1-7.55,0c-1-.48-1.92-1.05-2.86-1.61a8.74,8.74,0,0,0-9.69,0c-.89.54-1.78,1.08-2.71,1.55a8.25,8.25,0,0,1-7.85,0c-.92-.47-1.81-1-2.71-1.55a8.73,8.73,0,0,0-9.62,0c-.86.52-1.75,1-2.63,1.52a8,8,0,0,1-4,1Z"/>
        <path class="cls-1" d="M160.34,104.22a9.66,9.66,0,0,1-4.77-1.46,31.47,31.47,0,0,0-3.36-1.86,8.35,8.35,0,0,0-7.9.62c-1,.58-2,1.19-3,1.71a8.14,8.14,0,0,1-7.7,0c-1-.51-2-1.12-3-1.7a8.61,8.61,0,0,0-9.27,0,34,34,0,0,1-4,2.1,7.76,7.76,0,0,1-6.74-.4c-1-.5-2-1.09-2.92-1.66a8.67,8.67,0,0,0-9.41,0,31.94,31.94,0,0,1-3.88,2.05,7.61,7.61,0,0,1-6.52-.33c-1.08-.52-2.1-1.16-3.14-1.76a8.57,8.57,0,0,0-9.26,0,35.64,35.64,0,0,1-4,2.09,7.7,7.7,0,0,1-6.59-.33c-1-.51-2-1.12-3-1.7a8.67,8.67,0,0,0-9.41,0,34.31,34.31,0,0,1-3.88,2.06,7.75,7.75,0,0,1-6.74-.38c-1.07-.54-2.09-1.19-3.13-1.78a8.74,8.74,0,0,0-5.14-1.24,9.61,9.61,0,0,0-4,1.32,39.65,39.65,0,0,1-4,2.13,7.69,7.69,0,0,1-6.52-.38c-1-.51-2-1.11-3-1.7a8.59,8.59,0,0,0-9.33-.06c-.71.42-1.43.83-2.14,1.26A9.53,9.53,0,0,1,0,104.22v-1.28a11.53,11.53,0,0,0,5.74-2A16.14,16.14,0,0,1,8.5,99.46a8.54,8.54,0,0,1,7.75.89,33.92,33.92,0,0,0,3,1.69,8.11,8.11,0,0,0,7.34,0c1-.49,2-1.1,3-1.69a8.72,8.72,0,0,1,9.62,0c.66.4,1.32.8,2,1.19a8.67,8.67,0,0,0,9.27,0c1-.57,1.93-1.17,2.93-1.67a8.17,8.17,0,0,1,7.77,0c1,.49,1.91,1.08,2.85,1.63a8.77,8.77,0,0,0,9.49,0,27.11,27.11,0,0,1,4-2.09,7.7,7.7,0,0,1,6.44.46c1,.49,1.91,1.06,2.85,1.63a8.73,8.73,0,0,0,9.48,0c1-.55,1.88-1.14,2.85-1.63a8.19,8.19,0,0,1,7.78,0c1.26.64,2.44,1.43,3.7,2.07a8.25,8.25,0,0,0,7.78,0c1.07-.54,2.08-1.2,3.13-1.78a8.6,8.6,0,0,1,9.13.15c1,.57,1.92,1.17,2.92,1.67a8.17,8.17,0,0,0,7.63,0c1.29-.64,2.49-1.45,3.78-2.1a8.17,8.17,0,0,1,7.7,0c1,.5,2,1.08,2.92,1.67a10.19,10.19,0,0,0,4.7,1.42Z"/>
        <path class="cls-1" d="M160.34,136.29a9.87,9.87,0,0,1-4.77-1.46,31.47,31.47,0,0,0-3.36-1.86,8.35,8.35,0,0,0-7.9.62c-1,.58-2,1.19-3,1.71a8.14,8.14,0,0,1-7.7,0c-1-.51-2-1.12-3-1.7a8.61,8.61,0,0,0-9.27,0,35.58,35.58,0,0,1-4,2.1,7.76,7.76,0,0,1-6.74-.4c-1-.5-2-1.09-2.92-1.66a8.67,8.67,0,0,0-9.41,0,31.94,31.94,0,0,1-3.88,2.05,7.65,7.65,0,0,1-6.52-.33c-1.08-.52-2.1-1.16-3.14-1.77a8.59,8.59,0,0,0-9.26,0,35.64,35.64,0,0,1-4,2.09,7.66,7.66,0,0,1-6.59-.34c-1-.5-2-1.11-3-1.69a8.67,8.67,0,0,0-9.41,0,34.31,34.31,0,0,1-3.88,2.06,7.75,7.75,0,0,1-6.74-.38c-1.14-.58-2.22-1.28-3.34-1.9a8.07,8.07,0,0,0-6.1-.92,14.66,14.66,0,0,0-2.88,1.18c-1.33.66-2.59,1.5-4,2.07a7.69,7.69,0,0,1-6.52-.38c-1-.51-2-1.11-3-1.7a8.59,8.59,0,0,0-9.33-.06c-.71.42-1.43.83-2.14,1.26A9.53,9.53,0,0,1,0,136.29V135a11.87,11.87,0,0,0,6-2.15,14.06,14.06,0,0,1,2.55-1.33,8.57,8.57,0,0,1,7.75.89,33.92,33.92,0,0,0,3,1.69,8.11,8.11,0,0,0,7.34,0c1-.49,2-1.1,3-1.69a8.72,8.72,0,0,1,9.62,0l1.92,1.14a8.65,8.65,0,0,0,9.41,0c.94-.55,1.88-1.13,2.86-1.62a8.2,8.2,0,0,1,7.77,0c1,.5,1.91,1.08,2.85,1.64a8.77,8.77,0,0,0,9.49-.05,27.11,27.11,0,0,1,4-2.09,7.7,7.7,0,0,1,6.44.46c1,.49,1.91,1.06,2.85,1.62a8.71,8.71,0,0,0,9.48.06c1-.55,1.88-1.14,2.85-1.64a8.22,8.22,0,0,1,7.78,0c1.26.64,2.44,1.43,3.7,2.07a8.25,8.25,0,0,0,7.78,0c1.07-.54,2.08-1.2,3.13-1.78a8.58,8.58,0,0,1,9.13.15c1,.58,2,1.2,3,1.7a8.18,8.18,0,0,0,7.49,0c1-.49,2-1.09,2.92-1.66a8.71,8.71,0,0,1,9.56,0c.64.38,1.29.74,1.92,1.14a10,10,0,0,0,4.77,1.47Z"/>
        <path class="cls-1" d="M0,44.09a8.92,8.92,0,0,0,4.63-1.33,40.45,40.45,0,0,1,4-2.09,7.66,7.66,0,0,1,6.59.33c1,.51,2,1.12,3,1.7a8.65,8.65,0,0,0,9.4,0,34.31,34.31,0,0,1,3.88-2.06,7.7,7.7,0,0,1,6.67.35c1.12.56,2.18,1.23,3.27,1.85a8.23,8.23,0,0,0,6.25,1,15.49,15.49,0,0,0,2.87-1.18c1.34-.66,2.59-1.5,4-2.07A7.66,7.66,0,0,1,61,41c1,.52,2.06,1.14,3.07,1.74a8.56,8.56,0,0,0,9.19.06c.79-.45,1.57-.92,2.35-1.38a8.5,8.5,0,0,1,9.12,0c.83.49,1.66,1,2.49,1.45a8.58,8.58,0,0,0,9.06-.13,34.31,34.31,0,0,1,3.88-2.06,7.85,7.85,0,0,1,7,.46c1,.49,1.86,1.06,2.78,1.6a8.6,8.6,0,0,0,9.19.06,40.56,40.56,0,0,1,4-2.12,7.78,7.78,0,0,1,6.74.34c1,.51,2,1.12,3,1.7a8.65,8.65,0,0,0,9.4,0,33.61,33.61,0,0,1,3.89-2.06,7.7,7.7,0,0,1,6.59.37c1.07.53,2.09,1.18,3.13,1.78a8.64,8.64,0,0,0,4.56,1.29v1.29a8.79,8.79,0,0,1-4.7-1.37l-2.07-1.23a8.67,8.67,0,0,0-9.34,0c-.93.54-1.83,1.11-2.78,1.6a8.28,8.28,0,0,1-8,0c-.92-.48-1.81-1-2.71-1.55a8.71,8.71,0,0,0-9.55,0c-.75.45-1.51.91-2.28,1.34a8.6,8.6,0,0,1-9.06-.15c-1-.58-2-1.2-3-1.7a8.13,8.13,0,0,0-7.55,0c-1.29.64-2.5,1.44-3.78,2.1a8.19,8.19,0,0,1-7.78,0c-1-.5-2-1.1-2.92-1.66a8.67,8.67,0,0,0-9.34,0l-1.86,1.1a8.78,8.78,0,0,1-9.83,0c-.93-.57-1.87-1.14-2.85-1.62a8.16,8.16,0,0,0-7.42,0c-1.34.66-2.58,1.5-3.92,2.18a8.13,8.13,0,0,1-7.55,0c-1-.49-2-1.09-2.93-1.66a8.73,8.73,0,0,0-9.55,0c-.91.55-1.83,1.11-2.78,1.59a8.22,8.22,0,0,1-7.85,0c-.9-.45-1.77-1-2.64-1.51a8.76,8.76,0,0,0-9.75,0c-.85.52-1.71,1-2.57,1.48a8.11,8.11,0,0,1-4,1Z"/>
        <path class="cls-1" d="M0,12a9,9,0,0,0,4.56-1.3,43.14,43.14,0,0,1,4-2.13,7.66,7.66,0,0,1,6.59.34c1,.5,2,1.11,3,1.69a8.6,8.6,0,0,0,9.4,0c.89-.53,1.78-1.07,2.7-1.56a8.32,8.32,0,0,1,8.21,0c1,.56,2,1.18,3,1.76a8.14,8.14,0,0,0,6.11.93,16.25,16.25,0,0,0,2.87-1.19c1.33-.66,2.59-1.5,4-2.07A7.67,7.67,0,0,1,61,8.94c1,.52,2,1.14,3.07,1.74a8.56,8.56,0,0,0,9.19.06c.79-.45,1.57-.92,2.35-1.38a8.52,8.52,0,0,1,9.12,0c.83.49,1.66,1,2.49,1.46a8.54,8.54,0,0,0,9-.14c1-.56,1.88-1.13,2.85-1.64A8.22,8.22,0,0,1,107,9c1,.51,2,1.1,2.92,1.67a8.58,8.58,0,0,0,9.19.06,38.43,38.43,0,0,1,4-2.11,7.75,7.75,0,0,1,6.74.33c1,.53,2,1.15,3.06,1.74a8.59,8.59,0,0,0,9.2,0,36.94,36.94,0,0,1,4-2.13,7.67,7.67,0,0,1,6.59.36c1.07.54,2.09,1.18,3.13,1.78a8.65,8.65,0,0,0,4.56,1.3v1.28a8.79,8.79,0,0,1-4.7-1.37l-2-1.18a8.69,8.69,0,0,0-9.48,0c-.9.53-1.79,1.08-2.71,1.56a8.25,8.25,0,0,1-8,0c-1.23-.64-2.39-1.41-3.63-2a8.28,8.28,0,0,0-7.71,0,28.24,28.24,0,0,0-2.56,1.47,8.81,8.81,0,0,1-9.9.08c-.94-.56-1.88-1.14-2.86-1.61a8.13,8.13,0,0,0-7.48,0c-1.29.64-2.5,1.44-3.78,2.1a8.19,8.19,0,0,1-7.78,0c-1-.5-2-1.1-2.92-1.66a8.67,8.67,0,0,0-9.34,0c-.6.35-1.2.7-1.79,1.06a8.82,8.82,0,0,1-10,0A30.53,30.53,0,0,0,61,10.21a8.16,8.16,0,0,0-7.42,0c-1.34.65-2.58,1.5-3.92,2.17a8.1,8.1,0,0,1-7.55,0c-1-.51-2-1.12-3-1.7a8.69,8.69,0,0,0-9.48,0c-.91.54-1.83,1.1-2.78,1.59a8.28,8.28,0,0,1-7.85,0c-.9-.46-1.77-1-2.64-1.52a8.74,8.74,0,0,0-9.75,0c-.85.51-1.71,1-2.57,1.47a7.9,7.9,0,0,1-4,1Z"/>
        <path class="cls-1" d="M160.34,152.33a9.64,9.64,0,0,1-4.77-1.47c-.8-.48-1.6-1-2.42-1.4a8.47,8.47,0,0,0-8.84.16c-1,.57-1.92,1.16-2.92,1.68a8.2,8.2,0,0,1-7.84,0c-1-.49-1.91-1.07-2.85-1.63a8.65,8.65,0,0,0-9.41,0,33.22,33.22,0,0,1-3.81,2,7.84,7.84,0,0,1-6.81-.37c-1-.51-2-1.1-2.92-1.67a8.67,8.67,0,0,0-9.41,0,30.67,30.67,0,0,1-3.88,2.06,7.7,7.7,0,0,1-6.59-.37c-1.05-.52-2.06-1.14-3.07-1.73a8.59,8.59,0,0,0-9.26,0,35.64,35.64,0,0,1-4,2.09,7.66,7.66,0,0,1-6.59-.33c-1-.51-2-1.12-3-1.7a8.67,8.67,0,0,0-9.41,0,34.31,34.31,0,0,1-3.88,2.06,7.7,7.7,0,0,1-6.67-.34c-1.07-.54-2.09-1.18-3.13-1.78a8.88,8.88,0,0,0-5.13-1.29,9.7,9.7,0,0,0-4.07,1.34,40.69,40.69,0,0,1-4,2.12,7.67,7.67,0,0,1-6.51-.38c-1.05-.52-2.05-1.14-3.07-1.74a8.6,8.6,0,0,0-9.19-.06c-.72.42-1.43.83-2.14,1.26A9.64,9.64,0,0,1,0,152.33V151a12.35,12.35,0,0,0,6-2.18,14.15,14.15,0,0,1,3.25-1.52,8.4,8.4,0,0,1,7,1.11c1,.58,1.92,1.17,2.93,1.66a8.14,8.14,0,0,0,7.41,0c1-.48,2-1.07,2.93-1.65a8.78,8.78,0,0,1,9.76,0c.87.52,1.73,1.06,2.64,1.52a8.26,8.26,0,0,0,7.77,0c1.26-.64,2.45-1.43,3.71-2.07a8.2,8.2,0,0,1,7.77,0c1,.49,1.91,1.08,2.85,1.63a8.77,8.77,0,0,0,9.49,0,27.63,27.63,0,0,1,4-2.07,7.78,7.78,0,0,1,6.59.47c1,.48,1.87,1,2.78,1.59a8.71,8.71,0,0,0,9.48.05c1-.55,1.88-1.14,2.85-1.63a8.22,8.22,0,0,1,7.78,0c1,.49,1.91,1.07,2.85,1.63a8.69,8.69,0,0,0,9.41,0c.81-.47,1.6-1,2.42-1.42a8.6,8.6,0,0,1,9.06.19l2.14,1.27a8.65,8.65,0,0,0,9.27,0l2-1.18a8.67,8.67,0,0,1,9.55,0c.32.19.65.37,1,.57a11,11,0,0,0,5.73,2Z"/>
        <path class="cls-1" d="M0,49.55a2.56,2.56,0,0,1,.46-.11A9.45,9.45,0,0,0,4.83,48l2-1.18a8.61,8.61,0,0,1,9.2,0c1,.55,1.92,1.16,2.91,1.67a8.25,8.25,0,0,0,7.92,0c.95-.49,1.86-1.06,2.78-1.6a8.65,8.65,0,0,1,9.4,0c.92.55,1.84,1.11,2.78,1.6a8.25,8.25,0,0,0,8,0c.95-.49,1.86-1,2.78-1.59a8.65,8.65,0,0,1,9.4,0c.88.52,1.74,1.05,2.64,1.52a8.3,8.3,0,0,0,8.2,0c.92-.49,1.81-1,2.71-1.56a8.69,8.69,0,0,1,9.27,0A32.67,32.67,0,0,0,88.91,49a7.76,7.76,0,0,0,6.66-.49c1-.48,1.86-1.05,2.78-1.59a8.69,8.69,0,0,1,9.41,0c.92.54,1.82,1.11,2.77,1.6a8.25,8.25,0,0,0,8,0c1-.5,1.9-1.09,2.85-1.64a8.63,8.63,0,0,1,9.26,0c.9.52,1.79,1.08,2.71,1.56a8.29,8.29,0,0,0,8.13,0c.92-.49,1.81-1,2.71-1.56a8.65,8.65,0,0,1,9.4,0l2.35,1.38a8.81,8.81,0,0,0,3.87,1.2,5.23,5.23,0,0,1,.54.12v1.12a8.17,8.17,0,0,1-4.7-1.31,35.26,35.26,0,0,0-4-2.11,7.8,7.8,0,0,0-6.66.49c-.95.49-1.86,1.06-2.78,1.6a8.67,8.67,0,0,1-9.41,0c-.92-.54-1.82-1.11-2.77-1.6a8.25,8.25,0,0,0-8,0c-.95.49-1.86,1.06-2.78,1.6a8.65,8.65,0,0,1-9.34,0c-.9-.53-1.79-1.08-2.71-1.56a8.27,8.27,0,0,0-8.13,0c-1,.49-1.85,1.06-2.78,1.6a8.65,8.65,0,0,1-9.27,0c-.94-.56-1.88-1.14-2.85-1.64a8.25,8.25,0,0,0-7.92,0c-1,.5-1.9,1.08-2.85,1.64a8.65,8.65,0,0,1-9.27,0c-1-.55-1.87-1.14-2.85-1.64a8.28,8.28,0,0,0-8,0c-.92.48-1.81,1-2.71,1.56a8.65,8.65,0,0,1-9.4,0c-.93-.54-1.84-1.11-2.78-1.6a8.25,8.25,0,0,0-8,0c-.95.49-1.86,1.06-2.78,1.6a8.67,8.67,0,0,1-9.41,0c-.87-.52-1.74-1.05-2.64-1.52a8.27,8.27,0,0,0-8.2,0c-1.25.66-2.45,1.41-3.71,2.06A6.44,6.44,0,0,1,0,50.67Z"/>
        <path class="cls-1" d="M0,113.68a3.78,3.78,0,0,1,.46-.1,9.45,9.45,0,0,0,4.37-1.45c.66-.4,1.33-.79,2-1.18a8.63,8.63,0,0,1,9.2,0c1,.56,1.92,1.16,2.91,1.68a8.28,8.28,0,0,0,7.92,0c.95-.49,1.86-1.06,2.78-1.6a8.65,8.65,0,0,1,9.4,0c.92.54,1.84,1.1,2.78,1.59a8.25,8.25,0,0,0,8,0c.95-.49,1.86-1.06,2.78-1.6a8.67,8.67,0,0,1,9.4,0c.88.52,1.74,1,2.64,1.53a8.32,8.32,0,0,0,8.2,0c.92-.49,1.81-1,2.71-1.56a8.69,8.69,0,0,1,9.27,0,32.67,32.67,0,0,0,4.1,2.15,7.8,7.8,0,0,0,6.66-.49c1-.49,1.86-1,2.78-1.6a8.71,8.71,0,0,1,9.41,0c.92.54,1.82,1.11,2.77,1.6a8.25,8.25,0,0,0,8,0c1-.5,1.9-1.08,2.85-1.63a8.61,8.61,0,0,1,9.26,0c.9.52,1.79,1.07,2.71,1.56a8.29,8.29,0,0,0,8.13,0c.92-.48,1.81-1,2.71-1.56a8.63,8.63,0,0,1,9.4,0l2.35,1.37a9,9,0,0,0,3.87,1.21,3.45,3.45,0,0,1,.54.11v1.13a8.17,8.17,0,0,1-4.7-1.31,35.26,35.26,0,0,0-4-2.11,7.8,7.8,0,0,0-6.66.49c-.95.49-1.86,1.05-2.78,1.6a8.69,8.69,0,0,1-9.41,0c-.92-.54-1.82-1.11-2.77-1.6a8.23,8.23,0,0,0-8,0c-.95.49-1.86,1-2.78,1.59a8.65,8.65,0,0,1-9.34,0c-.9-.53-1.79-1.08-2.71-1.57a8.32,8.32,0,0,0-8.13,0c-1,.5-1.85,1.07-2.78,1.6a8.61,8.61,0,0,1-9.27,0c-.94-.55-1.88-1.13-2.85-1.63a8.25,8.25,0,0,0-7.92,0c-1,.5-1.9,1.08-2.85,1.63a8.63,8.63,0,0,1-9.27,0c-1-.55-1.87-1.14-2.85-1.64a8.25,8.25,0,0,0-8,0c-.92.47-1.81,1-2.71,1.56a8.65,8.65,0,0,1-9.4,0c-.93-.54-1.84-1.1-2.78-1.59a8.25,8.25,0,0,0-8,0c-.95.49-1.86,1.06-2.78,1.6a8.69,8.69,0,0,1-9.41,0c-.87-.52-1.74-1-2.64-1.53a8.3,8.3,0,0,0-8.2,0c-1.25.67-2.45,1.42-3.71,2.07a6.44,6.44,0,0,1-3.63.77Z"/>
        <path class="cls-1" d="M160.34,146.87a7.79,7.79,0,0,1-4.62-1.27c-1-.54-1.88-1.13-2.85-1.63a8.25,8.25,0,0,0-7.92,0c-.95.48-1.86,1.05-2.78,1.59a8.67,8.67,0,0,1-9.47,0c-.9-.53-1.79-1.08-2.71-1.56a8.28,8.28,0,0,0-8,0c-1,.5-1.9,1.08-2.84,1.63a8.65,8.65,0,0,1-9.27,0c-.92-.54-1.83-1.11-2.77-1.6a8.28,8.28,0,0,0-8.07,0c-.94.49-1.85,1.06-2.77,1.6a8.65,8.65,0,0,1-9.34,0c-.92-.54-1.83-1.11-2.77-1.59a8.23,8.23,0,0,0-8,0c-.93.47-1.82,1-2.71,1.55a8.67,8.67,0,0,1-9.47,0c-.92-.55-1.83-1.11-2.78-1.6a8.25,8.25,0,0,0-7.92,0c-1,.5-1.9,1.09-2.85,1.64a8.63,8.63,0,0,1-9.26,0c-.93-.53-1.84-1.1-2.78-1.59a8.27,8.27,0,0,0-8.13,0c-.89.47-1.76,1-2.63,1.52a8.69,8.69,0,0,1-9.48,0c-.92-.54-1.83-1.11-2.78-1.59a8.28,8.28,0,0,0-8,.05c-1.27.68-2.49,1.45-3.77,2.11a6.44,6.44,0,0,1-3.63.76v-1.12a1.75,1.75,0,0,1,.38-.09A10.12,10.12,0,0,0,5.17,144c.57-.36,1.15-.69,1.73-1A8.64,8.64,0,0,1,16,143c.95.55,1.87,1.13,2.84,1.64a8.29,8.29,0,0,0,8.13,0c.9-.47,1.77-1,2.64-1.52a8.66,8.66,0,0,1,9.47,0c.9.53,1.79,1.08,2.71,1.55a8.25,8.25,0,0,0,8,0c.92-.48,1.81-1,2.71-1.56a8.69,8.69,0,0,1,9.47,0c.88.52,1.74,1.05,2.64,1.52a8.3,8.3,0,0,0,8.2,0c.92-.49,1.81-1,2.71-1.56a8.69,8.69,0,0,1,9.27,0,33.38,33.38,0,0,0,4.1,2.15,7.8,7.8,0,0,0,6.66-.49c1-.49,1.86-1,2.78-1.6a8.67,8.67,0,0,1,9.41,0c.92.54,1.82,1.11,2.77,1.6a8.25,8.25,0,0,0,8,0c1-.5,1.9-1.08,2.85-1.63a8.61,8.61,0,0,1,9.26,0c.9.52,1.79,1.07,2.71,1.56a8.29,8.29,0,0,0,8.13,0c.95-.49,1.85-1.06,2.78-1.6a8.63,8.63,0,0,1,9.26,0l2.49,1.45a8.93,8.93,0,0,0,3.8,1.17,3.45,3.45,0,0,1,.54.11Z"/>
        <path class="cls-1" d="M160.34,82.74a7.8,7.8,0,0,1-4.62-1.28c-1-.53-1.88-1.13-2.85-1.63a8.25,8.25,0,0,0-7.92,0c-.95.48-1.86,1-2.78,1.59a8.66,8.66,0,0,1-9.47,0c-.9-.53-1.79-1.08-2.71-1.56a8.28,8.28,0,0,0-8,0c-1,.5-1.9,1.09-2.84,1.64a8.67,8.67,0,0,1-9.27,0c-.92-.54-1.83-1.11-2.77-1.6a8.33,8.33,0,0,0-8.07,0c-.94.49-1.85,1.06-2.77,1.6a8.65,8.65,0,0,1-9.34,0c-.92-.54-1.83-1.1-2.77-1.59a8.28,8.28,0,0,0-8,0c-.93.48-1.82,1-2.71,1.55a8.67,8.67,0,0,1-9.47,0c-.92-.55-1.83-1.11-2.78-1.59a8.28,8.28,0,0,0-7.92,0c-1,.5-1.9,1.09-2.85,1.64a8.66,8.66,0,0,1-9.26,0c-.93-.54-1.84-1.11-2.78-1.6a8.29,8.29,0,0,0-8.13,0c-.89.48-1.76,1-2.63,1.52a8.69,8.69,0,0,1-9.48,0c-.92-.54-1.83-1.11-2.78-1.59a8.25,8.25,0,0,0-8,.06c-1.27.67-2.49,1.44-3.77,2.1A6.44,6.44,0,0,1,0,82.74V81.61a1.75,1.75,0,0,1,.38-.09,10,10,0,0,0,4.79-1.66c.57-.35,1.15-.69,1.73-1a8.62,8.62,0,0,1,9.13,0c.95.55,1.87,1.14,2.84,1.64a8.27,8.27,0,0,0,8.13,0c.9-.47,1.77-1,2.64-1.52a8.67,8.67,0,0,1,9.47,0c.9.54,1.79,1.08,2.71,1.56a8.25,8.25,0,0,0,8,0c.93-.47,1.81-1,2.71-1.55a8.66,8.66,0,0,1,9.47,0c.88.51,1.74,1,2.64,1.52a8.3,8.3,0,0,0,8.2,0c.92-.49,1.81-1,2.71-1.56a8.69,8.69,0,0,1,9.27,0A33.38,33.38,0,0,0,88.91,81a7.76,7.76,0,0,0,6.66-.49c1-.48,1.86-1,2.78-1.59a8.69,8.69,0,0,1,9.41,0c.92.54,1.82,1.11,2.77,1.6a8.25,8.25,0,0,0,8,0c1-.51,1.9-1.09,2.85-1.64a8.61,8.61,0,0,1,9.26,0c.9.52,1.79,1.08,2.71,1.56a8.27,8.27,0,0,0,8.13,0c.95-.49,1.85-1.06,2.78-1.59a8.61,8.61,0,0,1,9.26,0c.84.48,1.66,1,2.49,1.45a8.79,8.79,0,0,0,3.8,1.17,5.17,5.17,0,0,1,.54.11Z"/>
        <path class="cls-1" d="M160.34,18.6a7.86,7.86,0,0,1-4.62-1.27c-1-.54-1.88-1.14-2.85-1.64a8.28,8.28,0,0,0-7.92,0c-.95.49-1.86,1-2.78,1.6a8.69,8.69,0,0,1-9.47,0c-.9-.54-1.79-1.08-2.71-1.56a8.23,8.23,0,0,0-8,0c-1,.5-1.9,1.08-2.84,1.63a8.63,8.63,0,0,1-9.27,0c-.92-.53-1.83-1.11-2.77-1.6a8.3,8.3,0,0,0-8.07,0c-.94.49-1.85,1.06-2.77,1.59a8.65,8.65,0,0,1-9.34,0c-.92-.54-1.83-1.11-2.77-1.6a8.28,8.28,0,0,0-8,0c-.93.48-1.82,1-2.71,1.56a8.66,8.66,0,0,1-9.47,0c-.92-.54-1.83-1.11-2.78-1.59a8.25,8.25,0,0,0-7.92,0c-1,.49-1.9,1.08-2.85,1.63a8.61,8.61,0,0,1-9.26,0c-.93-.54-1.84-1.1-2.78-1.6a8.27,8.27,0,0,0-8.13,0c-.89.47-1.76,1-2.63,1.52a8.71,8.71,0,0,1-9.48,0c-.92-.55-1.83-1.12-2.78-1.6a8.28,8.28,0,0,0-8,.06c-1.27.67-2.49,1.44-3.77,2.1A6.44,6.44,0,0,1,0,18.6V17.48a1.78,1.78,0,0,1,.38-.1,9.91,9.91,0,0,0,4.79-1.66c.57-.35,1.15-.69,1.73-1a8.62,8.62,0,0,1,9.13,0c.95.54,1.87,1.13,2.84,1.64a8.32,8.32,0,0,0,8.13,0c.9-.48,1.77-1,2.64-1.53a8.67,8.67,0,0,1,9.47,0c.9.54,1.79,1.08,2.71,1.56a8.28,8.28,0,0,0,8,0c.92-.48,1.81-1,2.71-1.56a8.66,8.66,0,0,1,9.47,0c.88.52,1.74,1,2.64,1.52a8.3,8.3,0,0,0,8.2,0c.92-.49,1.81-1,2.71-1.56a8.69,8.69,0,0,1,9.27,0,34.74,34.74,0,0,0,4.1,2.14,7.76,7.76,0,0,0,6.66-.49c1-.48,1.86-1.05,2.78-1.59a8.67,8.67,0,0,1,9.41,0c.92.54,1.82,1.11,2.77,1.6a8.28,8.28,0,0,0,8,0c1-.5,1.9-1.09,2.85-1.64a8.66,8.66,0,0,1,9.26,0c.9.53,1.79,1.08,2.71,1.57a8.32,8.32,0,0,0,8.13,0c.95-.5,1.85-1.06,2.78-1.6a8.61,8.61,0,0,1,9.26,0L156,16.2a8.78,8.78,0,0,0,3.8,1.16,5.23,5.23,0,0,1,.54.12Z"/>
        <path class="cls-1" d="M0,129.72a2.56,2.56,0,0,1,.46-.11,9.56,9.56,0,0,0,4.37-1.44l2-1.19a8.63,8.63,0,0,1,9.27,0c.94.55,1.87,1.13,2.84,1.63a8.25,8.25,0,0,0,7.92,0c.95-.49,1.86-1,2.78-1.6a8.65,8.65,0,0,1,9.4,0c.92.55,1.84,1.11,2.78,1.6a8.28,8.28,0,0,0,8,0c.95-.5,1.85-1.06,2.78-1.6A8.73,8.73,0,0,1,62,127a30.51,30.51,0,0,0,4,2.08,7.81,7.81,0,0,0,6.73-.49c1-.5,1.9-1.09,2.85-1.64a8.69,8.69,0,0,1,9.27,0,32.67,32.67,0,0,0,4.1,2.15,7.76,7.76,0,0,0,6.66-.49c1-.48,1.86-1,2.78-1.59a8.67,8.67,0,0,1,9.41,0c.92.53,1.82,1.1,2.77,1.59a8.25,8.25,0,0,0,8,0c1-.49,1.86-1.05,2.78-1.59a8.63,8.63,0,0,1,9.4,0c.9.53,1.79,1.08,2.71,1.56a8.31,8.31,0,0,0,8.06,0c.92-.48,1.81-1,2.71-1.56a8.65,8.65,0,0,1,9.4,0l2.42,1.42a8.78,8.78,0,0,0,3.8,1.16,5.23,5.23,0,0,1,.54.12v1.12a7.86,7.86,0,0,1-4.62-1.27c-.93-.53-1.84-1.1-2.78-1.6a8.28,8.28,0,0,0-8.06,0c-.93.47-1.81,1-2.71,1.56a8.69,8.69,0,0,1-9.47,0c-.9-.54-1.79-1.08-2.71-1.56a8.23,8.23,0,0,0-8,0c-1,.5-1.9,1.08-2.84,1.63a8.63,8.63,0,0,1-9.27,0c-.92-.53-1.83-1.11-2.78-1.6a8.28,8.28,0,0,0-8.06,0c-.94.49-1.85,1-2.77,1.59a8.65,8.65,0,0,1-9.27,0c-1-.55-1.87-1.14-2.85-1.64a8.26,8.26,0,0,0-8,0c-1,.49-1.86,1.06-2.78,1.6a8.73,8.73,0,0,1-9.41,0,28.59,28.59,0,0,0-4.11-2.13,7.71,7.71,0,0,0-6.51.5c-1,.51-1.95,1.11-2.92,1.67a8.65,8.65,0,0,1-9.27,0c-.92-.54-1.83-1.1-2.77-1.6a8.27,8.27,0,0,0-8.13,0c-.9.47-1.76,1-2.63,1.52a8.71,8.71,0,0,1-9.48,0c-.87-.52-1.74-1.06-2.64-1.53a8.3,8.3,0,0,0-8.2,0c-1.24.67-2.45,1.42-3.7,2.06a6.44,6.44,0,0,1-3.63.77Z"/>
        <path class="cls-1" d="M0,65.58a2.56,2.56,0,0,1,.46-.11A9.56,9.56,0,0,0,4.83,64l2-1.19a8.63,8.63,0,0,1,9.27,0C17,63.4,18,64,18.94,64.49a8.28,8.28,0,0,0,7.92,0c.95-.48,1.86-1,2.78-1.59a8.65,8.65,0,0,1,9.4,0c.92.54,1.84,1.1,2.78,1.59a8.25,8.25,0,0,0,8,0c.95-.49,1.85-1.06,2.78-1.6a8.73,8.73,0,0,1,9.41,0A29.32,29.32,0,0,0,66,65a7.78,7.78,0,0,0,6.73-.49c1-.5,1.9-1.08,2.85-1.63a8.69,8.69,0,0,1,9.27,0A34,34,0,0,0,88.91,65a7.83,7.83,0,0,0,6.66-.49c1-.49,1.86-1.06,2.78-1.6a8.67,8.67,0,0,1,9.41,0c.92.54,1.82,1.11,2.77,1.6a8.25,8.25,0,0,0,8,0c1-.49,1.86-1,2.78-1.59a8.65,8.65,0,0,1,9.4,0c.9.52,1.79,1.08,2.71,1.55a8.28,8.28,0,0,0,8.06,0c.92-.48,1.81-1,2.71-1.56a8.65,8.65,0,0,1,9.4,0c.81.48,1.61,1,2.42,1.42a8.93,8.93,0,0,0,3.8,1.17,3.45,3.45,0,0,1,.54.11V66.7a7.79,7.79,0,0,1-4.62-1.27c-.93-.53-1.84-1.1-2.78-1.6a8.31,8.31,0,0,0-8.06,0c-.93.48-1.81,1-2.71,1.56a8.67,8.67,0,0,1-9.47,0c-.9-.53-1.79-1.08-2.71-1.56a8.25,8.25,0,0,0-8,0c-1,.5-1.9,1.08-2.84,1.63a8.65,8.65,0,0,1-9.27,0c-.92-.54-1.83-1.12-2.78-1.61a8.28,8.28,0,0,0-8.06,0c-.94.49-1.85,1.06-2.77,1.6a8.65,8.65,0,0,1-9.27,0c-1-.55-1.87-1.13-2.85-1.64a8.26,8.26,0,0,0-8,0c-1,.49-1.86,1.06-2.78,1.6a8.73,8.73,0,0,1-9.41,0,29.64,29.64,0,0,0-4.11-2.13,7.75,7.75,0,0,0-6.51.5c-1,.51-1.95,1.12-2.92,1.68a8.65,8.65,0,0,1-9.27,0c-.92-.53-1.83-1.1-2.77-1.6a8.29,8.29,0,0,0-8.13,0c-.9.47-1.76,1-2.64,1.52a8.67,8.67,0,0,1-9.47,0c-.87-.52-1.74-1.05-2.64-1.52a8.3,8.3,0,0,0-8.2,0c-1.24.67-2.45,1.42-3.7,2.07A6.44,6.44,0,0,1,0,66.7Z"/>
        <path class="cls-1" d="M160.34,98.77a7.79,7.79,0,0,1-4.62-1.27c-.93-.53-1.84-1.1-2.78-1.6a8.28,8.28,0,0,0-8.06,0c-.93.48-1.81,1-2.71,1.56a8.69,8.69,0,0,1-9.47,0c-.9-.53-1.79-1.08-2.71-1.56a8.25,8.25,0,0,0-8,0c-.94.49-1.86,1-2.78,1.59a8.65,8.65,0,0,1-9.4,0c-.9-.53-1.78-1.08-2.7-1.56a8.3,8.3,0,0,0-8.07,0c-.94.49-1.85,1.06-2.77,1.6a8.65,8.65,0,0,1-9.27,0c-1-.55-1.87-1.14-2.85-1.64a8.26,8.26,0,0,0-8,0c-.9.47-1.77,1-2.64,1.52a8.72,8.72,0,0,1-9.62,0c-.89-.53-1.78-1.08-2.7-1.55a8.25,8.25,0,0,0-7.92,0c-.93.47-1.82,1-2.71,1.55a8.68,8.68,0,0,1-9.54,0c-.87-.52-1.74-1-2.64-1.52a8.29,8.29,0,0,0-8.13,0c-.9.47-1.76,1-2.64,1.52a8.69,8.69,0,0,1-9.47,0c-.89-.53-1.78-1.09-2.71-1.56a8.28,8.28,0,0,0-8.06,0c-1.27.67-2.49,1.44-3.77,2.1A6.36,6.36,0,0,1,0,98.77V97.65a2.56,2.56,0,0,1,.46-.11A9.56,9.56,0,0,0,4.83,96.1l2-1.19a8.63,8.63,0,0,1,9.27,0c.94.55,1.87,1.13,2.84,1.63a8.25,8.25,0,0,0,7.92,0c.95-.48,1.86-1,2.78-1.6A8.63,8.63,0,0,1,39,95c.92.54,1.84,1.1,2.78,1.59a8.28,8.28,0,0,0,8,0c.95-.49,1.86-1.06,2.78-1.6A8.73,8.73,0,0,1,62,95,30.51,30.51,0,0,0,66,97a7.78,7.78,0,0,0,6.73-.49c1-.5,1.9-1.08,2.85-1.64a8.69,8.69,0,0,1,9.27,0,36.38,36.38,0,0,0,4.1,2.15,7.83,7.83,0,0,0,6.66-.49c1-.49,1.86-1.06,2.78-1.6a8.67,8.67,0,0,1,9.41,0c.92.54,1.82,1.11,2.77,1.6a8.28,8.28,0,0,0,8,0c1-.5,1.9-1.09,2.85-1.64a8.67,8.67,0,0,1,9.27,0c.92.54,1.82,1.11,2.77,1.6a8.28,8.28,0,0,0,8.06,0c.92-.48,1.81-1,2.71-1.56a8.65,8.65,0,0,1,9.4,0L156,96.37a8.78,8.78,0,0,0,3.8,1.16,5.23,5.23,0,0,1,.54.12Z"/>
        <path class="cls-1" d="M160.34,34.63a7.79,7.79,0,0,1-4.62-1.27c-.93-.52-1.84-1.1-2.78-1.6a8.31,8.31,0,0,0-8.06,0c-.93.48-1.81,1-2.71,1.56a8.67,8.67,0,0,1-9.47,0c-.9-.53-1.79-1.08-2.71-1.56a8.28,8.28,0,0,0-8,0c-.94.49-1.86,1.05-2.78,1.59a8.65,8.65,0,0,1-9.4,0c-.9-.53-1.78-1.09-2.7-1.57a8.33,8.33,0,0,0-8.07,0c-.94.49-1.85,1.06-2.77,1.6a8.65,8.65,0,0,1-9.27,0c-1-.55-1.87-1.13-2.85-1.63a8.21,8.21,0,0,0-8,0c-.9.46-1.77,1-2.64,1.51a8.72,8.72,0,0,1-9.61,0c-.9-.54-1.79-1.08-2.71-1.56a8.28,8.28,0,0,0-7.92,0c-.93.47-1.82,1-2.71,1.56a8.68,8.68,0,0,1-9.54,0c-.87-.52-1.74-1-2.64-1.51a8.26,8.26,0,0,0-8.13,0c-.9.47-1.76,1-2.63,1.52a8.69,8.69,0,0,1-9.48,0c-.89-.53-1.78-1.08-2.71-1.56a8.28,8.28,0,0,0-8.06,0c-1.27.68-2.49,1.45-3.77,2.11A6.44,6.44,0,0,1,0,34.63V33.51a3.78,3.78,0,0,1,.46-.1A9.57,9.57,0,0,0,4.83,32c.66-.4,1.33-.79,2-1.18a8.65,8.65,0,0,1,9.27,0c.94.55,1.87,1.14,2.84,1.64a8.25,8.25,0,0,0,7.92,0c.95-.48,1.86-1.05,2.78-1.59a8.65,8.65,0,0,1,9.4,0c.92.54,1.84,1.1,2.78,1.59a8.25,8.25,0,0,0,8,0c.95-.49,1.86-1.06,2.78-1.6a8.71,8.71,0,0,1,9.41,0,30.44,30.44,0,0,0,4,2.07,7.78,7.78,0,0,0,6.73-.49c1-.5,1.9-1.08,2.85-1.63a8.69,8.69,0,0,1,9.27,0,32.67,32.67,0,0,0,4.1,2.15,7.83,7.83,0,0,0,6.66-.49c1-.49,1.86-1.05,2.78-1.6a8.67,8.67,0,0,1,9.41,0c.92.54,1.82,1.11,2.77,1.6a8.25,8.25,0,0,0,8,0c1-.5,1.9-1.08,2.85-1.63a8.63,8.63,0,0,1,9.27,0c.92.53,1.82,1.11,2.77,1.6a8.28,8.28,0,0,0,8.06,0c.92-.48,1.81-1,2.71-1.56a8.63,8.63,0,0,1,9.4,0c.81.47,1.61.95,2.42,1.41a8.93,8.93,0,0,0,3.8,1.17,3.45,3.45,0,0,1,.54.11Z"/>
        <path class="cls-1" d="M142.22,160.34c2.23-1.57,4.55-2.9,7.42-2.57a6.92,6.92,0,0,1,2.23.52c1.26.6,2.45,1.36,3.66,2.05h-2.24a1.92,1.92,0,0,0-.34-.3,8.14,8.14,0,0,0-6.73-.58,13,13,0,0,0-1.75.88Z"/>
        <path class="cls-1" d="M98.29,0c-2.22,1.57-4.54,2.91-7.41,2.58A8,8,0,0,1,88.49,2C87.28,1.42,86.15.67,85,0h2.25a1.92,1.92,0,0,0,.34.3A8.18,8.18,0,0,0,94.3.89,16,16,0,0,0,96.05,0Z"/>
        <path class="cls-1" d="M75.36,0C73.15,1.6,70.82,2.9,68,2.58A7.76,7.76,0,0,1,65.57,2c-1.21-.57-2.35-1.32-3.52-2H64.3a2.72,2.72,0,0,0,.42.34A8.18,8.18,0,0,0,71.3.92,14.79,14.79,0,0,0,73.12,0Z"/>
        <path class="cls-1" d="M4.81,160.34c2.21-1.6,4.54-2.9,7.41-2.57a7.87,7.87,0,0,1,2.45.61c1.2.56,2.3,1.3,3.45,2H15.87a2.65,2.65,0,0,0-.42-.33,8.13,8.13,0,0,0-6.66-.56,14.12,14.12,0,0,0-1.73.89Z"/>
        <path class="cls-1" d="M52.43,0c-2.79,2.11-5.81,3.42-9.33,2.15a28.42,28.42,0,0,1-4-2.15h2.25a1.45,1.45,0,0,0,.22.21,8.34,8.34,0,0,0,8,.24A4.15,4.15,0,0,0,50.19,0Z"/>
        <path class="cls-1" d="M119.3,160.34A14.44,14.44,0,0,1,124,158a8.6,8.6,0,0,1,6.6,1c.7.42,1.37.89,2,1.33h-2.24a3.9,3.9,0,0,0-2.11-1,7.76,7.76,0,0,0-6.71,1Z"/>
        <path class="cls-1" d="M121.22,0a15.81,15.81,0,0,1-4.12,2.23,8,8,0,0,1-6.2-.44c-1-.52-2-1.19-3-1.79h2.25a1.87,1.87,0,0,0,.32.31,8.08,8.08,0,0,0,4.15,1A7.14,7.14,0,0,0,119,0Z"/>
        <path class="cls-1" d="M27.74,160.34c2.82-2.13,5.86-3.43,9.41-2.12a29,29,0,0,1,3.9,2.12H38.8a1.74,1.74,0,0,0-.29-.25,8.19,8.19,0,0,0-6.73-.67,13.28,13.28,0,0,0-1.8.92Z"/>
        <path class="cls-1" d="M96.37,160.34A14.8,14.8,0,0,1,101,158a8.13,8.13,0,0,1,6,.76c.9.5,1.74,1.08,2.61,1.62h-2.08a14,14,0,0,0-2-.94,7.87,7.87,0,0,0-7,.94Z"/>
        <path class="cls-1" d="M29.5,0c-3.38,2.6-7,3.66-11,1.42C17.71,1,17,.47,16.19,0h2.25a8.18,8.18,0,0,0,9,0Z"/>
        <path class="cls-1" d="M50.67,160.34c3.22-2.48,6.72-3.61,10.57-1.62.94.48,1.83,1.08,2.74,1.62H61.73a8.18,8.18,0,0,0-9,0Z"/>
        <path class="cls-1" d="M144.15,0a14.8,14.8,0,0,1-4.66,2.38,8.58,8.58,0,0,1-6.61-1c-.7-.42-1.36-.89-2-1.34h2.08a15.08,15.08,0,0,0,2,.94,7.84,7.84,0,0,0,7-.94Z"/>
        <path class="cls-1" d="M73.6,160.34c.63-.42,1.24-.87,1.89-1.25a8.59,8.59,0,0,1,9.36,0c.65.38,1.27.83,1.9,1.25H84.66a14.55,14.55,0,0,0-1.91-.92,8,8,0,0,0-7.07.92Z"/>
        <path class="cls-1" d="M160.34,2.57a6.65,6.65,0,0,1-3.83-.87c-.94-.51-1.83-1.13-2.74-1.7h2.08a9.06,9.06,0,0,0,1.55.79c1,.28,2,.44,2.94.65Z"/>
        <path class="cls-1" d="M6.57,0C5.73.54,4.92,1.12,4.05,1.59a7,7,0,0,1-4,1V1.44L.86,1.3A7.55,7.55,0,0,0,4.49,0Z"/>
      </g>
    </g>
  </g>
</svg>
