<?xml version="1.0" encoding="utf-8"?>
<!-- Generator: Adobe Illustrator 26.3.1, SVG Export Plug-In . SVG Version: 6.00 Build 0)  -->
<svg version="1.1" id="Capa_1" xmlns="http://www.w3.org/2000/svg" xmlns:xlink="http://www.w3.org/1999/xlink" x="0px" y="0px"
	 viewBox="0 0 160.3 160.3" style="enable-background:new 0 0 160.3 160.3;" xml:space="preserve">
<style type="text/css">
	.st0{opacity:0.25;}
	.st1{fill:#FFFFFF;}
</style>
<g id="Capa_2_00000062874707161960570020000002969542982875263158_" class="st0">
	<g id="Capa_1-2">
		<g>
			<path class="st1" d="M0,124.3c1.6,0,3.2-0.4,4.6-1.3c1.3-0.8,2.6-1.5,4-2.1c2.2-0.9,4.6-0.8,6.7,0.4c1,0.5,1.9,1,2.8,1.6
				c2.9,2,6.7,2,9.7,0c1.2-0.8,2.5-1.4,3.8-2c2.1-0.9,4.6-0.7,6.6,0.4c1,0.5,2,1.2,3.1,1.7c1.6,1,3.4,1.4,5.3,1.3
				c1.4-0.1,2.8-0.6,4-1.3c1.3-0.8,2.6-1.5,4-2.1c2.1-0.9,4.6-0.7,6.6,0.4c1,0.5,2,1.1,3,1.7c2.8,1.8,6.4,1.8,9.2,0.1l2.4-1.4
				c2.8-1.7,6.2-1.7,9,0c1.3,0.8,2.6,1.5,4,2.1c2.5,1,5.3,0.7,7.5-0.7c0.9-0.6,1.9-1.1,2.8-1.6c2.5-1.4,5.6-1.4,8.1,0
				c0.9,0.5,1.8,1,2.6,1.5c2.9,1.9,6.5,1.9,9.4,0c1.2-0.8,2.5-1.5,3.9-2.1c2.2-0.9,4.7-0.8,6.7,0.4c1,0.5,2,1.1,2.9,1.7
				c2.9,1.9,6.5,1.9,9.4,0c1.2-0.8,2.5-1.5,3.9-2.1c2.1-0.9,4.6-0.7,6.6,0.4c1.1,0.5,2.1,1.2,3.1,1.8c1.4,0.8,2.9,1.3,4.6,1.3v1.3
				c-1.7,0-3.3-0.5-4.7-1.4l-1.9-1.1c-2.9-1.9-6.7-1.9-9.6,0c-0.9,0.5-1.7,1-2.6,1.5c-2.5,1.4-5.5,1.4-8,0c-0.9-0.5-1.8-1-2.7-1.6
				c-2.9-1.9-6.7-1.9-9.6,0c-1,0.6-1.9,1.2-2.9,1.7c-2.4,1.2-5.2,1.2-7.6,0c-1.3-0.6-2.4-1.4-3.7-2.1c-2.4-1.3-5.4-1.3-7.8,0
				c-1.2,0.6-2.4,1.4-3.6,2c-2.4,1.3-5.4,1.3-7.8,0c-1-0.5-1.9-1.1-2.8-1.6c-2.9-1.9-6.6-1.9-9.5,0l-1.9,1.1c-2.9,2-6.8,2-9.7,0
				l-2-1.2c-2.8-1.8-6.4-1.8-9.3,0c-0.7,0.4-1.3,0.8-2,1.2c-2.9,2-6.8,2-9.7,0c-0.9-0.6-1.8-1.1-2.8-1.6c-2.4-1.2-5.2-1.2-7.6,0
				c-1.3,0.7-2.5,1.5-3.9,2.1c-2.4,1.3-5.3,1.3-7.7,0c-1-0.5-1.9-1-2.8-1.6c-2.9-1.9-6.7-1.9-9.6,0c-0.9,0.5-1.8,1-2.6,1.5
				c-1.2,0.7-2.6,1-4,1L0,124.3z"/>
			<path class="st1" d="M0,92.2c1.6,0,3.2-0.5,4.6-1.3c1.3-0.8,2.6-1.5,4-2.1c2.2-0.9,4.6-0.8,6.7,0.4c1,0.5,1.9,1.1,2.9,1.6
				c2.9,1.9,6.6,1.9,9.5,0c1.2-0.8,2.5-1.4,3.9-2c2.1-0.9,4.6-0.7,6.6,0.4c1,0.5,2,1.1,3,1.7c2.9,1.9,6.5,1.9,9.4,0
				c1.3-0.8,2.6-1.5,4-2.1c2.1-0.9,4.6-0.7,6.6,0.4c1,0.5,2,1.1,3,1.7c2.8,1.8,6.4,1.8,9.2,0.1c0.8-0.5,1.6-1,2.4-1.4
				c2.8-1.7,6.2-1.7,9,0c0.9,0.5,1.8,1.1,2.7,1.6c2.7,1.6,6.2,1.5,8.8-0.2c1.3-0.8,2.6-1.5,4-2.1c2.1-0.9,4.6-0.7,6.6,0.3
				c1,0.5,2,1.1,3,1.7c2.9,1.9,6.5,1.9,9.4,0c1.2-0.8,2.5-1.5,3.9-2.1c2.2-0.9,4.7-0.8,6.7,0.4c1,0.5,2,1.1,3,1.7
				c2.8,1.8,6.4,1.8,9.2,0c1.3-0.8,2.6-1.5,4-2.1c2.1-0.9,4.6-0.7,6.6,0.4c1.1,0.5,2.1,1.2,3.1,1.8c1.4,0.8,2.9,1.3,4.6,1.3v1.3
				c-1.7,0-3.3-0.5-4.8-1.4l-1.9-1.1c-2.9-1.9-6.7-1.9-9.6,0c-0.9,0.5-1.7,1-2.6,1.5c-2.5,1.4-5.5,1.4-8,0c-0.9-0.5-1.8-1-2.7-1.6
				c-2.9-1.9-6.7-1.9-9.6,0c-1,0.6-1.9,1.2-2.9,1.7c-2.4,1.2-5.2,1.2-7.6,0c-1.3-0.6-2.4-1.4-3.7-2.1c-2.4-1.3-5.4-1.3-7.8,0
				c-1.2,0.6-2.4,1.4-3.6,2c-2.4,1.3-5.4,1.3-7.8,0c-1-0.5-2-1.1-2.9-1.7c-2.8-1.8-6.5-1.8-9.3,0c-0.6,0.4-1.2,0.7-1.9,1.1
				c-3,2-6.9,2-9.9,0c-0.9-0.5-1.7-1.1-2.6-1.5c-2.4-1.3-5.3-1.3-7.7,0c-1.3,0.6-2.5,1.4-3.8,2.1c-2.4,1.2-5.2,1.2-7.5,0
				c-1-0.5-2-1.1-2.9-1.7c-2.9-1.9-6.7-1.9-9.5,0c-0.9,0.6-1.8,1.1-2.8,1.6c-2.5,1.3-5.4,1.3-7.9,0c-0.9-0.5-1.8-1-2.7-1.6
				C13.3,89,9.5,89,6.6,91c-0.9,0.5-1.8,1-2.6,1.5c-1.2,0.7-2.6,1-4,1L0,92.2z"/>
			<path class="st1" d="M160.3,56.1c-1.7-0.1-3.3-0.6-4.8-1.5c-1.1-0.7-2.2-1.3-3.4-1.9c-2.6-1.1-5.5-0.9-7.8,0.7
				c-0.9,0.5-1.9,1.1-2.9,1.6c-2.5,1.4-5.6,1.4-8.1,0c-0.9-0.5-1.8-1-2.7-1.6c-2.8-1.8-6.4-1.8-9.3,0c-1.3,0.8-2.6,1.5-4,2.1
				c-2.2,0.9-4.7,0.8-6.7-0.4c-1-0.5-2-1.1-3-1.7c-2.8-1.8-6.4-1.8-9.3,0c-1.3,0.8-2.6,1.5-4,2.1c-2.2,0.9-4.6,0.7-6.7-0.4
				c-1-0.5-2-1.1-3-1.7c-2.8-1.8-6.4-1.8-9.3,0c-1.3,0.8-2.6,1.5-4,2.1c-2.2,0.9-4.6,0.8-6.7-0.4c-1-0.5-2-1.1-2.9-1.7
				c-2.9-1.9-6.5-1.9-9.4,0c-1.3,0.8-2.6,1.5-4,2.1c-2.1,0.8-4.5,0.6-6.4-0.4c-1.1-0.6-2.2-1.3-3.3-1.9c-1.8-1.1-4.1-1.5-6.2-1
				c-1,0.3-2,0.7-2.9,1.2c-1.3,0.7-2.6,1.5-4,2.1c-2.1,0.9-4.5,0.7-6.5-0.4c-1-0.5-2-1.1-3-1.7c-2.8-1.9-6.5-1.9-9.3-0.1
				c-0.7,0.4-1.4,0.8-2.1,1.3c-1.4,0.9-3,1.4-4.6,1.5v-1.3c2.2-0.2,4.2-0.9,6-2.2c1-0.6,2.1-1.1,3.2-1.5c2.4-0.7,4.9-0.3,7,1.1
				c1,0.6,2,1.2,3,1.7c2.3,1.2,5,1.2,7.3,0c1-0.5,2-1.1,3-1.7c2.9-1.9,6.7-1.9,9.5,0l2,1.2c2.9,1.9,6.5,1.9,9.4,0
				c1-0.6,1.9-1.1,2.9-1.6c2.4-1.3,5.3-1.3,7.8,0c1,0.5,1.9,1.1,2.9,1.6c2.9,1.8,6.6,1.8,9.5,0c1.3-0.8,2.6-1.5,4-2.1
				c2.2-0.8,4.6-0.7,6.6,0.5c1,0.5,1.9,1,2.8,1.6c2.9,1.9,6.6,1.9,9.5,0.1c1-0.6,1.9-1.1,2.8-1.6c2.4-1.3,5.4-1.3,7.8,0
				c1,0.5,1.9,1.1,2.8,1.6c2.9,1.9,6.6,1.9,9.5,0c0.8-0.5,1.5-0.9,2.3-1.3c2.8-1.7,6.4-1.6,9.1,0.2l2.1,1.3c2.8,1.8,6.4,1.8,9.3,0
				l2-1.2c2.9-1.9,6.7-1.9,9.6,0c0.6,0.4,1.2,0.7,1.9,1.1c1.5,0.9,3.1,1.4,4.8,1.5L160.3,56.1z"/>
			<path class="st1" d="M0,108.2c1.6,0,3.2-0.5,4.6-1.3c1.3-0.8,2.6-1.5,4-2.1c2.2-0.9,4.6-0.7,6.7,0.4c1,0.5,2,1.1,2.9,1.7
				c2.9,1.9,6.5,1.9,9.4,0c1.3-0.8,2.6-1.5,4-2.1c2.1-0.9,4.6-0.7,6.6,0.4c1,0.5,2,1.1,3,1.7c2.9,1.9,6.5,1.9,9.4,0
				c1.3-0.8,2.6-1.5,4-2.1c2.1-0.9,4.5-0.7,6.5,0.4c1,0.5,2,1.2,3.1,1.7c2.8,1.8,6.4,1.8,9.2,0.1c0.8-0.5,1.6-1,2.4-1.4
				c2.8-1.7,6.2-1.7,9,0c0.9,0.5,1.7,1,2.6,1.5c2.8,1.7,6.3,1.6,9.1-0.1c1.3-0.8,2.6-1.5,4-2.1c2.1-0.9,4.6-0.7,6.6,0.4
				c1,0.5,2,1.1,3,1.7c2.8,1.8,6.5,1.9,9.3,0.1c1.3-0.8,2.6-1.5,4-2.1c2.1-0.9,4.6-0.7,6.6,0.4c1,0.5,2,1.2,3.1,1.7
				c2.8,1.8,6.4,1.8,9.2,0c1.3-0.8,2.6-1.5,4-2.1c2.1-0.9,4.6-0.7,6.6,0.4c1.1,0.5,2.1,1.2,3.1,1.8c1.4,0.8,2.9,1.3,4.6,1.3v1.3
				c-1.7,0-3.3-0.5-4.7-1.4l-2-1.2c-2.9-1.9-6.6-1.9-9.5,0c-0.9,0.5-1.8,1.1-2.7,1.6c-2.5,1.4-5.5,1.4-8,0c-1-0.5-1.9-1.1-2.8-1.6
				c-2.8-1.8-6.5-1.8-9.3,0c-0.8,0.5-1.6,1-2.4,1.4c-2.8,1.7-6.3,1.6-9.1-0.2c-1-0.6-2-1.2-3-1.7c-2.4-1.2-5.2-1.2-7.6,0
				c-1.3,0.6-2.5,1.4-3.8,2.1c-2.4,1.3-5.4,1.3-7.8,0c-1-0.5-1.9-1.1-2.8-1.6c-2.9-1.9-6.6-1.9-9.5,0c-0.6,0.3-1.2,0.7-1.8,1.1
				c-3,2-6.9,2-9.9,0c-0.9-0.6-1.9-1.1-2.9-1.5c-2.3-1.2-5.1-1.2-7.4,0c-1.3,0.7-2.6,1.5-3.9,2.2c-2.4,1.2-5.2,1.2-7.5,0
				c-1-0.5-2-1.1-2.9-1.7c-2.9-1.9-6.7-1.9-9.5,0c-0.9,0.6-1.8,1.1-2.8,1.6c-2.4,1.3-5.4,1.3-7.9,0c-0.9-0.5-1.8-1-2.6-1.5
				c-2.9-2-6.8-2-9.8,0c-0.8,0.5-1.7,1-2.6,1.5c-1.2,0.7-2.6,1-4,1L0,108.2z"/>
			<path class="st1" d="M160.3,24c-1.7-0.1-3.3-0.6-4.8-1.5c-1.1-0.7-2.2-1.3-3.4-1.9c-2.6-1.1-5.5-0.9-7.9,0.6c-1,0.6-2,1.2-3,1.7
				c-2.4,1.3-5.3,1.3-7.7,0c-1-0.5-2-1.1-3-1.7c-2.8-1.8-6.4-1.8-9.3,0c-1.3,0.8-2.6,1.5-4,2.1c-2.2,0.9-4.7,0.7-6.7-0.5
				c-1-0.5-1.9-1.1-2.8-1.6c-2.9-1.9-6.5-1.9-9.4,0c-1.2,0.8-2.5,1.5-3.9,2c-2.2,0.9-4.6,0.7-6.7-0.4c-1-0.5-2-1.1-3-1.7
				c-2.8-1.8-6.4-1.8-9.3,0c-1.3,0.8-2.6,1.5-4,2.1c-2.1,0.9-4.5,0.8-6.5-0.3c-1-0.5-2-1.1-3-1.7c-2.9-1.9-6.5-1.9-9.4,0
				c-1.3,0.8-2.6,1.5-4,2.1c-2.1,0.9-4.6,0.7-6.6-0.4c-1.1-0.5-2.1-1.2-3.2-1.8c-1.5-0.9-3.3-1.4-5.1-1.2c-1.4,0.1-2.8,0.6-4,1.3
				c-1.3,0.8-2.6,1.5-4,2.1c-2.1,0.8-4.5,0.7-6.5-0.4c-1-0.5-2-1.1-3.1-1.7c-2.8-1.8-6.4-1.8-9.2-0.1c-0.7,0.4-1.5,0.9-2.2,1.3
				C3.3,23.5,1.7,24,0,24v-1.3c2.2-0.2,4.2-0.9,6-2.1c1-0.7,2.2-1.2,3.3-1.6c2.4-0.7,4.9-0.3,7,1.1c1,0.6,2,1.2,3,1.7
				c2.3,1.2,5,1.2,7.3,0c1-0.5,2-1.1,3-1.7c2.9-1.9,6.7-1.9,9.5,0l2,1.2c2.9,1.9,6.5,1.9,9.4,0c0.9-0.5,1.8-1.1,2.8-1.6
				c2.5-1.4,5.5-1.4,7.9,0c0.9,0.5,1.8,1,2.7,1.6c2.9,1.9,6.7,1.9,9.6,0c1.3-0.8,2.6-1.5,4-2.1c2.1-0.8,4.5-0.6,6.4,0.5
				c1,0.5,1.9,1.1,2.8,1.6c2.9,1.9,6.6,1.9,9.5,0.1c1-0.6,1.9-1.1,2.8-1.6c2.4-1.3,5.4-1.3,7.8,0c1,0.5,1.9,1.1,2.8,1.6
				c2.9,1.9,6.5,1.9,9.4,0c0.8-0.5,1.6-1,2.4-1.4c2.8-1.7,6.3-1.6,9,0.1c0.7,0.4,1.5,0.9,2.2,1.3c2.8,1.8,6.4,1.8,9.3,0l2-1.2
				c2.9-1.9,6.6-1.9,9.5,0c0.6,0.4,1.3,0.7,1.9,1.1c1.5,0.9,3.1,1.4,4.8,1.5L160.3,24z"/>
			<path class="st1" d="M160.3,88.2c-1.7-0.1-3.3-0.6-4.8-1.5c-1.1-0.7-2.2-1.3-3.4-1.9c-2.6-1.1-5.5-0.9-7.9,0.6
				c-1,0.6-2,1.2-3,1.7c-2.4,1.3-5.3,1.3-7.7,0c-1-0.5-2-1.1-3-1.7c-2.8-1.8-6.4-1.8-9.3,0c-1.3,0.8-2.6,1.5-4,2.1
				c-2.2,0.9-4.7,0.7-6.8-0.4c-1-0.5-1.9-1.1-2.8-1.6c-2.9-1.9-6.5-1.9-9.4,0c-1.2,0.8-2.5,1.5-3.9,2.1c-2.2,0.9-4.6,0.7-6.7-0.4
				c-1-0.5-2-1.1-3-1.7c-2.8-1.8-6.4-1.8-9.3,0c-1.3,0.8-2.6,1.5-4,2.1c-2.1,0.9-4.5,0.8-6.5-0.3c-1-0.5-2-1.1-3-1.7
				c-2.9-1.9-6.5-1.9-9.4,0c-1.3,0.8-2.6,1.5-4,2.1c-2.1,0.9-4.6,0.7-6.6-0.4c-1-0.6-2.1-1.2-3.2-1.8c-1.5-0.9-3.3-1.4-5.1-1.2
				c-1.4,0.1-2.8,0.6-4,1.3c-1.3,0.8-2.6,1.5-4,2.1c-2.1,0.9-4.5,0.7-6.5-0.4c-1-0.5-2-1.2-3.1-1.7c-2.8-1.8-6.4-1.8-9.2-0.1
				c-0.7,0.4-1.5,0.8-2.2,1.3c-1.4,0.9-3,1.4-4.7,1.4v-1.3c2.2-0.2,4.2-0.9,6-2.2c1-0.6,2.1-1.2,3.3-1.6c2.4-0.7,4.9-0.3,7,1.1
				c1,0.6,2,1.2,3,1.7c2.3,1.2,5,1.2,7.3,0c1-0.5,2-1.1,3-1.7c2.9-1.9,6.7-1.9,9.5,0l2,1.2c2.9,1.9,6.5,1.9,9.4,0
				c0.9-0.5,1.8-1.1,2.8-1.6c2.5-1.4,5.5-1.4,7.9,0c0.9,0.5,1.8,1,2.7,1.6c2.9,1.9,6.7,1.9,9.6,0c1.3-0.8,2.6-1.5,4-2.1
				c2.1-0.8,4.5-0.6,6.4,0.5c1,0.5,1.9,1.1,2.8,1.6c2.9,1.9,6.6,1.9,9.5,0c1-0.6,1.9-1.1,2.8-1.6c2.4-1.3,5.3-1.3,7.8,0
				c1,0.5,1.9,1.1,2.8,1.6c2.9,1.9,6.5,1.9,9.4,0c0.8-0.5,1.6-1,2.4-1.4c2.8-1.6,6.3-1.6,9,0.2c0.7,0.4,1.5,0.9,2.2,1.3
				c2.8,1.8,6.4,1.8,9.3,0l2-1.2c2.9-1.9,6.6-1.9,9.5,0c0.6,0.4,1.3,0.7,1.9,1.1c1.5,0.9,3.1,1.4,4.8,1.5L160.3,88.2z"/>
			<path class="st1" d="M160.3,157.6c-1.7,0-3.3-0.5-4.8-1.4l-1.9-1.1c-2.9-1.9-6.7-1.9-9.6,0c-0.9,0.5-1.7,1-2.6,1.5
				c-2.5,1.4-5.5,1.4-8,0c-0.9-0.5-1.8-1-2.7-1.6c-2.9-1.9-6.7-1.9-9.6,0c-0.8,0.4-1.5,0.9-2.3,1.3c-2.8,1.7-6.3,1.6-9.1-0.1
				c-1-0.6-2-1.2-3-1.7c-2.4-1.2-5.2-1.2-7.6,0c-1.3,0.6-2.5,1.4-3.8,2.1c-2.4,1.3-5.4,1.3-7.8,0c-1-0.5-2-1.1-2.9-1.7
				c-2.8-1.8-6.5-1.8-9.3,0l-1.9,1.1c-3,2-6.9,2-9.9,0c-0.9-0.5-1.7-1.1-2.6-1.5c-2.4-1.3-5.3-1.3-7.7,0c-1.3,0.6-2.5,1.5-3.8,2.1
				c-2.4,1.2-5.2,1.2-7.5,0c-1-0.5-2-1.1-2.9-1.7c-2.9-1.9-6.7-1.9-9.5,0c-0.9,0.5-1.8,1.1-2.8,1.6c-2.4,1.3-5.4,1.3-7.9,0
				c-0.9-0.5-1.8-1-2.7-1.6c-2.9-1.9-6.7-1.9-9.6,0c-0.9,0.5-1.8,1-2.6,1.5c-1.2,0.7-2.6,1-4,1v-1.3c1.6,0,3.2-0.5,4.6-1.3
				c1.3-0.8,2.6-1.5,4-2.1c2.2-0.9,4.6-0.8,6.7,0.4c1,0.5,1.9,1.1,2.9,1.6c2.9,1.9,6.6,1.9,9.5,0c1.2-0.8,2.5-1.5,3.9-2.1
				c2.1-0.9,4.6-0.7,6.6,0.4c1,0.5,2,1.1,3,1.7c2.9,1.9,6.5,1.9,9.4,0c1.3-0.8,2.6-1.5,4-2.1c2.1-0.9,4.6-0.7,6.6,0.4
				c1,0.5,2,1.1,3,1.7c2.8,1.8,6.4,1.8,9.2,0.1l2.4-1.4c2.8-1.7,6.2-1.7,9,0c0.9,0.5,1.8,1.1,2.7,1.6c2.7,1.6,6.2,1.5,8.8-0.2
				c1.3-0.8,2.6-1.5,4-2.1c2.1-0.9,4.6-0.7,6.6,0.4c1,0.5,2,1.1,3,1.7c2.9,1.9,6.5,1.9,9.4,0c1.2-0.8,2.5-1.5,3.9-2.1
				c2.2-0.9,4.7-0.8,6.7,0.4c1,0.5,2,1.1,3,1.7c2.8,1.8,6.4,1.8,9.2,0c1.3-0.8,2.6-1.5,4-2.1c2.1-0.9,4.6-0.7,6.6,0.4
				c1.1,0.5,2.1,1.2,3.1,1.8c1.4,0.8,2.9,1.3,4.6,1.3V157.6z"/>
			<path class="st1" d="M0,6.7c2.2-0.2,4.2-0.9,6-2.1c0.8-0.5,1.6-1,2.5-1.3c2.6-1,5.5-0.6,7.8,0.9c1,0.6,2,1.2,3,1.7
				c2.3,1.2,5,1.2,7.3,0c1-0.5,2-1.1,3-1.7c2.9-1.9,6.7-1.9,9.6,0l1.9,1.2c2.9,1.8,6.5,1.8,9.4,0c0.9-0.6,1.9-1.1,2.9-1.6
				c2.4-1.3,5.3-1.3,7.8,0c1,0.5,1.9,1.1,2.8,1.6c2.9,1.9,6.6,1.9,9.5,0c1.3-0.8,2.6-1.5,4-2.1C79.6,2.4,82,2.5,84,3.6
				c1,0.5,1.9,1.1,2.8,1.6c2.9,1.9,6.6,1.9,9.5,0c1-0.6,1.9-1.1,2.8-1.6c2.4-1.3,5.4-1.3,7.8,0c1.3,0.6,2.4,1.4,3.7,2.1
				c2.4,1.3,5.3,1.3,7.8,0c1.1-0.5,2.1-1.2,3.1-1.8c2.8-1.7,6.4-1.6,9.1,0.2c1,0.6,2,1.2,3,1.7c2.3,1.2,5.1,1.2,7.5,0
				c1-0.5,2-1.1,2.9-1.7c2.9-1.9,6.7-1.9,9.6,0c0.6,0.4,1.3,0.8,1.9,1.2c1.4,0.9,3.1,1.4,4.8,1.5V8c-1.7-0.1-3.3-0.6-4.8-1.5
				c-1.1-0.7-2.2-1.3-3.4-1.9c-2.6-1.1-5.5-0.9-7.9,0.6c-1,0.6-2,1.2-3,1.7c-2.4,1.3-5.3,1.3-7.7,0c-1-0.5-2-1.1-3-1.7
				c-2.8-1.8-6.4-1.8-9.3,0c-1.3,0.8-2.6,1.5-4,2.1c-2.2,0.9-4.7,0.8-6.7-0.4c-1-0.5-2-1.1-2.9-1.7c-2.9-1.9-6.5-1.9-9.4,0
				c-1.2,0.8-2.5,1.5-3.9,2c-2.1,0.9-4.6,0.7-6.6-0.4c-1.1-0.5-2.1-1.2-3.1-1.8c-2.8-1.7-6.3-1.7-9.1,0c-1.3,0.8-2.6,1.5-4,2.1
				C69.4,8.3,67,8.2,65,7.1c-1-0.5-2-1.1-3-1.7c-2.9-1.9-6.5-1.9-9.4,0c-1.2,0.8-2.5,1.5-3.9,2C46.5,8.3,44,8.2,42,7
				c-1.1-0.6-2.2-1.3-3.3-1.9c-1.8-1.1-4-1.4-6.1-0.9c-1,0.3-2,0.7-2.9,1.2c-1.3,0.7-2.6,1.5-4,2.1c-2.1,0.9-4.5,0.7-6.5-0.4
				c-1-0.5-2-1.1-3-1.7c-2.8-1.9-6.5-1.9-9.3-0.1L4.7,6.6C3.3,7.5,1.7,8,0,8V6.7z"/>
			<path class="st1" d="M160.3,72.2c-1.7-0.1-3.3-0.6-4.8-1.4c-1.1-0.7-2.2-1.3-3.4-1.9c-2.6-1.1-5.5-0.9-7.9,0.6
				c-1,0.6-2,1.2-3,1.7c-2.4,1.3-5.3,1.3-7.7,0c-1-0.5-2-1.1-3-1.7c-2.8-1.8-6.4-1.8-9.3,0c-1.3,0.8-2.6,1.5-4,2.1
				c-2.2,0.9-4.7,0.8-6.7-0.4c-1-0.5-2-1.1-2.9-1.7c-2.9-1.9-6.5-1.9-9.4,0c-1.2,0.8-2.5,1.5-3.9,2.1c-2.1,0.9-4.6,0.7-6.6-0.4
				c-1.1-0.5-2.1-1.2-3.1-1.8c-2.8-1.7-6.3-1.7-9.1,0c-1.3,0.8-2.6,1.5-4,2.1c-2.1,0.9-4.5,0.8-6.5-0.3c-1-0.5-2-1.1-3-1.7
				c-2.9-1.9-6.5-1.9-9.4,0c-1.2,0.8-2.5,1.5-3.9,2.1c-2.2,0.9-4.7,0.7-6.7-0.4c-1.1-0.6-2.2-1.3-3.3-1.9c-1.8-1.1-4-1.4-6.1-0.9
				c-1,0.3-2,0.7-2.9,1.2c-1.3,0.7-2.6,1.5-4,2.1c-2.1,0.8-4.5,0.7-6.5-0.4c-1-0.5-2-1.1-3-1.7c-2.8-1.9-6.5-1.9-9.3-0.1
				c-0.7,0.4-1.4,0.8-2.1,1.3c-1.4,0.9-3,1.4-4.7,1.4v-1.3c2.2-0.2,4.2-0.9,6-2.2c0.8-0.5,1.6-1,2.5-1.3c2.6-1,5.5-0.6,7.8,0.9
				c1,0.6,2,1.2,3,1.7c2.3,1.2,5,1.2,7.3,0c1-0.5,2-1.1,3-1.7c2.9-1.9,6.7-1.9,9.6,0l1.9,1.2c2.9,1.8,6.5,1.8,9.4,0
				c0.9-0.6,1.9-1.1,2.9-1.6c2.4-1.3,5.3-1.3,7.8,0c1,0.5,1.9,1.1,2.8,1.6c2.9,1.9,6.6,1.9,9.5,0c1.3-0.8,2.6-1.5,4-2.1
				c2.1-0.8,4.5-0.6,6.4,0.5c1,0.5,1.9,1.1,2.8,1.6c2.9,1.9,6.6,1.9,9.5,0c1-0.6,1.9-1.1,2.8-1.6c2.4-1.3,5.4-1.3,7.8,0
				c1.3,0.6,2.4,1.4,3.7,2.1c2.4,1.3,5.4,1.3,7.8,0c1.1-0.5,2.1-1.2,3.1-1.8c2.8-1.7,6.4-1.6,9.1,0.2c1,0.6,2,1.2,3,1.7
				c2.4,1.2,5.1,1.2,7.5,0c1-0.5,2-1.1,2.9-1.7c2.9-1.9,6.7-1.9,9.6,0c0.6,0.4,1.3,0.8,1.9,1.2c1.4,0.9,3.1,1.4,4.8,1.5L160.3,72.2z
				"/>
			<path class="st1" d="M0,76.2c1.6,0,3.2-0.5,4.6-1.3c1.3-0.8,2.6-1.5,4-2.1c2.1-0.9,4.6-0.8,6.6,0.3c1,0.5,2,1.1,3,1.7
				c2.9,1.9,6.5,1.9,9.4,0c1.3-0.8,2.6-1.5,4-2.1c2.1-0.9,4.6-0.7,6.6,0.4c1,0.5,2,1.1,3,1.7c2.9,1.9,6.5,1.9,9.4,0
				c1.3-0.8,2.6-1.5,4-2.1c2.1-0.9,4.5-0.7,6.5,0.4c1,0.5,2,1.1,3.1,1.7c2.8,1.8,6.4,1.8,9.2,0.1l2.4-1.4c2.8-1.7,6.2-1.7,9,0
				c0.9,0.5,1.7,1,2.6,1.5c2.8,1.7,6.3,1.6,9.1-0.1c1-0.6,1.9-1.2,2.9-1.7c2.4-1.3,5.3-1.3,7.7,0c1,0.5,2,1.1,3,1.7
				c2.8,1.8,6.4,1.8,9.2,0.1c1.3-0.8,2.6-1.5,4-2.1c2.2-0.9,4.7-0.8,6.7,0.4c1,0.5,2,1.1,3,1.7c2.8,1.8,6.4,1.8,9.2,0
				c1.3-0.8,2.6-1.5,4-2.1c2.1-0.9,4.6-0.7,6.6,0.4c1.1,0.5,2.1,1.2,3.1,1.8c1.4,0.9,2.9,1.3,4.6,1.3v1.3c-1.7,0-3.3-0.5-4.7-1.4
				l-2-1.2c-2.9-1.9-6.6-1.9-9.5,0c-0.9,0.5-1.8,1.1-2.8,1.6c-2.4,1.3-5.4,1.3-7.9,0c-1.3-0.6-2.4-1.4-3.7-2.1
				c-2.4-1.3-5.3-1.3-7.7,0c-0.9,0.4-1.7,1-2.6,1.5c-3,2.1-6.9,2.1-9.9,0.1c-0.9-0.6-1.8-1.1-2.8-1.6c-2.4-1.2-5.2-1.2-7.6,0
				c-1.3,0.6-2.5,1.4-3.8,2.1c-2.4,1.3-5.4,1.3-7.8,0c-1-0.5-2-1.1-2.9-1.7c-2.8-1.8-6.5-1.8-9.3,0c-0.6,0.4-1.2,0.7-1.9,1.1
				c-3,2-6.9,2-9.8,0c-0.9-0.6-1.8-1.1-2.7-1.6c-2.4-1.3-5.3-1.3-7.7,0c-1.3,0.7-2.5,1.5-3.8,2.1c-2.4,1.2-5.2,1.2-7.5,0
				c-1-0.5-2-1.1-2.9-1.7c-2.9-1.9-6.7-1.9-9.5,0c-0.9,0.6-1.8,1.1-2.8,1.6c-2.4,1.3-5.4,1.3-7.9,0c-0.9-0.5-1.8-1-2.6-1.5
				c-2.9-2-6.8-2-9.8,0c-0.8,0.5-1.7,1-2.6,1.5c-1.2,0.7-2.6,1-4,1L0,76.2z"/>
			<path class="st1" d="M160.3,40.1c-1.7-0.1-3.3-0.6-4.7-1.4c-1.2-0.7-2.4-1.4-3.7-2c-2.2-1-4.8-0.8-6.9,0.3c-1,0.5-2,1.1-3,1.7
				c-2.8,1.8-6.4,1.8-9.2,0c-1.2-0.8-2.5-1.4-3.8-2c-2.2-0.9-4.7-0.8-6.7,0.3c-1.1,0.5-2,1.1-3.1,1.7c-2.8,1.8-6.5,1.8-9.3,0
				c-1.2-0.7-2.5-1.4-3.7-2c-2.2-0.9-4.7-0.8-6.7,0.3c-1,0.5-2,1.1-2.9,1.7c-2.9,1.9-6.7,1.9-9.6,0C85.9,38,85,37.5,84,37
				c-2.4-1.3-5.3-1.3-7.7,0c-1,0.5-2,1.1-2.9,1.7c-2.9,1.9-6.5,1.9-9.4,0c-1.2-0.8-2.5-1.4-3.8-2c-2.2-0.9-4.7-0.8-6.7,0.4
				c-1,0.5-2,1.1-2.9,1.7c-2.9,1.9-6.5,1.9-9.4,0c-1.2-0.7-2.5-1.4-3.8-2c-2.2-0.9-4.7-0.8-6.7,0.3c-1,0.5-2,1.1-3,1.7
				c-2.8,1.8-6.5,1.8-9.3,0c-1.2-0.8-2.5-1.5-3.9-2.1c-2.2-0.9-4.6-0.8-6.6,0.3c-1,0.5-2,1.1-2.9,1.7C3.3,39.5,1.7,40,0,40.1v-1.3
				c2.1-0.1,4-0.8,5.7-2c0.9-0.6,1.8-1.1,2.8-1.5c2.6-1,5.5-0.6,7.8,0.9c1,0.6,2,1.2,3,1.7c2.3,1.2,5,1.2,7.3,0c1-0.5,2-1.1,3-1.7
				c2.9-1.9,6.7-1.9,9.6,0c0.7,0.4,1.3,0.8,2,1.2c2.8,1.8,6.4,1.8,9.3,0c1-0.6,1.9-1.2,2.9-1.7c2.4-1.3,5.3-1.3,7.8,0
				c1,0.5,1.9,1.1,2.8,1.6c2.9,1.9,6.6,1.9,9.5,0c1.3-0.8,2.6-1.5,4-2.1c2.1-0.8,4.5-0.6,6.5,0.4c1,0.5,1.9,1.1,2.8,1.6
				c2.9,1.9,6.6,1.9,9.5,0c1-0.5,1.9-1.1,2.8-1.6c2.4-1.3,5.4-1.3,7.8,0c1.3,0.6,2.4,1.4,3.7,2.1c2.4,1.3,5.3,1.3,7.8,0
				c1.1-0.5,2.1-1.2,3.1-1.8c2.8-1.7,6.4-1.6,9.1,0.2c1,0.6,1.9,1.2,2.9,1.7c2.4,1.3,5.2,1.3,7.6,0c1.3-0.7,2.5-1.5,3.8-2.1
				c2.4-1.3,5.3-1.3,7.7,0c1,0.5,2,1.1,2.9,1.7c1.4,0.9,3,1.3,4.7,1.4L160.3,40.1z"/>
			<path class="st1" d="M0,140.3c1.6,0,3.2-0.5,4.6-1.3c1.3-0.8,2.6-1.5,4-2.1c2.1-0.9,4.6-0.8,6.6,0.3c1,0.5,2,1.1,3,1.7
				c2.9,1.9,6.5,1.9,9.4,0c1.3-0.8,2.6-1.5,4-2.1c2.1-0.9,4.6-0.7,6.6,0.4c1,0.5,2,1.1,3,1.7c2.9,1.9,6.5,1.9,9.4,0
				c1.3-0.8,2.6-1.5,4-2.1c2.1-0.9,4.5-0.7,6.5,0.4c1,0.5,2,1.1,3.1,1.7c2.8,1.8,6.4,1.8,9.2,0.1c0.8-0.5,1.6-0.9,2.4-1.4
				c2.8-1.7,6.2-1.7,9,0c0.9,0.5,1.7,1,2.6,1.5c2.8,1.7,6.3,1.6,9.1-0.1c1-0.6,1.9-1.2,2.9-1.7c2.4-1.3,5.3-1.3,7.7,0
				c1,0.5,2,1.1,3,1.7c2.8,1.8,6.4,1.8,9.2,0c1.3-0.8,2.6-1.5,4-2.1c2.2-0.9,4.7-0.8,6.7,0.4c1,0.5,2,1.1,3,1.7
				c2.8,1.8,6.4,1.8,9.2,0c1.3-0.8,2.6-1.5,4-2.1c2.1-0.9,4.6-0.7,6.6,0.4c1.1,0.5,2.1,1.2,3.1,1.8c1.4,0.8,2.9,1.3,4.6,1.3v1.3
				c-1.7,0-3.3-0.5-4.7-1.4c-0.7-0.4-1.3-0.8-2-1.2c-2.9-1.9-6.6-1.9-9.5,0c-0.9,0.5-1.8,1.1-2.8,1.6c-2.4,1.3-5.4,1.3-7.9,0
				c-1.3-0.6-2.4-1.4-3.7-2.1c-2.4-1.3-5.3-1.3-7.7,0c-0.9,0.4-1.7,1-2.6,1.5c-3,2-6.9,2.1-9.9,0.1c-0.9-0.6-1.8-1.1-2.8-1.6
				c-2.4-1.2-5.2-1.2-7.6,0c-1.3,0.6-2.5,1.4-3.8,2.1c-2.4,1.3-5.4,1.3-7.8,0c-1-0.5-2-1.1-2.9-1.7c-2.8-1.8-6.5-1.8-9.3,0l-1.9,1.1
				c-3,2-6.9,2-9.8,0c-0.9-0.5-1.8-1.1-2.7-1.6c-2.4-1.3-5.3-1.3-7.7,0c-1.3,0.6-2.5,1.5-3.8,2.1c-2.4,1.2-5.2,1.2-7.5,0
				c-1-0.5-2-1.1-2.9-1.6c-2.9-1.9-6.7-1.9-9.5,0c-0.9,0.6-1.8,1.1-2.8,1.6c-2.4,1.3-5.4,1.3-7.9,0c-0.9-0.5-1.8-1-2.6-1.5
				c-2.9-2-6.8-2-9.8,0c-0.8,0.5-1.7,1-2.6,1.5c-1.2,0.7-2.6,1-4,1L0,140.3z"/>
			<path class="st1" d="M160.3,120.3c-1.7-0.1-3.3-0.6-4.8-1.5c-1.1-0.7-2.2-1.3-3.4-1.9c-2.6-1.1-5.5-0.9-7.8,0.6
				c-1,0.6-1.9,1.2-2.9,1.7c-2.4,1.3-5.4,1.3-7.8,0c-1-0.5-2-1.1-2.9-1.7c-2.8-1.8-6.4-1.8-9.3,0c-1.3,0.8-2.6,1.5-4,2.1
				c-2.2,0.9-4.7,0.8-6.7-0.4c-1-0.5-2-1.1-3-1.7c-2.8-1.8-6.4-1.8-9.3,0c-1.3,0.8-2.6,1.5-4,2.1c-2.1,0.9-4.6,0.7-6.6-0.4
				c-1.1-0.5-2.1-1.1-3.1-1.7c-2.8-1.8-6.4-1.8-9.3,0c-1.3,0.8-2.6,1.5-4,2.1c-2.1,0.9-4.6,0.8-6.6-0.3c-1-0.5-2-1.1-3-1.7
				c-2.9-1.9-6.5-1.9-9.4,0c-1.3,0.8-2.6,1.5-4,2.1c-2.1,0.9-4.6,0.7-6.6-0.4c-1.1-0.6-2.2-1.3-3.3-1.9c-1.8-1.1-4.1-1.5-6.2-1
				c-1,0.3-2,0.7-2.9,1.2c-1.3,0.7-2.6,1.5-4,2.1c-2.1,0.9-4.5,0.7-6.5-0.4c-1-0.5-2-1.1-3-1.7c-2.8-1.9-6.5-1.9-9.3-0.1l-1.9,1.3
				c-1.4,0.9-3,1.4-4.7,1.4V119c2.2-0.2,4.2-0.9,6-2.2c1-0.6,2.1-1.1,3.2-1.5c2.4-0.7,4.9-0.3,7,1.1c1,0.6,2,1.2,3,1.7
				c2.3,1.2,5,1.2,7.3,0c1-0.5,2-1.1,3-1.7c2.9-1.9,6.7-1.9,9.5,0l2,1.2c2.9,1.8,6.5,1.8,9.4,0c1-0.6,1.9-1.1,2.9-1.6
				c2.4-1.3,5.3-1.3,7.8,0c1,0.5,1.9,1.1,2.8,1.6c2.9,1.9,6.6,1.9,9.5,0c1.3-0.8,2.6-1.5,4-2.1c2.2-0.8,4.6-0.7,6.6,0.5
				c1,0.5,1.9,1,2.8,1.6c2.9,1.9,6.6,1.9,9.5,0c1-0.6,1.9-1.1,2.8-1.6c2.4-1.3,5.3-1.3,7.8,0c1,0.5,1.9,1.1,2.8,1.6
				c2.9,1.9,6.6,1.9,9.5,0c0.8-0.4,1.5-0.9,2.3-1.3c2.8-1.7,6.4-1.6,9.1,0.2c0.7,0.4,1.4,0.9,2.1,1.3c2.8,1.8,6.4,1.8,9.3,0l2-1.2
				c2.9-1.9,6.7-1.9,9.6,0c0.3,0.2,0.6,0.4,1,0.6c1.7,1.2,3.7,1.9,5.7,2L160.3,120.3z"/>
			<path class="st1" d="M0,60.1c1.6,0,3.2-0.5,4.6-1.3c1.3-0.7,2.6-1.5,4-2.1c2.1-0.9,4.6-0.8,6.6,0.3c1,0.5,1.9,1,2.9,1.6
				c2.9,2,6.7,2,9.7,0c1.2-0.8,2.4-1.4,3.7-2c2.2-0.9,4.6-0.8,6.7,0.3c1.1,0.6,2.2,1.2,3.3,1.9c1.5,0.9,3.3,1.3,5.1,1.2
				c1.4-0.1,2.8-0.6,4-1.3c1.3-0.8,2.6-1.5,4-2.1c2.1-0.9,4.5-0.7,6.6,0.4c1,0.5,2,1.1,3.1,1.7c2.8,1.8,6.4,1.8,9.2,0.1
				c0.8-0.5,1.6-0.9,2.3-1.4c2.8-1.8,6.3-1.8,9.1,0c0.8,0.5,1.7,1,2.5,1.5c2.8,1.7,6.3,1.6,9-0.1c1-0.6,1.9-1.1,2.8-1.6
				c2.4-1.3,5.4-1.3,7.8,0c1,0.5,1.9,1.1,2.8,1.6c2.9,1.9,6.5,1.9,9.4,0c1.2-0.8,2.5-1.5,3.9-2.1c2.1-0.9,4.6-0.8,6.6,0.3
				c1.1,0.5,2.1,1.1,3.1,1.7c2.9,1.9,6.5,1.9,9.4,0c1.2-0.8,2.5-1.5,3.9-2c2.1-0.9,4.5-0.8,6.5,0.3c1.1,0.5,2.1,1.2,3.2,1.8
				c1.4,0.8,2.9,1.3,4.6,1.3v1.3c-1.7,0-3.3-0.5-4.7-1.4c-0.6-0.4-1.3-0.8-1.9-1.1c-2.9-1.9-6.7-1.9-9.6,0c-0.9,0.5-1.7,1-2.6,1.5
				c-2.5,1.4-5.5,1.4-8,0c-0.9-0.5-1.8-1-2.7-1.5c-2.9-1.9-6.6-1.9-9.6,0c-1,0.6-1.9,1.2-2.9,1.7c-2.4,1.2-5.2,1.2-7.6,0
				c-1.3-0.7-2.5-1.5-3.8-2.1c-2.4-1.3-5.3-1.3-7.7,0c-1.3,0.6-2.4,1.4-3.7,2.1c-2.4,1.3-5.4,1.3-7.8,0c-1-0.5-2-1.1-2.9-1.7
				c-2.8-1.8-6.5-1.8-9.3,0L73.6,60c-2.9,2-6.8,2-9.7,0l-2-1.2c-2.8-1.8-6.4-1.8-9.3,0c-0.7,0.4-1.3,0.8-2,1.2c-2.9,2-6.8,2-9.7,0
				c-0.6-0.4-1.3-0.8-1.9-1.1c-2.9-1.8-6.6-1.8-9.4,0.1c-0.9,0.5-1.8,1.1-2.8,1.6c-2.5,1.3-5.4,1.3-7.9,0c-0.9-0.5-1.8-1-2.7-1.5
				C13.3,57,9.6,57,6.6,59c-0.9,0.5-1.8,1-2.6,1.5c-1.2,0.7-2.6,1-4,1V60.1z"/>
			<path class="st1" d="M0,28.1c1.6,0,3.2-0.5,4.6-1.3c1.3-0.7,2.6-1.5,4-2.1c2.1-0.9,4.6-0.8,6.6,0.3c1,0.5,2,1.1,2.9,1.7
				c2.9,1.9,6.6,1.9,9.5,0c1.2-0.8,2.5-1.4,3.8-2c2.2-0.9,4.6-0.8,6.7,0.3c1.1,0.6,2.2,1.2,3.3,1.9c1.9,1.2,4.1,1.5,6.2,1
				c1-0.3,2-0.7,2.9-1.2c1.3-0.6,2.6-1.5,4-2.1c2.1-0.8,4.5-0.7,6.5,0.4c1,0.5,2,1.1,3.1,1.7c2.8,1.8,6.4,1.8,9.2,0.1
				c0.8-0.4,1.5-0.9,2.3-1.3c2.8-1.8,6.4-1.8,9.3,0c0.8,0.5,1.7,1,2.6,1.5c2.7,1.6,6.2,1.5,8.8-0.2c1.3-0.8,2.6-1.5,4-2.1
				c2.2-0.9,4.6-0.8,6.7,0.4c1,0.5,2,1.1,2.9,1.7c2.9,1.9,6.5,1.9,9.4,0c1.3-0.8,2.6-1.5,3.9-2.1c2.1-0.9,4.6-0.8,6.6,0.3
				c1.1,0.5,2.1,1.2,3.1,1.8c2.8,1.8,6.4,1.8,9.2,0c1.3-0.8,2.6-1.5,4-2.1c2.1-0.9,4.5-0.7,6.5,0.3c1.1,0.5,2.1,1.2,3.2,1.8
				c1.4,0.8,2.9,1.3,4.6,1.3v1.3c-1.7,0-3.3-0.5-4.8-1.4l-1.9-1.1c-2.9-1.9-6.7-1.9-9.6,0c-0.9,0.5-1.7,1-2.6,1.5
				c-2.5,1.4-5.5,1.4-8,0c-1.2-0.6-2.4-1.4-3.6-2c-2.5-1.3-5.4-1.3-7.8,0c-0.9,0.5-1.8,1-2.6,1.5c-2.9,1.9-6.8,1.9-9.7,0
				c-0.9-0.6-1.9-1.1-2.9-1.6c-2.4-1.2-5.2-1.2-7.6,0c-1.3,0.6-2.5,1.5-3.8,2.1c-2.4,1.3-5.4,1.3-7.8,0c-1-0.5-2-1.1-2.9-1.7
				c-2.8-1.8-6.5-1.8-9.3,0c-0.9,0.5-1.9,1.1-2.8,1.6c-2.5,1.4-5.4,1.4-7.9,0c-1.2-0.6-2.4-1.4-3.6-2c-2.4-1.3-5.3-1.3-7.7,0
				c-1.3,0.6-2.5,1.5-3.8,2.1c-2.4,1.2-5.2,1.2-7.5,0c-1-0.5-1.9-1-2.9-1.6c-2.9-2-6.8-2-9.7,0c-0.9,0.5-1.8,1.1-2.7,1.5
				c-2.4,1.3-5.4,1.3-7.9,0c-0.9-0.5-1.8-1-2.7-1.5c-2.9-1.9-6.7-1.9-9.6,0c-0.9,0.5-1.8,1-2.6,1.5c-1.2,0.7-2.6,1-4,1L0,28.1z"/>
			<path class="st1" d="M160.3,104.2c-1.7-0.1-3.3-0.6-4.8-1.5c-1.1-0.7-2.2-1.3-3.4-1.9c-2.6-1.1-5.5-0.9-7.9,0.6
				c-1,0.6-2,1.2-3,1.7c-2.4,1.3-5.3,1.3-7.7,0c-1-0.5-2-1.1-3-1.7c-2.8-1.8-6.4-1.8-9.3,0c-1.3,0.8-2.6,1.5-4,2.1
				c-2.2,0.9-4.7,0.8-6.7-0.4c-1-0.5-2-1.1-2.9-1.7c-2.9-1.9-6.5-1.9-9.4,0c-1.2,0.8-2.5,1.5-3.9,2.1c-2.1,0.9-4.5,0.8-6.5-0.3
				c-1.1-0.5-2.1-1.2-3.1-1.8c-2.8-1.8-6.4-1.8-9.3,0c-1.3,0.8-2.6,1.5-4,2.1c-2.1,0.9-4.6,0.8-6.6-0.3c-1-0.5-2-1.1-3-1.7
				c-2.9-1.9-6.5-1.9-9.4,0c-1.2,0.8-2.5,1.5-3.9,2.1c-2.2,0.9-4.7,0.8-6.7-0.4c-1.1-0.5-2.1-1.2-3.1-1.8c-1.5-0.9-3.3-1.4-5.1-1.2
				c-1.4,0.1-2.8,0.6-4,1.3c-1.3,0.8-2.6,1.5-4,2.1c-2.1,0.8-4.5,0.7-6.5-0.4c-1-0.5-2-1.1-3-1.7c-2.8-1.9-6.5-1.9-9.3-0.1
				c-0.7,0.4-1.4,0.8-2.1,1.3c-1.4,0.9-3,1.3-4.6,1.4v-1.3c2.1-0.1,4-0.8,5.7-2c0.9-0.6,1.8-1.1,2.8-1.5c2.6-1,5.5-0.6,7.8,0.9
				c1,0.6,2,1.2,3,1.7c2.3,1.2,5,1.2,7.3,0c1-0.5,2-1.1,3-1.7c2.9-1.9,6.7-1.9,9.6,0c0.7,0.4,1.3,0.8,2,1.2c2.8,1.8,6.4,1.8,9.3,0
				c1-0.6,1.9-1.2,2.9-1.7c2.4-1.3,5.3-1.3,7.8,0c1,0.5,1.9,1.1,2.8,1.6c2.9,1.9,6.6,1.9,9.5,0c1.3-0.8,2.6-1.5,4-2.1
				c2.1-0.8,4.5-0.6,6.4,0.5c1,0.5,1.9,1.1,2.8,1.6c2.9,1.9,6.6,1.9,9.5,0c1-0.6,1.9-1.1,2.8-1.6c2.4-1.3,5.4-1.3,7.8,0
				c1.3,0.6,2.4,1.4,3.7,2.1c2.4,1.3,5.3,1.3,7.8,0c1.1-0.5,2.1-1.2,3.1-1.8c2.8-1.7,6.4-1.6,9.1,0.2c1,0.6,1.9,1.2,2.9,1.7
				c2.4,1.3,5.2,1.3,7.6,0c1.3-0.6,2.5-1.4,3.8-2.1c2.4-1.3,5.3-1.3,7.7,0c1,0.5,2,1.1,2.9,1.7c1.4,0.8,3,1.3,4.7,1.4L160.3,104.2z"
				/>
			<path class="st1" d="M160.3,136.3c-1.7-0.1-3.3-0.6-4.8-1.5c-1.1-0.7-2.2-1.3-3.4-1.9c-2.6-1.1-5.5-0.9-7.9,0.6
				c-1,0.6-2,1.2-3,1.7c-2.4,1.3-5.3,1.3-7.7,0c-1-0.5-2-1.1-3-1.7c-2.8-1.8-6.4-1.8-9.3,0c-1.3,0.8-2.6,1.5-4,2.1
				c-2.2,0.9-4.7,0.8-6.7-0.4c-1-0.5-2-1.1-2.9-1.7c-2.9-1.9-6.5-1.9-9.4,0c-1.2,0.8-2.5,1.5-3.9,2.1c-2.1,0.9-4.5,0.7-6.5-0.3
				c-1.1-0.5-2.1-1.2-3.1-1.8c-2.8-1.8-6.4-1.8-9.3,0c-1.3,0.8-2.6,1.5-4,2.1c-2.1,0.9-4.6,0.8-6.6-0.3c-1-0.5-2-1.1-3-1.7
				c-2.9-1.9-6.5-1.9-9.4,0c-1.2,0.8-2.5,1.5-3.9,2.1c-2.2,0.9-4.7,0.8-6.7-0.4c-1.1-0.6-2.2-1.3-3.3-1.9c-1.8-1.1-4-1.4-6.1-0.9
				c-1,0.3-2,0.7-2.9,1.2c-1.3,0.7-2.6,1.5-4,2.1c-2.1,0.8-4.5,0.7-6.5-0.4c-1-0.5-2-1.1-3-1.7c-2.8-1.9-6.5-1.9-9.3-0.1
				c-0.7,0.4-1.4,0.8-2.1,1.3c-1.4,0.8-2.9,1.3-4.5,1.4V135c2.2-0.2,4.2-0.9,6-2.1c0.8-0.5,1.7-1,2.6-1.3c2.6-1,5.5-0.6,7.7,0.9
				c1,0.6,2,1.2,3,1.7c2.3,1.2,5,1.2,7.3,0c1-0.5,2-1.1,3-1.7c2.9-1.9,6.7-1.9,9.6,0l1.9,1.1c2.9,1.9,6.5,1.9,9.4,0
				c0.9-0.6,1.9-1.1,2.9-1.6c2.4-1.3,5.3-1.3,7.8,0c1,0.5,1.9,1.1,2.9,1.6c2.9,1.8,6.6,1.8,9.5-0.1c1.3-0.8,2.6-1.5,4-2.1
				c2.1-0.8,4.5-0.6,6.4,0.5c1,0.5,1.9,1.1,2.8,1.6c2.9,1.9,6.6,1.9,9.5,0.1c1-0.6,1.9-1.1,2.8-1.6c2.4-1.3,5.4-1.3,7.8,0
				c1.3,0.6,2.4,1.4,3.7,2.1c2.4,1.3,5.3,1.3,7.8,0c1.1-0.5,2.1-1.2,3.1-1.8c2.8-1.7,6.4-1.6,9.1,0.1c1,0.6,2,1.2,3,1.7
				c2.4,1.2,5.1,1.2,7.5,0c1-0.5,2-1.1,2.9-1.7c2.9-1.9,6.7-1.9,9.6,0c0.6,0.4,1.3,0.7,1.9,1.1c1.4,0.9,3.1,1.4,4.8,1.5L160.3,136.3
				z"/>
			<path class="st1" d="M0,44.1c1.6,0,3.2-0.5,4.6-1.3c1.3-0.8,2.6-1.5,4-2.1c2.1-0.9,4.6-0.8,6.6,0.3c1,0.5,2,1.1,3,1.7
				c2.9,1.9,6.5,1.9,9.4,0c1.2-0.8,2.5-1.5,3.9-2.1c2.2-0.9,4.6-0.8,6.7,0.3c1.1,0.6,2.2,1.2,3.3,1.8c1.9,1.2,4.1,1.5,6.2,1
				c1-0.3,2-0.7,2.9-1.2c1.3-0.7,2.6-1.5,4-2.1c2.1-0.8,4.5-0.7,6.4,0.4c1,0.5,2.1,1.1,3.1,1.7c2.8,1.8,6.4,1.8,9.2,0.1
				c0.8-0.5,1.6-0.9,2.3-1.4c2.8-1.8,6.3-1.8,9.1,0c0.8,0.5,1.7,1,2.5,1.5c2.8,1.7,6.3,1.6,9.1-0.1c1.2-0.8,2.5-1.5,3.9-2.1
				c2.3-1,4.9-0.8,7,0.5c1,0.5,1.9,1.1,2.8,1.6c2.8,1.8,6.4,1.8,9.2,0.1c1.3-0.8,2.6-1.5,4-2.1c2.2-0.9,4.7-0.8,6.7,0.3
				c1,0.5,2,1.1,3,1.7c2.9,1.9,6.5,1.9,9.4,0c1.3-0.8,2.5-1.5,3.9-2.1c2.1-0.9,4.6-0.7,6.6,0.4c1.1,0.5,2.1,1.2,3.1,1.8
				c1.4,0.8,2.9,1.3,4.6,1.3v1.3c-1.7,0-3.3-0.5-4.7-1.4l-2.1-1.2c-2.8-1.8-6.5-1.8-9.3,0c-0.9,0.5-1.8,1.1-2.8,1.6
				c-2.5,1.4-5.5,1.4-8,0c-0.9-0.5-1.8-1-2.7-1.5c-2.9-1.9-6.7-1.9-9.6,0c-0.8,0.5-1.5,0.9-2.3,1.3c-2.8,1.7-6.3,1.6-9.1-0.2
				c-1-0.6-2-1.2-3-1.7c-2.4-1.2-5.2-1.2-7.6,0c-1.3,0.6-2.5,1.4-3.8,2.1c-2.4,1.3-5.4,1.3-7.8,0c-1-0.5-2-1.1-2.9-1.7
				c-2.8-1.8-6.5-1.8-9.3,0l-1.9,1.1c-3,2-6.9,2-9.8,0C63,43.3,62,42.7,61,42.2c-2.3-1.2-5.1-1.2-7.4,0c-1.3,0.7-2.6,1.5-3.9,2.2
				c-2.4,1.2-5.2,1.2-7.5,0c-1-0.5-2-1.1-2.9-1.7c-2.9-1.9-6.6-1.9-9.5,0c-0.9,0.5-1.8,1.1-2.8,1.6c-2.4,1.3-5.4,1.3-7.9,0
				c-0.9-0.5-1.8-1-2.6-1.5c-2.9-2-6.8-2-9.8,0c-0.8,0.5-1.7,1-2.6,1.5c-1.2,0.7-2.6,1-4,1L0,44.1z"/>
			<path class="st1" d="M0,12c1.6,0,3.2-0.5,4.6-1.3c1.3-0.8,2.6-1.5,4-2.1c2.1-0.9,4.6-0.8,6.6,0.3c1,0.5,2,1.1,3,1.7
				c2.9,1.9,6.5,1.9,9.4,0c0.9-0.5,1.8-1.1,2.7-1.6c2.5-1.4,5.7-1.4,8.2,0c1,0.6,2,1.2,3,1.8c1.8,1.1,4,1.4,6.1,0.9
				c1-0.3,2-0.7,2.9-1.2c1.3-0.7,2.6-1.5,4-2.1C56.6,7.6,59,7.8,61,8.9c1,0.5,2,1.1,3.1,1.7c2.8,1.8,6.4,1.8,9.2,0.1
				c0.8-0.4,1.6-0.9,2.3-1.4c2.8-1.8,6.3-1.8,9.1,0c0.8,0.5,1.7,1,2.5,1.5c2.8,1.7,6.3,1.6,9-0.1c1-0.6,1.9-1.1,2.8-1.6
				c2.5-1.4,5.5-1.4,7.9,0c1,0.5,2,1.1,2.9,1.7c2.8,1.8,6.4,1.8,9.2,0.1c1.3-0.8,2.6-1.5,4-2.1c2.2-0.9,4.7-0.8,6.7,0.3
				c1,0.5,2,1.1,3.1,1.7c2.8,1.8,6.4,1.8,9.2,0c1.3-0.8,2.6-1.5,4-2.1c2.1-0.9,4.6-0.7,6.6,0.4c1.1,0.5,2.1,1.2,3.1,1.8
				c1.4,0.8,2.9,1.3,4.6,1.3v1.3c-1.7,0-3.3-0.5-4.7-1.4l-2-1.2c-2.9-1.9-6.6-1.9-9.5,0c-0.9,0.5-1.8,1.1-2.7,1.6
				c-2.5,1.4-5.5,1.4-8,0c-1.2-0.6-2.4-1.4-3.6-2c-2.4-1.3-5.3-1.3-7.7,0c-0.9,0.4-1.7,0.9-2.6,1.5c-3,2.1-6.9,2.1-9.9,0.1
				c-0.9-0.6-1.9-1.1-2.9-1.6c-2.3-1.2-5.1-1.2-7.5,0c-1.3,0.6-2.5,1.4-3.8,2.1c-2.4,1.3-5.4,1.3-7.8,0c-1-0.5-2-1.1-2.9-1.7
				c-2.8-1.8-6.5-1.8-9.3,0c-0.6,0.4-1.2,0.7-1.8,1.1c-3,2.1-7,2.1-10,0c-0.9-0.6-1.8-1.1-2.7-1.5c-2.3-1.2-5.1-1.2-7.4,0
				c-1.3,0.6-2.6,1.5-3.9,2.2c-2.4,1.2-5.2,1.2-7.5,0c-1-0.5-2-1.1-3-1.7c-2.9-1.9-6.6-1.9-9.5,0c-0.9,0.5-1.8,1.1-2.8,1.6
				c-2.5,1.3-5.4,1.3-7.9,0c-0.9-0.5-1.8-1-2.6-1.5c-2.9-2-6.8-2-9.8,0c-0.8,0.5-1.7,1-2.6,1.5c-1.2,0.7-2.6,1-4,1L0,12z"/>
			<path class="st1" d="M160.3,152.3c-1.7-0.1-3.3-0.6-4.8-1.5c-0.8-0.5-1.6-1-2.4-1.4c-2.7-1.6-6.2-1.5-8.8,0.2
				c-1,0.6-1.9,1.2-2.9,1.7c-2.4,1.3-5.4,1.3-7.8,0c-1-0.5-1.9-1.1-2.9-1.6c-2.9-1.9-6.5-1.9-9.4,0c-1.2,0.7-2.5,1.4-3.8,2
				c-2.2,0.9-4.7,0.8-6.8-0.4c-1-0.5-2-1.1-2.9-1.7c-2.9-1.9-6.5-1.9-9.4,0c-1.2,0.8-2.5,1.5-3.9,2.1c-2.1,0.9-4.6,0.7-6.6-0.4
				c-1.1-0.5-2.1-1.1-3.1-1.7c-2.8-1.8-6.4-1.8-9.3,0c-1.3,0.8-2.6,1.5-4,2.1c-2.1,0.9-4.6,0.8-6.6-0.3c-1-0.5-2-1.1-3-1.7
				c-2.9-1.9-6.5-1.9-9.4,0c-1.2,0.8-2.5,1.5-3.9,2.1c-2.2,0.9-4.6,0.8-6.7-0.3c-1.1-0.5-2.1-1.2-3.1-1.8c-1.5-0.9-3.3-1.4-5.1-1.3
				c-1.4,0.1-2.8,0.6-4.1,1.3c-1.3,0.8-2.6,1.5-4,2.1c-2.1,0.8-4.5,0.7-6.5-0.4c-1-0.5-2-1.1-3.1-1.7c-2.8-1.8-6.4-1.8-9.2-0.1
				c-0.7,0.4-1.4,0.8-2.1,1.3c-1.4,0.9-3.1,1.4-4.7,1.5V151c2.2-0.2,4.2-0.9,6-2.2c1-0.6,2.1-1.2,3.2-1.5c2.4-0.7,4.9-0.3,7,1.1
				c1,0.6,1.9,1.2,2.9,1.7c2.3,1.2,5.1,1.2,7.4,0c1-0.5,2-1.1,2.9-1.6c3-2,6.8-2,9.8,0c0.9,0.5,1.7,1.1,2.6,1.5
				c2.4,1.3,5.3,1.3,7.8,0c1.3-0.6,2.5-1.4,3.7-2.1c2.4-1.3,5.3-1.3,7.8,0c1,0.5,1.9,1.1,2.8,1.6c2.9,1.9,6.6,1.9,9.5,0
				c1.3-0.8,2.6-1.5,4-2.1c2.2-0.8,4.6-0.7,6.6,0.5c1,0.5,1.9,1,2.8,1.6c2.9,1.9,6.6,1.9,9.5,0.1c1-0.6,1.9-1.1,2.8-1.6
				c2.4-1.3,5.4-1.3,7.8,0c1,0.5,1.9,1.1,2.8,1.6c2.9,1.8,6.5,1.8,9.4,0c0.8-0.5,1.6-1,2.4-1.4c2.8-1.7,6.3-1.6,9.1,0.2l2.1,1.3
				c2.8,1.8,6.4,1.8,9.3,0l2-1.2c2.9-1.9,6.7-1.9,9.6,0c0.3,0.2,0.6,0.4,1,0.6c1.7,1.2,3.7,1.9,5.7,2L160.3,152.3z"/>
			<path class="st1" d="M0,49.5c0.1-0.1,0.3-0.1,0.5-0.1C2,49.3,3.5,48.8,4.8,48l2-1.2c2.8-1.8,6.4-1.8,9.2,0c1,0.5,1.9,1.2,2.9,1.7
				c2.5,1.4,5.5,1.4,7.9,0c1-0.5,1.9-1.1,2.8-1.6c2.9-1.9,6.5-1.9,9.4,0c0.9,0.5,1.8,1.1,2.8,1.6c2.5,1.4,5.5,1.4,8,0
				c1-0.5,1.9-1,2.8-1.6c2.9-1.9,6.5-1.9,9.4,0c0.9,0.5,1.7,1,2.6,1.5c2.5,1.4,5.7,1.4,8.2,0c0.9-0.5,1.8-1,2.7-1.6
				c2.8-1.8,6.4-1.8,9.3,0c1.3,0.8,2.7,1.5,4.1,2.1c2.2,0.8,4.6,0.7,6.7-0.5c1-0.5,1.9-1,2.8-1.6c2.9-1.8,6.5-1.8,9.4,0
				c0.9,0.5,1.8,1.1,2.8,1.6c2.5,1.4,5.5,1.4,8,0c1-0.5,1.9-1.1,2.8-1.6c2.8-1.8,6.4-1.8,9.3,0c0.9,0.5,1.8,1.1,2.7,1.6
				c2.5,1.4,5.6,1.4,8.1,0c0.9-0.5,1.8-1,2.7-1.6c2.9-1.9,6.5-1.9,9.4,0l2.4,1.4c1.2,0.7,2.5,1.1,3.9,1.2c0.2,0,0.4,0.1,0.5,0.1v1.1
				c-1.7,0.1-3.3-0.4-4.7-1.3c-1.3-0.8-2.6-1.5-4-2.1c-2.2-0.8-4.6-0.7-6.7,0.5c-0.9,0.5-1.9,1.1-2.8,1.6c-2.9,1.9-6.5,1.9-9.4,0
				c-0.9-0.5-1.8-1.1-2.8-1.6c-2.5-1.4-5.5-1.4-8,0c-0.9,0.5-1.9,1.1-2.8,1.6c-2.8,1.8-6.5,1.8-9.3,0c-0.9-0.5-1.8-1.1-2.7-1.6
				c-2.5-1.4-5.6-1.4-8.1,0c-1,0.5-1.8,1.1-2.8,1.6c-2.8,1.8-6.4,1.8-9.3,0c-0.9-0.6-1.9-1.1-2.8-1.6c-2.5-1.4-5.5-1.4-7.9,0
				c-1,0.5-1.9,1.1-2.8,1.6c-2.8,1.8-6.4,1.8-9.3,0c-1-0.5-1.9-1.1-2.8-1.6c-2.5-1.4-5.5-1.4-8,0c-0.9,0.5-1.8,1-2.7,1.6
				c-2.9,1.9-6.5,1.9-9.4,0c-0.9-0.5-1.8-1.1-2.8-1.6c-2.5-1.4-5.5-1.4-8,0c-1,0.5-1.9,1.1-2.8,1.6c-2.9,1.9-6.5,1.9-9.4,0
				c-0.9-0.5-1.7-1-2.6-1.5c-2.5-1.5-5.7-1.5-8.2,0c-1.2,0.7-2.4,1.4-3.7,2.1c-1.1,0.6-2.4,0.9-3.7,0.8V49.5z"/>
			<path class="st1" d="M0,113.7c0.2,0,0.3-0.1,0.5-0.1c1.6-0.1,3.1-0.6,4.4-1.4c0.7-0.4,1.3-0.8,2-1.2c2.8-1.8,6.4-1.8,9.2,0
				c1,0.6,1.9,1.2,2.9,1.7c2.5,1.3,5.5,1.3,7.9,0c1-0.5,1.9-1.1,2.8-1.6c2.9-1.9,6.5-1.9,9.4,0c0.9,0.5,1.8,1.1,2.8,1.6
				c2.5,1.4,5.5,1.4,8,0c1-0.5,1.9-1.1,2.8-1.6c2.9-1.8,6.5-1.8,9.4,0c0.9,0.5,1.7,1,2.6,1.5c2.5,1.4,5.7,1.4,8.2,0
				c0.9-0.5,1.8-1,2.7-1.6c2.8-1.8,6.4-1.8,9.3,0c1.3,0.8,2.7,1.5,4.1,2.2c2.2,0.8,4.6,0.7,6.7-0.5c1-0.5,1.9-1,2.8-1.6
				c2.9-1.8,6.5-1.8,9.4,0c0.9,0.5,1.8,1.1,2.8,1.6c2.5,1.4,5.5,1.4,8,0c1-0.5,1.9-1.1,2.8-1.6c2.8-1.8,6.4-1.8,9.3,0
				c0.9,0.5,1.8,1.1,2.7,1.6c2.5,1.4,5.6,1.4,8.1,0c0.9-0.5,1.8-1,2.7-1.6c2.9-1.9,6.5-1.9,9.4,0l2.4,1.4c1.2,0.7,2.5,1.1,3.9,1.2
				c0.2,0,0.4,0.1,0.5,0.1v1.1c-1.7,0.1-3.3-0.4-4.7-1.3c-1.3-0.8-2.6-1.5-4-2.1c-2.2-0.8-4.6-0.7-6.7,0.5c-0.9,0.5-1.9,1.1-2.8,1.6
				c-2.9,1.8-6.5,1.8-9.4,0c-0.9-0.5-1.8-1.1-2.8-1.6c-2.5-1.4-5.5-1.4-8,0c-0.9,0.5-1.9,1-2.8,1.6c-2.8,1.8-6.5,1.8-9.3,0
				c-0.9-0.5-1.8-1.1-2.7-1.6c-2.5-1.4-5.6-1.4-8.1,0c-1,0.5-1.8,1.1-2.8,1.6c-2.8,1.8-6.4,1.8-9.3,0c-0.9-0.6-1.9-1.1-2.8-1.6
				c-2.5-1.4-5.5-1.4-7.9,0c-1,0.5-1.9,1.1-2.8,1.6c-2.8,1.8-6.4,1.8-9.3,0c-1-0.6-1.9-1.1-2.8-1.6c-2.5-1.4-5.5-1.4-8,0
				c-0.9,0.5-1.8,1-2.7,1.6c-2.9,1.9-6.5,1.9-9.4,0c-0.9-0.5-1.8-1.1-2.8-1.6c-2.5-1.4-5.5-1.4-8,0c-1,0.5-1.9,1.1-2.8,1.6
				c-2.9,1.8-6.5,1.8-9.4,0c-0.9-0.5-1.7-1-2.6-1.5c-2.5-1.4-5.7-1.4-8.2,0c-1.2,0.7-2.4,1.4-3.7,2.1c-1.1,0.6-2.4,0.9-3.6,0.8
				L0,113.7z"/>
			<path class="st1" d="M160.3,146.9c-1.6,0.1-3.3-0.4-4.6-1.3c-1-0.5-1.9-1.1-2.9-1.6c-2.5-1.4-5.5-1.4-7.9,0
				c-0.9,0.5-1.9,1.1-2.8,1.6c-2.9,1.9-6.6,1.9-9.5,0c-0.9-0.5-1.8-1.1-2.7-1.6c-2.5-1.4-5.5-1.4-8,0c-1,0.5-1.9,1.1-2.8,1.6
				c-2.8,1.8-6.4,1.8-9.3,0c-0.9-0.5-1.8-1.1-2.8-1.6c-2.5-1.4-5.6-1.4-8.1,0c-0.9,0.5-1.8,1.1-2.8,1.6c-2.8,1.8-6.5,1.8-9.3,0
				c-0.9-0.5-1.8-1.1-2.8-1.6c-2.5-1.4-5.5-1.4-8,0c-0.9,0.5-1.8,1-2.7,1.6c-2.9,1.9-6.6,1.9-9.5,0c-0.9-0.6-1.8-1.1-2.8-1.6
				c-2.5-1.4-5.5-1.4-7.9,0c-1,0.5-1.9,1.1-2.8,1.6c-2.8,1.8-6.4,1.8-9.3,0c-0.9-0.5-1.8-1.1-2.8-1.6c-2.5-1.4-5.6-1.4-8.1,0
				c-0.9,0.5-1.8,1-2.6,1.5c-2.9,1.9-6.6,1.9-9.5,0c-0.9-0.5-1.8-1.1-2.8-1.6c-2.5-1.4-5.5-1.3-8,0.1c-1.3,0.7-2.5,1.4-3.8,2.1
				c-1.1,0.6-2.4,0.9-3.6,0.8v-1.1c0.1,0,0.3-0.1,0.4-0.1c1.7-0.1,3.4-0.7,4.8-1.7c0.6-0.4,1.2-0.7,1.7-1c2.8-1.7,6.3-1.7,9.1,0
				c1,0.6,1.9,1.1,2.8,1.6c2.5,1.4,5.6,1.4,8.1,0c0.9-0.5,1.8-1,2.6-1.5c2.9-1.9,6.6-1.9,9.5,0c0.9,0.5,1.8,1.1,2.7,1.6
				c2.5,1.4,5.5,1.4,8,0c0.9-0.5,1.8-1,2.7-1.6c2.9-1.9,6.6-1.9,9.5,0c0.9,0.5,1.7,1.1,2.6,1.5c2.5,1.4,5.7,1.4,8.2,0
				c0.9-0.5,1.8-1,2.7-1.6c2.8-1.8,6.4-1.8,9.3,0c1.3,0.8,2.7,1.5,4.1,2.1c2.2,0.8,4.6,0.7,6.7-0.5c1-0.5,1.9-1,2.8-1.6
				c2.9-1.9,6.5-1.9,9.4,0c0.9,0.5,1.8,1.1,2.8,1.6c2.5,1.4,5.5,1.4,8,0c1-0.5,1.9-1.1,2.8-1.6c2.8-1.8,6.4-1.8,9.3,0
				c0.9,0.5,1.8,1.1,2.7,1.6c2.5,1.4,5.6,1.4,8.1,0c0.9-0.5,1.9-1.1,2.8-1.6c2.8-1.8,6.4-1.8,9.3,0l2.5,1.4c1.2,0.7,2.5,1.1,3.8,1.2
				c0.2,0,0.4,0.1,0.5,0.1L160.3,146.9z"/>
			<path class="st1" d="M160.3,82.7c-1.6,0.1-3.3-0.4-4.6-1.3c-1-0.5-1.9-1.1-2.9-1.6c-2.5-1.4-5.5-1.4-7.9,0
				c-0.9,0.5-1.9,1-2.8,1.6c-2.9,1.9-6.6,1.9-9.5,0c-0.9-0.5-1.8-1.1-2.7-1.6c-2.5-1.4-5.5-1.4-8,0c-1,0.5-1.9,1.1-2.8,1.6
				c-2.8,1.8-6.4,1.8-9.3,0c-0.9-0.5-1.8-1.1-2.8-1.6c-2.5-1.4-5.6-1.4-8.1,0c-0.9,0.5-1.8,1.1-2.8,1.6c-2.8,1.8-6.5,1.8-9.3,0
				c-0.9-0.5-1.8-1.1-2.8-1.6c-2.5-1.4-5.5-1.4-8,0c-0.9,0.5-1.8,1-2.7,1.6c-2.9,1.9-6.6,1.9-9.5,0c-0.9-0.6-1.8-1.1-2.8-1.6
				c-2.5-1.3-5.5-1.3-7.9,0c-1,0.5-1.9,1.1-2.8,1.6c-2.8,1.8-6.4,1.8-9.3,0c-0.9-0.5-1.8-1.1-2.8-1.6c-2.5-1.4-5.6-1.4-8.1,0
				c-0.9,0.5-1.8,1-2.6,1.5c-2.9,1.9-6.6,1.9-9.5,0c-0.9-0.5-1.8-1.1-2.8-1.6c-2.5-1.4-5.5-1.3-8,0.1c-1.3,0.7-2.5,1.4-3.8,2.1
				c-1.1,0.6-2.4,0.8-3.6,0.7v-1.1c0.1,0,0.3-0.1,0.4-0.1c1.7-0.1,3.4-0.7,4.8-1.7c0.6-0.3,1.2-0.7,1.7-1c2.8-1.7,6.3-1.7,9.1,0
				c1,0.6,1.9,1.1,2.8,1.6c2.5,1.4,5.6,1.4,8.1,0c0.9-0.5,1.8-1,2.6-1.5c2.9-1.9,6.6-1.9,9.5,0c0.9,0.5,1.8,1.1,2.7,1.6
				c2.5,1.4,5.5,1.4,8,0c0.9-0.5,1.8-1,2.7-1.6c2.9-1.9,6.6-1.9,9.5,0c0.9,0.5,1.7,1,2.6,1.5c2.5,1.4,5.7,1.4,8.2,0
				c0.9-0.5,1.8-1,2.7-1.6c2.8-1.8,6.4-1.8,9.3,0c1.3,0.8,2.7,1.5,4.1,2.1c2.2,0.8,4.6,0.7,6.7-0.5c1-0.5,1.9-1,2.8-1.6
				c2.9-1.8,6.5-1.8,9.4,0c0.9,0.5,1.8,1.1,2.8,1.6c2.5,1.4,5.5,1.4,8,0c1-0.5,1.9-1.1,2.8-1.6c2.8-1.8,6.4-1.8,9.3,0
				c0.9,0.5,1.8,1.1,2.7,1.6c2.5,1.4,5.6,1.4,8.1,0c0.9-0.5,1.9-1.1,2.8-1.6c2.8-1.8,6.4-1.8,9.3,0c0.8,0.5,1.7,1,2.5,1.4
				c1.2,0.7,2.5,1.1,3.8,1.2c0.2,0,0.4,0.1,0.5,0.1L160.3,82.7z"/>
			<path class="st1" d="M160.3,18.6c-1.6,0.1-3.2-0.4-4.6-1.3c-1-0.5-1.9-1.1-2.9-1.6c-2.5-1.3-5.5-1.3-7.9,0
				c-0.9,0.5-1.9,1-2.8,1.6c-2.9,1.9-6.6,1.9-9.5,0c-0.9-0.5-1.8-1.1-2.7-1.6c-2.5-1.4-5.5-1.4-8,0c-1,0.5-1.9,1.1-2.8,1.6
				c-2.8,1.8-6.4,1.8-9.3,0c-0.9-0.5-1.8-1.1-2.8-1.6c-2.5-1.4-5.6-1.4-8.1,0c-0.9,0.5-1.8,1.1-2.8,1.6c-2.8,1.8-6.5,1.8-9.3,0
				c-0.9-0.5-1.8-1.1-2.8-1.6c-2.5-1.4-5.5-1.4-8,0c-0.9,0.5-1.8,1-2.7,1.6c-2.9,1.9-6.6,1.9-9.5,0c-0.9-0.5-1.8-1.1-2.8-1.6
				c-2.5-1.4-5.5-1.4-7.9,0c-1,0.5-1.9,1.1-2.8,1.6c-2.8,1.8-6.4,1.8-9.3,0c-0.9-0.5-1.8-1.1-2.8-1.6c-2.5-1.4-5.6-1.4-8.1,0
				c-0.9,0.5-1.8,1-2.6,1.5c-2.9,1.9-6.6,1.9-9.5,0c-0.9-0.5-1.8-1.1-2.8-1.6c-2.5-1.4-5.5-1.3-8,0.1c-1.3,0.7-2.5,1.4-3.8,2.1
				c-1.1,0.6-2.4,0.9-3.6,0.8v-1.1c0.1,0,0.3-0.1,0.4-0.1c1.7-0.1,3.4-0.7,4.8-1.7c0.6-0.4,1.2-0.7,1.7-1c2.8-1.7,6.3-1.7,9.1,0
				c1,0.5,1.9,1.1,2.8,1.6c2.5,1.4,5.6,1.4,8.1,0c0.9-0.5,1.8-1,2.6-1.5c2.9-1.9,6.6-1.9,9.5,0c0.9,0.5,1.8,1.1,2.7,1.6
				c2.5,1.4,5.5,1.4,8,0c0.9-0.5,1.8-1,2.7-1.6c2.9-1.9,6.6-1.9,9.5,0c0.9,0.5,1.7,1,2.6,1.5c2.5,1.4,5.7,1.4,8.2,0
				c0.9-0.5,1.8-1,2.7-1.6c2.8-1.8,6.4-1.8,9.3,0c1.3,0.8,2.7,1.5,4.1,2.1c2.2,0.8,4.6,0.7,6.7-0.5c1-0.5,1.9-1.1,2.8-1.6
				c2.9-1.9,6.5-1.9,9.4,0c0.9,0.5,1.8,1.1,2.8,1.6c2.5,1.4,5.5,1.4,8,0c1-0.5,1.9-1.1,2.8-1.6c2.8-1.8,6.4-1.8,9.3,0
				c0.9,0.5,1.8,1.1,2.7,1.6c2.5,1.4,5.6,1.4,8.1,0c0.9-0.5,1.9-1.1,2.8-1.6c2.8-1.8,6.4-1.8,9.3,0l2.5,1.4c1.2,0.7,2.5,1.1,3.8,1.2
				c0.2,0,0.4,0.1,0.5,0.1V18.6z"/>
			<path class="st1" d="M0,129.7c0.1-0.1,0.3-0.1,0.5-0.1c1.6-0.1,3.1-0.6,4.4-1.4l2-1.2c2.8-1.8,6.4-1.8,9.3,0
				c0.9,0.6,1.9,1.1,2.8,1.6c2.5,1.4,5.5,1.4,7.9,0c1-0.5,1.9-1,2.8-1.6c2.9-1.9,6.5-1.9,9.4,0c0.9,0.6,1.8,1.1,2.8,1.6
				c2.5,1.4,5.5,1.4,8,0c1-0.5,1.8-1.1,2.8-1.6c2.9-1.8,6.5-1.8,9.4,0c1.3,0.8,2.6,1.5,4,2.1c2.2,0.9,4.7,0.7,6.7-0.5
				c1-0.5,1.9-1.1,2.8-1.6c2.8-1.8,6.4-1.8,9.3,0c1.3,0.8,2.7,1.5,4.1,2.1c2.2,0.8,4.6,0.7,6.7-0.5c1-0.5,1.9-1,2.8-1.6
				c2.9-1.9,6.5-1.9,9.4,0c0.9,0.5,1.8,1.1,2.8,1.6c2.5,1.4,5.5,1.4,8,0c1-0.5,1.9-1.1,2.8-1.6c2.9-1.9,6.5-1.9,9.4,0
				c0.9,0.5,1.8,1.1,2.7,1.6c2.5,1.4,5.6,1.4,8.1,0c0.9-0.5,1.8-1,2.7-1.6c2.9-1.9,6.5-1.9,9.4,0l2.4,1.4c1.2,0.7,2.5,1.1,3.8,1.2
				c0.2,0,0.4,0.1,0.5,0.1v1.1c-1.6,0.1-3.2-0.4-4.6-1.3c-0.9-0.5-1.8-1.1-2.8-1.6c-2.5-1.4-5.6-1.4-8.1,0c-0.9,0.5-1.8,1-2.7,1.6
				c-2.9,1.9-6.6,1.9-9.5,0c-0.9-0.5-1.8-1.1-2.7-1.6c-2.5-1.4-5.5-1.4-8,0c-1,0.5-1.9,1.1-2.8,1.6c-2.8,1.8-6.4,1.8-9.3,0
				c-0.9-0.5-1.8-1.1-2.8-1.6c-2.5-1.4-5.6-1.4-8.1,0c-0.9,0.5-1.8,1-2.8,1.6c-2.8,1.8-6.4,1.8-9.3,0c-1-0.6-1.9-1.1-2.8-1.6
				c-2.5-1.4-5.5-1.4-8,0c-1,0.5-1.9,1.1-2.8,1.6c-2.9,1.8-6.5,1.8-9.4,0c-1.3-0.8-2.7-1.5-4.1-2.1c-2.1-0.8-4.5-0.6-6.5,0.5
				c-1,0.5-2,1.1-2.9,1.7c-2.8,1.8-6.4,1.8-9.3,0c-0.9-0.5-1.8-1.1-2.8-1.6c-2.5-1.4-5.6-1.4-8.1,0c-0.9,0.5-1.8,1-2.6,1.5
				c-2.9,1.9-6.6,1.9-9.5,0c-0.9-0.5-1.7-1.1-2.6-1.5c-2.5-1.4-5.7-1.4-8.2,0c-1.2,0.7-2.4,1.4-3.7,2.1c-1.1,0.6-2.4,0.9-3.6,0.8
				L0,129.7z"/>
			<path class="st1" d="M0,65.6c0.1-0.1,0.3-0.1,0.5-0.1C2,65.3,3.5,64.8,4.8,64l2-1.2c2.8-1.8,6.4-1.8,9.3,0
				c0.9,0.6,1.9,1.2,2.8,1.7c2.5,1.3,5.5,1.3,7.9,0c1-0.5,1.9-1,2.8-1.6c2.9-1.9,6.5-1.9,9.4,0c0.9,0.5,1.8,1.1,2.8,1.6
				c2.5,1.4,5.5,1.4,8,0c1-0.5,1.8-1.1,2.8-1.6c2.9-1.8,6.5-1.8,9.4,0c1.3,0.8,2.6,1.5,4,2.1c2.2,0.9,4.7,0.7,6.7-0.5
				c1-0.5,1.9-1.1,2.8-1.6c2.8-1.8,6.4-1.8,9.3,0c1.3,0.8,2.7,1.5,4.1,2.1c2.2,0.8,4.6,0.7,6.7-0.5c1-0.5,1.9-1.1,2.8-1.6
				c2.9-1.9,6.5-1.9,9.4,0c0.9,0.5,1.8,1.1,2.8,1.6c2.5,1.4,5.5,1.4,8,0c1-0.5,1.9-1,2.8-1.6c2.9-1.9,6.5-1.9,9.4,0
				c0.9,0.5,1.8,1.1,2.7,1.5c2.5,1.4,5.6,1.4,8.1,0c0.9-0.5,1.8-1,2.7-1.6c2.9-1.9,6.5-1.9,9.4,0c0.8,0.5,1.6,1,2.4,1.4
				c1.2,0.7,2.5,1.1,3.8,1.2c0.2,0,0.4,0.1,0.5,0.1v1.1c-1.6,0.1-3.3-0.4-4.6-1.3c-0.9-0.5-1.8-1.1-2.8-1.6c-2.5-1.4-5.6-1.4-8.1,0
				c-0.9,0.5-1.8,1-2.7,1.6c-2.9,1.9-6.6,1.9-9.5,0c-0.9-0.5-1.8-1.1-2.7-1.6c-2.5-1.4-5.5-1.4-8,0c-1,0.5-1.9,1.1-2.8,1.6
				c-2.8,1.8-6.4,1.8-9.3,0c-0.9-0.5-1.8-1.1-2.8-1.6c-2.5-1.4-5.6-1.4-8.1,0c-0.9,0.5-1.8,1.1-2.8,1.6c-2.8,1.8-6.4,1.8-9.3,0
				c-1-0.6-1.9-1.1-2.8-1.6c-2.5-1.4-5.5-1.4-8,0c-1,0.5-1.9,1.1-2.8,1.6c-2.9,1.8-6.5,1.8-9.4,0c-1.3-0.8-2.7-1.5-4.1-2.1
				c-2.1-0.8-4.5-0.6-6.5,0.5c-1,0.5-2,1.1-2.9,1.7c-2.8,1.8-6.4,1.8-9.3,0c-0.9-0.5-1.8-1.1-2.8-1.6c-2.5-1.4-5.6-1.4-8.1,0
				c-0.9,0.5-1.8,1-2.6,1.5c-2.9,1.9-6.6,1.9-9.5,0c-0.9-0.5-1.7-1.1-2.6-1.5c-2.5-1.4-5.7-1.4-8.2,0c-1.2,0.7-2.4,1.4-3.7,2.1
				c-1.1,0.6-2.4,0.9-3.6,0.8V65.6z"/>
			<path class="st1" d="M160.3,98.8c-1.6,0.1-3.3-0.4-4.6-1.3c-0.9-0.5-1.8-1.1-2.8-1.6c-2.5-1.4-5.6-1.4-8.1,0
				c-0.9,0.5-1.8,1-2.7,1.6c-2.9,1.9-6.6,1.9-9.5,0c-0.9-0.5-1.8-1.1-2.7-1.6c-2.5-1.4-5.5-1.4-8,0c-0.9,0.5-1.9,1-2.8,1.6
				c-2.9,1.9-6.5,1.9-9.4,0c-0.9-0.5-1.8-1.1-2.7-1.6c-2.5-1.4-5.6-1.4-8.1,0c-0.9,0.5-1.8,1.1-2.8,1.6c-2.8,1.8-6.4,1.8-9.3,0
				c-1-0.6-1.9-1.1-2.8-1.6c-2.5-1.4-5.5-1.4-8,0c-0.9,0.5-1.8,1-2.6,1.5c-2.9,1.9-6.7,1.9-9.6,0c-0.9-0.5-1.8-1.1-2.7-1.6
				c-2.5-1.4-5.5-1.4-7.9,0c-0.9,0.5-1.8,1-2.7,1.6c-2.9,1.9-6.6,1.9-9.5,0c-0.9-0.5-1.7-1-2.6-1.5c-2.5-1.4-5.6-1.4-8.1,0
				c-0.9,0.5-1.8,1-2.6,1.5c-2.9,1.9-6.6,1.9-9.5,0c-0.9-0.5-1.8-1.1-2.7-1.6c-2.5-1.4-5.6-1.4-8.1,0c-1.3,0.7-2.5,1.4-3.8,2.1
				c-1.1,0.6-2.3,0.9-3.6,0.8v-1.1c0.1-0.1,0.3-0.1,0.5-0.1c1.6-0.1,3.1-0.6,4.4-1.4l2-1.2c2.8-1.8,6.4-1.8,9.3,0
				c0.9,0.6,1.9,1.1,2.8,1.6c2.5,1.4,5.5,1.4,7.9,0c1-0.5,1.9-1,2.8-1.6c2.9-1.8,6.5-1.8,9.4,0.1c0.9,0.5,1.8,1.1,2.8,1.6
				c2.5,1.4,5.5,1.4,8,0c1-0.5,1.9-1.1,2.8-1.6c2.9-1.8,6.6-1.8,9.4,0c1.3,0.8,2.6,1.4,4,2c2.2,0.9,4.7,0.7,6.7-0.5
				c1-0.5,1.9-1.1,2.8-1.6c2.8-1.8,6.4-1.8,9.3,0c1.3,0.8,2.7,1.5,4.1,2.2c2.2,0.8,4.6,0.7,6.7-0.5c1-0.5,1.9-1.1,2.8-1.6
				c2.9-1.9,6.5-1.9,9.4,0c0.9,0.5,1.8,1.1,2.8,1.6c2.5,1.4,5.5,1.4,8,0c1-0.5,1.9-1.1,2.8-1.6c2.8-1.8,6.4-1.8,9.3,0
				c0.9,0.5,1.8,1.1,2.8,1.6c2.5,1.4,5.6,1.4,8.1,0c0.9-0.5,1.8-1,2.7-1.6c2.9-1.9,6.5-1.9,9.4,0l2.4,1.4c1.2,0.7,2.5,1.1,3.8,1.2
				c0.2,0,0.4,0.1,0.5,0.1V98.8z"/>
			<path class="st1" d="M160.3,34.6c-1.6,0.1-3.3-0.4-4.6-1.3c-0.9-0.5-1.8-1.1-2.8-1.6c-2.5-1.4-5.6-1.4-8.1,0
				c-0.9,0.5-1.8,1-2.7,1.6c-2.9,1.9-6.6,1.9-9.5,0c-0.9-0.5-1.8-1.1-2.7-1.6c-2.5-1.4-5.5-1.4-8,0c-0.9,0.5-1.9,1.1-2.8,1.6
				c-2.9,1.9-6.5,1.9-9.4,0c-0.9-0.5-1.8-1.1-2.7-1.6c-2.5-1.4-5.6-1.4-8.1,0c-0.9,0.5-1.8,1.1-2.8,1.6c-2.8,1.8-6.4,1.8-9.3,0
				c-1-0.5-1.9-1.1-2.8-1.6c-2.5-1.4-5.5-1.4-8,0c-0.9,0.5-1.8,1-2.6,1.5c-2.9,1.9-6.7,1.9-9.6,0c-0.9-0.5-1.8-1.1-2.7-1.6
				c-2.5-1.3-5.5-1.3-7.9,0c-0.9,0.5-1.8,1-2.7,1.6c-2.9,1.9-6.6,1.9-9.5,0c-0.9-0.5-1.7-1-2.6-1.5c-2.5-1.4-5.6-1.4-8.1,0
				c-0.9,0.5-1.8,1-2.6,1.5c-2.9,1.9-6.6,1.9-9.5,0c-0.9-0.5-1.8-1.1-2.7-1.6c-2.5-1.4-5.6-1.4-8.1,0c-1.3,0.7-2.5,1.4-3.8,2.1
				c-1.1,0.6-2.3,0.9-3.6,0.8v-1.1c0.2,0,0.3-0.1,0.5-0.1c1.5-0.1,3-0.6,4.4-1.4c0.7-0.4,1.3-0.8,2-1.2c2.8-1.8,6.4-1.8,9.3,0
				c0.9,0.5,1.9,1.1,2.8,1.6c2.5,1.4,5.5,1.4,7.9,0c1-0.5,1.9-1,2.8-1.6c2.9-1.9,6.5-1.9,9.4,0c0.9,0.5,1.8,1.1,2.8,1.6
				c2.5,1.4,5.5,1.4,8,0c1-0.5,1.9-1.1,2.8-1.6c2.9-1.8,6.5-1.8,9.4,0c1.3,0.8,2.6,1.5,4,2.1c2.2,0.9,4.7,0.7,6.7-0.5
				c1-0.5,1.9-1.1,2.8-1.6c2.8-1.8,6.4-1.8,9.3,0c1.3,0.8,2.7,1.5,4.1,2.1c2.2,0.8,4.6,0.7,6.7-0.5c1-0.5,1.9-1,2.8-1.6
				c2.9-1.9,6.5-1.9,9.4,0c0.9,0.5,1.8,1.1,2.8,1.6c2.5,1.4,5.5,1.4,8,0c1-0.5,1.9-1.1,2.8-1.6c2.8-1.8,6.4-1.8,9.3,0
				c0.9,0.5,1.8,1.1,2.8,1.6c2.5,1.4,5.6,1.4,8.1,0c0.9-0.5,1.8-1,2.7-1.6c2.9-1.9,6.5-1.9,9.4,0c0.8,0.5,1.6,1,2.4,1.4
				c1.2,0.7,2.5,1.1,3.8,1.2c0.2,0,0.4,0.1,0.5,0.1L160.3,34.6z"/>
			<path class="st1" d="M142.2,160.3c2.2-1.6,4.6-2.9,7.4-2.6c0.8,0,1.5,0.2,2.2,0.5c1.3,0.6,2.4,1.4,3.7,2.1h-2.2
				c-0.1-0.1-0.2-0.2-0.3-0.3c-2.1-1.2-4.5-1.4-6.7-0.6c-0.6,0.2-1.2,0.5-1.8,0.9H142.2z"/>
			<path class="st1" d="M98.3,0c-2.2,1.6-4.5,2.9-7.4,2.6c-0.8-0.1-1.6-0.3-2.4-0.6c-1.2-0.6-2.3-1.3-3.5-2h2.2
				c0.1,0.1,0.2,0.2,0.3,0.3c2,1.2,4.5,1.4,6.7,0.6c0.6-0.3,1.2-0.6,1.8-0.9H98.3z"/>
			<path class="st1" d="M75.4,0c-2.2,1.6-4.5,2.9-7.4,2.6c-0.8-0.1-1.7-0.3-2.4-0.6c-1.2-0.6-2.3-1.3-3.5-2h2.3
				c0.1,0.1,0.3,0.2,0.4,0.3c2,1.1,4.4,1.3,6.6,0.6c0.6-0.3,1.2-0.6,1.8-0.9H75.4z"/>
			<path class="st1" d="M4.8,160.3c2.2-1.6,4.5-2.9,7.4-2.6c0.8,0.1,1.7,0.3,2.4,0.6c1.2,0.6,2.3,1.3,3.4,2h-2.2
				c-0.1-0.1-0.3-0.2-0.4-0.3c-2-1.1-4.5-1.3-6.7-0.6c-0.6,0.3-1.2,0.6-1.7,0.9L4.8,160.3z"/>
			<path class="st1" d="M52.4,0c-2.8,2.1-5.8,3.4-9.3,2.2c-1.4-0.6-2.7-1.3-4-2.2h2.2c0.1,0.1,0.1,0.1,0.2,0.2
				c2.5,1.4,5.5,1.5,8,0.2C49.8,0.3,50,0.2,50.2,0H52.4z"/>
			<path class="st1" d="M119.3,160.3c1.4-1.1,3-1.9,4.7-2.3c2.2-0.6,4.6-0.2,6.6,1c0.7,0.4,1.4,0.9,2,1.3h-2.2
				c-0.6-0.5-1.3-0.9-2.1-1c-2.3-0.7-4.7-0.3-6.7,1L119.3,160.3z"/>
			<path class="st1" d="M121.2,0c-1.3,0.9-2.6,1.7-4.1,2.2c-2,0.7-4.3,0.5-6.2-0.4c-1-0.5-2-1.2-3-1.8h2.2c0.1,0.1,0.2,0.2,0.3,0.3
				c1.3,0.7,2.7,1,4.2,1c1.6,0.1,3.1-0.4,4.4-1.3H121.2z"/>
			<path class="st1" d="M27.7,160.3c2.8-2.1,5.9-3.4,9.4-2.1c1.4,0.6,2.7,1.3,3.9,2.1h-2.3c-0.1-0.1-0.2-0.2-0.3-0.2
				c-2-1.2-4.5-1.4-6.7-0.7c-0.6,0.3-1.2,0.6-1.8,0.9H27.7z"/>
			<path class="st1" d="M96.4,160.3c1.4-1,3-1.8,4.6-2.3c2-0.5,4.2-0.3,6,0.8c0.9,0.5,1.7,1.1,2.6,1.6h-2.1c-0.6-0.4-1.3-0.7-2-0.9
				c-2.4-0.8-4.9-0.5-7,0.9L96.4,160.3z"/>
			<path class="st1" d="M29.5,0c-3.4,2.6-7,3.7-11,1.4C17.7,1,17,0.5,16.2,0h2.2c2.7,1.8,6.3,1.8,9,0H29.5z"/>
			<path class="st1" d="M50.7,160.3c3.2-2.5,6.7-3.6,10.6-1.6c0.9,0.5,1.8,1.1,2.7,1.6h-2.2c-2.7-1.8-6.3-1.8-9,0H50.7z"/>
			<path class="st1" d="M144.1,0c-1.4,1.1-3,1.9-4.7,2.4c-2.2,0.6-4.6,0.2-6.6-1c-0.7-0.4-1.4-0.9-2-1.3h2.1c0.6,0.4,1.3,0.7,2,0.9
				c2.4,0.8,4.9,0.5,7-0.9L144.1,0z"/>
			<path class="st1" d="M73.6,160.3c0.6-0.4,1.2-0.9,1.9-1.2c2.8-1.8,6.5-1.8,9.4,0c0.7,0.4,1.3,0.8,1.9,1.2h-2.1
				c-0.6-0.4-1.3-0.7-1.9-0.9c-2.4-0.8-5-0.5-7.1,0.9H73.6z"/>
			<path class="st1" d="M160.3,2.6c-1.3,0.1-2.7-0.2-3.8-0.9c-0.9-0.5-1.8-1.1-2.7-1.7h2.1c0.5,0.3,1,0.6,1.6,0.8
				c1,0.3,2,0.4,2.9,0.6V2.6z"/>
			<path class="st1" d="M6.6,0C5.7,0.5,4.9,1.1,4.1,1.6c-1.2,0.7-2.6,1.1-4,1V1.4l0.8-0.1C2.2,1.2,3.4,0.7,4.5,0H6.6z"/>
		</g>
	</g>
</g>
</svg>
