<svg xmlns="http://www.w3.org/2000/svg" viewBox="0 0 414.28 153.69">
  <defs>
    <style>
      .cls-1 {
        fill: #fec500;
      }

      .cls-2 {
        fill: #fff;
      }

      .cls-3 {
        fill: none;
        stroke: #fff;
        stroke-miterlimit: 10;
        stroke-width: 0.6px;
      }
    </style>
  </defs>
  <g id="Capa_2" data-name="Capa 2">
    <g id="Capa_1-2" data-name="Capa 1">
      <g>
        <path class="cls-1" d="M41.63,37.18a13.33,13.33,0,0,1-.52,5.3,38.57,38.57,0,0,1-2.39,6.23A63,63,0,0,1,35,55.25q-2.13,3.3-4.42,6.19a65.5,65.5,0,0,1-4.51,5.17,25.28,25.28,0,0,1-4.06,3.46,4.16,4.16,0,0,1-.36,1.62,1.66,1.66,0,0,1-1.4,1.1,4.7,4.7,0,0,1-1.41-.12,4.37,4.37,0,0,1-1.76-.84A7,7,0,0,1,15.51,70a7.42,7.42,0,0,1-1-3,23.48,23.48,0,0,1,.16-6.24,74.26,74.26,0,0,1,1.51-7.69c.67-2.68,1.45-5.41,2.34-8.17s1.77-5.29,2.65-7.6a1.8,1.8,0,0,1,.32-.65,1.23,1.23,0,0,1,.84-.38,3.81,3.81,0,0,1,1.38.08,7.5,7.5,0,0,1,1.29.44,5.24,5.24,0,0,1,1,.6,2.12,2.12,0,0,1,.55.53,1,1,0,0,1,.12.66c0,.22-.07.41-.1.55-.6,2-1.24,4.16-1.91,6.46s-1.33,4.64-1.94,7-1.16,4.69-1.61,7-.8,4.34-1.06,6.21q1.41-1.72,3.24-4.19t3.74-5.36c1.27-1.94,2.49-4,3.68-6a64.16,64.16,0,0,0,3.08-6.15,39.58,39.58,0,0,0,2-5.78,13,13,0,0,0,.41-4.86,6.15,6.15,0,0,0-1.43-3.57c-.74-.75-1.94-1-3.6-.8a21.47,21.47,0,0,0-5.39,1.59,45.23,45.23,0,0,0-6,3.15A55.91,55.91,0,0,0,14,38a43.11,43.11,0,0,0-5,4.83,26.57,26.57,0,0,0-3.51,5,10,10,0,0,0-1.3,4.64,5,5,0,0,0,1.63,1.19,17.76,17.76,0,0,0,2.06.84,22.44,22.44,0,0,0,2.21.61l2.11.46c.52.16.57.39.16.72a5.61,5.61,0,0,1-2.5.73,8.5,8.5,0,0,1-2.2-.11,8.49,8.49,0,0,1-3-1.08,9.08,9.08,0,0,1-2.84-2.57A9.52,9.52,0,0,1,.07,48.74a9.92,9.92,0,0,1,.69-4.8,23.47,23.47,0,0,1,2.89-5.28,37.21,37.21,0,0,1,4.61-5.25,44.12,44.12,0,0,1,5.84-4.67,40.39,40.39,0,0,1,6.55-3.55,25.39,25.39,0,0,1,6.75-1.91,10.77,10.77,0,0,1,5.1.5,11.82,11.82,0,0,1,4.29,2.69,15,15,0,0,1,3.14,4.58A21.19,21.19,0,0,1,41.63,37.18Z"/>
        <path class="cls-1" d="M51.87,40.59a3.4,3.4,0,0,1,3,.91,5.19,5.19,0,0,1,1.45,3.13,19,19,0,0,1-.13,5,25.38,25.38,0,0,1-1.46,5.73,16.94,16.94,0,0,1-2.84,4.91,6.57,6.57,0,0,1-4.26,2.45,5.91,5.91,0,0,1-2.48-.18,6.1,6.1,0,0,1-2.2-1.11,6.46,6.46,0,0,1-1.66-1.93,6.93,6.93,0,0,1-.86-2.61,13.1,13.1,0,0,1,.06-3.63,19.74,19.74,0,0,1,.88-3.71,14.42,14.42,0,0,1,1.35-2.94c.51-.8,1-1.24,1.51-1.3a5.63,5.63,0,0,1,1.16,0,9.8,9.8,0,0,1,1.47.24,9.55,9.55,0,0,1,2-3.28A4.86,4.86,0,0,1,51.87,40.59Zm-4,18.13A3.38,3.38,0,0,0,50,57.33,14,14,0,0,0,52,54a19.88,19.88,0,0,0,1.35-4.55,15.85,15.85,0,0,0,.13-5A4.2,4.2,0,0,0,53,42.85a4,4,0,0,0-1.34,1.23,10.53,10.53,0,0,0-1.83,4,5.35,5.35,0,0,0-.13,1.86c.05.35,0,.58-.22.67a2.12,2.12,0,0,1-.62.18,1.83,1.83,0,0,1-1.59-.59,18.42,18.42,0,0,0-1,3.29,10.84,10.84,0,0,0-.13,3.64,1.93,1.93,0,0,0,.53,1.17A1.49,1.49,0,0,0,47.85,58.72Z"/>
        <path class="cls-1" d="M81.32,43.93a.66.66,0,0,1,.55.26,1.39,1.39,0,0,1,.24,1.05A17.24,17.24,0,0,1,81.55,49a27.26,27.26,0,0,1-1.49,4.47,18.7,18.7,0,0,1-2.14,3.77A3.82,3.82,0,0,1,75.59,59a5.24,5.24,0,0,1-1.93-.15,7.3,7.3,0,0,1-2-.87,6,6,0,0,1-1.68-1.62A5.46,5.46,0,0,1,69,53.89a19.15,19.15,0,0,1-.13-3.51,31.34,31.34,0,0,1,.41-3.65,44.52,44.52,0,0,0-3,5.68,46.73,46.73,0,0,0-2.34,6.32,3.87,3.87,0,0,1-.8,1.52,2.33,2.33,0,0,1-1.39.59,2.86,2.86,0,0,1-2.58-1.17,8,8,0,0,1-1.55-4.2,19.85,19.85,0,0,1,.11-5.35,40.88,40.88,0,0,1,1.2-5.67,30.88,30.88,0,0,1,1.65-4.58c.58-1.27,1.07-2,1.46-2.11a4.41,4.41,0,0,1,2.37-.21,3.18,3.18,0,0,1,1.44.58,2.16,2.16,0,0,1,.71.71,3.07,3.07,0,0,1,.17.78,3.7,3.7,0,0,1-.1,1.26,11.62,11.62,0,0,1-.47,1.61,10.74,10.74,0,0,1-.75,1.57,8.4,8.4,0,0,1-.92,1.3c-.35,1.16-.65,2.36-.9,3.58a31.36,31.36,0,0,0-.5,3.46q1.14-2.77,2.51-5.37a53.35,53.35,0,0,1,2.7-4.63,22.78,22.78,0,0,1,2.54-3.26,4.07,4.07,0,0,1,2-1.33,8,8,0,0,1,2.23,0,4.89,4.89,0,0,1,1.66.45c.63.28.78.84.43,1.69-.17.38-.43,1.1-.77,2.15s-.66,2.25-1,3.59a40.63,40.63,0,0,0-.71,4.19,16,16,0,0,0,0,4c.07.53.17.84.29.93a.68.68,0,0,0,.53.1c.22,0,.54-.3,1-.83a15.74,15.74,0,0,0,1.33-2.09A29.52,29.52,0,0,0,79.19,49a30.09,30.09,0,0,0,1.28-3.76C80.63,44.43,80.92,44,81.32,43.93Z"/>
        <path class="cls-1" d="M97.94,37.16a40.61,40.61,0,0,0-1.41,6.93,42.52,42.52,0,0,0-.16,6.51c0,1,.34,1.5.87,1.43a2.16,2.16,0,0,0,1.13-.83,11.83,11.83,0,0,0,1.36-2.06,28.34,28.34,0,0,0,1.44-3.08,34.34,34.34,0,0,0,1.28-3.79c.16-.83.44-1.27.85-1.33a.6.6,0,0,1,.58.3,1.48,1.48,0,0,1,.21,1,14.15,14.15,0,0,1-.53,3.77A32.07,32.07,0,0,1,102,50.51a19.69,19.69,0,0,1-2.1,3.81,3.79,3.79,0,0,1-2.36,1.76,5.25,5.25,0,0,1-2.75-.31,5.17,5.17,0,0,1-2-1.51A8,8,0,0,1,91.52,52a12.53,12.53,0,0,1-.65-2.6c-.32,1-.68,2-1.07,3S89,54.2,88.63,55a11.39,11.39,0,0,1-1.12,1.82,1.74,1.74,0,0,1-1,.78,5.13,5.13,0,0,1-1.82-.09,5.81,5.81,0,0,1-1.81-.74,5.47,5.47,0,0,1-1.52-1.41,5,5,0,0,1-.89-2.06,16.82,16.82,0,0,1-.3-5.84A25.45,25.45,0,0,1,81.37,42a16.07,16.07,0,0,1,2.06-4.11c.79-1.09,1.52-1.68,2.19-1.76a13.62,13.62,0,0,1,3.38,0,4.3,4.3,0,0,1,2.65,1.09,58,58,0,0,1,1.78-6.68c.71-2.15,1.45-4.1,2.2-5.83a31.72,31.72,0,0,1,2.2-4.32,6.42,6.42,0,0,1,1.83-2.16,4.43,4.43,0,0,1,1.65-.49,7.09,7.09,0,0,1,1.84,0,3,3,0,0,1,1.44.52,2.2,2.2,0,0,1,.91,1.18,3.07,3.07,0,0,1,0,1.38,21.42,21.42,0,0,1-1,3.13q-.83,2.09-1.9,4.52c-.72,1.61-1.49,3.22-2.3,4.8A34.37,34.37,0,0,1,97.94,37.16ZM86,52.65a10.43,10.43,0,0,0,1.3-2c.43-.87.86-1.85,1.28-3s.85-2.29,1.28-3.53.85-2.5,1.28-3.76c0-.09,0-.15,0-.17s0-.08,0-.17a2.32,2.32,0,0,0-.53-.7,1.16,1.16,0,0,0-1.09-.16q-.53.14-1.32,1.65a22.2,22.2,0,0,0-1.43,3.62,25.85,25.85,0,0,0-.93,4.35A10.39,10.39,0,0,0,86,52.65Z"/>
        <path class="cls-1" d="M118.43,38.94a.59.59,0,0,1,.58.29,1.7,1.7,0,0,1,.27,1,16.72,16.72,0,0,1-.56,3.77A20.34,20.34,0,0,1,117,48.52a15.68,15.68,0,0,1-2.77,3.9,6.36,6.36,0,0,1-3.78,1.94,6.56,6.56,0,0,1-5.36-1.5,8.58,8.58,0,0,1-2.77-5.68,13.73,13.73,0,0,1,.25-5.07,18.25,18.25,0,0,1,1.66-4.48,12.32,12.32,0,0,1,2.41-3.24A4.8,4.8,0,0,1,109.22,33a6.3,6.3,0,0,1,2.35.16,8.12,8.12,0,0,1,2.2.92,6.5,6.5,0,0,1,1.7,1.45,3.57,3.57,0,0,1,.82,1.77,5.82,5.82,0,0,1-.46,3,12.84,12.84,0,0,1-1.63,2.87,11.62,11.62,0,0,1-2.17,2.2,4.66,4.66,0,0,1-2.13,1,2.4,2.4,0,0,1-1.27-.1,1.63,1.63,0,0,1-.73-.57,11.11,11.11,0,0,0,.07,2.61c.29,2.2.78,3.25,1.45,3.16a5.4,5.4,0,0,0,2.78-1.21,10.89,10.89,0,0,0,2.26-2.55,18.72,18.72,0,0,0,1.79-3.49,37,37,0,0,0,1.33-4C117.83,39.42,118.11,39,118.43,38.94Zm-6.3-3.07A4.55,4.55,0,0,0,111,37,13.41,13.41,0,0,0,110,38.72a19.81,19.81,0,0,0-1,2.21,15.4,15.4,0,0,0-.71,2.44c-.19,1,0,1.41.66,1.33a2.33,2.33,0,0,0,1.25-.88,10.55,10.55,0,0,0,1.35-2,11.93,11.93,0,0,0,1-2.52,6.68,6.68,0,0,0,.21-2.55,1.63,1.63,0,0,0-.16-.41A1.44,1.44,0,0,0,112.13,35.87Z"/>
        <path class="cls-1" d="M133.7,32.41a41.32,41.32,0,0,0-1.4,7,49.76,49.76,0,0,0-.23,6.48c.05,1.06.36,1.56,1,1.48a2.08,2.08,0,0,0,1.12-.85,14.51,14.51,0,0,0,1.36-2.1,29.29,29.29,0,0,0,1.44-3,30.25,30.25,0,0,0,1.28-3.77c.17-.82.45-1.26.85-1.32a.67.67,0,0,1,.55.27,1.36,1.36,0,0,1,.24,1,16.8,16.8,0,0,1-.56,3.77,27.47,27.47,0,0,1-1.49,4.46,19.28,19.28,0,0,1-2.13,3.78,3.87,3.87,0,0,1-2.34,1.75,11.62,11.62,0,0,1-1.23,0,4.87,4.87,0,0,1-2.07-.64,6.5,6.5,0,0,1-2.1-1.94,8.26,8.26,0,0,1-1.34-3.91,28.1,28.1,0,0,1-.09-6.31,57.77,57.77,0,0,1,1-6.68,59.17,59.17,0,0,1,1.77-6.48c.71-2.09,1.43-4,2.16-5.63a36.17,36.17,0,0,1,2.15-4.18,7,7,0,0,1,1.74-2.11,4.16,4.16,0,0,1,1.58-.48,7,7,0,0,1,1.88,0,3.42,3.42,0,0,1,1.48.54,2.45,2.45,0,0,1,.94,1.19,2.64,2.64,0,0,1,0,1.37,24,24,0,0,1-1,3.09q-.82,2.13-1.93,4.56T136,28.51A42.49,42.49,0,0,1,133.7,32.41Z"/>
        <path class="cls-1" d="M160.17,33.39a.68.68,0,0,1,.56.3,1.38,1.38,0,0,1,.23,1,13.57,13.57,0,0,1-.52,3.76,30.59,30.59,0,0,1-1.53,4.5,19.17,19.17,0,0,1-2.09,3.81,3.78,3.78,0,0,1-2.37,1.76,5.39,5.39,0,0,1-1.89-.12,6.09,6.09,0,0,1-2-.88,6.5,6.5,0,0,1-1.69-1.62,5.2,5.2,0,0,1-.9-2.37A37.66,37.66,0,0,1,146,47.93q-1,1.84-1.8,2a5.13,5.13,0,0,1-1.82-.09,5.79,5.79,0,0,1-1.81-.73,5.47,5.47,0,0,1-1.52-1.41,5,5,0,0,1-.89-2.07,16.78,16.78,0,0,1-.3-5.83,25.55,25.55,0,0,1,1.23-5.44,16,16,0,0,1,2.06-4.1,3.77,3.77,0,0,1,2.19-1.77,12.69,12.69,0,0,1,3.95.11,5.25,5.25,0,0,1,1.61.56,1.9,1.9,0,0,1,.89,1,16.38,16.38,0,0,1,1-2c.32-.51.62-.78.89-.82a8,8,0,0,1,2.16.05,5,5,0,0,1,1.67.45c.68.31.84.85.48,1.61-.17.43-.42,1.16-.77,2.19s-.67,2.23-1,3.59a37.68,37.68,0,0,0-.74,4.23,16.47,16.47,0,0,0,0,4c.07.53.17.83.29.9a.76.76,0,0,0,.52.07c.23,0,.54-.3,1-.8a14,14,0,0,0,1.33-2.06,28.34,28.34,0,0,0,1.44-3.08,34.34,34.34,0,0,0,1.27-3.79C159.49,33.89,159.77,33.45,160.17,33.39ZM143.72,45A9.9,9.9,0,0,0,145,42.9c.43-.89.86-1.9,1.3-3s.89-2.35,1.33-3.64.88-2.57,1.31-3.83a3.88,3.88,0,0,0-.58-.73,1,1,0,0,0-1.12-.19q-.52.14-1.32,1.65a22.57,22.57,0,0,0-1.43,3.62,25.76,25.76,0,0,0-.93,4.36A10.34,10.34,0,0,0,143.72,45Z"/>
        <path class="cls-1" d="M202.6,27.83a.65.65,0,0,1,.55.26,1.38,1.38,0,0,1,.24,1,16.64,16.64,0,0,1-.56,3.77,27.26,27.26,0,0,1-1.49,4.47,19.48,19.48,0,0,1-2.13,3.77,3.87,3.87,0,0,1-2.34,1.76,5.48,5.48,0,0,1-1.93-.15,7.12,7.12,0,0,1-2-.87,5.94,5.94,0,0,1-1.69-1.63,5.37,5.37,0,0,1-.91-2.46,18.49,18.49,0,0,1-.09-3.52,36.38,36.38,0,0,1,.44-3.65,39.85,39.85,0,0,0-3.11,5.69,48.12,48.12,0,0,0-2.34,6.32,4,4,0,0,1-.79,1.52,2.21,2.21,0,0,1-1.33.57c-.63.09-1.34-.32-2.15-1.22a8,8,0,0,1-1.59-4.26,19.15,19.15,0,0,1-.12-3.51,31.17,31.17,0,0,1,.4-3.64,44.37,44.37,0,0,0-3,5.67,49.17,49.17,0,0,0-2.34,6.33,4,4,0,0,1-.79,1.51,2.3,2.3,0,0,1-1.4.59A2.86,2.86,0,0,1,169.48,45a8,8,0,0,1-1.55-4.19,19.91,19.91,0,0,1,.11-5.36,43.86,43.86,0,0,1,1.2-5.66,32.68,32.68,0,0,1,1.65-4.59c.58-1.26,1.07-2,1.46-2.11a4.53,4.53,0,0,1,2.37-.21,3.3,3.3,0,0,1,1.45.58,2.38,2.38,0,0,1,.71.71,4.31,4.31,0,0,1,.17.78,4,4,0,0,1-.11,1.26,11.23,11.23,0,0,1-.47,1.61,9.9,9.9,0,0,1-.75,1.58,7.66,7.66,0,0,1-.92,1.29c-.35,1.17-.65,2.36-.89,3.58a27.22,27.22,0,0,0-.5,3.46c.75-1.85,1.59-3.64,2.5-5.37s1.81-3.27,2.71-4.63a22,22,0,0,1,2.54-3.25,4,4,0,0,1,1.94-1.34,8.42,8.42,0,0,1,2.23,0,5,5,0,0,1,1.67.45c.63.28.77.84.43,1.69-.1.29-.27.74-.5,1.38a23.39,23.39,0,0,0-.7,2.24c-.23.86-.45,1.8-.69,2.81s-.41,2.05-.54,3.1q1.09-2.57,2.39-4.92A46.51,46.51,0,0,1,190,25.78a22.08,22.08,0,0,1,2.35-2.9,3.7,3.7,0,0,1,1.83-1.18,8,8,0,0,1,2.16.05,5,5,0,0,1,1.67.45c.68.31.82.88.43,1.69a21.22,21.22,0,0,0-.78,2.15c-.34,1.05-.66,2.25-1,3.59a40.18,40.18,0,0,0-.71,4.19,16.47,16.47,0,0,0,0,4c.07.53.17.84.29.93a.69.69,0,0,0,.53.1c.23,0,.54-.3.95-.83A15.74,15.74,0,0,0,199,36a29.52,29.52,0,0,0,1.44-3.05,28.55,28.55,0,0,0,1.28-3.76C201.92,28.32,202.2,27.88,202.6,27.83Z"/>
        <path class="cls-1" d="M223.71,25a.67.67,0,0,1,.55.3,1.31,1.31,0,0,1,.23,1A13.59,13.59,0,0,1,224,30a30.59,30.59,0,0,1-1.53,4.5,19.45,19.45,0,0,1-2.09,3.81A3.72,3.72,0,0,1,218,40.09a5.16,5.16,0,0,1-1.89-.12,5.86,5.86,0,0,1-2-.87,6.66,6.66,0,0,1-1.69-1.62,5.17,5.17,0,0,1-.89-2.37,38.34,38.34,0,0,1-1.95,4.39q-1,1.84-1.8,2a5.13,5.13,0,0,1-1.82-.09,6.06,6.06,0,0,1-1.81-.74,5.47,5.47,0,0,1-1.52-1.41,5,5,0,0,1-.89-2.06,17.07,17.07,0,0,1-.3-5.84,25.69,25.69,0,0,1,1.23-5.44,16.16,16.16,0,0,1,2.06-4.1A3.77,3.77,0,0,1,206.9,20a12.7,12.7,0,0,1,2-.09,12.51,12.51,0,0,1,2,.21,5,5,0,0,1,1.61.56,1.84,1.84,0,0,1,.89,1,14.91,14.91,0,0,1,1-2c.32-.51.61-.79.88-.82a7.57,7.57,0,0,1,2.16.05,4.59,4.59,0,0,1,1.67.45c.68.31.84.85.49,1.61-.18.43-.43,1.16-.77,2.18s-.68,2.23-1,3.6a37.5,37.5,0,0,0-.74,4.22,16.55,16.55,0,0,0,0,4c.07.52.17.83.29.9a.83.83,0,0,0,.52.06c.23,0,.55-.29,1-.8a13.82,13.82,0,0,0,1.33-2.05,29.26,29.26,0,0,0,1.44-3.08,33.82,33.82,0,0,0,1.28-3.8C223,25.45,223.3,25,223.71,25ZM207.25,36.55a10,10,0,0,0,1.3-2.09c.43-.89.86-1.89,1.31-3s.88-2.34,1.33-3.63.88-2.57,1.3-3.83a3.61,3.61,0,0,0-.58-.74,1,1,0,0,0-1.11-.18c-.36.09-.8.64-1.33,1.65A22.43,22.43,0,0,0,208,28.31a26.18,26.18,0,0,0-.93,4.36A10.4,10.4,0,0,0,207.25,36.55Z"/>
        <path class="cls-1" d="M239.16,21.83a9.49,9.49,0,0,1,.72,2.59c.16,1.06.31,2.09.45,3.1a21.3,21.3,0,0,1,.08,3.69,28.56,28.56,0,0,1-.7,4.79A32.87,32.87,0,0,1,238,41.19a21.44,21.44,0,0,1-2.81,4.87,16.25,16.25,0,0,1-4.18,3.82,14,14,0,0,1-5.75,2,8.41,8.41,0,0,1-2.61,0,8.51,8.51,0,0,1-2.14-.66,4.68,4.68,0,0,1-1.5-1,2.13,2.13,0,0,1-.64-1.19,1.45,1.45,0,0,1,.12-.66,2.85,2.85,0,0,1,.41-.72,4.39,4.39,0,0,1,.54-.58,1,1,0,0,1,.48-.26.48.48,0,0,1,.51.23.91.91,0,0,1,.09.7,2.16,2.16,0,0,0,.63,1.66l.27,0a10.56,10.56,0,0,0,4.94-2,16.66,16.66,0,0,0,3.82-3.94,22.58,22.58,0,0,0,2.71-5.16,39.18,39.18,0,0,0,1.64-5.62,35.53,35.53,0,0,0,.73-5.37,20.28,20.28,0,0,0-.17-4.35,43.32,43.32,0,0,1-1,4.51c-.5,1.77-1.05,3.47-1.65,5.12a28.18,28.18,0,0,1-1.9,4.25c-.66,1.19-1.26,1.81-1.8,1.88a5,5,0,0,1-1.79-.09,6.23,6.23,0,0,1-1.78-.74,5.61,5.61,0,0,1-1.52-1.41,5,5,0,0,1-.89-2.06,17.87,17.87,0,0,1-.33-5.84,24.44,24.44,0,0,1,1.2-5.43,16.16,16.16,0,0,1,2.05-4.1,3.82,3.82,0,0,1,2.26-1.78,13.28,13.28,0,0,1,2-.1,10.12,10.12,0,0,1,2.05.23,4.72,4.72,0,0,1,1.63.66,1.6,1.6,0,0,1,.77,1.17.68.68,0,0,1,.56-.41,2,2,0,0,1,1,.23,8.86,8.86,0,0,1,1.27.74,8.07,8.07,0,0,1,1.16,1A3.68,3.68,0,0,1,239.16,21.83ZM228.29,33.75a9.51,9.51,0,0,0,1.3-2.08c.43-.89.87-1.9,1.31-3s.88-2.35,1.33-3.64.88-2.57,1.3-3.83a4.21,4.21,0,0,0-.57-.73,1,1,0,0,0-1.12-.19c-.4.1-.86.65-1.39,1.67a19,19,0,0,0-1.4,3.61,27.48,27.48,0,0,0-.9,4.35A10.55,10.55,0,0,0,228.29,33.75Z"/>
        <path class="cls-1" d="M253.82,21a.68.68,0,0,1,.56.3,1.38,1.38,0,0,1,.23,1,16.8,16.8,0,0,1-.56,3.77,27.48,27.48,0,0,1-1.49,4.49,18.5,18.5,0,0,1-2.12,3.81,3.83,3.83,0,0,1-2.34,1.75,5.23,5.23,0,0,1-1.93-.14,7.12,7.12,0,0,1-2-.87,5.8,5.8,0,0,1-1.69-1.66,5.49,5.49,0,0,1-.91-2.43,21.26,21.26,0,0,1,0-5.17,35.17,35.17,0,0,1,1-5.2,23.37,23.37,0,0,1,1.42-4c.52-1.07,1-1.64,1.38-1.69a8.22,8.22,0,0,1,2.2,0,4.89,4.89,0,0,1,1.7.45q.94.48.42,1.62c-.17.43-.43,1.16-.77,2.19s-.68,2.22-1,3.59A39.9,39.9,0,0,0,247.1,27a16.55,16.55,0,0,0,0,4c.07.52.18.83.33.89A1,1,0,0,0,248,32c.23,0,.54-.3,1-.8a14,14,0,0,0,1.33-2.06,29.26,29.26,0,0,0,1.44-3.08,31.92,31.92,0,0,0,1.27-3.8C253.14,21.45,253.42,21,253.82,21Zm-6-15.52a3.62,3.62,0,0,1,2.31-1.11,5.15,5.15,0,0,1,1.3,0,3.15,3.15,0,0,1,1.11.36,1.69,1.69,0,0,1,.71.74,1.64,1.64,0,0,1,.06,1.17A8.1,8.1,0,0,1,252.68,8a17.37,17.37,0,0,1-1.1,1.76,13.34,13.34,0,0,1-1.33,1.58,2.89,2.89,0,0,1-1.29.85,1.21,1.21,0,0,1-.8-.07,1.69,1.69,0,0,1-.79-.6,2.09,2.09,0,0,1-.51-1.24,8.36,8.36,0,0,1,0-1.74,8.44,8.44,0,0,1,.35-1.76A4.08,4.08,0,0,1,247.8,5.44Z"/>
        <path class="cls-1" d="M274.87,18.17c.18,0,.36.07.55.29a1.38,1.38,0,0,1,.24,1,13.7,13.7,0,0,1-.53,3.77,31.76,31.76,0,0,1-1.52,4.5,19.59,19.59,0,0,1-2.1,3.8,3.75,3.75,0,0,1-2.36,1.76,5.2,5.2,0,0,1-1.9-.12,6.15,6.15,0,0,1-2-.87,6.53,6.53,0,0,1-1.69-1.63,5.09,5.09,0,0,1-.89-2.36,37.4,37.4,0,0,1-1.95,4.39c-.66,1.23-1.26,1.88-1.79,1.95a5.45,5.45,0,0,1-1.83-.1,5.89,5.89,0,0,1-1.81-.73,5.47,5.47,0,0,1-1.52-1.41,5,5,0,0,1-.89-2.06,17.08,17.08,0,0,1-.29-5.84,25.09,25.09,0,0,1,1.22-5.44,16.16,16.16,0,0,1,2.06-4.1,3.77,3.77,0,0,1,2.19-1.77,12.77,12.77,0,0,1,2-.09,13.83,13.83,0,0,1,2,.2,5.41,5.41,0,0,1,1.62.56,1.87,1.87,0,0,1,.88,1,14.91,14.91,0,0,1,1-2c.32-.51.61-.79.88-.82a7.92,7.92,0,0,1,2.16,0,5,5,0,0,1,1.67.45c.68.32.84.86.49,1.62-.17.42-.43,1.15-.77,2.18s-.68,2.23-1,3.59a40.55,40.55,0,0,0-.74,4.23,16.47,16.47,0,0,0,0,4c.07.53.17.83.29.91a.87.87,0,0,0,.53.06c.22,0,.54-.29,1-.8a13.22,13.22,0,0,0,1.33-2.06,28.12,28.12,0,0,0,1.44-3.07,34.52,34.52,0,0,0,1.28-3.8C274.18,18.66,274.46,18.22,274.87,18.17ZM258.41,29.75a9.27,9.27,0,0,0,1.3-2.08c.43-.89.87-1.9,1.31-3s.88-2.35,1.33-3.63.88-2.57,1.3-3.84a4.21,4.21,0,0,0-.57-.73,1,1,0,0,0-1.12-.19c-.36.1-.8.65-1.32,1.66a21.17,21.17,0,0,0-1.44,3.61,26,26,0,0,0-.93,4.36A10.55,10.55,0,0,0,258.41,29.75Z"/>
      </g>
      <path class="cls-2" d="M20.56,105.93q-4.71.63-5.25-3.41L12.23,79.28q-.54-4,4.18-4.66l11.42-1.51q3.66-.49,4.16,3.2t-3.18,4.17l-6.71.89.59,4.5,5.76-.76c2.45-.33,3.83.75,4.16,3.22s-.73,3.87-3.17,4.2l-5.76.76.62,4.64L31,97c2.44-.32,3.83.74,4.15,3.2s-.73,3.85-3.17,4.18Z"/>
      <path class="cls-2" d="M50.89,102a28.5,28.5,0,0,1-9.08-.23c-3-.57-4.66-2.06-5-4.49s.64-3.79,2.9-4.09a25.6,25.6,0,0,1,4.14.75,18.25,18.25,0,0,0,6.18.48c1.69-.23,2.44-1,2.26-2.43-.12-.91-.81-1.59-2-2a31.29,31.29,0,0,0-5.1-1.27,21.18,21.18,0,0,1-4.09-1,7.71,7.71,0,0,1-4.53-6.35,9.49,9.49,0,0,1,2.06-7.67A10,10,0,0,1,45.22,70a25.4,25.4,0,0,1,7.11-.07q5.81,1,5.16,4.47c-.42,2.33-1.61,3.54-3.55,3.64a22.19,22.19,0,0,1-3-.57,13.77,13.77,0,0,0-4.73-.34,1.76,1.76,0,0,0-1.76,2.19c.11.82.77,1.45,2,1.9a36,36,0,0,0,5,1.31,20.92,20.92,0,0,1,4.14,1.09,8.08,8.08,0,0,1,4.62,6.69,9.67,9.67,0,0,1-2.14,8A11.09,11.09,0,0,1,50.89,102Z"/>
      <path class="cls-2" d="M78.1,73.94l2.65,19.94c.36,2.69-1,4.25-4.18,4.66s-4.89-.72-5.24-3.41L68.68,75.19l-4.76.63q-3.81.51-4.3-3.18t3.32-4.19l19-2.53q3.81-.49,4.3,3.19T82.91,73.3Z"/>
      <path class="cls-2" d="M120.22,85.35,107.59,65.73c-1.28-2-2.9-2.83-4.93-2.56s-3.37,1.51-4.09,3.76l-7,22.22a6.25,6.25,0,0,0-.24,2.67,5.26,5.26,0,0,0,1.59,2.81,4.57,4.57,0,0,0,4.19,1.13c1.86-.24,3-1.46,3.58-3.69l.59-2.47,9.7-1.28,1.22,2.23c1.1,2,2.58,2.87,4.46,2.62s3.15-1,3.76-2.17a5.32,5.32,0,0,0,.77-3.12A6,6,0,0,0,120.22,85.35ZM103.08,81.8l1.33-5.69,2.76,5.15Z"/>
      <path class="cls-2" d="M105.12,48.76a4.78,4.78,0,0,0-2.73,2.79,38.75,38.75,0,0,0-1.63,4.56c-.46,1.62-.08,2.78,1.16,3.48a3.35,3.35,0,0,0,3.91-.49,25.75,25.75,0,0,0,3.63-3.29,4,4,0,0,0,1.13-3.74,4.45,4.45,0,0,0-2-3A3.79,3.79,0,0,0,105.12,48.76Z"/>
      <path class="cls-1" d="M391.67,1.39a6.41,6.41,0,0,0-2,4.82,25.86,25.86,0,0,0,.29,6.43,36.56,36.56,0,0,0,2.37,7.9,55.47,55.47,0,0,0,5.37-6.77,35.76,35.76,0,0,0,2.82-5.87,5.39,5.39,0,0,0-.48-5.17,5.94,5.94,0,0,0-4-2.65A5,5,0,0,0,391.67,1.39Z"/>
      <path class="cls-2" d="M410.46,11.89a6.33,6.33,0,0,0-5.14.82A26,26,0,0,0,400,16.29a36.66,36.66,0,0,0-5.53,6.13A55.37,55.37,0,0,0,403,23.49a34.39,34.39,0,0,0,6.47-.63,5.42,5.42,0,0,0,4.18-3.1,5.93,5.93,0,0,0,.17-4.82A5,5,0,0,0,410.46,11.89Z"/>
      <path class="cls-2" d="M140.69,90q-4.71.63-5.25-3.41l-3.08-23.23c-.36-2.69,1-4.25,4.17-4.66L148,57.16c2.44-.33,3.83.74,4.15,3.2s-.73,3.85-3.17,4.17l-6.71.89.59,4.5,5.76-.76c2.45-.33,3.83.75,4.16,3.22s-.73,3.88-3.17,4.2l-5.76.76.61,4.64,6.72-.89c2.44-.32,3.83.74,4.15,3.2s-.73,3.85-3.17,4.18Z"/>
      <path class="cls-2" d="M175.28,67.74,174,57.81q-.53-4,4.18-4.66t5.25,3.41l3.08,23.24q.54,4-4.17,4.66a5.25,5.25,0,0,1-4.38-1.21L165.73,72.41l1.32,10q.54,4-4.18,4.66t-5.24-3.41l-3.09-23.24c-.35-2.67,1-4.23,4.18-4.66a4.84,4.84,0,0,1,4.58,1.33Z"/>
      <path class="cls-2" d="M205.91,81.33c-3.14.41-4.89-.72-5.25-3.41l-3.09-23.24c-.35-2.69,1-4.25,4.18-4.66l11.43-1.52c2.44-.32,3.83.74,4.15,3.2s-.73,3.85-3.17,4.18l-6.72.89.6,4.5,5.76-.77q3.66-.48,4.16,3.22t-3.17,4.2l-5.76.77.61,4.63,6.71-.89c2.45-.32,3.83.75,4.16,3.2s-.73,3.85-3.18,4.18Z"/>
      <path class="cls-2" d="M240.18,76.78l-12.09,1.6q-4.71.63-5.25-3.41l-3.08-23.24q-.54-4,4.18-4.66c3.14-.41,4.89.72,5.24,3.41l2.65,19.9,7.37-1q3-.39,3.44,3.3T240.18,76.78Z"/>
      <path class="cls-2" d="M265.36,62.81l.85,6.4c.36,2.69-1,4.25-4.18,4.66s-4.89-.72-5.25-3.41l-3.07-23.14c-.36-2.69,1-4.24,4.18-4.66l10.66-1.42a8.58,8.58,0,0,1,7.06,2.17,10.28,10.28,0,0,1,3.53,6.92,11.06,11.06,0,0,1-2,7.73,9.64,9.64,0,0,1-7,4.11Zm-1.93-14.56.95,7.14,2.71-.36c2.66-.35,3.84-1.72,3.52-4.1s-1.8-3.4-4.47-3Z"/>
      <path class="cls-2" d="M315.49,50.54a15.41,15.41,0,0,1-3.27,12.39,19,19,0,0,1-24.42,3.24,15.47,15.47,0,0,1-6.34-11.11,15.59,15.59,0,0,1,3.19-12.4,17.26,17.26,0,0,1,11.67-6.14q7.51-1,12.86,2.88A15.61,15.61,0,0,1,315.49,50.54Zm-12.05-4.32a7.5,7.5,0,0,0-6-1.54A7.58,7.58,0,0,0,292,47.75a8.24,8.24,0,0,0-1.39,6.11,8.15,8.15,0,0,0,2.93,5.5,7.66,7.66,0,0,0,6,1.51A7.55,7.55,0,0,0,305,57.81a8.21,8.21,0,0,0,1.38-6.08A8.24,8.24,0,0,0,303.44,46.22Z"/>
      <path class="cls-2" d="M336.44,64l-12.09,1.6q-4.71.63-5.25-3.41L316,39q-.52-4,4.18-4.66c3.14-.41,4.89.72,5.25,3.41l2.64,19.9,7.38-1c2-.26,3.11.84,3.44,3.3S338.41,63.74,336.44,64Z"/>
      <path class="cls-2" d="M358.57,61.06l-12.09,1.6q-4.71.63-5.25-3.41L338.15,36q-.54-4,4.18-4.67c3.14-.41,4.89.72,5.24,3.41l2.65,19.9,7.38-1q2.94-.39,3.44,3.3T358.57,61.06Z"/>
      <path class="cls-2" d="M395.47,39.92a15.45,15.45,0,0,1-3.27,12.39,17.43,17.43,0,0,1-11.64,6.11,17.24,17.24,0,0,1-12.79-2.87,15.5,15.5,0,0,1-6.34-11.11,15.6,15.6,0,0,1,3.2-12.4q4.15-5.14,11.67-6.14t12.86,2.88A15.68,15.68,0,0,1,395.47,39.92ZM383.41,35.6A8.33,8.33,0,0,0,372,37.13a8.25,8.25,0,0,0-1.4,6.11,8.1,8.1,0,0,0,2.94,5.5,8.38,8.38,0,0,0,11.43-1.54,8.23,8.23,0,0,0,1.38-6.09A8.24,8.24,0,0,0,383.41,35.6Z"/>
      <circle class="cls-2" cx="34.61" cy="140.58" r="7.36"/>
      <g>
        <path class="cls-2" d="M54.33,137.33a2.68,2.68,0,0,1-1,1.21,4.25,4.25,0,0,1-1.87.66l-1.57.2.48,3.61-1.89.25-1.24-9.39,3.46-.46a4,4,0,0,1,1.9.13,2.62,2.62,0,0,1,1.29.88,2.88,2.88,0,0,1,.58,1.44A3.06,3.06,0,0,1,54.33,137.33Zm-2-.16a1.35,1.35,0,0,0,.25-1c-.13-.91-.7-1.3-1.72-1.17l-1.49.2.36,2.73,1.49-.19A1.62,1.62,0,0,0,52.31,137.17Z"/>
        <path class="cls-2" d="M55.67,133.5a1,1,0,0,1-.44-.75,1,1,0,0,1,.23-.83,1.12,1.12,0,0,1,.78-.42,1.14,1.14,0,0,1,.87.2,1.11,1.11,0,0,1,.21,1.58,1.26,1.26,0,0,1-1.65.22Zm1.91,1,1,7.46-1.88.25-1-7.46Z"/>
        <path class="cls-2" d="M59.63,135.92a3.26,3.26,0,0,1,2.73-2.21,3.31,3.31,0,0,1,1.43.13,2.91,2.91,0,0,1,1.16.71L64.48,131l1.91-.26,1.32,10L65.8,141l-.15-1.11a2.54,2.54,0,0,1-.86,1,3.07,3.07,0,0,1-1.42.53,3.21,3.21,0,0,1-1.79-.25A3.41,3.41,0,0,1,60.17,140a4.35,4.35,0,0,1-.72-2A4.42,4.42,0,0,1,59.63,135.92Zm5.26.17a1.9,1.9,0,0,0-.82-.65,2,2,0,0,0-1-.14,2,2,0,0,0-.94.39,2,2,0,0,0-.62.84,2.35,2.35,0,0,0-.12,1.2,2.52,2.52,0,0,0,.43,1.14,2,2,0,0,0,.83.68,1.83,1.83,0,0,0,1,.14,2,2,0,0,0,.95-.39,2,2,0,0,0,.63-.85,2.51,2.51,0,0,0,.11-1.21A2.41,2.41,0,0,0,64.89,136.09Z"/>
        <path class="cls-2" d="M76,136.39l-5.45.72a1.84,1.84,0,0,0,.74,1.19,1.73,1.73,0,0,0,1.28.3A1.56,1.56,0,0,0,74,137.5l2-.27a3.4,3.4,0,0,1-1,1.93,3.58,3.58,0,0,1-2.15,1,3.93,3.93,0,0,1-2-.23,3.39,3.39,0,0,1-1.51-1.17,4.21,4.21,0,0,1-.74-2,4.11,4.11,0,0,1,.2-2.09,3.21,3.21,0,0,1,1.14-1.52,4.29,4.29,0,0,1,3.85-.53,3.24,3.24,0,0,1,1.48,1.13,4,4,0,0,1,.72,1.87A3.77,3.77,0,0,1,76,136.39Zm-2.06-1a1.53,1.53,0,0,0-.68-1.1A1.94,1.94,0,0,0,72,134a1.72,1.72,0,0,0-1.12.58,1.89,1.89,0,0,0-.43,1.26Z"/>
        <path class="cls-2" d="M80.27,133.18A3.24,3.24,0,0,1,83,131a3.07,3.07,0,0,1,1.5.15,3,3,0,0,1,1.12.71l-.14-1.06,1.9-.25,1,7.45-1.9.25-.15-1.09a2.8,2.8,0,0,1-.88,1,3.39,3.39,0,0,1-3.21.28,3.47,3.47,0,0,1-1.41-1.21,4.35,4.35,0,0,1-.72-2A4.29,4.29,0,0,1,80.27,133.18Zm5.26.17a1.93,1.93,0,0,0-.83-.65,1.88,1.88,0,0,0-1-.13,1.83,1.83,0,0,0-.93.38,1.89,1.89,0,0,0-.62.84A2.35,2.35,0,0,0,82,135a2.31,2.31,0,0,0,.43,1.14,1.93,1.93,0,0,0,.83.68,1.78,1.78,0,0,0,1,.14,1.86,1.86,0,0,0,.95-.39,2,2,0,0,0,.63-.85A2.4,2.4,0,0,0,86,134.5,2.51,2.51,0,0,0,85.53,133.35Z"/>
        <path class="cls-2" d="M92.59,131.55A3.32,3.32,0,0,1,93.65,130a3.21,3.21,0,0,1,1.67-.7,3,3,0,0,1,1.43.13,2.72,2.72,0,0,1,1.16.7l-.47-3.54,1.91-.25,1.32,10-1.91.25-.14-1.1a2.62,2.62,0,0,1-.87,1,3.15,3.15,0,0,1-1.42.54,3.32,3.32,0,0,1-1.79-.26,3.37,3.37,0,0,1-1.41-1.2,4.43,4.43,0,0,1-.72-2A4.37,4.37,0,0,1,92.59,131.55Zm5.27.17a1.88,1.88,0,0,0-.83-.66,2,2,0,0,0-1-.13,1.83,1.83,0,0,0-.93.38,1.87,1.87,0,0,0-.62.85,2.35,2.35,0,0,0-.13,1.2,2.46,2.46,0,0,0,.44,1.14,1.85,1.85,0,0,0,.83.67,1.88,1.88,0,0,0,1,.15,2,2,0,0,0,1-.4,1.94,1.94,0,0,0,.63-.85,2.5,2.5,0,0,0,.11-1.21A2.43,2.43,0,0,0,97.86,131.72Z"/>
        <path class="cls-2" d="M103.84,135.55a3.5,3.5,0,0,1-1.53-1.17,4.13,4.13,0,0,1-.76-1.95,4,4,0,0,1,.24-2.09,3.58,3.58,0,0,1,1.2-1.54,4,4,0,0,1,1.89-.73,3.86,3.86,0,0,1,2,.22,3.53,3.53,0,0,1,1.56,1.16,3.94,3.94,0,0,1,.77,2,3.78,3.78,0,0,1-.25,2.08,3.49,3.49,0,0,1-1.22,1.54,4.27,4.27,0,0,1-3.91.52Zm2.72-1.8a1.79,1.79,0,0,0,.62-.84,2.64,2.64,0,0,0,.11-1.25,2.32,2.32,0,0,0-.78-1.56,1.86,1.86,0,0,0-1.44-.39,1.8,1.8,0,0,0-1.28.75,2.34,2.34,0,0,0-.33,1.71,2.41,2.41,0,0,0,.75,1.57,1.8,1.8,0,0,0,1.42.39A1.9,1.9,0,0,0,106.56,133.75Z"/>
        <path class="cls-2" d="M121.69,126.7a3.23,3.23,0,0,1,1.15,2.24l.58,4.38-1.88.25-.55-4.12a1.86,1.86,0,0,0-.62-1.28,1.82,1.82,0,0,0-2.43.32,1.85,1.85,0,0,0-.27,1.4l.54,4.12-1.88.25-.55-4.12a1.88,1.88,0,0,0-.62-1.28,1.87,1.87,0,0,0-2.44.32,1.9,1.9,0,0,0-.28,1.4l.55,4.12-1.88.25-1-7.46,1.88-.25.12.91a2.49,2.49,0,0,1,.84-.87,3,3,0,0,1,1.22-.44,3.31,3.31,0,0,1,1.61.17,2.58,2.58,0,0,1,1.2.91,2.81,2.81,0,0,1,.92-1.17,3.28,3.28,0,0,1,3.78,0Z"/>
        <path class="cls-2" d="M124.19,124.4a1,1,0,0,1-.43-.74,1,1,0,0,1,.22-.83,1.25,1.25,0,0,1,1.66-.22,1,1,0,0,1,.43.74,1,1,0,0,1-.23.83,1.17,1.17,0,0,1-.78.43A1.19,1.19,0,0,1,124.19,124.4Zm1.92,1,1,7.46-1.89.25-1-7.46Z"/>
        <path class="cls-2" d="M128.18,126.83a3.35,3.35,0,0,1,1.12-1.52,3.8,3.8,0,0,1,1.85-.73,3.69,3.69,0,0,1,2.39.39,3.37,3.37,0,0,1,1.47,1.78l-2,.27a1.48,1.48,0,0,0-.64-.69,1.61,1.61,0,0,0-1-.15,1.57,1.57,0,0,0-1.2.76,3.17,3.17,0,0,0,.44,3.31,1.54,1.54,0,0,0,1.36.41,1.42,1.42,0,0,0,1.35-1.22l2-.27a3.52,3.52,0,0,1-1,2.09,3.63,3.63,0,0,1-2.2,1,3.79,3.79,0,0,1-2-.23,3.34,3.34,0,0,1-1.49-1.17,4.32,4.32,0,0,1-.74-2A4.22,4.22,0,0,1,128.18,126.83Z"/>
        <path class="cls-2" d="M136,122.83a1.13,1.13,0,0,1-.21-1.58,1.17,1.17,0,0,1,.79-.42,1.14,1.14,0,0,1,.87.2,1.13,1.13,0,0,1,.21,1.58,1.13,1.13,0,0,1-.79.42A1.14,1.14,0,0,1,136,122.83Zm1.92,1,1,7.46-1.88.25-1-7.46Z"/>
        <path class="cls-2" d="M141.36,120.8l1.32,10-1.88.25-1.32-10Z"/>
        <path class="cls-2" d="M143.52,121.83a1.1,1.1,0,0,1-.21-1.57A1.23,1.23,0,0,1,145,120a1,1,0,0,1,.44.74,1,1,0,0,1-.23.83,1.13,1.13,0,0,1-.78.43A1.15,1.15,0,0,1,143.52,121.83Zm1.91,1,1,7.45-1.88.25-1-7.45Z"/>
        <path class="cls-2" d="M149.61,129.48a3.49,3.49,0,0,1-1.53-1.18,4,4,0,0,1-.76-2,3.93,3.93,0,0,1,.23-2.09,3.55,3.55,0,0,1,1.2-1.53,4,4,0,0,1,1.89-.74,4.14,4.14,0,0,1,2,.22,3.59,3.59,0,0,1,1.56,1.17,4,4,0,0,1,.77,2,3.93,3.93,0,0,1-.25,2.09,3.7,3.7,0,0,1-1.22,1.54,4.23,4.23,0,0,1-1.91.74A4,4,0,0,1,149.61,129.48Zm2.71-1.8a1.82,1.82,0,0,0,.62-.84,2.54,2.54,0,0,0,.11-1.25,2.22,2.22,0,0,0-.78-1.56,1.82,1.82,0,0,0-1.44-.39,1.78,1.78,0,0,0-1.27.75,2.25,2.25,0,0,0-.33,1.71,2.27,2.27,0,0,0,.75,1.56,1.74,1.74,0,0,0,1.41.4A2.11,2.11,0,0,0,152.32,127.68Z"/>
      </g>
      <rect class="cls-3" x="20.17" y="119.69" width="146.25" height="25.77" rx="12.88" transform="translate(-16.64 13.43) rotate(-7.56)"/>
    </g>
  </g>
</svg>
